<?xml version="1.0" encoding="UTF-8" standalone="no"?>
<!DOCTYPE svg PUBLIC "-//W3C//DTD SVG 1.1//EN"
 "http://www.w3.org/Graphics/SVG/1.1/DTD/svg11.dtd">
<!-- Generated by graphviz version 2.40.1 (20161225.0304)
 -->
<!-- Title: g Pages: 1 -->
<svg width="590pt" height="260pt"
 viewBox="0.00 0.00 590.23 260.00" xmlns="http://www.w3.org/2000/svg" xmlns:xlink="http://www.w3.org/1999/xlink">
<g id="graph0" class="graph" transform="scale(1 1) rotate(0) translate(4 256)">
<title>g</title>
<polygon fill="#ffffff" stroke="transparent" points="-4,4 -4,-256 586.2336,-256 586.2336,4 -4,4"/>
<!-- Do Experiments -->
<g id="node1" class="node">
<title>Do Experiments</title>
<ellipse fill="none" stroke="#000000" cx="423.3933" cy="-234" rx="68.7879" ry="18"/>
<text text-anchor="middle" x="423.3933" y="-230.3" font-family="Times,serif" font-size="14.00" fill="#000000">Do Experiments</text>
</g>
<!-- Subject Knowledge -->
<g id="node2" class="node">
<title>Subject Knowledge</title>
<ellipse fill="none" stroke="#000000" cx="252.3933" cy="-162" rx="79.8859" ry="18"/>
<text text-anchor="middle" x="252.3933" y="-158.3" font-family="Times,serif" font-size="14.00" fill="#000000">Subject Knowledge</text>
</g>
<!-- Do Experiments&#45;&gt;Subject Knowledge -->
<g id="edge1" class="edge">
<title>Do Experiments&#45;&gt;Subject Knowledge</title>
<path fill="none" stroke="#000000" d="M386.7095,-218.5542C361.2518,-207.8351 327.1106,-193.4599 299.6206,-181.8852"/>
<polygon fill="#000000" stroke="#000000" points="300.7741,-178.5733 290.1996,-177.9184 298.0577,-185.0248 300.7741,-178.5733"/>
</g>
<!-- Reflect -->
<g id="node5" class="node">
<title>Reflect</title>
<ellipse fill="none" stroke="#000000" cx="423.3933" cy="-162" rx="36.2938" ry="18"/>
<text text-anchor="middle" x="423.3933" y="-158.3" font-family="Times,serif" font-size="14.00" fill="#000000">Reflect</text>
</g>
<!-- Do Experiments&#45;&gt;Reflect -->
<g id="edge4" class="edge">
<title>Do Experiments&#45;&gt;Reflect</title>
<path fill="none" stroke="#000000" d="M423.3933,-215.8314C423.3933,-208.131 423.3933,-198.9743 423.3933,-190.4166"/>
<polygon fill="#000000" stroke="#000000" points="426.8934,-190.4132 423.3933,-180.4133 419.8934,-190.4133 426.8934,-190.4132"/>
</g>
<!-- Proof of Concepts -->
<g id="node3" class="node">
<title>Proof of Concepts</title>
<ellipse fill="none" stroke="#000000" cx="75.3933" cy="-90" rx="75.2868" ry="18"/>
<text text-anchor="middle" x="75.3933" y="-86.3" font-family="Times,serif" font-size="14.00" fill="#000000">Proof of Concepts</text>
</g>
<!-- Subject Knowledge&#45;&gt;Proof of Concepts -->
<g id="edge2" class="edge">
<title>Subject Knowledge&#45;&gt;Proof of Concepts</title>
<path fill="none" stroke="#000000" d="M213.5499,-146.1993C186.9443,-135.3767 151.4861,-120.953 123.1536,-109.4279"/>
<polygon fill="#000000" stroke="#000000" points="124.4232,-106.1659 113.8414,-105.6399 121.7856,-112.65 124.4232,-106.1659"/>
</g>
<!-- Rejected hypotheses -->
<g id="node4" class="node">
<title>Rejected hypotheses</title>
<ellipse fill="none" stroke="#000000" cx="252.3933" cy="-90" rx="83.3857" ry="18"/>
<text text-anchor="middle" x="252.3933" y="-86.3" font-family="Times,serif" font-size="14.00" fill="#000000">Rejected hypotheses</text>
</g>
<!-- Subject Knowledge&#45;&gt;Rejected hypotheses -->
<g id="edge3" class="edge">
<title>Subject Knowledge&#45;&gt;Rejected hypotheses</title>
<path fill="none" stroke="#000000" d="M252.3933,-143.8314C252.3933,-136.131 252.3933,-126.9743 252.3933,-118.4166"/>
<polygon fill="#000000" stroke="#000000" points="255.8934,-118.4132 252.3933,-108.4133 248.8934,-118.4133 255.8934,-118.4132"/>
</g>
<!-- Improve System -->
<g id="node6" class="node">
<title>Improve System</title>
<ellipse fill="none" stroke="#000000" cx="423.3933" cy="-90" rx="69.5877" ry="18"/>
<text text-anchor="middle" x="423.3933" y="-86.3" font-family="Times,serif" font-size="14.00" fill="#000000">Improve System</text>
</g>
<!-- Reflect&#45;&gt;Improve System -->
<g id="edge5" class="edge">
<title>Reflect&#45;&gt;Improve System</title>
<path fill="none" stroke="#000000" d="M423.3933,-143.8314C423.3933,-136.131 423.3933,-126.9743 423.3933,-118.4166"/>
<polygon fill="#000000" stroke="#000000" points="426.8934,-118.4132 423.3933,-108.4133 419.8934,-118.4133 426.8934,-118.4132"/>
</g>
<!-- Lower Cost per Experiment -->
<g id="node7" class="node">
<title>Lower Cost per Experiment</title>
<ellipse fill="none" stroke="#000000" cx="472.3933" cy="-18" rx="109.6807" ry="18"/>
<text text-anchor="middle" x="472.3933" y="-14.3" font-family="Times,serif" font-size="14.00" fill="#000000">Lower Cost per Experiment</text>
</g>
<!-- Improve System&#45;&gt;Lower Cost per Experiment -->
<g id="edge6" class="edge">
<title>Improve System&#45;&gt;Lower Cost per Experiment</title>
<path fill="none" stroke="#000000" d="M435.5057,-72.2022C441.1755,-63.871 448.0466,-53.7748 454.3143,-44.565"/>
<polygon fill="#000000" stroke="#000000" points="457.3472,-46.3295 460.0799,-36.0931 451.5602,-42.3911 457.3472,-46.3295"/>
</g>
<!-- Lower Cost per Experiment&#45;&gt;Do Experiments -->
<g id="edge7" class="edge">
<title>Lower Cost per Experiment&#45;&gt;Do Experiments</title>
<path fill="none" stroke="#000000" d="M485.4355,-35.9973C491.9147,-46.0549 499.0575,-59.1267 502.3933,-72 506.4068,-87.4885 505.8942,-92.3877 502.3933,-108 493.7013,-146.7625 466.9212,-184.4448 446.935,-208.3436"/>
<polygon fill="#000000" stroke="#000000" points="444.0476,-206.3337 440.1898,-216.2013 449.3591,-210.8932 444.0476,-206.3337"/>
</g>
</g>
</svg>
