<?xml version="1.0" encoding="UTF-8" standalone="no"?>
<!-- Created with Inkscape (http://www.inkscape.org/) -->

<svg
   xmlns:dc="http://purl.org/dc/elements/1.1/"
   xmlns:cc="http://creativecommons.org/ns#"
   xmlns:rdf="http://www.w3.org/1999/02/22-rdf-syntax-ns#"
   xmlns:svg="http://www.w3.org/2000/svg"
   xmlns="http://www.w3.org/2000/svg"
   xmlns:sodipodi="http://sodipodi.sourceforge.net/DTD/sodipodi-0.dtd"
   xmlns:inkscape="http://www.inkscape.org/namespaces/inkscape"
   width="1000"
   height="500"
   id="svg2"
   version="1.1"
   inkscape:version="0.48.3.1 r9886"
   sodipodi:docname="logo.svg">
  <defs
     id="defs4" />
  <sodipodi:namedview
     id="base"
     pagecolor="#ffffff"
     bordercolor="#666666"
     borderopacity="1.0"
     inkscape:pageopacity="0.0"
     inkscape:pageshadow="2"
     inkscape:zoom="0.49497475"
     inkscape:cx="694.64553"
     inkscape:cy="640.01775"
     inkscape:document-units="px"
     inkscape:current-layer="layer1"
     showgrid="false"
     inkscape:window-width="1920"
     inkscape:window-height="1034"
     inkscape:window-x="0"
     inkscape:window-y="22"
     inkscape:window-maximized="1" />
  <metadata
     id="metadata7">
    <rdf:RDF>
      <cc:Work
         rdf:about="">
        <dc:format>image/svg+xml</dc:format>
        <dc:type
           rdf:resource="http://purl.org/dc/dcmitype/StillImage" />
        <dc:title></dc:title>
      </cc:Work>
    </rdf:RDF>
  </metadata>
  <g
     inkscape:label="Layer 1"
     inkscape:groupmode="layer"
     id="layer1"
     transform="translate(0,-552.36218)">
    <g
       transform="matrix(1.0117625,-0.13578093,0.13578093,1.0117625,-0.19676279,-21.805534)"
       style="font-size:768.15350341999999273px;font-style:italic;font-variant:normal;font-weight:bold;font-stretch:normal;line-height:125%;letter-spacing:0px;word-spacing:0px;fill:#16a085;fill-opacity:1;stroke:none;font-family:Wolf in the City;-inkscape-font-specification:Wolf in the City Bold Italic"
       id="text2985">
      <path
         d="m -23.45676,1052.1118 c -13.314748,-10e-5 -25.605192,-2.8166 -36.871369,-8.4497 -11.266303,-5.6332 -20.996238,-13.3147 -29.189833,-23.0446 -7.681562,-9.2179 -13.826788,-20.2281 -18.435688,-33.03064 -4.60893,-13.31462 -6.91339,-27.39742 -6.91338,-42.24845 -0.51211,-30.21393 5.37706,-60.94004 17.667533,-92.17842 12.802519,-31.23805 29.701879,-59.40365 50.698131,-84.49688 20.996098,-25.09275 45.57698517,-45.57682 73.742737,-61.45228 28.165449,-15.87485 57.611304,-23.81243 88.337649,-23.81276 29.18957,3.3e-4 51.20995,4.3532 66.0612,13.05861 14.85065,8.70605 22.78823,18.17993 23.81276,28.42168 -3.3e-4,2.0487 -0.25638,3.585 -0.76815,4.60892 -11.26657,17.92385 -19.71625,33.54295 -25.34907,46.85736 -5.12132,13.31489 -8.96208,24.58113 -11.5223,33.79876 -2.0487,8.70593 -3.32895,15.61931 -3.84077,20.74014 -0.51239,4.6091 -1.53659,7.68171 -3.07261,9.21784 l -1.53631,0.76816 c -27.39242,-2.83857 -44.69547,-15.90345 -48.39367,-42.24845 -2.3e-4,-4.09659 1.53607,-11.52207 4.60892,-22.27645 3.58448,-11.266 9.98575,-24.8367 19.20384,-40.71213 -6.14548,-1.53603 -12.8028,-2.30418 -19.97199,-2.30446 -20.484312,2.8e-4 -41.992588,6.1455 -64.524894,18.43568 -22.532655,12.29071 -43.5288295,28.42191 -62.988587,48.39367 -18.947879,19.97219 -34.823036,43.01677 -47.625518,69.13382 -12.290507,25.60523 -18.435729,51.97848 -18.435684,79.11981 -4.5e-5,10.7542 0.768108,20.99624 2.304461,30.72614 2.048359,9.72997 5.377021,18.17965 9.985995,25.34903 4.608859,6.6574 11.010132,12.0344 19.203838,16.1313 8.193552,4.0968 18.69164,6.1452 31.494294,6.1452 12.8024369,0 25.6049825,-1.7924 38.407675,-5.3771 12.802399,-3.5847 25.092842,-8.4497 36.871368,-14.5949 11.778158,-6.1452 22.532297,-13.05859 32.262447,-20.74015 10.241825,-8.1936 18.947555,-16.64328 26.117215,-25.34907 12.80231,-15.363 22.02014,-27.90949 27.65353,-37.63952 5.63285,-10.24194 9.47361,-18.17952 11.5223,-23.81276 2.56023,-6.1451 4.09654,-10.24192 4.60892,-12.29045 1.02392,-2.04828 3.32838,-3.07249 6.91339,-3.07262 1.53601,1.3e-4 2.56021,0.51224 3.07261,1.53631 0.51181,1.02433 0.76786,2.04854 0.76815,3.07261 -2.9e-4,3.58484 -1.5366,9.73007 -4.60892,18.43569 -2.5608,8.70584 -7.16972,18.69182 -13.82676,29.95799 -6.1455,10.75421 -14.59518,22.53255 -25.34907,35.33506 -10.24229,12.80258 -22.78878,24.83698 -37.639518,36.10321 -6.145437,4.6089 -13.570914,9.4739 -22.276452,14.5949 -8.193822,5.121 -17.155604,9.7299 -26.885373,13.8268 -9.7301,4.6089 -20.228188,8.1936 -31.494293,10.7541 -11.26637483,3.0726 -22.532615,4.6089 -33.798754,4.609"
         id="path2990"
         inkscape:connector-curvature="0"
         sodipodi:nodetypes="csccccsscccccccccccccsccsccsssccccccccccccccccc"
         style="fill:#16a085;fill-opacity:1" />
      <path
         d="m 351.72622,925.36642 c 2.56031,1.5364 3.84056,2.5606 3.84077,3.07262 -2.1e-4,2.04849 -1.79256,8.44976 -5.37708,19.20383 -3.07281,10.75421 -7.68172,22.2765 -13.82676,34.56691 -6.14541,12.29048 -13.82694,23.30062 -23.04461,33.03062 -8.70589,10.242 -18.69188,15.363 -29.95798,15.3631 -10.24217,-10e-5 -19.97211,-5.3771 -29.18984,-16.1313 -8.70583,-11.2662 -13.0587,-25.86111 -13.05861,-43.78472 -3.0727,5.12106 -6.65741,10.49813 -10.75414,16.13122 -4.0969,5.12105 -8.70582,9.98602 -13.82677,14.5949 -5.12108,4.0968 -10.7542,7.6816 -16.89937,10.7542 -6.14528,2.5605 -12.54655,3.8407 -19.20384,3.8407 -9.72997,0 -18.9478,-4.8649 -27.65353,-14.5949 -8.19363,-9.7299 -12.29044,-23.8127 -12.29045,-42.24842 10e-6,-12.29039 1.79236,-25.34899 5.37707,-39.17583 3.07262,-13.82666 6.91338,-26.88525 11.5223,-39.17583 4.60891,-12.80241 9.21783,-24.06865 13.82677,-33.79875 4.60889,-10.24187 8.1936,-18.17945 10.75414,-23.81276 l -0.76815,0 c 3.07258,-5.12083 5.88914,-10.24185 8.44969,-15.36307 2.56047,-4.09661 4.60888,-8.19343 6.14523,-12.29046 2.04836,-4.6087 3.58467,-8.44946 4.60892,-11.5223 0.51205,2.3e-4 2.56046,1.28048 6.14523,3.84077 4.09676,2.04863 8.19357,5.12124 12.29045,9.21784 4.09675,3.58493 7.93751,7.68174 11.52231,12.29045 3.58463,4.60913 5.37698,9.21804 5.37707,13.82677 -9e-5,5.63331 -3.0727,14.33904 -9.21784,26.11722 -6.1453,11.7785 -13.05867,24.8371 -20.74015,39.17582 -7.68158,13.82688 -14.59495,28.42178 -20.74014,43.78475 -6.14526,14.85104 -9.21787,28.67779 -9.21784,41.48029 -3e-5,6.14527 0.76812,11.26628 2.30446,15.36307 2.04838,4.09684 6.14519,6.14525 12.29045,6.14523 7.16939,2e-5 15.61907,-4.09679 25.34907,-12.29045 10.24197,-8.7057 19.71585,-23.30061 28.42168,-43.78475 3.58462,-17.92349 8.44959,-34.82285 14.59492,-50.69814 6.65721,-15.87503 11.77823,-27.39732 15.36307,-34.5669 2.56038,-5.12086 4.86484,-10.24188 6.91338,-15.36307 2.04827,-4.09664 3.84063,-8.19346 5.37707,-12.29046 1.53617,-4.60873 2.81643,-8.44949 3.84077,-11.5223 0.51196,2e-4 2.81642,1.28045 6.91338,3.84077 4.09667,2.0486 8.44953,5.12121 13.05861,9.21784 4.60876,3.5849 8.70557,7.68171 12.29046,12.29045 3.58454,4.60909 5.37689,9.21801 5.37707,13.82677 -1.8e-4,6.14538 -2.56069,14.33901 -7.68153,24.58091 -5.12119,9.73007 -11.01036,20.74026 -17.66754,33.0306 -6.14537,11.77844 -11.77849,24.32494 -16.89937,37.63952 -5.12116,12.80261 -7.68166,25.09306 -7.68154,36.87137 -1.2e-4,16.89935 3.58459,25.34905 10.75415,25.34905 7.16929,0 16.38712,-6.9134 27.65353,-20.74013 11.26607,-14.33883 21.50811,-35.8471 30.72614,-64.52489 -2e-4,-0.51202 0.5119,-0.76807 1.53631,-0.76816 1.024,9e-5 2.0482,9e-5 3.07261,0"
         id="path2992"
         inkscape:connector-curvature="0"
         style="fill:#16a085;fill-opacity:1" />
      <path
         d="m 516.91524,926.13458 c 2.56033,1.53639 3.84059,2.56059 3.84077,3.07261 -1.8e-4,1.02429 -1.79254,6.14531 -5.37708,15.36307 -3.07278,9.2179 -7.93775,19.20389 -14.59491,29.95799 -6.14539,10.24207 -13.82691,19.71596 -23.04461,28.42165 -8.70587,8.7058 -18.69185,13.0586 -29.95799,13.0586 -9.73004,0 -18.94787,-4.6089 -27.65352,-13.8267 -8.19371,-9.72995 -12.29052,-23.81275 -12.29046,-42.24847 -6e-5,-14.8509 2.04834,-30.21395 6.14523,-46.08921 4.60884,-15.87506 9.72986,-30.72601 15.36307,-44.5529 -5.63321,1.02435 -11.01028,1.7925 -16.13122,2.30446 -5.12109,0.51224 -10.49816,0.76829 -16.13123,0.76815 -2.56056,1.4e-4 -4.86502,1.4e-4 -6.91338,0 -2.04846,1.4e-4 -4.09686,-0.25591 -6.14523,-0.76815 -9.72997,19.97211 -17.15545,35.84727 -22.27645,47.62551 -5.12104,11.26634 -8.9618,19.97207 -11.5223,26.11722 -2.04842,5.63319 -3.58472,9.47396 -4.60892,11.52231 -1.02421,1.53636 -2.30446,2.30451 -3.84077,2.30446 -16.19025,22.16047 6.70868,-40.1155 9.21784,-47.62552 6.14521,-17.41136 10.75413,-33.54257 13.82677,-48.39367 -8.70576,-5.63297 -14.59493,-12.29029 -17.66753,-19.97199 -3.07262,-8.19346 -4.60893,-15.10683 -4.60893,-20.74015 0,-5.63292 0.5121,-9.72974 1.53631,-12.29045 5.51121,-10.6308 32.59293,0.0529 41.48029,2.30446 6.65728,1.53651 9.98594,2.56071 9.986,3.07261 0.56169,5.14963 -2.98119,6.82229 -5.37708,9.21784 -5e-5,1.0244 1.02416,1.79255 3.07262,2.30446 2.56045,0.51229 5.37701,1.0244 8.44968,1.53631 3.58466,0.51229 7.42542,1.02439 11.52231,1.53631 4.09674,1.8e-4 7.9375,1.8e-4 11.5223,0 l 21.5083,0 c 3.5846,-5.12084 6.65722,-10.4979 9.21784,-16.13123 2.56039,-4.60871 4.86485,-9.47368 6.91338,-14.59491 2.04829,-5.12081 3.58459,-9.72972 4.60892,-13.82677 0.51198,2.3e-4 2.56038,1.28049 6.14523,3.84077 3.58458,2.04863 7.42534,4.86519 11.5223,8.44969 4.60878,3.58493 8.70559,7.68175 12.29046,12.29046 3.58456,4.09702 5.37691,8.44988 5.37707,13.05861 -1.6e-4,7.68172 -3.07277,17.41165 -9.21784,29.18983 -6.14537,11.7785 -12.8027,24.58105 -19.97199,38.40767 -7.16956,13.31478 -13.82688,27.14153 -19.97199,41.48029 -6.14534,14.33894 -9.21795,27.90964 -9.21784,40.71214 -1.1e-4,5.63316 0.512,10.49813 1.5363,14.59492 1.5362,3.58474 4.35276,5.37709 8.44969,5.37707 7.16931,2e-5 16.1311,-5.121 26.88537,-15.36307 10.754,-10.7541 21.25209,-27.90951 31.4943,-51.46628 -1.7e-4,8e-5 0.51193,-0.25597 1.53631,-0.76816 1.02403,9e-5 2.04823,0.25614 3.07261,0.76816"
         id="path2994"
         inkscape:connector-curvature="0"
         sodipodi:nodetypes="cccccscscccccccccccccsccccccccccccccccscsccscccc"
         style="fill:#16a085;fill-opacity:1" />
      <path
         d="m 590.57393,654.20824 c 1.02412,3.6e-4 3.84068,1.02456 8.44969,3.07261 4.60882,2.04876 9.47379,4.86532 14.59492,8.44969 5.63301,3.07296 10.49798,6.91372 14.59492,11.5223 4.09669,4.60925 6.14509,9.47422 6.14522,14.59492 -1.3e-4,4.60924 -1.02433,9.4742 -3.07261,14.59491 -1.53643,4.60923 -3.32879,8.96209 -5.37708,13.05861 -3.58483,7.68183 -8.9619,19.20412 -16.13122,34.56691 -6.65743,14.85121 -14.0829,31.75057 -22.27645,50.69813 -8.19371,18.43588 -16.64339,37.89575 -25.34907,58.37967 -8.70578,20.48422 -16.64336,40.20014 -23.81275,59.14782 -6.65736,18.43576 -12.29048,35.59117 -16.89938,51.46628 -4.09683,15.3631 -6.14524,27.39751 -6.14523,36.10321 -10e-6,1.0242 -10e-6,2.3045 0,3.8408 0.51209,1.5363 1.28024,2.3044 2.30446,2.3044 2.5605,0 8.96177,-4.6089 19.20384,-13.8267 10.7541,-9.21785 24.3248,-27.14141 40.71213,-53.77077 4.09675,-4.09675 6.91331,-6.14516 8.44969,-6.14523 1.02412,0.51217 1.53623,1.79243 1.53631,3.84077 -8e-5,4.60898 -3.07269,12.54656 -9.21784,23.81276 -6.1453,11.26628 -13.57077,22.78857 -22.27645,34.56687 -8.19368,11.2663 -16.89942,21.2523 -26.11722,29.958 -8.70576,8.7057 -15.87519,13.0586 -21.5083,13.0586 -2.04841,0 -4.35287,-0.2561 -6.91338,-0.7681 -3.07261,-10e-5 -5.88917,-1.0243 -8.44969,-3.0726 -3.0726,-2.0485 -5.63311,-5.3771 -7.68154,-9.986 -2.04838,-4.0969 -3.07259,-9.986 -3.07261,-17.6676 2e-5,-10.7541 1.79238,-24.3248 5.37707,-40.7121 3.07263,-16.38722 7.4255,-34.05473 13.05861,-53.00259 5.12103,-19.45978 11.0102,-39.6878 17.66753,-60.68413 7.16942,-20.99602 14.33884,-41.48009 21.5083,-61.45228 7.16939,-19.97176 14.08277,-38.91952 20.74015,-56.84336 6.65726,-17.92329 12.80249,-33.5424 18.43568,-46.85736 1.53623,-5.6328 3.32859,-11.26592 5.37708,-16.89938 1.53622,-4.60858 2.81648,-9.2175 3.84076,-13.82676 1.53622,-4.60857 2.30438,-8.44933 2.30446,-11.5223"
         id="path2996"
         inkscape:connector-curvature="0"
         style="fill:#16a085;fill-opacity:1" />
      <path
         d="m 790.97798,926.13458 c 6.31309,4.2158 2.22532,9.96181 -0.76816,16.13122 -3.75909,8.53792 -6.14544,19.20389 -12.29045,29.95799 -5.63333,10.75418 -13.57091,20.74016 -23.81276,29.95801 -10.24222,9.2178 -23.55687,13.8267 -39.94398,13.8267 -5.63326,0 -11.26638,-1.0242 -16.89938,-3.0726 -5.12114,-2.0484 -9.98611,-5.8891 -14.59492,-11.5223 -1.53641,4.0968 -3.32877,7.9376 -5.37707,11.5223 -2.04851,3.5847 -3.84087,7.1694 -5.37707,10.7542 18.43556,4.0968 35.33492,7.4254 50.69813,9.986 15.3629,2.5605 29.70175,3.8407 43.01659,3.8407 28.2558,-3.5856 9.87076,46.1769 -26.11722,41.4803 -10.7543,0 -24.06895,-2.3045 -39.94398,-6.9134 -15.36318,-4.6089 -30.72624,-9.2178 -46.08921,-13.8267 -10.24212,17.9235 -21.25231,30.2139 -33.0306,36.8713 -11.77839,7.1694 -23.81278,10.7541 -36.10321,10.7542 -2.04842,-10e-5 -5.63314,-0.2561 -10.75415,-0.7682 -5.12102,-0.5122 -10.24204,-2.0485 -15.36307,-4.6089 -5.63311,-2.5606 -10.49808,-6.6574 -14.59492,-12.2904 -4.60889,-5.1211 -6.91335,-12.5466 -6.91338,-22.2765 3e-5,-9.73 2.56054,-17.6676 7.68153,-23.8127 5.12105,-6.1453 11.26627,-11.0103 18.43569,-14.595 6.65733,-3.0726 13.31465,-5.121 19.97199,-6.1452 6.65731,-1.0242 11.52228,-1.5363 14.59492,-1.5363 4.09678,0 7.6815,0 10.75414,0 3.58468,0.5121 7.16939,0.7682 10.75415,0.7682 10.24199,0 16.38721,-2.3045 18.43569,-6.9134 2.04834,-4.6089 4.60885,-10.7542 7.68153,-18.43571 -5.63319,5.63311 -12.03446,10.49811 -19.20384,14.59491 -7.16947,4.0968 -14.851,6.1452 -23.0446,6.1452 -9.21786,0 -18.17965,-4.6089 -26.88537,-13.8267 -8.70574,-9.72995 -13.0586,-23.81275 -13.05861,-42.24847 10e-6,-11.77829 1.53631,-24.32478 4.60892,-37.63952 3.07261,-13.31456 6.65733,-26.1171 10.75415,-38.40768 4.60891,-12.29031 9.21782,-23.55655 13.82676,-33.79875 4.6089,-10.24187 8.44966,-18.17945 11.5223,-23.81276 l 16.89938,-39.94398 c 0.51205,2.3e-4 2.81651,1.28048 6.91338,3.84077 4.09676,2.04863 8.19358,4.86519 12.29046,8.44968 4.09675,3.58493 7.93751,7.68175 11.5223,12.29046 3.58463,4.09702 5.37699,8.44988 5.37708,13.05861 -9e-5,5.63331 -3.0727,14.33904 -9.21785,26.11722 -5.63319,11.2664 -12.29052,24.06895 -19.97199,38.40767 -7.16948,13.82688 -13.8268,28.42178 -19.97199,43.78475 -5.63315,14.85104 -8.44971,28.42174 -8.44969,40.71214 -2e-5,6.65737 0.76813,12.29049 2.30446,16.89938 2.04838,4.09684 6.1452,6.14524 12.29046,6.14522 8.70569,2e-5 19.20378,-6.6573 31.49429,-19.97199 12.29037,-13.31461 23.55661,-36.35919 33.79876,-69.13381 4.60881,-15.36295 8.70562,-27.65339 12.29045,-36.87137 3.5846,-9.72979 6.65721,-17.41132 9.21784,-23.0446 2.56039,-5.63296 4.60879,-10.24187 6.14523,-13.82677 1.53617,-3.58453 2.56038,-6.91319 3.07262,-9.98599 7.16928,3.5849 14.59476,8.70592 22.27645,15.36307 8.19347,6.6575 12.29028,15.10718 12.29045,25.34906 -1.7e-4,5.63327 -1.79252,11.77849 -5.37707,18.43569 -9.218,16.38739 -17.15558,31.49439 -23.81276,45.32105 -6.14536,13.31474 -9.21797,28.67779 -9.21784,46.08921 -1.3e-4,6.14527 0.76802,11.01023 2.30446,14.59492 1.53617,3.07264 5.12088,4.60894 10.75415,4.60892 8.70558,2e-5 19.45972,-5.121 32.26245,-15.36307 13.31446,-10.7541 25.09281,-27.90951 35.33506,-51.46628 -2.2e-4,8e-5 0.51188,-0.25597 1.5363,-0.76816 1.02399,9e-5 2.0482,0.25614 3.07262,0.76816 M 620.4479,1055.1844 c 13.22149,-0.1101 13.21579,0 20.74015,0 l -19.20384,-4.609 c -5.63317,-1.0242 -11.52234,-2.3045 -17.66753,-3.8407 -5.63316,-1.0243 -11.26628,-1.7924 -16.89938,-2.3045 -8.70575,0 -16.64332,1.7923 -23.81276,5.3771 -7.68152,4.0968 -11.52228,10.7541 -11.5223,19.972 2e-5,6.6572 2.81658,11.5222 8.44969,14.5949 5.12103,3.0725 10.75415,4.6088 16.89937,4.6089 6.65732,-10e-5 13.5707,-2.5606 20.74015,-7.6815 7.6815,-4.609 15.10698,-13.3147 22.27645,-26.1172"
         id="path2998"
         inkscape:connector-curvature="0"
         sodipodi:nodetypes="ccccsccccscccccccccsscsscsccsscsscscccccccccscsscccccccccccsccccccccccscccc"
         style="fill:#16a085;fill-opacity:1" />
    </g>
    <path
       sodipodi:type="arc"
       style="fill:#16a085;fill-opacity:1;stroke:none"
       id="path3002"
       sodipodi:cx="955"
       sodipodi:cy="415"
       sodipodi:rx="31.785715"
       sodipodi:ry="31.785715"
       d="m 986.78572,415 a 31.785715,31.785715 0 1 1 -63.57144,0 31.785715,31.785715 0 1 1 63.57144,0 z"
       transform="matrix(0.81723983,0,0,0.81723983,183.02369,600.94312)" />
  </g>
</svg>
