<?xml version="1.0" encoding="UTF-8" standalone="no"?>
<svg
   xmlns:dc="http://purl.org/dc/elements/1.1/"
   xmlns:cc="http://creativecommons.org/ns#"
   xmlns:rdf="http://www.w3.org/1999/02/22-rdf-syntax-ns#"
   xmlns:svg="http://www.w3.org/2000/svg"
   xmlns="http://www.w3.org/2000/svg"
   id="svg2"
   height="179.99544"
   width="760.67548"
   version="1.1">
  <title
     id="title2870">QWAN Quality Without A Name logo</title>
  <metadata
     id="metadata62">
    <rdf:RDF>
      <cc:Work
         rdf:about="">
        <dc:format>image/svg+xml</dc:format>
        <dc:type
           rdf:resource="http://purl.org/dc/dcmitype/StillImage" />
        <dc:title>QWAN Quality Without A Name logo</dc:title>
      </cc:Work>
    </rdf:RDF>
  </metadata>
  <defs
     id="defs60" />
  <g
     transform="matrix(0,0.24,-0.24,0,806.40483,-73.204558)"
     id="g6"
     style="fill:#c1c1c1;stroke:none">
    <path
       d="m 945.5,2651.0391 c 13,-9 22.5,-13.5 29,-13.5 16.5,0 31,5.5 42.5,16.5 12,11 18,24.5 18,40.5 0,11 -3,21.5 -8.5,32.5 -5.5,23 -8,46.5 -8,70.5 l 0,5.5 c 0,15.5 1.5,41 5,76.5 3.5,35.5 5,64 5,86 l -2.5,19.5 2,32 c 0,92 -8.5,141 -24.5,147.5 -1.5,3.5 -4.5,12 -9,25.5 -4.5,13 -8.5,21 -12,24 l -10.5,8.5 c -3,25 -24.5,51 -64.5,77.5 -39.5,26.5 -101,39.5 -185,39.5 -52,0 -111.5,-17 -180,-52 -3.5,-2 -9.5,-4 -16.5,-5.5 -7.5,-2 -13.5,-6 -17.5,-11.5 -4.5,-5.5 -8,-8.5 -10.5,-9 -30.5,-28 -49.5,-44 -57,-49.5 -7,-5.5 -14.5,-16.5 -21.5,-34.5 -7,-17.5 -14,-28.5 -21,-32 -8,-5 -11.5,-10.5 -10.5,-16 1,-5.5 1.5,-8.5 1.5,-9 l 0,1 c -1.5,-1 -4,-3.5 -7.5,-7.5 -3.5,-4 -5,-7 -5,-9 0.5,-2 -3,-14 -11,-37 -8,-22.5 -11.5,-36 -10.5,-40 0.5,-3.5 -0.5,-17.5 -4,-41.5 l -5,-29.5 c 0,-8 1,-17.5 3.5,-28.5 2.5,-11 4,-17 4.5,-18.5 6,-59 14.5,-96 25,-111 -1.5,-23 24,-52 76,-86 52.5,-34 109,-51.5 170,-51.5 56.5,0 107.5,10 153,30.5 46,20 79,36.5 100,50.5 20.5,14 38.5,28 54,41.5 15,14 23,20.5 23.5,20.5 1.5,0 2.5,-4.5 2.5,-14.5 0,-10 -2,-18 -6.5,-23 1,-5.5 1.5,-12 1.5,-19.5 l -0.5,-19 c 0,-1.5 0.5,-6 1.5,-12.5 1.5,-7 2,-13.5 2,-20.5 0,-15 -4,-30 -11,-44.5 l 0,0 z m -90,147 c -70.5,-38 -133.5,-57 -189,-57 -37.5,0 -71.5,4.5 -101.5,13.5 -30,8.5 -55,21.5 -76,37.5 -20.5,16.5 -37,36 -49.5,58 -12.5,21.5 -21,50.5 -25.5,85.5 -4,35 -6,55.5 -6,61.5 0,-1 1,0 3.5,3.5 2,3.5 6,7 11.5,11.5 3.5,6.5 5,14 5,22.5 l -1,15.5 c 0,7 3.5,13 11,17 3,3.5 4.5,7 4.5,11 0,6.5 -1.5,10 -4.5,10 l -0.5,-9.5 10.5,0 c 0,11.5 -1,18 -3,19.5 -2.5,1 -3.5,0.5 -3.5,-2 l 0,0.5 c 9.5,26.5 17.5,42.5 24,47.5 4,10 6,16.5 6.5,19 2.5,2 9,7.5 19.5,15.5 10.5,8 18.5,14.5 23,18.5 5,4 9,8 12.5,11.5 3,4 9.5,6 19.5,6 15.5,17 40,30 73.5,39.5 33.5,9 68.5,13.5 105,13.5 34,0 63.5,-4.5 89.5,-14 26,-10 43,-23 50.5,-39 l 12.5,0 c 9.5,-8 18.5,-17 27.5,-27.5 9,-10 17,-25.5 24,-46 7.5,-20.5 13,-38 17,-51.5 4,-14 7.5,-29.5 10,-47 3,-17.5 4.5,-35.5 4.5,-53 0,-10.5 -0.5,-18.5 -1,-23 l -7.5,-31.5 c -2.5,-11.5 -4,-20.5 -5,-26 -0.5,-0.5 -4.5,-7.5 -12.5,-20.5 l -20.5,-36 c -0.5,-1.5 -1.5,-2.5 -2.5,-3.5 -0.5,0 -1,-0.5 -2,-0.5 l -6,0 c -6,-3 -12.5,-10.5 -19.5,-23.5 -7.5,-12.5 -12,-20.5 -14,-24 -1.5,-3 -3.5,-5 -4.5,-5 -2.5,0 -5.5,1 -10,2 l 0,0 z m -448.5,-1145.5 38.5,21 0,6.5 c 0,-1 5,0.5 15,4.5 9.5,4.5 27,10.5 52,18 25,7.5 52.5,15.5 83.5,24 l 174.5,40.5 c 71.5,15.5 110,23.5 116,23.5 l 33.5,-2.5 c 10,0 29.5,6 59.5,17.5 30.5,12 45.5,25.5 45.5,40 0,6.5 -4,13.5 -11.5,20 -7,-0.5 -12.5,-1 -16,-1 -1.5,0 -14,8 -37,23.5 -23,15.5 -50,31 -80.5,47 -31,16 -63,34.5 -96.5,54.5 -33.5,20.5 -71.5,41.5 -114.5,63.5 -42.5,22 -96,46 -161,72 -0.5,0.5 -1,1 -1,1 0,1.5 0.5,3 1.5,5 1.5,2 3.5,4.5 6,6 6,4.5 12,8.5 17.5,11.5 6,4 15,9.5 27.5,17 l 311.5,142 c 43,19.5 71.5,34.5 85.5,46 23,2.5 41.5,8.5 55.5,18.5 14.5,10 22,23 22,38 0,17.5 -5.5,28 -16.5,31.5 -10.5,3.5 -34,5.5 -70.5,6.5 -171,22.5 -334.5,54.5 -491,96 -26.5,7 -42,10.5 -46.5,10.5 -15.5,0 -27.5,-6 -36,-19 -8.5,-13 -12.5,-24.5 -12.5,-34.5 0,-24.5 14.5,-36.5 44,-36.5 l 18.5,0 c 55.5,0 136.5,-12.5 243.5,-37 107,-24.5 167.5,-37 181.5,-37 14,0.5 24.5,-4.5 33,-14 -6.5,-7 -10.5,-10 -13,-10 l -1,0 c -6.5,0 -36,-15.5 -89.5,-47 l -175.5,-77 c -73.5,-36 -118.5,-59 -135.5,-69 -17,-9.5 -25,-14.5 -23,-14.5 l -15,1.5 c -10,-5 -18,-7.5 -23,-7.5 -2,-4 -2.5,-6 -2,-6 l -14,0 c -17.5,-20.5 -26,-33.5 -26,-38.5 0,-4 3,-11 10,-19.5 9,1 15,1.5 17.5,1.5 0,0 0,0 0.5,0 0,0 1,-1 3,-3 l 5,-4.5 c 4.5,-4 12.5,-8 23.5,-11.5 30,-9 60.5,-20 91,-32 31,-12 59.5,-24.5 85.5,-36.5 35,-17.5 67,-34.5 96,-51 29.5,-16.5 59,-35 89.5,-55.5 26.5,-18.5 51.5,-37 75.5,-55.5 0,-7 -91,-26 -272.5,-57.5 -15,-0.5 -37.5,-3.5 -68.5,-9.5 -30.5,-6 -59.5,-10.5 -86,-14 -26.5,-3.5 -43.5,-8.5 -51,-14.5 -4,-17 -5.5,-31.5 -5.5,-43.5 0,-11.5 2.5,-27 8,-47 8,1.5 12.5,2 13.5,2 1.5,0 4,-1.5 8,-4.5 l 0,0 z m -45,-451.5 c 83,-24.5 266.5,-102.5 551,-235.00004 27.5,-18.5 51,-28 71.5,-28 6.5,0 12.5,2.5 18,7 5,4.5 10.5,16.5 16.5,36.5 6,20.00004 10,35.00004 13,44.50004 -10,9 -18.5,14 -26.5,14 -5.5,0 -11.5,-1 -18,-2.5 l -6.5,-2 c -8,0 -28,5 -59,15 -31,10 -70.5,27 -118.5,50.5 -1.5,2.5 -4.5,5 -9.5,7.5 -5,2 -7.5,6.5 -7.5,12.5 0,3 3,10 9,21 -3,3.5 -5.5,9.5 -7,18.5 l -3.5,13 0,12.5 c 0,31 1.5,52.5 5,65 4,12 5.5,19 5.5,21 0,8.5 -2,13.5 -7,15.5 5.5,15.5 7.5,28 6,38 -1,10 -1.5,19 -1.5,27 0,19.5 2,38 7,56 5,17.5 7.5,28 7.5,32 0,3.5 4,9 12,15.5 l -4.5,5.5 c 61,28 110.5,49.5 148,65 24,2 45,7.5 63.5,17 19,9 28.5,19 28.5,29.5 l 0,3.5 c -5,11 -10,33 -16,64.5 -2,10.5 -8,15.5 -18,15.5 -13.5,0 -24.5,-5.5 -34,-17 -9,-11 -15.5,-17.5 -19,-18.5 -20.5,-11 -34.5,-21 -42.5,-29.5 -13,-11 -35,-25.5 -66,-42.5 -30.5,-17 -51,-30 -60.5,-40 -13,-0.5 -42,-15.5 -87.5,-45 -46,-30 -88.5,-55.5 -128.5,-77 -39.5,-22 -61,-34 -64.5,-36.5 -61,-43 -102,-64 -122.5,-64 l -11.5,0 c 0.5,-7.5 2,-11 5,-11 l -4.5,0 c -14.5,0 -30.5,-10.5 -47.5,-31 l 2.5,-5 c -9.5,-7 -14.5,-14.5 -14.5,-23 0,-12 7,-18 22,-18 6.5,0 11.5,0.5 14.5,2.5 l 0,0 z m 373,-12.5 c -2,-8 -3,-17 -3,-27 -3,-15 -6,-22.5 -9,-22.5 1,0 -43,17.5 -132,52.5 -89,35.5 -134,56 -134,62.5 0,4 21,17 63,39 42,21.5 85.5,46.5 130,74 45,27.5 71.5,41.5 80,41.5 2.5,0 4.5,-3.5 6,-9.5 1.5,-6.5 2.5,-10 2.5,-11.5 l -1,-9 c 0,-5.5 1,-12.5 2.5,-21.5 1.5,-9.5 2.5,-15.5 2.5,-18 0,-7.5 -1.5,-19.5 -4,-36.5 -2.5,-17 -3.5,-28 -3.5,-32.5 0,-4.5 0.5,-10 1.5,-16.5 1.5,-6 2,-10 2,-11.5 0,0 -2.5,-1.5 -7,-4 3,-12 4,-21.5 4,-28 l -0.5,-14.5 c 0,-3.5 0,-5.5 0,-7 l 0,0 z m -366.5,-998.00004 39.5,10 c 23,6.5 49.5,11.5 79.5,14.5 30,3 65.5,5 106.5,5.5 40.5,0.5 75.5,2 104,4.5 29,2 56,3 81,3 l 42.5,-0.5 29.5,0.5 c 21.5,0 44,-2 67.5,-6.5 23.5,-4.5 39,-7 47,-7 19.5,0 36.5,3.5 51,11 14,7 21.5,16.5 21.5,28.5 0,15.5 -19.5,38.5 -59,68.5 l -8.5,0 c -69.5,67.5 -132.5,123.5 -189,169 -57,45.5 -117,95 -180,148 -63,53.5 -94.5,79 -94.5,77 0,-0.5 1.5,0 4.5,2 3.5,1.5 23.5,4.5 60,8.5 36.5,4 81.5,6 135,6 59.5,0 124.5,-2.5 196,-8 l 13.5,-7 13,0 c 13.5,0 21.5,1 23.5,4 l -3.5,0 c 1.5,0 6.5,-1.5 16,-5 9,-3 18,-5 27.5,-5 l 8.5,0 c 16.5,11.5 24.5,28 24.5,50 0,9.5 -2.5,14.5 -7.5,16 0.5,-1 3,7 8.5,24 -11,8 -23.5,11.5 -39,11.5 -13,0 -37,-2.5 -71.5,-8 0,-4 -0.5,-6 -0.5,-6 -0.5,-0.5 -7,-0.5 -20,-1.5 -13,-1 -22.5,-2 -28.5,-3 -5,4.5 -11,7 -18.5,7 l -7,-2.5 c -3,-5 -8,-7.5 -14.5,-7.5 l -55.5,-1.5 -75,1 c -33.5,0 -56.5,-1.5 -70,-4 -13,-2.5 -21.5,-4 -25.5,-4 -4.5,0 -12,0.5 -23,1.5 -10.5,1 -17,1.5 -19,1.5 -22.5,0 -40.5,-1 -54,-3 -13.5,-1.5 -28.5,-2.5 -46,-2.5 l -18,3.5 c -4.5,-1 -11.5,-1.5 -22,-1.5 -14,0 -26,0 -37,0.5 -5.5,-3.5 -10,-7 -13.5,-11 -3,-3.5 -6,-6.5 -8,-8.5 -2.5,-2 -3.5,-4 -4,-5.5 -0.5,-2 -2,-7 -4.5,-15.5 1,-11 15,-25 40.5,-42 41,-27 80.5,-55.5 119,-85.5 0,0.5 -2.5,0.5 -8,0.5 1,0 19.5,-16 55.5,-49 36,-33 82.5,-72 139,-117.5 l 52.5,-42.5 c 18,-15 36,-29.5 52.5,-44 17,-15 35.5,-31.5 56,-50.5 20.5,-19.5 31,-30 31.5,-32 1,-2 1.5,-3.5 1.5,-4 0,4 1,6.5 3.5,6.5 l -32.5,0.5 -60.5,-1.5 -81.5,1 c -32,0 -74.5,-1 -127.5,-2 l -69,-2.5 c -15,0 -24,2 -28,5 -4,1.5 -8,2.5 -12,2.5 -3.5,0 -8,-0.5 -13,-1.5 -4.5,-1 -7.5,-1.5 -9,-1.5 -1,0 -2.5,0.5 -4.5,1 -6,-0.5 -12.5,-1 -20,-1 -5.5,0 -10.5,1 -15.5,3 -5,2 -12.5,2.5 -21.5,2.5 -13,0 -23,-4.5 -31,-14 -7.5,-10 -11,-22 -11,-36.5 l 0.5,-10 0,-14.5 c 0,-6 3,-13.5 9,-23 l 0,0"
       id="path8" />
  </g>
  <path
     id="path12"
     d="m 165.24,148.80001 c 2.16,3.12 3.24,5.4 3.24,6.96 0,3.96 -1.32,7.44 -3.96,10.2 -2.64,2.88 -5.88,4.32 -9.72,4.32 -2.64,0 -5.16,-0.72 -7.8,-2.04 -5.52,-1.32 -11.16,-1.92 -16.92,-1.92 l -1.32,0 c -3.72,0 -9.84,0.36 -18.36,1.2 -8.52,0.84 -15.360001,1.2 -20.640001,1.2 l -4.68,-0.6 -7.679999,0.48 c -22.08,0 -33.84,-2.04 -35.4,-5.88 -0.84,-0.36 -2.88,-1.08 -6.12,-2.16 -3.12,-1.08 -5.04,-2.04 -5.76,-2.88 l -2.04,-2.52 c -6,-0.72 -12.24,-5.88 -18.6,-15.48 C 3.12,130.20001 0,115.44001 0,95.280002 0,82.8 4.08,68.52 12.48,52.08 c 0.48,-0.84 0.96,-2.28 1.32,-3.96 0.48,-1.8 1.44,-3.24 2.76,-4.2 1.32,-1.08 2.04,-1.92 2.16,-2.52 6.72,-7.32 10.56,-11.88 11.88,-13.68 1.32,-1.68 3.96,-3.48 8.28,-5.16 4.2,-1.68 6.84,-3.36 7.68,-5.04 1.2,-1.92 2.52,-2.76 3.84,-2.52 1.32,0.24 2.04,0.36 2.16,0.36 l -0.24,0 c 0.24,-0.36 0.84,-0.96 1.8,-1.8 0.96,-0.84 1.68,-1.2 2.16,-1.2 0.48,0.12 3.36,-0.72 8.88,-2.6400001 5.4,-1.92 8.64,-2.76 9.6,-2.52 0.84,0.12 4.2,-0.12 9.959999,-0.96 l 7.08,-1.2 c 1.92,0 4.2,0.24 6.84,0.84 2.640001,0.6 4.080001,0.96 4.440001,1.08 14.16,1.44 23.04,3.4800001 26.64,6.0000001 5.52,-0.36 12.48,5.76 20.64,18.24 8.16,12.6 12.36,26.16 12.36,40.8 0,13.56 -2.4,25.800012 -7.32,36.72001 -4.8,11.04 -8.76,18.96 -12.12,24 -3.36,4.92 -6.72,9.24 -9.96,12.96 -3.36,3.6 -4.92,5.52 -4.92,5.64 0,0.36 1.08,0.6 3.48,0.6 2.4,0 4.32,-0.48 5.52,-1.56 1.32,0.24 2.88,0.36 4.68,0.36 l 4.56,-0.12 c 0.36,0 1.44,0.12 3,0.36 1.68,0.36 3.24,0.48 4.92,0.48 3.6,0 7.2,-0.96 10.68,-2.64 l 0,0 z m -35.28,-21.6 c 9.12,-16.92 13.68,-32.040008 13.68,-45.36001 0,-9 -1.08,-17.16 -3.24,-24.36 -2.04,-7.2 -5.16,-13.2 -9,-18.24 -3.96,-4.92 -8.64,-8.88 -13.92,-11.88 -5.16,-3 -12.12,-5.04 -20.520001,-6.12 -8.4,-0.96 -13.32,-1.44 -14.759999,-1.44 0.24,0 0,0.24 -0.84,0.84 -0.84,0.48 -1.68,1.44 -2.76,2.76 -1.56,0.84 -3.36,1.2 -5.4,1.2 l -3.72,-0.24 c -1.68,0 -3.12,0.84 -4.08,2.64 -0.84,0.72 -1.68,1.08 -2.64,1.08 -1.56,0 -2.4,-0.36 -2.4,-1.08 l 2.28,-0.12 0,2.52 c -2.76,0 -4.32,-0.24 -4.68,-0.72 -0.24,-0.6 -0.12,-0.84 0.48,-0.84 l -0.12,0 c -6.36,2.28 -10.2,4.2 -11.4,5.76 -2.4,0.96 -3.96,1.44 -4.56,1.56 -0.48,0.6 -1.8,2.16 -3.72,4.68 -1.92,2.52 -3.48,4.44 -4.44,5.52 -0.96,1.2 -1.92,2.16 -2.76,3 -0.96,0.72 -1.44,2.28 -1.44,4.68 -4.08,3.72 -7.2,9.6 -9.48,17.64 -2.16,8.04 -3.24,16.44 -3.24,25.200002 0,8.160008 1.08,15.240008 3.36,21.480008 2.4,6.24 5.52,10.32 9.36,12.12 l 0,3 c 1.92,2.28 4.08,4.44 6.6,6.6 2.4,2.16 6.12,4.08 11.04,5.76 4.92,1.8 9.12,3.12 12.36,4.08 3.36,0.96 7.08,1.8 11.28,2.4 4.2,0.72 8.52,1.08 12.719999,1.08 2.52,0 4.44,-0.12 5.52,-0.24 l 7.56,-1.8 c 2.76,-0.6 4.920001,-0.96 6.240001,-1.2 0.12,-0.12 1.8,-1.08 4.92,-3 l 8.64,-4.92 c 0.36,-0.12 0.6,-0.36 0.84,-0.6 0,-0.12 0.12,-0.24 0.12,-0.48 l 0,-1.44 c 0.72,-1.44 2.52,-3 5.64,-4.68 3,-1.8 4.92,-2.88 5.76,-3.36 0.72,-0.36 1.2,-0.84 1.2,-1.08 0,-0.6 -0.24,-1.32 -0.48,-2.4 l 0,0 z M 404.88,19.56 l -5.04,9.24 -1.56,0 c 0.24,0 -0.12,1.2 -1.08,3.6 -1.08,2.28 -2.52,6.48 -4.32,12.48 -1.8,6 -3.72,12.6 -5.76,20.04 l -9.72,41.88001 c -3.72,17.16 -5.64,26.4 -5.64,27.84 l 0.6,8.04 c 0,2.4 -1.44,7.08 -4.2,14.28 -2.88,7.32 -6.12,10.92 -9.6,10.92 -1.56,0 -3.24,-0.96 -4.8,-2.76 0.12,-1.68 0.24,-3 0.24,-3.84 0,-0.36 -1.92,-3.36 -5.64,-8.88 -3.72,-5.52 -7.44,-12 -11.28,-19.32 -3.84,-7.44 -8.28,-15.12 -13.08,-23.16 -4.92,-8.04 -9.96,-17.160008 -15.24,-27.48001 -5.28,-10.2 -11.04,-23.04 -17.28,-38.64 -0.12,-0.12 -0.24,-0.24 -0.24,-0.24 -0.36,0 -0.72,0.12 -1.2,0.36 -0.48,0.36 -1.08,0.84 -1.44,1.44 -1.08,1.44 -2.04,2.88 -2.76,4.2 -0.96,1.44 -2.28,3.6 -4.08,6.6 l -34.08,74.76001 c -4.68,10.32 -8.28,17.16 -11.04,20.52 -0.6,5.52 -2.04,9.96 -4.44,13.32 -2.4,3.48 -5.52,5.28 -9.12,5.28 -4.2,0 -6.72,-1.32 -7.56,-3.96 -0.84,-2.52 -1.32,-8.16 -1.56,-16.92 C 208.56,108.12001 200.88,68.88 190.92,31.32 189.24,24.96 188.4,21.24 188.4,20.16 c 0,-3.72 1.44,-6.6 4.56,-8.64 3.12,-2.0400001 5.88,-3.0000001 8.28,-3.0000001 C 207.12,8.5199999 210,12 210,19.08 l 0,4.44 c 0,13.32 3,32.76 8.88,58.44 5.88,25.68001 8.88,40.20001 8.88,43.56001 -0.12,3.36 1.08,5.88 3.36,7.92 1.68,-1.56 2.4,-2.52 2.4,-3.12 l 0,-0.24 c 0,-1.56 3.72,-8.64 11.28,-21.48 L 263.28,66.48 c 8.64,-17.64 14.16,-28.44 16.56,-32.52 2.28,-4.08 3.48,-6 3.48,-5.52 l -0.36,-3.6 c 1.2,-2.4 1.8,-4.32 1.8,-5.52 0.96,-0.48 1.44,-0.6 1.44,-0.48 l 0,-3.36 c 4.92,-4.2 8.04,-6.2400001 9.24,-6.2400001 0.96,0 2.64,0.72 4.68,2.4000001 -0.24,2.16 -0.36,3.6 -0.36,4.2 0,0 0,0 0,0.12 0,0 0.24,0.24 0.72,0.72 l 1.08,1.2 c 0.96,1.08 1.92,3 2.76,5.64 2.16,7.2 4.8,14.52 7.68,21.84 2.88,7.44 5.88,14.28 8.76,20.52 4.2,8.4 8.28,16.08 12.24,23.04 3.96,7.080002 8.4,14.16001 13.32,21.48001 4.44,6.36 8.88,12.36 13.32,18.12 1.68,0 6.24,-21.84 13.8,-65.40001 0.12,-3.6 0.84,-9 2.28,-16.44 1.44,-7.32 2.52,-14.28 3.36,-20.64 0.84,-6.36 2.04,-10.44 3.48,-12.24 4.08,-0.96 7.56,-1.32 10.44,-1.32 2.76,0 6.48,0.6 11.28,1.92 -0.36,1.92 -0.48,3 -0.48,3.24 0,0.36 0.36,0.96 1.08,1.92 l 0,0 z M 513.24,8.7599999 C 519.12,28.68 537.84,72.72 569.64,141.00001 c 4.44,6.6 6.72001,12.24 6.72001,17.16 0,1.56 -0.6,3 -1.68,4.32 -1.08001,1.2 -3.96001,2.52 -8.76001,3.96 -4.8,1.44 -8.4,2.4 -10.68,3.12 -2.16,-2.4 -3.36,-4.44 -3.36,-6.36 0,-1.32 0.24,-2.76 0.6,-4.32 l 0.48,-1.56 c 0,-1.92 -1.2,-6.72 -3.6,-14.16 -2.4,-7.44 -6.48,-16.92 -12.12,-28.44 -0.6,-0.36 -1.2,-1.08 -1.8,-2.28 -0.48,-1.2 -1.56,-1.8 -3,-1.8 -0.72,0 -2.4,0.72 -5.04,2.16 -0.84,-0.72 -2.28,-1.32 -4.44,-1.68 l -3.12,-0.84 -3,0 c -7.44,0 -12.6,0.36 -15.6,1.2 -2.88,0.96 -4.56,1.32 -5.04,1.32 -2.04,0 -3.24,-0.48 -3.72,-1.68 -3.72,1.32 -6.72,1.8 -9.12,1.44 -2.4,-0.24 -4.56,-0.36 -6.48,-0.36 -4.68,0 -9.12,0.48 -13.44,1.68 -4.2,1.2 -6.72,1.8 -7.68,1.8 -0.84,0 -2.16,0.96 -3.72,2.88 l -1.32,-1.08 c -6.72,14.64 -11.88,26.52 -15.6,35.52 -0.48,5.76 -1.8,10.8 -4.08,15.24 -2.16,4.56 -4.56,6.84 -7.08,6.84 l -0.84,0 c -2.64,-1.2 -7.92,-2.4 -15.48,-3.84 -2.52,-0.48 -3.72,-1.92 -3.72,-4.32 0,-3.24 1.32,-5.88 4.08,-8.16 2.64,-2.16 4.2,-3.72 4.44,-4.56 2.64,-4.92 5.04,-8.28 7.08,-10.2 2.64,-3.12 6.12,-8.4 10.2,-15.84 4.08,-7.32 7.2,-12.24 9.6,-14.52 0.12,-3.12 3.72,-10.08 10.8,-21.000008 C 457.32,81.6 463.44,71.4 468.6,61.8 c 5.28,-9.48 8.16,-14.64 8.76,-15.48 10.32,-14.64 15.36,-24.48 15.36,-29.4 l 0,-2.76 c 1.8,0.12 2.64,0.48 2.64,1.2 l 0,-1.08 c 0,-3.48 2.52,-7.3200001 7.44,-11.4000001 l 1.2,0.6 C 505.68,1.2 507.48,0 509.52,0 c 2.88,0 4.32,1.68 4.32,5.2799999 0,1.56 -0.12,2.76 -0.6,3.48 l 0,0 z m 3,89.5200121 c 1.92,-0.48 4.08,-0.72 6.48,-0.72 3.6,-0.72 5.4,-1.44001 5.4,-2.16001 0,0.24 -4.2,-10.320002 -12.6,-31.680002 -8.52,-21.36 -13.44,-32.16 -15,-32.16 -0.96,0 -4.08,5.04 -9.36,15.12 C 486,56.76 480,67.2 473.4,77.88 c -6.6,10.8 -9.96,17.160002 -9.96,19.200012 0,0.6 0.84,1.08 2.28,1.44 1.56,0.36 2.4,0.6 2.76,0.6 l 2.16,-0.24 c 1.32,0 3,0.24 5.16,0.6 2.28,0.36 3.72,0.599998 4.32,0.599998 1.8,0 4.68,-0.359998 8.76,-0.959998 4.08,-0.6 6.72,-0.84 7.8,-0.84 1.08,0 2.4,0.12 3.96,0.36 1.44,0.36 2.4,0.48 2.76,0.48 0,0 0.36,-0.6 0.96,-1.68 2.88,0.72 5.16,0.96 6.72,0.96 l 3.48,-0.12 c 0.84,0 1.32,0 1.68,0 l 0,0 z M 755.76001,10.32 l -2.4,9.48 c -1.56,5.52 -2.76,11.88 -3.48,19.08 -0.72,7.2 -1.2,15.72 -1.32,25.56 -0.12,9.72 -0.48,18.12 -1.08,24.96 -0.48,6.960002 -0.72,13.44001 -0.72,19.44001 l 0.12,10.2 -0.12,7.08 c 0,5.16 0.48,10.56 1.56,16.2 1.08,5.64 1.68,9.36 1.68,11.28 0,4.68 -0.84,8.76 -2.64,12.24 -1.68,3.36 -3.96,5.16 -6.84,5.16 -3.72,0 -9.24,-4.68 -16.44,-14.16 l 0,-2.04 c -16.2,-16.68 -29.64,-31.8 -40.56,-45.36 -10.92,-13.680008 -22.8,-28.08001 -35.52,-43.20001 -12.84,-15.12 -18.96,-22.68 -18.48,-22.68 0.12,0 0,0.36 -0.48,1.08 -0.36,0.84 -1.08,5.64 -2.04,14.4 -0.96,8.76 -1.44,19.56 -1.44,32.4 0,14.28001 0.6,29.88001 1.92,47.04001 l 1.68,3.24 0,3.12 c 0,3.24 -0.24,5.16 -0.96,5.64 l 0,-0.84 c 0,0.36 0.36,1.56 1.2,3.84 0.72,2.16 1.2,4.32 1.2,6.6 l 0,2.04 c -2.76,3.96 -6.72,5.88 -12,5.88 -2.28,0 -3.48,-0.6 -3.84,-1.8 0.24,0.12 -1.68,0.72 -5.76,2.04 -1.92,-2.64 -2.76,-5.64 -2.76,-9.36 0,-3.12 0.6,-8.88 1.92,-17.16 0.96,0 1.44,-0.12 1.44,-0.12 0.12,-0.12 0.12,-1.68 0.36,-4.8 0.24,-3.12 0.48,-5.4 0.72,-6.84 -1.08,-1.2 -1.68,-2.64 -1.68,-4.44 l 0.6,-1.68 c 1.2,-0.72 1.8,-1.92 1.8,-3.48 l 0.36,-13.32 -0.24,-18.00001 c 0,-8.04 0.36,-13.56 0.96,-16.8 0.6,-3.12 0.96,-5.16 0.96,-6.12 0,-1.08 -0.12,-2.88 -0.36,-5.52 -0.24,-2.52 -0.36,-4.08 -0.36,-4.56 0,-5.4 0.24,-9.72 0.72,-12.96 0.36,-3.24 0.6,-6.84 0.6,-11.04 l -0.84,-4.32 c 0.24,-1.08 0.36,-2.76 0.36,-5.28 0,-3.36 0,-6.24 -0.12,-8.88 0.84,-1.32 1.68,-2.4 2.64,-3.24 0.84,-0.7200001 1.56,-1.4400001 2.04,-1.9200001 0.48,-0.6 0.96,-0.84 1.32,-0.96 0.48,-0.12 1.68,-0.48 3.72,-1.08 2.64,0.24 6,3.6 10.08,9.7200001 6.48,9.84 13.32,19.32 20.52,28.56 -0.12,0 -0.12,-0.6 -0.12,-1.92 0,0.24 3.84,4.68 11.76,13.32 7.92,8.64 17.28,19.8 28.2,33.36 l 10.2,12.60001 c 3.6,4.32 7.08,8.64 10.56,12.6 3.6,4.08 7.56,8.52 12.12,13.44 4.68,4.92 7.2,7.44 7.68,7.56 0.48,0.24 0.84,0.36 0.96,0.36 -0.96,0 -1.56,0.24 -1.56,0.84 l -0.12,-7.8 0.36,-14.52 -0.24,-19.560008 c 0,-7.680002 0.24,-17.880002 0.48,-30.600002 l 0.6,-16.56 c 0,-3.6 -0.48,-5.76 -1.2,-6.72 -0.36,-0.96 -0.6,-1.92 -0.6,-2.88 0,-0.84 0.12,-1.92 0.36,-3.12 0.24,-1.08 0.36,-1.8 0.36,-2.16 0,-0.24 -0.12,-0.6 -0.24,-1.08 0.12,-1.44 0.24,-3 0.24,-4.8 0,-1.32 -0.24,-2.52 -0.72,-3.72 -0.48,-1.2 -0.6,-3 -0.6,-5.16 0,-3.12 1.08,-5.52 3.36,-7.44 2.4,-1.8000001 5.28,-2.6400001 8.76,-2.6400001 l 2.4,0.12 3.48,0 c 1.44,0 3.24,0.72 5.52,2.1600001 l 0,0"
     style="fill:#f8f8f8;stroke:none;fill-opacity:1" />
  <path
     id="path28"
     d=""
     style="fill:#000000;stroke:none" />
  <path
     id="path44"
     d=""
     style="fill:#000000;stroke:none" />
  <path
     id="path48"
     d=""
     style="fill:#000000;stroke:none" />
</svg>
