<?xml version="1.0" encoding="UTF-8" standalone="yes"?>
<svg xmlns="http://www.w3.org/2000/svg" xmlns:xlink="http://www.w3.org/1999/xlink" width="537.854pt" height="236.523pt" version="1.1" viewBox="8188.755 1940.140 537.854 236.523">
  <!--
	Exported with Concepts: Smarter Sketching
	Version: 2358 on iOS 17.1
	https://concepts.app/
	-->
  <title>5241D65F-3201-47DF-BDC6-FDC125C708C7</title>
  <desc>Drawing exported from Concepts: Smarter Sketching</desc>
  <defs></defs>
  <g id="New_Layer_1" opacity="1.000">
    <path id="STROKE_3b68530d-83d5-4d6f-a63e-c8a9bbe060b9" opacity="1.000" fill="none" stroke="#48d1ec" stroke-width="1.054" stroke-opacity="1.000" stroke-linecap="round" stroke-linejoin="round" d="M 8200.891 2067.538 Q 8201.862 2068.512 8207.750 2063.885 Q 8213.637 2059.258 8216.770 2056.472 Q 8219.903 2053.686 8223.742 2050.198 Q 8227.581 2046.710 8231.261 2043.264 Q 8234.940 2039.818 8239.418 2035.925 Q 8243.896 2032.032 8247.262 2028.905 Q 8250.628 2025.777 8253.778 2022.607 Q 8256.929 2019.437 8264.803 2012.877 Q 8272.676 2006.317 8279.104 2000.550 Q 8285.533 1994.783 8297.309 1988.548 "></path>
    <path id="STROKE_906808d4-0daa-4255-b9d5-3238bcf99daf" opacity="1.000" fill="none" stroke="#48d1ec" stroke-width="1.047" stroke-opacity="1.000" stroke-linecap="round" stroke-linejoin="round" d="M 8199.044 2097.648 Q 8200.048 2097.819 8195.427 2097.999 Q 8193.453 2096.041 8206.677 2083.999 Q 8219.900 2071.958 8227.259 2065.776 Q 8234.617 2059.593 8238.223 2056.878 Q 8241.829 2054.164 8247.027 2049.629 Q 8252.226 2045.095 8255.042 2042.324 Q 8257.858 2039.553 8259.447 2037.944 Q 8261.035 2036.335 8266.400 2031.367 Q 8271.767 2026.399 8277.648 2019.923 Q 8283.529 2013.448 8286.813 2009.662 Q 8290.098 2005.877 8293.070 2003.041 Q 8296.044 2000.204 8300.688 1995.088 Q 8305.332 1989.973 8313.142 1982.500 "></path>
    <path id="STROKE_866e3226-a453-473c-b020-98a648539fa4" opacity="1.000" fill="none" stroke="#48d1ec" stroke-width="0.946" stroke-opacity="1.000" stroke-linecap="round" stroke-linejoin="round" d="M 8198.816 2125.653 Q 8200.436 2125.378 8202.520 2119.716 Q 8204.603 2114.053 8213.902 2101.931 Q 8223.201 2089.808 8235.281 2077.091 Q 8247.361 2064.374 8259.588 2050.937 Q 8271.813 2037.499 8279.262 2029.307 Q 8286.711 2021.115 8290.816 2017.076 Q 8294.921 2013.037 8297.541 2010.464 Q 8300.161 2007.892 8301.363 2006.751 Q 8302.564 2005.610 8307.318 2000.913 Q 8312.073 1996.217 8314.805 1993.488 Q 8317.535 1990.758 8321.208 1987.134 Q 8324.881 1983.510 8328.824 1979.394 Q 8332.769 1975.278 8350.020 1961.415 "></path>
    <path id="STROKE_0b8098ea-93ed-4f20-a5ee-197fcf9b5072" opacity="1.000" fill="none" stroke="#48d1ec" stroke-width="0.968" stroke-opacity="1.000" stroke-linecap="round" stroke-linejoin="round" d="M 8197.122 2146.509 Q 8196.923 2146.891 8197.652 2143.647 Q 8198.382 2140.405 8198.285 2138.577 Q 8198.189 2136.749 8198.775 2136.432 Q 8199.360 2136.116 8200.079 2135.367 Q 8200.798 2134.618 8201.084 2134.425 Q 8201.371 2134.232 8202.318 2133.369 Q 8203.265 2132.506 8205.042 2130.988 Q 8206.819 2129.470 8210.676 2125.625 Q 8214.531 2121.779 8219.991 2115.635 Q 8225.451 2109.491 8229.572 2104.596 Q 8233.694 2099.701 8239.320 2093.270 Q 8244.946 2086.838 8250.368 2080.974 Q 8255.790 2075.111 8261.283 2069.356 Q 8266.775 2063.602 8269.918 2060.474 Q 8273.062 2057.347 8276.695 2053.552 Q 8280.330 2049.757 8288.674 2040.544 Q 8297.018 2031.331 8301.477 2026.411 Q 8305.937 2021.491 8310.180 2016.803 Q 8314.422 2012.115 8321.354 2004.399 Q 8328.284 1996.682 8336.262 1987.165 Q 8344.238 1977.649 8349.567 1972.206 Q 8354.896 1966.763 8357.910 1963.215 Q 8360.925 1959.667 8363.627 1956.684 Q 8366.330 1953.701 8374.934 1946.266 "></path>
    <path id="STROKE_c43312dc-865b-4a47-9b53-d7ad54b9c4b3" opacity="1.000" fill="none" stroke="#48d1ec" stroke-width="1.008" stroke-opacity="1.000" stroke-linecap="round" stroke-linejoin="round" d="M 8210.375 2169.148 Q 8209.935 2169.528 8206.855 2169.830 Q 8203.777 2170.132 8201.678 2169.932 Q 8199.578 2169.732 8198.426 2168.374 Q 8197.272 2167.015 8206.169 2156.912 Q 8215.065 2146.809 8221.693 2139.727 Q 8228.321 2132.644 8243.898 2117.359 Q 8259.475 2102.074 8270.713 2090.457 Q 8281.950 2078.840 8288.541 2071.607 Q 8295.132 2064.374 8299.971 2059.230 Q 8304.809 2054.086 8308.566 2050.216 Q 8312.324 2046.346 8331.303 2028.479 "></path>
    <path id="STROKE_17409602-40fe-448a-a3e1-500d7f888e81" opacity="1.000" fill="none" stroke="#48d1ec" stroke-width="0.902" stroke-opacity="1.000" stroke-linecap="round" stroke-linejoin="round" d="M 8245.963 2152.235 Q 8246.711 2151.768 8249.080 2146.418 Q 8251.448 2141.070 8254.488 2136.941 Q 8257.528 2132.813 8259.082 2130.981 Q 8260.636 2129.150 8263.863 2125.768 Q 8267.092 2122.387 8275.545 2112.454 Q 8283.998 2102.521 8288.313 2097.131 Q 8292.629 2091.741 8295.456 2088.442 Q 8298.283 2085.143 8301.670 2080.777 Q 8305.056 2076.412 8309.988 2069.783 Q 8314.921 2063.155 8318.018 2059.438 Q 8321.115 2055.722 8325.572 2050.212 Q 8330.030 2044.702 8333.309 2040.378 Q 8336.586 2036.054 8342.785 2028.327 "></path>
    <path id="STROKE_87922c31-b266-4252-b7cc-68bc8edeb23c" opacity="1.000" fill="none" stroke="#48d1ec" stroke-width="1.035" stroke-opacity="1.000" stroke-linecap="round" stroke-linejoin="round" d="M 8283.094 2149.903 Q 8282.908 2151.078 8275.897 2150.785 Q 8274.386 2148.580 8282.691 2136.080 Q 8290.998 2123.581 8295.480 2117.029 Q 8299.963 2110.477 8302.322 2107.083 Q 8304.682 2103.688 8309.408 2096.611 Q 8314.136 2089.533 8321.681 2080.003 Q 8329.226 2070.473 8348.729 2054.645 "></path>
    <path id="STROKE_b5e3051b-d1ca-4e60-906e-1d859ada31b0" opacity="1.000" fill="none" stroke="#48d1ec" stroke-width="0.997" stroke-opacity="1.000" stroke-linecap="round" stroke-linejoin="round" d="M 8299.560 2153.847 Q 8301.292 2153.751 8301.166 2153.515 Q 8301.148 2152.971 8304.271 2147.191 Q 8307.395 2141.411 8311.421 2136.339 Q 8315.447 2131.268 8347.363 2097.799 "></path>
    <path id="STROKE_666c0937-1d6b-4701-9a50-0fe1a35ca94e" opacity="1.000" fill="none" stroke="#48d1ec" stroke-width="1.313" stroke-opacity="1.000" stroke-linecap="round" stroke-linejoin="round" d="M 8405.867 2059.954 Q 8405.998 2059.379 8405.750 2060.768 Q 8405.502 2062.157 8403.364 2062.878 Q 8401.227 2063.600 8398.924 2063.500 Q 8398.859 2062.116 8398.886 2062.134 Q 8397.827 2060.554 8401.904 2054.961 Q 8405.982 2049.369 8409.369 2045.750 Q 8412.756 2042.132 8416.465 2038.870 "></path>
    <path id="STROKE_6598a0c1-0ad6-4197-9ae3-74ad9be207af" opacity="1.000" fill="none" stroke="#48d1ec" stroke-width="1.193" stroke-opacity="1.000" stroke-linecap="round" stroke-linejoin="round" d="M 8409.079 2070.344 Q 8409.734 2070.260 8409.606 2070.304 Q 8409.479 2070.349 8409.459 2070.553 Q 8409.439 2070.757 8410.491 2069.755 Q 8411.543 2068.753 8411.738 2067.648 Q 8411.933 2066.543 8413.447 2062.757 Q 8414.963 2058.971 8418.150 2054.165 Q 8421.339 2049.358 8424.609 2044.791 Q 8427.880 2040.224 8434.322 2035.324 "></path>
    <path id="STROKE_f39e5304-40bc-4480-89f3-a8c265c03ffa" opacity="1.000" fill="none" stroke="#48d1ec" stroke-width="0.973" stroke-opacity="1.000" stroke-linecap="round" stroke-linejoin="round" d="M 8414.466 2094.254 Q 8414.429 2094.254 8414.391 2094.254 Q 8413.612 2093.519 8415.658 2088.167 Q 8417.703 2082.815 8423.997 2072.956 Q 8430.291 2063.097 8435.967 2054.986 Q 8441.644 2046.874 8444.838 2042.008 Q 8448.031 2037.142 8449.588 2034.539 Q 8451.145 2031.936 8459.615 2019.625 "></path>
    <path id="STROKE_07cc01cb-99a4-491e-8440-a6dc5179f421" opacity="1.000" fill="none" stroke="#48d1ec" stroke-width="1.007" stroke-opacity="1.000" stroke-linecap="round" stroke-linejoin="round" d="M 8415.428 2111.735 Q 8415.521 2112.566 8416.174 2112.378 Q 8416.825 2112.190 8421.189 2105.307 Q 8425.553 2098.425 8428.686 2093.523 Q 8431.817 2088.622 8437.533 2079.915 Q 8443.248 2071.209 8450.726 2060.305 Q 8458.203 2049.401 8462.011 2043.478 Q 8465.818 2037.554 8470.215 2031.135 Q 8474.612 2024.715 8488.475 2010.277 "></path>
    <path id="STROKE_6644d663-57db-4575-8d91-eb95c896629e" opacity="1.000" fill="none" stroke="#48d1ec" stroke-width="0.954" stroke-opacity="1.000" stroke-linecap="round" stroke-linejoin="round" d="M 8419.045 2151.344 Q 8418.939 2151.144 8420.397 2151.612 Q 8421.855 2152.080 8424.471 2147.407 Q 8427.087 2142.734 8429.430 2139.102 Q 8431.771 2135.470 8433.353 2132.853 Q 8434.934 2130.235 8440.100 2122.303 Q 8445.266 2114.370 8450.293 2106.784 Q 8455.321 2099.198 8460.418 2090.620 Q 8465.515 2082.041 8468.577 2077.206 Q 8471.640 2072.370 8477.386 2063.802 Q 8483.132 2055.234 8489.663 2046.359 "></path>
    <path id="STROKE_bc3f9351-1550-4459-9bd2-e5b06b2d727d" opacity="1.000" fill="none" stroke="#48d1ec" stroke-width="1.013" stroke-opacity="1.000" stroke-linecap="round" stroke-linejoin="round" d="M 8464.446 2134.431 Q 8464.452 2135.715 8464.484 2135.560 Q 8464.901 2136.590 8464.851 2136.327 Q 8466.967 2134.775 8470.771 2126.311 Q 8474.575 2117.846 8479.794 2108.479 Q 8485.013 2099.111 8488.111 2093.845 Q 8491.209 2088.578 8499.150 2077.014 Q 8507.093 2065.449 8512.869 2056.517 Q 8518.646 2047.585 8521.617 2042.253 Q 8524.589 2036.921 8530.892 2030.337 "></path>
    <path id="STROKE_8e0fc7bd-20a9-4818-8447-1e7fbb59f196" opacity="1.000" fill="none" stroke="#48d1ec" stroke-width="1.027" stroke-opacity="1.000" stroke-linecap="round" stroke-linejoin="round" d="M 8480.988 2139.911 Q 8481.551 2139.515 8482.229 2140.020 Q 8482.905 2140.524 8484.368 2139.301 Q 8485.831 2138.078 8488.717 2132.023 Q 8491.602 2125.969 8495.545 2118.450 Q 8499.489 2110.931 8528.488 2074.933 "></path>
    <path id="STROKE_968883df-5afc-4574-a62b-981e2f05d716" opacity="1.000" fill="none" stroke="#48d1ec" stroke-width="1.046" stroke-opacity="1.000" stroke-linecap="round" stroke-linejoin="round" d="M 8586.410 2052.388 Q 8587.871 2052.444 8589.446 2047.811 Q 8591.021 2043.178 8594.572 2037.939 Q 8598.124 2032.700 8601.574 2029.448 Q 8605.025 2026.195 8607.426 2024.050 Q 8609.826 2021.904 8616.164 2015.851 Q 8622.501 2009.797 8628.916 2004.879 Q 8635.331 1999.960 8642.105 1995.222 "></path>
    <path id="STROKE_f66a99b5-e7ed-49a5-9579-18d840413ea3" opacity="1.000" fill="none" stroke="#48d1ec" stroke-width="0.967" stroke-opacity="1.000" stroke-linecap="round" stroke-linejoin="round" d="M 8590.988 2087.257 Q 8593.502 2087.006 8594.863 2083.026 Q 8596.225 2079.046 8598.359 2074.804 Q 8600.493 2070.561 8604.045 2065.671 Q 8607.596 2060.782 8612.295 2054.645 Q 8616.994 2048.508 8620.511 2044.057 Q 8624.027 2039.607 8627.981 2035.162 Q 8631.936 2030.717 8641.169 2019.802 Q 8650.402 2008.887 8656.254 2001.613 Q 8662.105 1994.338 8675.519 1979.200 "></path>
    <path id="STROKE_89a5fb62-fd2c-4fee-9018-aebc718c8279" opacity="1.000" fill="none" stroke="#48d1ec" stroke-width="0.999" stroke-opacity="1.000" stroke-linecap="round" stroke-linejoin="round" d="M 8591.949 2107.223 Q 8593.585 2107.701 8593.518 2107.706 Q 8593.949 2108.043 8594.167 2108.002 Q 8594.385 2107.961 8595.398 2106.256 Q 8596.411 2104.551 8597.506 2102.580 Q 8598.601 2100.609 8599.375 2099.356 Q 8600.149 2098.103 8600.660 2097.134 Q 8601.170 2096.165 8604.480 2090.968 Q 8607.790 2085.771 8610.660 2081.546 Q 8613.529 2077.320 8615.521 2074.453 Q 8617.515 2071.585 8622.468 2064.182 Q 8627.421 2056.778 8633.928 2046.854 Q 8640.434 2036.929 8648.673 2024.638 Q 8656.912 2012.346 8665.072 2001.991 "></path>
    <path id="STROKE_fccc131b-5ae4-4073-9aed-94392ce877ac" opacity="1.000" fill="none" stroke="#48d1ec" stroke-width="1.003" stroke-opacity="1.000" stroke-linecap="round" stroke-linejoin="round" d="M 8609.478 2137.655 Q 8609.478 2136.955 8610.551 2132.931 Q 8611.624 2128.907 8612.678 2125.311 Q 8613.730 2121.714 8623.844 2105.060 Q 8633.958 2088.406 8640.713 2078.141 Q 8647.467 2067.876 8650.689 2063.070 Q 8653.912 2058.264 8655.793 2055.594 Q 8657.673 2052.925 8661.410 2047.617 Q 8665.146 2042.310 8668.010 2038.163 Q 8670.873 2034.015 8674.438 2029.061 Q 8678.001 2024.107 8683.336 2017.101 Q 8688.670 2010.095 8698.333 1996.587 "></path>
    <path id="STROKE_83b6e315-bf9d-4641-aea0-f254039c26ff" opacity="1.000" fill="none" stroke="#48d1ec" stroke-width="0.940" stroke-opacity="1.000" stroke-linecap="round" stroke-linejoin="round" d="M 8628.447 2151.837 Q 8628.229 2151.749 8631.049 2143.973 Q 8633.869 2136.197 8636.399 2130.994 Q 8638.930 2125.790 8640.307 2123.188 Q 8641.683 2120.586 8642.803 2118.065 Q 8643.924 2115.544 8648.043 2108.609 Q 8652.161 2101.673 8656.264 2095.683 Q 8660.365 2089.693 8662.879 2086.031 Q 8665.392 2082.369 8671.484 2073.495 Q 8677.577 2064.621 8681.217 2059.846 Q 8684.856 2055.070 8689.297 2049.606 Q 8693.736 2044.142 8697.364 2039.735 Q 8700.992 2035.327 8707.416 2028.255 Q 8713.839 2021.182 8720.515 2011.737 "></path>
  </g>
</svg>