<?xml version="1.0" encoding="UTF-8" standalone="yes"?>
<svg xmlns="http://www.w3.org/2000/svg" xmlns:xlink="http://www.w3.org/1999/xlink" width="349.549pt" height="443.641pt" version="1.1" viewBox="-327.823 654.497 349.549 443.640">
  <!--
	Exported with Concepts: Smarter Sketching
	Version: 2358 on iOS 17.1
	https://concepts.app/
	-->
  <title>4D554B80-0E4C-4C38-8C29-B343643E479A</title>
  <desc>Drawing exported from Concepts: Smarter Sketching</desc>
  <defs></defs>
  <g id="Pen" opacity="1.000">
    <path id="STROKE_9b7b7e32-74b4-4952-aadf-c99686f287d1" opacity="1.000" fill="none" stroke="#7f7e7a" stroke-width="0.936" stroke-opacity="1.000" stroke-linecap="round" stroke-linejoin="round" d="M -133.107 681.516 Q -133.195 681.504 -134.719 679.839 Q -136.244 678.175 -138.818 677.407 Q -141.393 676.639 -145.418 677.381 Q -149.443 678.123 -154.654 680.845 Q -159.864 683.566 -162.768 685.327 Q -165.672 687.087 -170.355 690.618 Q -175.038 694.149 -179.398 698.441 Q -183.759 702.734 -187.018 707.332 Q -190.277 711.929 -192.176 716.195 Q -194.075 720.461 -194.958 722.869 Q -195.840 725.278 -196.679 727.670 Q -197.517 730.063 -198.490 734.252 Q -199.463 738.441 -199.751 743.315 Q -200.039 748.189 -199.818 751.869 Q -199.597 755.548 -198.178 759.559 Q -196.758 763.570 -194.320 767.203 Q -191.881 770.837 -187.920 774.014 Q -183.958 777.191 -178.346 779.770 Q -172.734 782.350 -167.414 783.638 Q -162.095 784.926 -156.592 785.064 Q -151.089 785.203 -147.588 784.833 Q -144.087 784.463 -141.457 784.034 Q -138.826 783.605 -133.950 781.458 Q -129.073 779.310 -126.215 777.704 Q -123.358 776.098 -121.510 774.828 Q -119.663 773.559 -117.106 771.540 Q -114.549 769.521 -112.781 767.902 Q -111.013 766.283 -109.221 764.390 Q -107.429 762.497 -106.537 761.502 Q -105.644 760.508 -104.909 759.573 Q -104.173 758.638 -103.455 757.783 Q -102.737 756.929 -99.966 752.917 Q -97.194 748.906 -94.362 743.648 Q -91.529 738.390 -89.926 734.406 Q -88.323 730.423 -87.116 727.448 Q -85.908 724.473 -84.049 717.883 Q -82.190 711.293 -81.446 704.917 Q -80.703 698.542 -80.640 694.228 Q -80.577 689.914 -81.561 686.197 Q -82.544 682.481 -84.368 679.028 Q -86.192 675.575 -88.447 672.989 Q -90.702 670.404 -92.993 668.683 Q -95.284 666.962 -99.030 665.129 Q -102.775 663.296 -106.955 661.986 Q -111.136 660.676 -118.162 660.080 Q -125.188 659.484 -130.798 659.924 Q -136.407 660.363 -140.422 661.078 Q -144.437 661.794 -159.911 668.312 "></path>
    <path id="STROKE_fe924267-d0e1-4dac-b8d3-4dd156583cfb" opacity="1.000" fill="none" stroke="#7f7e7a" stroke-width="0.942" stroke-opacity="1.000" stroke-linecap="round" stroke-linejoin="round" d="M -191.760 815.875 Q -191.336 815.951 -191.677 816.965 Q -192.018 817.980 -192.410 818.377 Q -192.803 818.775 -193.232 819.320 Q -193.661 819.865 -194.195 820.611 Q -194.728 821.358 -195.715 822.620 Q -196.702 823.882 -200.826 830.957 Q -204.951 838.031 -210.266 848.826 Q -215.582 859.620 -218.339 864.948 Q -221.095 870.276 -223.132 873.927 Q -225.168 877.578 -227.132 880.955 Q -229.097 884.333 -233.520 891.641 Q -237.943 898.949 -243.223 907.197 Q -248.504 915.445 -251.652 920.388 Q -254.801 925.332 -256.283 927.712 Q -257.766 930.092 -260.853 935.089 Q -263.941 940.086 -266.556 944.223 Q -269.172 948.360 -271.013 951.405 Q -272.855 954.449 -274.296 956.974 Q -275.738 959.498 -282.531 971.437 Q -289.324 983.376 -293.143 990.252 Q -296.963 997.128 -298.683 1000.387 Q -300.402 1003.646 -301.294 1005.426 Q -302.187 1007.205 -303.800 1010.398 Q -305.413 1013.590 -309.282 1020.962 Q -313.150 1028.333 -315.763 1035.451 Q -318.376 1042.568 -319.633 1046.995 Q -320.890 1051.422 -322.595 1059.453 "></path>
    <path id="STROKE_f49b0a39-9572-4c4c-8eab-1d2608407f3d" opacity="1.000" fill="none" stroke="#7f7e7a" stroke-width="0.961" stroke-opacity="1.000" stroke-linecap="round" stroke-linejoin="round" d="M -114.368 806.328 Q -114.228 806.181 -113.597 800.156 Q -113.450 800.070 -111.721 799.966 Q -109.992 799.862 -103.904 812.670 Q -97.816 825.477 -94.618 832.923 Q -91.420 840.369 -88.178 848.668 Q -84.936 856.967 -82.674 863.000 Q -80.413 869.033 -78.669 873.815 Q -76.925 878.597 -74.091 886.455 Q -71.257 894.313 -68.914 901.629 Q -66.572 908.945 -65.195 913.163 Q -63.818 917.382 -62.882 920.193 Q -61.946 923.004 -61.041 925.869 Q -60.135 928.735 -56.718 938.461 Q -53.301 948.188 -50.925 954.311 Q -48.549 960.434 -46.432 965.792 Q -44.316 971.149 -41.588 977.245 Q -38.860 983.342 -36.425 988.569 Q -33.990 993.796 -27.394 1006.940 Q -20.798 1020.083 -14.948 1030.737 Q -9.097 1041.391 -5.655 1046.971 Q -2.212 1052.551 -0.320 1055.507 Q 1.572 1058.463 4.344 1061.886 Q 7.116 1065.310 9.886 1067.844 Q 12.655 1070.377 16.487 1073.391 "></path>
    <path id="STROKE_6c58e8a8-35f8-486d-96aa-0ce514987c29" opacity="1.000" fill="none" stroke="#7f7e7a" stroke-width="1.602" stroke-opacity="1.000" stroke-linecap="round" stroke-linejoin="round" d="M -99.465 826.828 Q -99.481 825.661 -99.496 826.000 Q -99.971 824.982 -100.619 824.866 Q -101.267 824.750 -101.106 824.628 Q -100.945 824.506 -100.993 824.567 Q -101.041 824.629 -101.251 824.886 Q -101.461 825.143 -101.944 825.890 Q -102.427 826.637 -102.951 827.994 Q -103.475 829.350 -112.576 841.422 "></path>
    <path id="STROKE_39ab05bf-b19b-4cbf-b579-ad5bfbb1f07f" opacity="1.000" fill="none" stroke="#7f7e7a" stroke-width="1.395" stroke-opacity="1.000" stroke-linecap="round" stroke-linejoin="round" d="M -92.107 840.500 Q -92.076 840.500 -91.982 840.500 Q -91.839 841.109 -91.949 841.023 Q -92.060 840.937 -94.715 845.459 Q -97.371 849.981 -99.465 855.625 "></path>
    <path id="STROKE_bdc69bae-b11d-4f14-a458-3e4b7d0bfdc6" opacity="1.000" fill="none" stroke="#7f7e7a" stroke-width="1.335" stroke-opacity="1.000" stroke-linecap="round" stroke-linejoin="round" d="M -85.083 864.312 Q -85.022 864.575 -84.958 862.984 Q -85.055 863.127 -84.908 862.860 Q -84.761 862.594 -85.924 863.819 Q -87.086 865.045 -88.486 867.231 Q -89.885 869.417 -90.598 870.549 Q -91.310 871.680 -92.574 873.716 Q -93.838 875.751 -97.548 883.297 "></path>
    <path id="STROKE_28825c55-c10a-4ba9-88fe-b5493ebce942" opacity="1.000" fill="none" stroke="#7f7e7a" stroke-width="1.352" stroke-opacity="1.000" stroke-linecap="round" stroke-linejoin="round" d="M -70.451 887.672 Q -69.802 886.862 -72.046 885.914 Q -72.793 886.660 -77.662 894.539 Q -82.531 902.417 -86.626 913.812 "></path>
    <path id="STROKE_85b91085-9717-405f-93ce-5758d2828c35" opacity="1.000" fill="none" stroke="#7f7e7a" stroke-width="1.319" stroke-opacity="1.000" stroke-linecap="round" stroke-linejoin="round" d="M -66.345 912.953 Q -68.097 913.853 -67.933 913.976 Q -67.770 914.099 -67.826 914.139 Q -67.883 914.179 -68.022 914.174 Q -68.162 914.170 -80.060 941.750 "></path>
    <path id="STROKE_3980dafa-a254-436c-b382-b7e3d31353aa" opacity="1.000" fill="none" stroke="#7f7e7a" stroke-width="1.155" stroke-opacity="1.000" stroke-linecap="round" stroke-linejoin="round" d="M -56.361 941.422 Q -56.533 941.396 -58.200 945.361 Q -59.867 949.327 -60.609 951.733 Q -61.352 954.138 -61.762 955.405 Q -62.171 956.672 -62.914 959.503 Q -63.656 962.333 -64.127 964.847 Q -64.599 967.360 -65.636 972.406 "></path>
    <path id="STROKE_89e544bb-3bea-4adf-b90f-d66955854738" opacity="1.000" fill="none" stroke="#7f7e7a" stroke-width="1.369" stroke-opacity="1.000" stroke-linecap="round" stroke-linejoin="round" d="M -44.563 974.984 Q -44.548 974.061 -45.378 978.898 Q -46.208 983.734 -49.399 995.625 "></path>
    <path id="STROKE_331e08dc-d082-4629-a03f-d01faaa8ed68" opacity="1.000" fill="none" stroke="#7f7e7a" stroke-width="1.380" stroke-opacity="1.000" stroke-linecap="round" stroke-linejoin="round" d="M -30.473 1003.453 Q -31.355 1004.586 -31.191 1004.013 Q -31.028 1003.440 -32.085 1006.943 Q -33.143 1010.447 -33.794 1012.844 Q -34.445 1015.242 -39.144 1033.781 "></path>
    <path id="STROKE_f97cbc44-84aa-4666-b13c-e1819e847852" opacity="1.000" fill="none" stroke="#7f7e7a" stroke-width="1.272" stroke-opacity="1.000" stroke-linecap="round" stroke-linejoin="round" d="M -16.696 1036.625 Q -17.378 1036.016 -17.227 1036.203 Q -17.729 1035.535 -19.650 1041.874 Q -21.570 1048.213 -23.782 1057.594 "></path>
    <path id="STROKE_3dbb4dff-98d7-4b77-a0be-db552dffbce4" opacity="1.000" fill="none" stroke="#7f7e7a" stroke-width="1.129" stroke-opacity="1.000" stroke-linecap="round" stroke-linejoin="round" d="M 4.023 1062.250 Q 3.881 1063.481 3.804 1063.211 Q 3.033 1063.842 1.141 1070.932 Q -0.752 1078.023 -1.872 1081.914 Q -2.993 1085.805 -3.258 1088.089 Q -3.523 1090.373 -3.460 1092.500 "></path>
    <path id="STROKE_757c22f7-3adb-409f-b6a6-11be923173dd" opacity="1.000" fill="none" stroke="#7f7e7a" stroke-width="1.700" stroke-opacity="1.000" stroke-linecap="round" stroke-linejoin="round" d="M -162.308 714.172 Q -162.267 714.172 -161.766 713.562 Q -161.530 713.487 -163.747 713.906 "></path>
    <path id="STROKE_d53f3b0a-8f51-4726-af31-457b864397d2" opacity="1.000" fill="none" stroke="#7f7e7a" stroke-width="1.646" stroke-opacity="1.000" stroke-linecap="round" stroke-linejoin="round" d="M -164.018 717.078 Q -163.962 717.450 -163.955 715.992 Q -163.847 716.052 -163.837 715.893 Q -163.828 715.734 -164.503 716.232 Q -165.177 716.729 -165.236 717.737 Q -165.295 718.745 -165.313 719.426 Q -165.330 720.106 -165.164 720.387 Q -164.997 720.667 -165.217 720.569 Q -165.437 720.471 -163.683 720.968 Q -161.928 721.465 -159.627 719.641 Q -157.326 717.818 -156.305 712.508 Q -156.065 712.322 -157.624 712.060 Q -159.182 711.798 -160.425 712.481 Q -161.668 713.164 -163.892 716.094 "></path>
    <path id="STROKE_877a4089-94dd-42ba-b091-cdbf4a83f5de" opacity="1.000" fill="none" stroke="#7f7e7a" stroke-width="1.320" stroke-opacity="1.000" stroke-linecap="round" stroke-linejoin="round" d="M -166.811 753.453 Q -166.205 754.047 -166.677 753.785 Q -167.149 753.522 -165.245 756.327 Q -163.342 759.132 -161.552 760.539 Q -159.763 761.946 -158.388 763.198 Q -157.014 764.450 -154.958 764.656 Q -152.902 764.862 -151.521 764.430 Q -150.141 763.997 -149.445 763.550 Q -148.750 763.103 -146.923 761.219 Q -145.096 759.336 -142.507 756.493 Q -139.918 753.650 -136.942 750.656 "></path>
    <path id="STROKE_151ac99d-94dc-4d43-a4c5-e10f630e68f7" opacity="1.000" fill="none" stroke="#7f7e7a" stroke-width="1.576" stroke-opacity="1.000" stroke-linecap="round" stroke-linejoin="round" d="M -147.593 732.219 Q -147.593 732.250 -147.530 732.781 Q -147.556 732.669 -148.446 733.533 Q -149.336 734.397 -149.709 735.357 Q -150.083 736.316 -150.092 737.373 Q -150.102 738.429 -150.110 739.350 Q -150.118 740.272 -148.720 740.772 Q -147.321 741.272 -146.269 741.160 Q -145.218 741.049 -143.475 739.720 Q -141.732 738.391 -139.697 735.901 Q -137.661 733.412 -137.442 729.062 Q -137.011 728.845 -140.444 729.094 "></path>
    <circle id="STROKE_79096278-1b83-4fb2-84a6-b7b50e9ab231" opacity="1.000" fill="#7f7e7a" stroke="#7f7e7a" stroke-width="0.1" stroke-opacity="1.000" fill-opacity="1.000" cx="-115.890" cy="710.781" r="0.850"></circle>
    <path id="STROKE_f1795abd-6b26-44a5-847b-a0aa7991b85d" opacity="1.000" fill="none" stroke="#7f7e7a" stroke-width="1.700" stroke-opacity="1.000" stroke-linecap="round" stroke-linejoin="round" d="M -116.953 710.250 Q -117.459 710.825 -117.411 710.781 Q -117.515 710.888 -118.061 711.487 Q -118.607 712.086 -118.440 711.903 Q -118.273 711.720 -118.327 711.783 Q -118.380 711.847 -118.768 712.093 Q -119.155 712.339 -119.117 712.322 Q -119.079 712.305 -119.094 712.281 Q -119.108 712.256 -119.267 712.234 "></path>
    <circle id="STROKE_c7739206-1e8e-41c0-af97-7e66b644a13f" opacity="1.000" fill="#7f7e7a" stroke="#7f7e7a" stroke-width="0.1" stroke-opacity="1.000" fill-opacity="1.000" cx="-119.663" cy="713.297" r="0.850"></circle>
    <path id="STROKE_5c6e327e-d639-45f9-8515-6f92c6d03de5" opacity="1.000" fill="none" stroke="#7f7e7a" stroke-width="1.682" stroke-opacity="1.000" stroke-linecap="round" stroke-linejoin="round" d="M -121.038 713.969 Q -121.303 713.969 -119.788 713.969 Q -120.370 712.993 -120.288 713.336 Q -121.682 713.057 -121.288 713.172 Q -122.595 713.172 -122.404 713.172 Q -123.412 713.483 -125.602 715.226 Q -127.792 716.968 -127.896 721.867 Q -127.368 722.352 -125.935 721.902 Q -124.502 721.452 -122.893 719.577 Q -121.284 717.703 -120.203 715.628 Q -119.122 713.553 -119.590 711.477 Q -119.790 710.979 -121.269 711.390 Q -122.747 711.801 -124.415 713.234 "></path>
  </g>
</svg>