<?xml version="1.0" encoding="UTF-8" standalone="yes"?>
<svg xmlns="http://www.w3.org/2000/svg" xmlns:xlink="http://www.w3.org/1999/xlink" width="548.207pt" height="434.610pt" version="1.1" viewBox="8184.684 1917.948 548.207 434.610">
  <!--
	Exported with Concepts: Smarter Sketching
	Version: 2358 on iOS 17.1
	https://concepts.app/
	-->
  <title>DA3D6FFC-2C56-4958-A72A-6D7D84411830</title>
  <desc>Drawing exported from Concepts: Smarter Sketching</desc>
  <defs></defs>
  <g id="Grid" opacity="1.000">
    <path id="STROKE_d39c158e-43b2-40ac-b339-b29b2bfb7274" opacity="0.900" fill="none" stroke="#7f7e7a" stroke-width="1.707" stroke-opacity="1.000" stroke-linecap="round" stroke-linejoin="round" d="M 8200.285 1986.697 L 8338.773 1986.697 L 8338.774 2148.092 L 8200.284 2148.093 Z"></path>
    <path id="STROKE_27cd47c5-f705-443f-9c5b-831a562b01d0" opacity="0.900" fill="none" stroke="#7f7e7a" stroke-width="1.707" stroke-opacity="1.000" stroke-linecap="round" stroke-linejoin="round" d="M 8715.980 2066.477 Q 8715.989 2067.389 8715.980 2068.302 Q 8715.973 2069.214 8715.945 2070.127 Q 8715.919 2071.039 8715.875 2071.950 Q 8715.832 2072.862 8715.770 2073.772 Q 8715.708 2074.682 8715.629 2075.590 Q 8715.551 2076.498 8715.454 2077.404 Q 8715.357 2078.310 8715.244 2079.213 Q 8715.130 2080.116 8714.998 2081.016 Q 8714.866 2081.915 8714.718 2082.812 Q 8714.569 2083.708 8714.403 2084.600 Q 8714.237 2085.491 8714.055 2086.379 Q 8713.872 2087.266 8713.672 2088.148 Q 8713.471 2089.031 8713.254 2089.907 Q 8713.037 2090.784 8712.803 2091.655 Q 8712.568 2092.525 8712.318 2093.390 Q 8712.067 2094.254 8711.800 2095.111 Q 8711.532 2095.969 8711.249 2096.819 Q 8710.966 2097.669 8710.666 2098.512 Q 8710.366 2099.354 8710.049 2100.188 Q 8709.732 2101.022 8709.400 2101.848 Q 8709.068 2102.674 8708.721 2103.490 Q 8708.372 2104.307 8708.008 2105.114 Q 8707.645 2105.921 8707.266 2106.719 Q 8706.887 2107.516 8706.492 2108.303 Q 8706.098 2109.090 8705.688 2109.867 Q 8705.278 2110.643 8704.854 2111.408 Q 8704.430 2112.174 8703.991 2112.928 Q 8703.553 2113.682 8703.099 2114.424 Q 8702.645 2115.166 8702.178 2115.896 Q 8701.710 2116.626 8701.229 2117.343 Q 8700.746 2118.061 8700.251 2118.765 Q 8699.756 2119.470 8699.246 2120.161 Q 8698.737 2120.852 8698.216 2121.529 Q 8697.694 2122.207 8697.159 2122.870 Q 8696.624 2123.534 8696.076 2124.183 Q 8695.529 2124.832 8694.969 2125.467 Q 8694.409 2126.101 8693.837 2126.720 Q 8693.265 2127.340 8692.681 2127.944 Q 8692.097 2128.548 8691.502 2129.137 Q 8690.906 2129.725 8690.300 2130.298 Q 8689.693 2130.871 8689.076 2131.427 Q 8688.459 2131.983 8687.831 2132.523 Q 8687.203 2133.063 8686.564 2133.586 Q 8685.927 2134.110 8685.278 2134.616 Q 8684.630 2135.122 8683.973 2135.611 Q 8683.314 2136.099 8682.647 2136.571 Q 8681.980 2137.042 8681.305 2137.495 Q 8680.629 2137.949 8679.944 2138.384 Q 8679.260 2138.820 8678.567 2139.237 Q 8677.875 2139.654 8677.174 2140.053 Q 8676.474 2140.451 8675.766 2140.832 Q 8675.057 2141.211 8674.342 2141.573 Q 8673.627 2141.934 8672.904 2142.276 Q 8672.183 2142.618 8671.454 2142.941 Q 8670.726 2143.264 8669.991 2143.568 Q 8669.257 2143.871 8668.518 2144.156 Q 8667.777 2144.440 8667.031 2144.704 Q 8666.286 2144.968 8665.535 2145.213 Q 8664.785 2145.458 8664.030 2145.682 Q 8663.275 2145.907 8662.516 2146.111 Q 8661.757 2146.316 8660.994 2146.500 Q 8660.231 2146.685 8659.466 2146.849 Q 8658.700 2147.013 8657.931 2147.157 Q 8657.161 2147.301 8656.390 2147.424 Q 8655.618 2147.547 8654.844 2147.650 Q 8654.070 2147.753 8653.295 2147.836 Q 8652.520 2147.918 8651.742 2147.980 Q 8650.965 2148.042 8650.188 2148.083 Q 8649.409 2148.124 8648.631 2148.145 Q 8647.853 2148.166 8647.073 2148.166 Q 8646.294 2148.166 8645.516 2148.145 Q 8644.736 2148.124 8643.959 2148.083 Q 8643.182 2148.042 8642.404 2147.980 Q 8641.627 2147.918 8640.852 2147.836 Q 8640.075 2147.753 8639.302 2147.650 Q 8638.528 2147.548 8637.756 2147.424 Q 8636.984 2147.301 8636.216 2147.157 Q 8635.447 2147.013 8634.681 2146.849 Q 8633.914 2146.685 8633.151 2146.500 Q 8632.389 2146.316 8631.630 2146.111 Q 8630.871 2145.907 8630.115 2145.682 Q 8629.360 2145.458 8628.610 2145.213 Q 8627.860 2144.969 8627.115 2144.704 Q 8626.370 2144.440 8625.631 2144.156 Q 8624.891 2143.872 8624.156 2143.568 Q 8623.421 2143.264 8622.693 2142.941 Q 8621.965 2142.618 8621.242 2142.276 Q 8620.520 2141.934 8619.805 2141.573 Q 8619.090 2141.212 8618.381 2140.832 Q 8617.673 2140.451 8616.973 2140.053 Q 8616.272 2139.654 8615.580 2139.237 Q 8614.887 2138.819 8614.202 2138.384 Q 8613.518 2137.949 8612.842 2137.495 Q 8612.166 2137.042 8611.499 2136.570 Q 8610.832 2136.099 8610.174 2135.610 Q 8609.517 2135.122 8608.868 2134.615 Q 8608.220 2134.109 8607.582 2133.586 Q 8606.943 2133.063 8606.315 2132.523 Q 8605.688 2131.983 8605.070 2131.427 Q 8604.452 2130.870 8603.846 2130.298 Q 8603.239 2129.726 8602.644 2129.137 Q 8602.048 2128.548 8601.465 2127.944 Q 8600.881 2127.340 8600.309 2126.721 Q 8599.737 2126.101 8599.177 2125.467 Q 8598.616 2124.832 8598.068 2124.183 Q 8597.521 2123.534 8596.986 2122.871 Q 8596.452 2122.207 8595.930 2121.529 Q 8595.407 2120.852 8594.898 2120.161 Q 8594.391 2119.470 8593.896 2118.765 Q 8593.400 2118.061 8592.918 2117.344 Q 8592.437 2116.626 8591.969 2115.896 Q 8591.502 2115.166 8591.049 2114.424 Q 8590.595 2113.682 8590.156 2112.928 Q 8589.717 2112.174 8589.293 2111.408 Q 8588.868 2110.643 8588.458 2109.866 Q 8588.048 2109.090 8587.654 2108.303 Q 8587.260 2107.516 8586.881 2106.719 Q 8586.501 2105.921 8586.137 2105.114 Q 8585.773 2104.307 8585.426 2103.490 Q 8585.077 2102.673 8584.745 2101.848 Q 8584.413 2101.022 8584.097 2100.188 Q 8583.780 2099.354 8583.480 2098.511 Q 8583.181 2097.669 8582.896 2096.819 Q 8582.613 2095.969 8582.346 2095.111 Q 8582.078 2094.254 8581.828 2093.390 Q 8581.577 2092.525 8581.344 2091.655 Q 8581.109 2090.784 8580.893 2089.907 Q 8580.675 2089.030 8580.475 2088.148 Q 8580.274 2087.266 8580.092 2086.379 Q 8579.908 2085.491 8579.742 2084.600 Q 8579.576 2083.708 8579.428 2082.812 Q 8579.279 2081.916 8579.147 2081.016 Q 8579.016 2080.116 8578.902 2079.213 Q 8578.788 2078.310 8578.691 2077.404 Q 8578.595 2076.498 8578.516 2075.590 Q 8578.437 2074.682 8578.375 2073.771 Q 8578.313 2072.862 8578.270 2071.950 Q 8578.225 2071.039 8578.199 2070.126 Q 8578.173 2069.214 8578.164 2068.301 Q 8578.155 2067.388 8578.164 2066.476 Q 8578.172 2065.562 8578.199 2064.650 Q 8578.226 2063.738 8578.270 2062.827 Q 8578.312 2061.915 8578.375 2061.005 Q 8578.438 2060.095 8578.516 2059.187 Q 8578.595 2058.279 8578.691 2057.373 Q 8578.788 2056.467 8578.902 2055.564 Q 8579.016 2054.661 8579.147 2053.761 Q 8579.279 2052.861 8579.428 2051.965 Q 8579.576 2051.069 8579.742 2050.177 Q 8579.908 2049.285 8580.092 2048.398 Q 8580.274 2047.510 8580.475 2046.628 Q 8580.675 2045.746 8580.892 2044.870 Q 8581.108 2043.993 8581.343 2043.122 Q 8581.577 2042.251 8581.828 2041.387 Q 8582.078 2040.523 8582.346 2039.665 Q 8582.613 2038.808 8582.896 2037.958 Q 8583.180 2037.108 8583.480 2036.265 Q 8583.780 2035.423 8584.097 2034.589 Q 8584.413 2033.754 8584.745 2032.929 Q 8585.077 2032.103 8585.426 2031.286 Q 8585.773 2030.470 8586.137 2029.663 Q 8586.501 2028.855 8586.880 2028.058 Q 8587.259 2027.261 8587.654 2026.474 Q 8588.049 2025.687 8588.458 2024.910 Q 8588.867 2024.134 8589.291 2023.368 Q 8589.716 2022.603 8590.154 2021.849 Q 8590.594 2021.095 8591.047 2020.353 Q 8591.501 2019.610 8591.969 2018.880 Q 8592.437 2018.150 8592.918 2017.433 Q 8593.399 2016.716 8593.895 2016.011 Q 8594.391 2015.307 8594.899 2014.616 Q 8595.408 2013.924 8595.930 2013.247 Q 8596.452 2012.570 8596.986 2011.906 Q 8597.521 2011.243 8598.068 2010.593 Q 8598.616 2009.944 8599.177 2009.310 Q 8599.737 2008.675 8600.309 2008.056 Q 8600.881 2007.436 8601.465 2006.832 Q 8602.049 2006.228 8602.645 2005.639 Q 8603.239 2005.051 8603.846 2004.478 Q 8604.452 2003.906 8605.069 2003.349 Q 8605.687 2002.793 8606.314 2002.253 Q 8606.942 2001.713 8607.580 2001.190 Q 8608.219 2000.667 8608.867 2000.161 Q 8609.516 1999.655 8610.174 1999.166 Q 8610.831 1998.677 8611.498 1998.206 Q 8612.165 1997.734 8612.841 1997.281 Q 8613.517 1996.828 8614.201 1996.392 Q 8614.886 1995.957 8615.578 1995.540 Q 8616.271 1995.122 8616.973 1994.724 Q 8617.673 1994.325 8618.381 1993.945 Q 8619.089 1993.565 8619.805 1993.203 Q 8620.520 1992.842 8621.242 1992.500 Q 8621.964 1992.158 8622.692 1991.835 Q 8623.421 1991.512 8624.155 1991.208 Q 8624.890 1990.905 8625.630 1990.621 Q 8626.370 1990.337 8627.115 1990.072 Q 8627.861 1989.808 8628.611 1989.563 Q 8629.361 1989.319 8630.116 1989.094 Q 8630.871 1988.870 8631.630 1988.665 Q 8632.389 1988.460 8633.152 1988.276 Q 8633.915 1988.091 8634.682 1987.927 Q 8635.447 1987.763 8636.216 1987.619 Q 8636.984 1987.476 8637.756 1987.352 Q 8638.528 1987.229 8639.303 1987.126 Q 8640.076 1987.023 8640.852 1986.940 Q 8641.627 1986.858 8642.404 1986.796 Q 8643.181 1986.734 8643.959 1986.693 Q 8644.737 1986.652 8645.516 1986.631 Q 8646.294 1986.610 8647.072 1986.611 Q 8647.852 1986.611 8648.631 1986.631 Q 8649.409 1986.652 8650.188 1986.693 Q 8650.965 1986.734 8651.742 1986.796 Q 8652.520 1986.858 8653.295 1986.941 Q 8654.071 1987.023 8654.845 1987.126 Q 8655.618 1987.229 8656.391 1987.352 Q 8657.162 1987.476 8657.931 1987.620 Q 8658.699 1987.763 8659.466 1987.927 Q 8660.232 1988.092 8660.995 1988.276 Q 8661.758 1988.461 8662.517 1988.665 Q 8663.275 1988.870 8664.031 1989.094 Q 8664.786 1989.319 8665.536 1989.564 Q 8666.286 1989.808 8667.031 1990.073 Q 8667.777 1990.337 8668.518 1990.621 Q 8669.257 1990.905 8669.992 1991.209 Q 8670.727 1991.512 8671.454 1991.835 Q 8672.182 1992.158 8672.904 1992.500 Q 8673.627 1992.843 8674.342 1993.204 Q 8675.057 1993.565 8675.766 1993.945 Q 8676.474 1994.326 8677.174 1994.724 Q 8677.874 1995.123 8678.566 1995.540 Q 8679.259 1995.957 8679.943 1996.393 Q 8680.629 1996.828 8681.305 1997.282 Q 8681.980 1997.735 8682.647 1998.207 Q 8683.314 1998.678 8683.973 1999.167 Q 8684.630 1999.655 8685.278 2000.162 Q 8685.927 2000.668 8686.564 2001.191 Q 8687.203 2001.714 8687.831 2002.254 Q 8688.459 2002.794 8689.076 2003.350 Q 8689.694 2003.907 8690.301 2004.479 Q 8690.907 2005.052 8691.502 2005.641 Q 8692.098 2006.229 8692.682 2006.833 Q 8693.266 2007.438 8693.838 2008.057 Q 8694.409 2008.676 8694.969 2009.311 Q 8695.529 2009.946 8696.077 2010.595 Q 8696.625 2011.244 8697.160 2011.907 Q 8697.694 2012.571 8698.217 2013.248 Q 8698.739 2013.926 8699.248 2014.617 Q 8699.756 2015.308 8700.251 2016.012 Q 8700.746 2016.717 8701.229 2017.434 Q 8701.710 2018.152 8702.178 2018.882 Q 8702.646 2019.612 8703.098 2020.354 Q 8703.551 2021.096 8703.990 2021.850 Q 8704.430 2022.604 8704.854 2023.370 Q 8705.278 2024.135 8705.688 2024.911 Q 8706.098 2025.688 8706.492 2026.475 Q 8706.887 2027.262 8707.266 2028.060 Q 8707.645 2028.857 8708.009 2029.664 Q 8708.373 2030.471 8708.721 2031.288 Q 8709.069 2032.105 8709.401 2032.930 Q 8709.733 2033.756 8710.050 2034.590 Q 8710.366 2035.425 8710.666 2036.267 Q 8710.966 2037.109 8711.250 2037.959 Q 8711.533 2038.810 8711.801 2039.667 Q 8712.068 2040.525 8712.318 2041.389 Q 8712.569 2042.253 8712.803 2043.124 Q 8713.037 2043.995 8713.254 2044.871 Q 8713.472 2045.748 8713.672 2046.630 Q 8713.872 2047.512 8714.055 2048.400 Q 8714.237 2049.287 8714.404 2050.179 Q 8714.570 2051.071 8714.719 2051.967 Q 8714.867 2052.863 8714.999 2053.763 Q 8715.131 2054.663 8715.244 2055.566 Q 8715.358 2056.469 8715.455 2057.375 Q 8715.551 2058.281 8715.631 2059.189 Q 8715.710 2060.097 8715.771 2061.007 Q 8715.831 2061.917 8715.875 2062.829 Q 8715.920 2063.740 8715.946 2064.652 Q 8715.973 2065.565 8715.980 2066.477 Z"></path>
    <path id="STROKE_191e1c28-1d8b-4227-a2c3-be389265935b" opacity="0.900" fill="none" stroke="#7f7e7a" stroke-width="1.707" stroke-opacity="1.000" stroke-linecap="round" stroke-linejoin="round" d="M 8716.354 2263.702 Q 8716.363 2264.614 8716.354 2265.527 Q 8716.346 2266.440 8716.319 2267.352 Q 8716.293 2268.264 8716.249 2269.176 Q 8716.205 2270.087 8716.144 2270.997 Q 8716.082 2271.907 8716.004 2272.815 Q 8715.925 2273.724 8715.828 2274.629 Q 8715.730 2275.535 8715.617 2276.438 Q 8715.503 2277.342 8715.371 2278.241 Q 8715.240 2279.141 8715.092 2280.037 Q 8714.943 2280.933 8714.777 2281.825 Q 8714.611 2282.717 8714.428 2283.604 Q 8714.245 2284.492 8714.045 2285.374 Q 8713.845 2286.256 8713.628 2287.133 Q 8713.411 2288.009 8713.177 2288.880 Q 8712.942 2289.750 8712.691 2290.615 Q 8712.441 2291.479 8712.174 2292.337 Q 8711.906 2293.194 8711.623 2294.044 Q 8711.339 2294.895 8711.039 2295.737 Q 8710.739 2296.579 8710.423 2297.414 Q 8710.106 2298.248 8709.774 2299.073 Q 8709.442 2299.899 8709.094 2300.716 Q 8708.745 2301.532 8708.382 2302.339 Q 8708.019 2303.147 8707.640 2303.944 Q 8707.261 2304.741 8706.865 2305.528 Q 8706.471 2306.315 8706.062 2307.092 Q 8705.652 2307.868 8705.229 2308.634 Q 8704.804 2309.399 8704.365 2310.153 Q 8703.926 2310.907 8703.473 2311.649 Q 8703.019 2312.392 8702.551 2313.122 Q 8702.083 2313.852 8701.602 2314.569 Q 8701.120 2315.286 8700.625 2315.991 Q 8700.130 2316.695 8699.621 2317.386 Q 8699.111 2318.077 8698.590 2318.755 Q 8698.067 2319.432 8697.533 2320.096 Q 8696.998 2320.759 8696.451 2321.408 Q 8695.903 2322.058 8695.344 2322.692 Q 8694.783 2323.327 8694.211 2323.946 Q 8693.639 2324.565 8693.055 2325.169 Q 8692.471 2325.773 8691.875 2326.362 Q 8691.280 2326.951 8690.674 2327.523 Q 8690.067 2328.096 8689.449 2328.652 Q 8688.832 2329.209 8688.204 2329.749 Q 8687.576 2330.289 8686.938 2330.812 Q 8686.300 2331.335 8685.652 2331.841 Q 8685.004 2332.347 8684.346 2332.836 Q 8683.688 2333.325 8683.021 2333.796 Q 8682.354 2334.267 8681.679 2334.721 Q 8681.003 2335.174 8680.318 2335.609 Q 8679.634 2336.045 8678.941 2336.462 Q 8678.248 2336.879 8677.547 2337.278 Q 8676.847 2337.677 8676.139 2338.057 Q 8675.431 2338.437 8674.715 2338.798 Q 8674.000 2339.159 8673.277 2339.501 Q 8672.556 2339.844 8671.827 2340.167 Q 8671.099 2340.490 8670.364 2340.793 Q 8669.630 2341.097 8668.891 2341.381 Q 8668.150 2341.665 8667.404 2341.929 Q 8666.659 2342.194 8665.908 2342.438 Q 8665.158 2342.683 8664.403 2342.907 Q 8663.648 2343.132 8662.890 2343.337 Q 8662.131 2343.541 8661.367 2343.726 Q 8660.604 2343.910 8659.839 2344.074 Q 8659.073 2344.239 8658.305 2344.382 Q 8657.535 2344.526 8656.764 2344.649 Q 8655.991 2344.773 8655.217 2344.876 Q 8654.443 2344.979 8653.668 2345.061 Q 8652.893 2345.144 8652.115 2345.206 Q 8651.339 2345.267 8650.561 2345.309 Q 8649.782 2345.350 8649.004 2345.370 Q 8648.226 2345.391 8647.447 2345.391 Q 8646.668 2345.391 8645.889 2345.370 Q 8645.110 2345.350 8644.332 2345.309 Q 8643.555 2345.268 8642.777 2345.206 Q 8642.000 2345.144 8641.225 2345.061 Q 8640.449 2344.979 8639.676 2344.876 Q 8638.901 2344.773 8638.130 2344.650 Q 8637.358 2344.526 8636.590 2344.382 Q 8635.820 2344.239 8635.055 2344.074 Q 8634.288 2343.910 8633.525 2343.726 Q 8632.762 2343.541 8632.003 2343.337 Q 8631.244 2343.132 8630.489 2342.907 Q 8629.734 2342.683 8628.984 2342.438 Q 8628.234 2342.194 8627.488 2341.929 Q 8626.743 2341.665 8626.004 2341.381 Q 8625.264 2341.097 8624.529 2340.793 Q 8623.794 2340.490 8623.066 2340.167 Q 8622.338 2339.844 8621.615 2339.502 Q 8620.894 2339.159 8620.178 2338.798 Q 8619.463 2338.437 8618.755 2338.057 Q 8618.047 2337.677 8617.346 2337.278 Q 8616.646 2336.879 8615.953 2336.462 Q 8615.260 2336.045 8614.576 2335.609 Q 8613.892 2335.174 8613.216 2334.721 Q 8612.540 2334.267 8611.873 2333.796 Q 8611.205 2333.325 8610.547 2332.836 Q 8609.890 2332.347 8609.241 2331.841 Q 8608.593 2331.335 8607.955 2330.812 Q 8607.317 2330.289 8606.689 2329.749 Q 8606.062 2329.209 8605.443 2328.652 Q 8604.826 2328.096 8604.220 2327.523 Q 8603.613 2326.951 8603.018 2326.362 Q 8602.422 2325.774 8601.838 2325.169 Q 8601.255 2324.565 8600.683 2323.946 Q 8600.110 2323.326 8599.551 2322.692 Q 8598.990 2322.057 8598.443 2321.408 Q 8597.896 2320.759 8597.361 2320.096 Q 8596.826 2319.432 8596.304 2318.755 Q 8595.781 2318.077 8595.272 2317.386 Q 8594.764 2316.695 8594.269 2315.991 Q 8593.773 2315.286 8593.291 2314.569 Q 8592.810 2313.851 8592.343 2313.122 Q 8591.876 2312.392 8591.422 2311.649 Q 8590.968 2310.907 8590.529 2310.153 Q 8590.090 2309.399 8589.666 2308.634 Q 8589.241 2307.868 8588.832 2307.092 Q 8588.422 2306.315 8588.027 2305.528 Q 8587.633 2304.741 8587.254 2303.944 Q 8586.875 2303.147 8586.511 2302.339 Q 8586.146 2301.532 8585.799 2300.715 Q 8585.451 2299.899 8585.119 2299.073 Q 8584.787 2298.248 8584.471 2297.413 Q 8584.153 2296.579 8583.854 2295.737 Q 8583.554 2294.894 8583.270 2294.044 Q 8582.986 2293.194 8582.719 2292.336 Q 8582.451 2291.479 8582.201 2290.615 Q 8581.950 2289.751 8581.717 2288.880 Q 8581.482 2288.009 8581.266 2287.133 Q 8581.048 2286.256 8580.848 2285.374 Q 8580.647 2284.491 8580.465 2283.604 Q 8580.282 2282.717 8580.115 2281.825 Q 8579.949 2280.933 8579.801 2280.037 Q 8579.652 2279.141 8579.521 2278.241 Q 8579.389 2277.341 8579.275 2276.438 Q 8579.161 2275.535 8579.064 2274.629 Q 8578.969 2273.723 8578.889 2272.815 Q 8578.810 2271.907 8578.748 2270.997 Q 8578.688 2270.087 8578.643 2269.175 Q 8578.599 2268.264 8578.572 2267.352 Q 8578.546 2266.439 8578.537 2265.527 Q 8578.529 2264.614 8578.537 2263.701 Q 8578.546 2262.788 8578.572 2261.876 Q 8578.599 2260.963 8578.643 2260.052 Q 8578.687 2259.140 8578.748 2258.230 Q 8578.811 2257.321 8578.890 2256.412 Q 8578.969 2255.504 8579.065 2254.598 Q 8579.162 2253.692 8579.275 2252.789 Q 8579.390 2251.886 8579.521 2250.986 Q 8579.652 2250.087 8579.801 2249.190 Q 8579.949 2248.294 8580.115 2247.403 Q 8580.282 2246.511 8580.465 2245.623 Q 8580.647 2244.736 8580.848 2243.854 Q 8581.049 2242.972 8581.266 2242.095 Q 8581.482 2241.218 8581.717 2240.348 Q 8581.950 2239.477 8582.201 2238.613 Q 8582.451 2237.748 8582.719 2236.891 Q 8582.986 2236.033 8583.270 2235.183 Q 8583.554 2234.333 8583.854 2233.491 Q 8584.153 2232.648 8584.470 2231.814 Q 8584.786 2230.980 8585.118 2230.154 Q 8585.450 2229.329 8585.799 2228.512 Q 8586.147 2227.695 8586.511 2226.888 Q 8586.874 2226.081 8587.254 2225.283 Q 8587.633 2224.486 8588.027 2223.699 Q 8588.422 2222.912 8588.831 2222.135 Q 8589.240 2221.359 8589.664 2220.594 Q 8590.089 2219.828 8590.527 2219.074 Q 8590.967 2218.320 8591.421 2217.578 Q 8591.875 2216.836 8592.342 2216.106 Q 8592.810 2215.376 8593.291 2214.658 Q 8593.772 2213.941 8594.269 2213.237 Q 8594.765 2212.532 8595.273 2211.841 Q 8595.781 2211.150 8596.303 2210.472 Q 8596.825 2209.795 8597.359 2209.131 Q 8597.895 2208.468 8598.442 2207.819 Q 8598.990 2207.170 8599.551 2206.535 Q 8600.110 2205.901 8600.683 2205.281 Q 8601.255 2204.662 8601.838 2204.058 Q 8602.422 2203.454 8603.018 2202.865 Q 8603.612 2202.276 8604.219 2201.704 Q 8604.825 2201.131 8605.443 2200.575 Q 8606.061 2200.018 8606.688 2199.479 Q 8607.316 2198.938 8607.955 2198.415 Q 8608.593 2197.892 8609.240 2197.386 Q 8609.889 2196.880 8610.547 2196.391 Q 8611.204 2195.902 8611.871 2195.431 Q 8612.538 2194.960 8613.215 2194.506 Q 8613.891 2194.053 8614.575 2193.617 Q 8615.260 2193.182 8615.952 2192.765 Q 8616.645 2192.348 8617.346 2191.949 Q 8618.046 2191.550 8618.754 2191.170 Q 8619.462 2190.790 8620.178 2190.429 Q 8620.893 2190.068 8621.615 2189.726 Q 8622.337 2189.383 8623.065 2189.060 Q 8623.794 2188.737 8624.528 2188.434 Q 8625.263 2188.130 8626.003 2187.846 Q 8626.743 2187.562 8627.488 2187.298 Q 8628.234 2187.033 8628.984 2186.789 Q 8629.734 2186.544 8630.489 2186.320 Q 8631.244 2186.095 8632.004 2185.890 Q 8632.763 2185.686 8633.525 2185.501 Q 8634.288 2185.317 8635.055 2185.153 Q 8635.820 2184.989 8636.590 2184.845 Q 8637.358 2184.701 8638.130 2184.578 Q 8638.901 2184.454 8639.676 2184.351 Q 8640.449 2184.248 8641.225 2184.166 Q 8642.000 2184.083 8642.777 2184.021 Q 8643.555 2183.960 8644.333 2183.918 Q 8645.111 2183.877 8645.890 2183.857 Q 8646.668 2183.836 8647.447 2183.836 Q 8648.226 2183.836 8649.004 2183.857 Q 8649.783 2183.877 8650.561 2183.918 Q 8651.339 2183.960 8652.115 2184.022 Q 8652.893 2184.084 8653.668 2184.166 Q 8654.444 2184.249 8655.218 2184.352 Q 8655.991 2184.454 8656.764 2184.578 Q 8657.535 2184.701 8658.305 2184.845 Q 8659.073 2184.989 8659.840 2185.153 Q 8660.605 2185.317 8661.369 2185.502 Q 8662.132 2185.686 8662.891 2185.891 Q 8663.649 2186.095 8664.404 2186.320 Q 8665.159 2186.545 8665.909 2186.789 Q 8666.659 2187.034 8667.404 2187.298 Q 8668.150 2187.563 8668.891 2187.847 Q 8669.631 2188.130 8670.365 2188.434 Q 8671.100 2188.738 8671.828 2189.061 Q 8672.556 2189.384 8673.277 2189.726 Q 8674.000 2190.068 8674.715 2190.429 Q 8675.431 2190.791 8676.139 2191.171 Q 8676.847 2191.551 8677.547 2191.950 Q 8678.248 2192.348 8678.940 2192.766 Q 8679.633 2193.183 8680.317 2193.618 Q 8681.002 2194.054 8681.678 2194.507 Q 8682.354 2194.960 8683.021 2195.432 Q 8683.688 2195.903 8684.346 2196.392 Q 8685.004 2196.881 8685.652 2197.387 Q 8686.301 2197.893 8686.938 2198.416 Q 8687.576 2198.939 8688.204 2199.479 Q 8688.832 2200.019 8689.449 2200.576 Q 8690.067 2201.132 8690.674 2201.705 Q 8691.280 2202.277 8691.876 2202.866 Q 8692.472 2203.455 8693.055 2204.059 Q 8693.639 2204.663 8694.211 2205.282 Q 8694.783 2205.902 8695.344 2206.537 Q 8695.903 2207.171 8696.451 2207.820 Q 8696.998 2208.469 8697.533 2209.132 Q 8698.067 2209.796 8698.590 2210.474 Q 8699.112 2211.151 8699.621 2211.842 Q 8700.130 2212.533 8700.625 2213.238 Q 8701.120 2213.942 8701.602 2214.660 Q 8702.084 2215.377 8702.551 2216.107 Q 8703.019 2216.837 8703.472 2217.579 Q 8703.925 2218.321 8704.364 2219.075 Q 8704.804 2219.830 8705.229 2220.595 Q 8705.652 2221.360 8706.062 2222.137 Q 8706.472 2222.914 8706.866 2223.701 Q 8707.261 2224.488 8707.640 2225.285 Q 8708.019 2226.083 8708.383 2226.890 Q 8708.746 2227.697 8709.094 2228.514 Q 8709.442 2229.330 8709.774 2230.156 Q 8710.106 2230.981 8710.423 2231.815 Q 8710.739 2232.650 8711.039 2233.492 Q 8711.340 2234.335 8711.623 2235.185 Q 8711.906 2236.035 8712.174 2236.893 Q 8712.441 2237.750 8712.691 2238.614 Q 8712.942 2239.479 8713.176 2240.349 Q 8713.410 2241.220 8713.628 2242.097 Q 8713.846 2242.974 8714.045 2243.856 Q 8714.245 2244.738 8714.428 2245.625 Q 8714.611 2246.512 8714.777 2247.404 Q 8714.943 2248.296 8715.092 2249.192 Q 8715.240 2250.089 8715.372 2250.988 Q 8715.504 2251.888 8715.617 2252.791 Q 8715.731 2253.694 8715.828 2254.600 Q 8715.925 2255.506 8716.004 2256.414 Q 8716.083 2257.323 8716.145 2258.232 Q 8716.205 2259.143 8716.250 2260.054 Q 8716.294 2260.966 8716.320 2261.878 Q 8716.346 2262.790 8716.354 2263.702 Z"></path>
    <path id="STROKE_7912ec1b-9b21-4763-bc94-21d1e7ad2470" opacity="0.900" fill="none" stroke="#7f7e7a" stroke-width="1.707" stroke-opacity="1.000" stroke-linecap="round" stroke-linejoin="round" d="M 8463.870 2121.428 L 8411.168 2148.996 L 8421.168 2090.347 L 8378.734 2048.996 L 8437.654 2040.347 L 8463.870 1986.833 L 8490.357 2040.347 L 8549.276 2048.996 L 8506.573 2090.347 L 8516.573 2148.996 Z"></path>
    <path id="STROKE_73669b9b-3c2d-412e-ba44-dbb68aab717e" opacity="0.900" fill="none" stroke="#7f7e7a" stroke-width="1.707" stroke-opacity="1.000" stroke-linecap="round" stroke-linejoin="round" d="M 8464.157 2318.482 L 8411.454 2346.050 L 8421.454 2287.401 L 8379.021 2246.050 L 8437.940 2237.401 L 8464.157 2183.887 L 8490.644 2237.401 L 8549.562 2246.050 L 8506.860 2287.401 L 8516.860 2346.050 Z"></path>
  </g>
  <g id="Texts_dots" opacity="1.000">
    <path id="STROKE_3d582b26-b0a6-4479-98f6-d5be2fdaa37c" opacity="1.000" fill="none" stroke="#7f7e7a" stroke-width="2.291" stroke-opacity="1.000" stroke-linecap="round" stroke-linejoin="round" d="M 8206.602 1927.364 Q 8206.656 1927.099 8206.920 1926.407 Q 8207.121 1926.903 8208.061 1934.031 Q 8209.000 1941.158 8209.527 1945.682 Q 8210.054 1950.206 8210.322 1953.223 Q 8210.390 1953.073 8210.433 1952.809 Q 8210.476 1952.544 8210.506 1952.062 "></path>
    <path id="STROKE_29295c6a-055a-41e1-a8ae-96fd7eb21ab5" opacity="1.000" fill="none" stroke="#7f7e7a" stroke-width="2.378" stroke-opacity="1.000" stroke-linecap="round" stroke-linejoin="round" d="M 8222.504 1928.908 Q 8222.046 1928.858 8222.047 1928.878 Q 8221.752 1929.191 8222.413 1933.501 Q 8223.074 1937.812 8223.694 1943.489 Q 8224.314 1949.166 8224.372 1949.554 "></path>
    <path id="STROKE_b6073c3f-1ed4-426f-abb8-c474aedb8df1" opacity="1.000" fill="none" stroke="#7f7e7a" stroke-width="2.441" stroke-opacity="1.000" stroke-linecap="round" stroke-linejoin="round" d="M 8206.068 1939.646 L 8205.924 1939.602 Q 8206.104 1939.652 8211.980 1939.447 Q 8217.856 1939.242 8221.326 1939.222 Q 8224.797 1939.202 8225.542 1939.133 "></path>
    <circle id="STROKE_fe2a0277-71c1-4ba0-9cb1-f1478f711f97" opacity="1.000" fill="#7f7e7a" stroke="#7f7e7a" stroke-width="0.1" stroke-opacity="1.000" fill-opacity="1.000" cx="8230.263" cy="1950.773" r="1.506"></circle>
    <path id="STROKE_cb4f78b2-5e76-4e37-a760-337f3589d455" opacity="1.000" fill="none" stroke="#7f7e7a" stroke-width="2.655" stroke-opacity="1.000" stroke-linecap="round" stroke-linejoin="round" d="M 8229.498 1952.028 Q 8229.499 1951.879 8229.441 1951.776 Q 8229.488 1951.446 8229.427 1951.356 Q 8229.365 1951.266 8230.855 1948.256 Q 8232.347 1945.245 8233.512 1943.032 Q 8234.678 1940.818 8235.568 1936.973 Q 8236.458 1933.127 8236.533 1931.308 Q 8236.609 1929.489 8236.585 1929.506 Q 8236.561 1929.523 8236.346 1929.719 Q 8236.132 1929.915 8236.129 1929.928 Q 8236.126 1929.941 8235.900 1930.862 Q 8235.675 1931.783 8235.619 1932.099 "></path>
    <path id="STROKE_3c997d06-ee4d-411f-bf68-e57beb07a240" opacity="1.000" fill="none" stroke="#7f7e7a" stroke-width="2.268" stroke-opacity="1.000" stroke-linecap="round" stroke-linejoin="round" d="M 8236.975 1926.755 Q 8236.874 1926.748 8236.465 1926.393 Q 8236.531 1926.807 8238.768 1930.337 Q 8241.005 1933.868 8242.533 1936.589 Q 8244.061 1939.310 8245.066 1941.435 Q 8246.073 1943.559 8251.531 1951.889 Q 8251.416 1951.637 8250.381 1950.065 Q 8249.346 1948.492 8248.953 1947.950 "></path>
    <path id="STROKE_406cdf17-9465-4ac0-9e62-34959b281256" opacity="1.000" fill="none" stroke="#7f7e7a" stroke-width="2.444" stroke-opacity="1.000" stroke-linecap="round" stroke-linejoin="round" d="M 8229.877 1941.761 Q 8229.805 1941.696 8231.978 1941.464 Q 8234.150 1941.233 8235.386 1941.175 Q 8236.621 1941.117 8237.893 1941.065 Q 8239.164 1941.012 8241.820 1940.971 Q 8244.478 1940.929 8246.696 1940.935 Q 8248.915 1940.940 8249.869 1940.733 Q 8250.824 1940.526 8251.329 1940.329 "></path>
    <path id="STROKE_9ad426f0-8d11-4979-96ee-a8389f8cc171" opacity="1.000" fill="none" stroke="#7f7e7a" stroke-width="2.729" stroke-opacity="1.000" stroke-linecap="round" stroke-linejoin="round" d="M 8262.564 1932.220 Q 8262.318 1932.609 8263.266 1937.095 Q 8264.213 1941.581 8265.152 1945.065 Q 8266.092 1948.548 8265.991 1952.280 L 8265.910 1952.295 "></path>
    <path id="STROKE_e3b05b63-60fc-45f6-adf7-21fd5e77f845" opacity="1.000" fill="none" stroke="#7f7e7a" stroke-width="2.248" stroke-opacity="1.000" stroke-linecap="round" stroke-linejoin="round" d="M 8253.845 1934.615 L 8253.456 1934.457 L 8252.951 1934.139 Q 8253.343 1934.177 8259.398 1933.625 Q 8265.453 1933.072 8269.865 1932.906 Q 8274.276 1932.741 8275.789 1933.053 Q 8277.301 1933.364 8277.715 1933.537 "></path>
    <path id="STROKE_a1547372-9349-461e-8c07-951b60f4154c" opacity="1.000" fill="none" stroke="#7f7e7a" stroke-width="2.766" stroke-opacity="1.000" stroke-linecap="round" stroke-linejoin="round" d="M 8287.593 1933.930 Q 8286.789 1933.263 8284.459 1934.458 Q 8282.129 1935.654 8280.684 1937.383 Q 8279.238 1939.113 8278.658 1940.227 Q 8278.078 1941.340 8277.727 1942.633 Q 8277.374 1943.925 8277.346 1944.821 Q 8277.317 1945.716 8277.639 1946.638 Q 8277.960 1947.560 8280.086 1948.641 Q 8282.213 1949.721 8285.301 1949.763 Q 8288.389 1949.806 8291.688 1948.926 Q 8294.987 1948.046 8296.600 1946.728 Q 8298.212 1945.411 8298.446 1945.185 "></path>
    <path id="STROKE_1e768024-91da-46e8-993d-567506c2e772" opacity="1.000" fill="none" stroke="#7f7e7a" stroke-width="2.609" stroke-opacity="1.000" stroke-linecap="round" stroke-linejoin="round" d="M 8298.695 1932.321 L 8298.916 1932.251 Q 8299.585 1932.413 8301.230 1935.566 Q 8302.875 1938.719 8303.487 1942.864 Q 8304.100 1947.010 8304.386 1949.266 Q 8304.672 1951.523 8304.896 1951.984 Q 8305.122 1952.444 8305.317 1951.800 Q 8305.513 1951.155 8305.564 1950.542 "></path>
    <path id="STROKE_d23e6e0b-b192-4f7c-9b33-07f20139a441" opacity="1.000" fill="none" stroke="#7f7e7a" stroke-width="2.487" stroke-opacity="1.000" stroke-linecap="round" stroke-linejoin="round" d="M 8311.489 1933.021 Q 8311.505 1933.478 8312.086 1936.848 Q 8312.666 1940.218 8316.498 1950.499 L 8316.396 1950.732 "></path>
    <path id="STROKE_8b7969ad-f645-4f59-9c9e-9700c034eb92" opacity="1.000" fill="none" stroke="#7f7e7a" stroke-width="2.475" stroke-opacity="1.000" stroke-linecap="round" stroke-linejoin="round" d="M 8298.200 1940.799 Q 8298.662 1940.950 8308.584 1940.928 Q 8318.506 1940.906 8319.027 1940.880 "></path>
    <path id="STROKE_dbbff815-c444-4105-a87c-b490fbdc5809" opacity="1.000" fill="none" stroke="#7f7e7a" stroke-width="2.517" stroke-opacity="1.000" stroke-linecap="round" stroke-linejoin="round" d="M 8326.337 1934.266 Q 8326.191 1933.471 8326.214 1933.880 Q 8326.236 1934.290 8326.805 1937.310 Q 8327.373 1940.329 8328.283 1944.202 Q 8329.193 1948.075 8330.475 1951.448 Q 8330.521 1951.413 8330.503 1951.061 "></path>
    <path id="STROKE_eab9896c-a791-4e3a-902c-b155c539c8f7" opacity="1.000" fill="none" stroke="#7f7e7a" stroke-width="2.616" stroke-opacity="1.000" stroke-linecap="round" stroke-linejoin="round" d="M 8336.357 1936.770 Q 8336.576 1936.003 8337.062 1935.090 Q 8337.397 1935.596 8341.180 1950.979 Q 8341.137 1951.066 8340.858 1950.861 Q 8340.580 1950.657 8340.400 1950.439 "></path>
    <path id="STROKE_c3acffc5-a6b1-4792-9730-5267a75bd531" opacity="1.000" fill="none" stroke="#7f7e7a" stroke-width="2.309" stroke-opacity="1.000" stroke-linecap="round" stroke-linejoin="round" d="M 8337.615 1935.029 Q 8337.125 1934.804 8337.132 1934.750 Q 8336.934 1934.583 8337.075 1934.154 Q 8337.348 1934.127 8338.946 1935.236 Q 8340.545 1936.344 8342.035 1937.581 Q 8343.526 1938.817 8344.377 1939.530 Q 8345.229 1940.244 8348.577 1942.920 Q 8351.926 1945.596 8353.840 1947.272 Q 8355.754 1948.948 8355.963 1949.871 Q 8356.172 1950.795 8355.508 1950.998 "></path>
    <path id="STROKE_71afd422-f5ea-47bc-bdef-fdcd4934758e" opacity="1.000" fill="none" stroke="#7f7e7a" stroke-width="2.668" stroke-opacity="1.000" stroke-linecap="round" stroke-linejoin="round" d="M 8357.475 1930.401 Q 8357.400 1930.973 8357.945 1934.425 Q 8358.489 1937.876 8358.271 1941.718 Q 8358.052 1945.560 8357.896 1947.535 Q 8357.742 1949.511 8357.869 1950.395 Q 8357.997 1951.278 8358.186 1951.659 Q 8358.373 1952.041 8358.825 1952.191 L 8359.694 1950.048 "></path>
    <path id="STROKE_798b5652-349d-48d9-a847-dd5194afa87f" opacity="1.000" fill="none" stroke="#7f7e7a" stroke-width="2.706" stroke-opacity="1.000" stroke-linecap="round" stroke-linejoin="round" d="M 8381.469 1935.442 L 8381.414 1934.494 Q 8381.367 1933.586 8380.764 1932.207 Q 8380.159 1930.827 8379.025 1929.940 Q 8377.891 1929.052 8377.531 1928.944 Q 8377.172 1928.837 8376.241 1928.687 Q 8375.311 1928.538 8373.483 1929.754 Q 8371.656 1930.970 8370.312 1933.539 Q 8368.967 1936.108 8368.144 1939.141 Q 8367.320 1942.175 8367.021 1944.333 Q 8366.723 1946.492 8367.062 1948.161 Q 8367.400 1949.829 8368.374 1951.088 Q 8369.348 1952.347 8371.547 1953.217 Q 8373.747 1954.087 8375.453 1954.200 Q 8377.160 1954.313 8378.682 1953.732 Q 8380.203 1953.152 8380.980 1952.680 Q 8381.758 1952.208 8383.295 1950.960 Q 8384.832 1949.713 8385.701 1948.201 Q 8386.569 1946.689 8386.741 1945.900 Q 8386.913 1945.111 8386.712 1944.619 Q 8386.511 1944.126 8386.276 1943.985 Q 8386.042 1943.845 8385.773 1943.737 Q 8385.506 1943.628 8385.223 1943.567 Q 8384.940 1943.506 8384.414 1943.515 Q 8383.887 1943.524 8382.978 1943.660 Q 8382.068 1943.796 8379.962 1944.376 Q 8380.346 1944.525 8380.396 1944.529 Q 8380.446 1944.534 8380.695 1944.614 Q 8380.944 1944.694 8393.059 1943.254 L 8393.062 1943.244 L 8392.660 1943.107 Q 8392.531 1943.032 8392.029 1943.082 Q 8391.528 1943.132 8391.215 1943.190 "></path>
    <path id="STROKE_d46690bf-6897-4181-8988-308cd52666b5" opacity="1.000" fill="none" stroke="#7f7e7a" stroke-width="2.770" stroke-opacity="1.000" stroke-linecap="round" stroke-linejoin="round" d="M 8406.506 1930.321 L 8406.461 1930.373 Q 8406.462 1930.827 8408.748 1934.601 Q 8411.034 1938.376 8412.443 1940.712 Q 8413.853 1943.049 8414.234 1944.164 Q 8414.615 1945.280 8414.620 1945.609 Q 8414.408 1945.613 8414.430 1945.593 Q 8414.349 1945.465 8414.105 1944.927 "></path>
    <path id="STROKE_7caf5302-80b8-432b-9661-77b498a2ccd8" opacity="1.000" fill="none" stroke="#7f7e7a" stroke-width="2.600" stroke-opacity="1.000" stroke-linecap="round" stroke-linejoin="round" d="M 8419.240 1932.554 Q 8419.604 1931.825 8419.611 1931.759 Q 8419.618 1931.694 8420.907 1930.834 Q 8422.087 1932.632 8414.963 1946.126 Q 8414.914 1946.072 8415.262 1945.418 Q 8415.609 1944.764 8415.919 1944.267 "></path>
    <path id="STROKE_542d3ce1-0da5-498b-b920-ee7c7c367893" opacity="1.000" fill="none" stroke="#7f7e7a" stroke-width="2.720" stroke-opacity="1.000" stroke-linecap="round" stroke-linejoin="round" d="M 8418.942 1930.923 L 8419.098 1930.749 Q 8419.410 1930.651 8421.766 1934.407 Q 8424.121 1938.162 8426.168 1941.176 Q 8428.215 1944.190 8431.312 1946.742 Q 8431.294 1946.175 8431.294 1946.149 Q 8431.294 1946.123 8430.452 1943.677 "></path>
    <path id="STROKE_b3257f0b-c13a-4aa5-837b-5c1f7fb1fcfd" opacity="1.000" fill="none" stroke="#7f7e7a" stroke-width="2.653" stroke-opacity="1.000" stroke-linecap="round" stroke-linejoin="round" d="M 8437.572 1929.203 Q 8437.689 1929.163 8437.719 1929.134 Q 8437.747 1929.105 8437.904 1929.564 Q 8438.061 1930.023 8438.070 1931.167 Q 8438.081 1932.310 8437.393 1934.426 Q 8436.705 1936.542 8435.633 1938.209 Q 8434.560 1939.877 8428.960 1949.342 Q 8428.785 1949.332 8430.086 1947.690 Q 8431.386 1946.049 8431.804 1945.579 "></path>
    <path id="STROKE_fe83415b-e774-492c-9c4e-e07d49ebabe2" opacity="1.000" fill="none" stroke="#7f7e7a" stroke-width="2.766" stroke-opacity="1.000" stroke-linecap="round" stroke-linejoin="round" d="M 8440.304 1946.744 Q 8440.308 1946.679 8440.568 1945.971 Q 8440.829 1945.262 8441.729 1943.758 Q 8442.627 1942.253 8443.188 1941.379 Q 8443.749 1940.505 8444.242 1939.842 Q 8444.735 1939.178 8445.939 1936.196 Q 8447.144 1933.213 8447.748 1930.647 Q 8448.354 1928.081 8449.145 1926.836 L 8449.235 1926.853 Q 8449.291 1926.923 8449.622 1927.989 Q 8449.862 1928.253 8452.499 1932.339 Q 8455.136 1936.424 8457.066 1939.177 Q 8458.998 1941.931 8460.577 1943.830 Q 8462.156 1945.729 8462.723 1946.641 Q 8463.289 1947.552 8463.402 1947.930 Q 8463.403 1947.882 8461.705 1945.773 Q 8460.008 1943.664 8459.509 1943.075 "></path>
    <path id="STROKE_2e907c02-e8da-4893-b762-029a9d0fd098" opacity="1.000" fill="none" stroke="#7f7e7a" stroke-width="2.856" stroke-opacity="1.000" stroke-linecap="round" stroke-linejoin="round" d="M 8442.534 1939.383 Q 8441.996 1939.218 8441.728 1939.087 Q 8441.851 1939.126 8444.527 1938.412 Q 8447.204 1937.699 8449.839 1937.754 Q 8452.474 1937.810 8453.852 1937.981 Q 8455.229 1938.153 8455.809 1938.216 Q 8456.389 1938.279 8456.860 1938.295 "></path>
    <path id="STROKE_b9e933d4-370b-46d7-9a80-68b662f85a22" opacity="1.000" fill="none" stroke="#7f7e7a" stroke-width="2.516" stroke-opacity="1.000" stroke-linecap="round" stroke-linejoin="round" d="M 8464.904 1932.959 Q 8464.523 1932.237 8464.743 1930.969 Q 8464.931 1931.011 8466.193 1936.334 Q 8467.456 1941.657 8470.639 1948.918 Q 8470.838 1949.020 8469.572 1944.691 Q 8468.308 1940.362 8467.542 1937.448 Q 8466.776 1934.533 8466.688 1932.821 Q 8466.599 1931.109 8466.906 1929.951 Q 8467.215 1928.793 8468.676 1928.135 Q 8470.138 1927.477 8472.589 1927.614 Q 8475.040 1927.752 8476.893 1928.374 Q 8478.744 1928.996 8479.986 1930.112 Q 8481.228 1931.227 8481.696 1932.944 Q 8482.165 1934.661 8481.447 1936.142 Q 8480.729 1937.622 8477.848 1938.911 Q 8474.965 1940.199 8473.162 1941.091 Q 8471.360 1941.983 8470.526 1942.990 Q 8470.764 1943.480 8470.734 1943.535 Q 8470.704 1943.589 8472.354 1944.085 Q 8474.004 1944.581 8478.974 1944.027 Q 8483.943 1943.474 8487.826 1944.008 Q 8491.709 1944.541 8492.309 1944.678 "></path>
    <path id="STROKE_3786d06a-e981-4bed-89c9-557f0cb2275b" opacity="1.000" fill="none" stroke="#7f7e7a" stroke-width="2.686" stroke-opacity="1.000" stroke-linecap="round" stroke-linejoin="round" d="M 8498.565 1945.892 L 8498.676 1944.579 Q 8498.580 1942.842 8498.456 1938.619 Q 8498.332 1934.397 8497.398 1927.596 Q 8497.605 1927.726 8499.990 1930.633 Q 8502.374 1933.539 8505.539 1936.594 Q 8508.704 1939.648 8510.891 1941.641 Q 8513.076 1943.634 8515.251 1945.443 Q 8515.286 1945.183 8515.107 1943.733 Q 8514.930 1942.282 8515.571 1938.613 Q 8516.213 1934.944 8517.638 1926.494 Q 8517.600 1926.732 8520.388 1931.640 Q 8523.176 1936.548 8524.861 1939.216 Q 8526.546 1941.884 8527.885 1943.862 Q 8529.223 1945.839 8530.099 1946.993 Q 8530.020 1946.605 8529.946 1946.445 Q 8529.873 1946.284 8529.666 1945.978 Q 8529.458 1945.671 8529.387 1945.577 Q 8529.316 1945.483 8528.945 1945.254 Q 8528.575 1945.024 8528.103 1944.783 "></path>
    <path id="STROKE_b7a3913c-ffc2-4c34-8996-b156029fd655" opacity="1.000" fill="none" stroke="#7f7e7a" stroke-width="2.651" stroke-opacity="1.000" stroke-linecap="round" stroke-linejoin="round" d="M 8547.350 1932.106 Q 8547.362 1932.057 8547.228 1929.754 Q 8546.873 1930.357 8547.307 1933.288 Q 8547.740 1936.219 8548.576 1938.290 Q 8549.411 1940.361 8550.766 1941.897 Q 8552.120 1943.433 8554.100 1944.341 Q 8556.078 1945.248 8557.709 1945.688 Q 8559.339 1946.128 8560.404 1945.990 Q 8561.470 1945.851 8562.674 1944.458 Q 8563.879 1943.065 8564.086 1941.025 Q 8564.293 1938.985 8563.880 1937.430 Q 8563.467 1935.874 8563.007 1934.610 Q 8562.547 1933.346 8561.533 1930.889 Q 8560.521 1928.432 8558.392 1925.092 Q 8558.164 1925.263 8558.309 1927.173 Q 8558.454 1929.083 8558.571 1929.820 "></path>
    <path id="STROKE_42ec3645-b5e3-4198-b3ac-455da19d1bc4" opacity="1.000" fill="none" stroke="#7f7e7a" stroke-width="2.582" stroke-opacity="1.000" stroke-linecap="round" stroke-linejoin="round" d="M 8566.992 1933.973 Q 8566.956 1932.776 8567.073 1932.265 Q 8567.171 1932.244 8568.520 1936.842 Q 8569.867 1941.441 8573.318 1946.344 Q 8573.552 1946.320 8572.447 1942.985 Q 8571.344 1939.649 8570.703 1937.178 Q 8570.063 1934.707 8570.276 1933.057 Q 8570.489 1931.407 8570.793 1930.799 Q 8571.096 1930.192 8573.111 1928.913 Q 8575.128 1927.634 8579.066 1927.776 Q 8583.005 1927.918 8585.233 1928.425 Q 8587.462 1928.933 8588.802 1929.775 Q 8590.142 1930.616 8590.566 1931.610 Q 8590.990 1932.603 8590.836 1933.656 Q 8590.681 1934.709 8588.807 1936.428 Q 8586.932 1938.147 8579.295 1939.119 Q 8571.659 1940.092 8571.154 1940.152 "></path>
    <path id="STROKE_2051f0fe-9ad7-4df1-9497-c2290ab1dce1" opacity="1.000" fill="none" stroke="#7f7e7a" stroke-width="3.012" stroke-opacity="1.000" stroke-linecap="round" stroke-linejoin="round" d="M 8533.771 1939.324 Q 8534.156 1938.950 8534.238 1938.952 Q 8535.161 1938.510 8537.047 1938.615 Q 8538.933 1938.721 8539.535 1938.749 "></path>
    <path id="STROKE_ceffd899-a680-4421-9a3b-58cdf00605fc" opacity="1.000" fill="none" stroke="#7f7e7a" stroke-width="2.769" stroke-opacity="1.000" stroke-linecap="round" stroke-linejoin="round" d="M 8604.311 1929.712 Q 8604.274 1929.531 8604.286 1929.003 Q 8604.298 1928.475 8604.010 1928.106 Q 8603.722 1927.737 8603.100 1927.479 Q 8602.479 1927.222 8599.896 1927.827 Q 8597.314 1928.431 8595.707 1929.306 Q 8594.100 1930.182 8593.566 1932.717 Q 8594.003 1933.413 8597.488 1934.946 Q 8600.974 1936.480 8603.521 1937.808 Q 8606.070 1939.137 8607.301 1940.216 Q 8608.530 1941.295 8609.043 1942.241 Q 8609.555 1943.188 8609.496 1943.986 Q 8609.438 1944.784 8609.023 1945.329 Q 8608.608 1945.874 8608.117 1946.213 Q 8607.627 1946.552 8605.083 1946.761 Q 8602.539 1946.970 8600.103 1946.542 Q 8597.666 1946.114 8596.369 1945.789 Q 8595.073 1945.464 8594.377 1944.960 Q 8593.682 1944.457 8593.482 1944.063 Q 8593.283 1943.669 8593.272 1943.198 Q 8593.414 1943.048 8593.867 1942.769 "></path>
  </g>
  <g id="Custom" opacity="1.000">
    <path id="STROKE_97832392-3b7c-4b4e-b007-13b1078258b4" opacity="1.000" fill="none" stroke="#b7deec" stroke-width="2.466" stroke-opacity="1.000" stroke-linecap="round" stroke-linejoin="round" d="M 8201.919 2000.273 Q 8202.555 1999.770 8204.959 1997.914 Q 8207.364 1996.057 8208.976 1994.804 Q 8210.587 1993.551 8211.476 1992.858 Q 8212.364 1992.165 8215.541 1989.708 Q 8218.718 1987.250 8219.557 1986.594 "></path>
    <path id="STROKE_baefa24e-e773-4fed-81d7-be2ca84bc635" opacity="1.000" fill="none" stroke="#b7deec" stroke-width="2.185" stroke-opacity="1.000" stroke-linecap="round" stroke-linejoin="round" d="M 8199.699 2012.965 Q 8202.156 2010.985 8204.560 2009.074 Q 8206.963 2007.164 8209.229 2005.358 Q 8211.495 2003.553 8212.491 2002.763 Q 8213.487 2001.973 8215.002 2000.780 Q 8216.516 1999.587 8217.400 1998.891 Q 8218.285 1998.194 8219.188 1997.485 Q 8220.090 1996.777 8223.018 1994.496 Q 8225.945 1992.214 8227.759 1990.812 Q 8229.572 1989.410 8234.754 1985.414 "></path>
    <path id="STROKE_b4cac214-0fce-4ab6-adb6-ea2c9246e7e8" opacity="1.000" fill="none" stroke="#b7deec" stroke-width="1.736" stroke-opacity="1.000" stroke-linecap="round" stroke-linejoin="round" d="M 8200.964 2022.448 Q 8201.412 2022.084 8202.455 2021.251 Q 8203.498 2020.418 8204.502 2019.620 Q 8205.506 2018.823 8207.670 2017.099 Q 8209.835 2015.375 8211.574 2013.986 Q 8213.314 2012.597 8214.180 2011.910 Q 8215.045 2011.222 8216.500 2010.063 Q 8217.954 2008.903 8219.025 2008.047 Q 8220.098 2007.191 8221.128 2006.372 Q 8222.158 2005.552 8224.262 2003.877 Q 8226.365 2002.202 8227.212 2001.526 Q 8228.059 2000.849 8233.054 1996.878 Q 8238.049 1992.907 8241.404 1990.245 Q 8244.760 1987.583 8248.793 1984.374 "></path>
    <path id="STROKE_bd2e878a-d285-4013-b04a-eb0f5ab407a1" opacity="1.000" fill="none" stroke="#b7deec" stroke-width="1.622" stroke-opacity="1.000" stroke-linecap="round" stroke-linejoin="round" d="M 8201.018 2034.411 Q 8201.411 2034.090 8202.641 2033.109 Q 8203.870 2032.129 8210.259 2027.048 Q 8216.647 2021.968 8218.189 2020.743 Q 8219.732 2019.518 8221.714 2017.954 Q 8223.695 2016.391 8226.555 2014.142 Q 8229.414 2011.893 8231.950 2009.915 Q 8234.486 2007.937 8236.996 2005.993 Q 8239.506 2004.048 8241.820 2002.272 Q 8244.135 2000.497 8244.962 1999.865 Q 8245.789 1999.232 8249.452 1996.452 Q 8253.115 1993.672 8257.823 1990.133 Q 8262.531 1986.594 8264.777 1984.904 "></path>
    <path id="STROKE_1c332c9d-0dc8-4ba5-a534-521c04fd3f48" opacity="1.000" fill="none" stroke="#b7deec" stroke-width="1.592" stroke-opacity="1.000" stroke-linecap="round" stroke-linejoin="round" d="M 8198.984 2047.387 Q 8199.185 2047.243 8200.330 2046.377 Q 8201.475 2045.511 8204.280 2043.392 Q 8207.086 2041.274 8208.804 2039.971 Q 8210.521 2038.668 8211.870 2037.649 Q 8213.219 2036.630 8215.043 2035.242 Q 8216.868 2033.853 8219.822 2031.598 Q 8222.775 2029.343 8226.265 2026.664 Q 8229.754 2023.984 8231.656 2022.518 Q 8233.559 2021.051 8235.940 2019.208 Q 8238.322 2017.365 8245.614 2011.702 Q 8252.906 2006.040 8256.816 2003.003 Q 8260.727 1999.967 8264.690 1996.897 Q 8268.654 1993.828 8270.614 1992.312 Q 8272.574 1990.797 8273.955 1989.731 Q 8275.337 1988.666 8276.230 1987.978 Q 8277.123 1987.290 8283.379 1982.458 "></path>
    <path id="STROKE_62b1af18-5a35-4313-8b3f-e6af2b352b13" opacity="1.000" fill="none" stroke="#b7deec" stroke-width="1.709" stroke-opacity="1.000" stroke-linecap="round" stroke-linejoin="round" d="M 8198.090 2189.633 Q 8198.455 2189.638 8207.826 2189.554 Q 8217.197 2189.470 8223.414 2189.400 Q 8229.631 2189.330 8233.033 2189.288 Q 8236.435 2189.246 8252.588 2189.036 Q 8268.742 2188.826 8275.654 2188.771 Q 8282.565 2188.714 8287.062 2188.698 Q 8291.561 2188.681 8293.539 2188.678 Q 8295.519 2188.675 8303.641 2188.698 Q 8311.762 2188.721 8317.955 2188.761 Q 8324.148 2188.801 8334.934 2188.893 Q 8345.718 2188.986 8345.953 2188.990 "></path>
    <path id="STROKE_4e84efca-1123-4234-83ca-af7204e31e68" opacity="1.000" fill="none" stroke="#b7deec" stroke-width="1.760" stroke-opacity="1.000" stroke-linecap="round" stroke-linejoin="round" d="M 8196.309 2199.275 Q 8197.129 2199.242 8199.805 2199.200 Q 8202.481 2199.158 8204.328 2199.130 Q 8206.175 2199.103 8210.559 2199.035 Q 8214.943 2198.967 8217.439 2198.930 Q 8219.936 2198.894 8232.422 2198.731 Q 8244.908 2198.568 8251.395 2198.494 Q 8257.880 2198.420 8262.574 2198.367 Q 8267.269 2198.314 8272.436 2198.251 Q 8277.604 2198.189 8279.480 2198.166 Q 8281.356 2198.144 8292.260 2197.987 Q 8303.164 2197.830 8308.691 2197.742 Q 8314.219 2197.654 8319.205 2197.575 Q 8324.191 2197.497 8340.127 2197.248 L 8341.706 2197.219 "></path>
    <path id="STROKE_e2f24b26-c34e-4c8d-bcf4-eec811268835" opacity="1.000" fill="none" stroke="#b7deec" stroke-width="1.822" stroke-opacity="1.000" stroke-linecap="round" stroke-linejoin="round" d="M 8198.183 2208.329 Q 8198.424 2208.319 8200.610 2208.276 Q 8202.797 2208.234 8205.223 2208.187 Q 8207.649 2208.140 8211.781 2208.059 Q 8215.912 2207.977 8218.100 2207.933 Q 8220.286 2207.889 8222.276 2207.850 Q 8224.267 2207.811 8226.789 2207.762 Q 8229.311 2207.714 8231.489 2207.673 Q 8233.668 2207.632 8235.504 2207.599 Q 8237.339 2207.565 8240.403 2207.509 Q 8243.468 2207.452 8247.760 2207.378 Q 8252.053 2207.304 8256.219 2207.240 Q 8260.386 2207.175 8264.426 2207.121 Q 8268.467 2207.067 8271.474 2207.035 Q 8274.480 2207.002 8276.455 2206.983 Q 8278.430 2206.965 8280.713 2206.947 Q 8282.995 2206.929 8285.586 2206.914 Q 8288.178 2206.899 8290.872 2206.887 Q 8293.566 2206.876 8296.363 2206.869 Q 8299.160 2206.862 8301.252 2206.861 Q 8303.344 2206.860 8304.730 2206.860 Q 8306.118 2206.860 8307.951 2206.860 Q 8309.784 2206.860 8312.062 2206.862 Q 8314.341 2206.863 8316.148 2206.866 Q 8317.957 2206.869 8319.965 2206.872 Q 8321.973 2206.875 8325.008 2206.879 Q 8328.043 2206.883 8331.715 2206.890 Q 8335.388 2206.897 8340.708 2206.910 L 8342.002 2206.917 "></path>
    <path id="STROKE_7de30a72-680d-4844-808e-6287d5a91ee9" opacity="1.000" fill="none" stroke="#b7deec" stroke-width="1.804" stroke-opacity="1.000" stroke-linecap="round" stroke-linejoin="round" d="M 8196.945 2216.614 Q 8197.379 2216.625 8198.227 2216.644 Q 8199.073 2216.662 8200.924 2216.696 Q 8202.775 2216.730 8205.128 2216.772 Q 8207.480 2216.815 8210.129 2216.848 Q 8212.776 2216.880 8215.572 2216.908 Q 8218.367 2216.936 8220.501 2216.956 Q 8222.635 2216.975 8225.039 2216.995 Q 8227.443 2217.015 8230.117 2217.035 Q 8232.791 2217.055 8235.736 2217.076 Q 8238.681 2217.096 8241.467 2217.111 Q 8244.252 2217.127 8246.879 2217.138 Q 8249.506 2217.149 8251.974 2217.156 Q 8254.441 2217.162 8256.750 2217.164 Q 8259.059 2217.167 8261.208 2217.165 Q 8263.357 2217.163 8266.343 2217.153 Q 8269.328 2217.144 8272.670 2217.117 Q 8276.012 2217.091 8278.896 2217.064 Q 8281.779 2217.037 8284.203 2217.012 Q 8286.627 2216.986 8288.592 2216.963 Q 8290.556 2216.940 8292.812 2216.910 Q 8295.067 2216.879 8297.324 2216.847 Q 8299.580 2216.815 8301.836 2216.780 Q 8304.092 2216.746 8305.106 2216.729 Q 8306.121 2216.713 8308.463 2216.677 Q 8310.806 2216.641 8314.816 2216.575 Q 8318.826 2216.510 8321.855 2216.460 Q 8324.885 2216.409 8327.955 2216.359 Q 8331.024 2216.309 8334.049 2216.263 Q 8337.074 2216.218 8341.826 2216.143 "></path>
  </g>
  <g id="New_Layer_1" opacity="1.000">
    <path id="STROKE_3b68530d-83d5-4d6f-a63e-c8a9bbe060b9" opacity="1.000" fill="none" stroke="#48d1ec" stroke-width="1.054" stroke-opacity="1.000" stroke-linecap="round" stroke-linejoin="round" d="M 8200.891 2067.538 Q 8201.862 2068.512 8207.750 2063.885 Q 8213.637 2059.258 8216.770 2056.472 Q 8219.903 2053.686 8223.742 2050.198 Q 8227.581 2046.710 8231.261 2043.264 Q 8234.940 2039.818 8239.418 2035.925 Q 8243.896 2032.032 8247.262 2028.905 Q 8250.628 2025.777 8253.778 2022.607 Q 8256.929 2019.437 8264.803 2012.877 Q 8272.676 2006.317 8279.104 2000.550 Q 8285.533 1994.783 8297.309 1988.548 "></path>
    <path id="STROKE_906808d4-0daa-4255-b9d5-3238bcf99daf" opacity="1.000" fill="none" stroke="#48d1ec" stroke-width="1.047" stroke-opacity="1.000" stroke-linecap="round" stroke-linejoin="round" d="M 8199.044 2097.648 Q 8200.048 2097.819 8195.427 2097.999 Q 8193.453 2096.041 8206.677 2083.999 Q 8219.900 2071.958 8227.259 2065.776 Q 8234.617 2059.593 8238.223 2056.878 Q 8241.829 2054.164 8247.027 2049.629 Q 8252.226 2045.095 8255.042 2042.324 Q 8257.858 2039.553 8259.447 2037.944 Q 8261.035 2036.335 8266.400 2031.367 Q 8271.767 2026.399 8277.648 2019.923 Q 8283.529 2013.448 8286.813 2009.662 Q 8290.098 2005.877 8293.070 2003.041 Q 8296.044 2000.204 8300.688 1995.088 Q 8305.332 1989.973 8313.142 1982.500 "></path>
    <path id="STROKE_866e3226-a453-473c-b020-98a648539fa4" opacity="1.000" fill="none" stroke="#48d1ec" stroke-width="0.946" stroke-opacity="1.000" stroke-linecap="round" stroke-linejoin="round" d="M 8198.816 2125.653 Q 8200.436 2125.378 8202.520 2119.716 Q 8204.603 2114.053 8213.902 2101.931 Q 8223.201 2089.808 8235.281 2077.091 Q 8247.361 2064.374 8259.588 2050.937 Q 8271.813 2037.499 8279.262 2029.307 Q 8286.711 2021.115 8290.816 2017.076 Q 8294.921 2013.037 8297.541 2010.464 Q 8300.161 2007.892 8301.363 2006.751 Q 8302.564 2005.610 8307.318 2000.913 Q 8312.073 1996.217 8314.805 1993.488 Q 8317.535 1990.758 8321.208 1987.134 Q 8324.881 1983.510 8328.824 1979.394 Q 8332.769 1975.278 8350.020 1961.415 "></path>
    <path id="STROKE_0b8098ea-93ed-4f20-a5ee-197fcf9b5072" opacity="1.000" fill="none" stroke="#48d1ec" stroke-width="0.968" stroke-opacity="1.000" stroke-linecap="round" stroke-linejoin="round" d="M 8197.122 2146.509 Q 8196.923 2146.891 8197.652 2143.647 Q 8198.382 2140.405 8198.285 2138.577 Q 8198.189 2136.749 8198.775 2136.432 Q 8199.360 2136.116 8200.079 2135.367 Q 8200.798 2134.618 8201.084 2134.425 Q 8201.371 2134.232 8202.318 2133.369 Q 8203.265 2132.506 8205.042 2130.988 Q 8206.819 2129.470 8210.676 2125.625 Q 8214.531 2121.779 8219.991 2115.635 Q 8225.451 2109.491 8229.572 2104.596 Q 8233.694 2099.701 8239.320 2093.270 Q 8244.946 2086.838 8250.368 2080.974 Q 8255.790 2075.111 8261.283 2069.356 Q 8266.775 2063.602 8269.918 2060.474 Q 8273.062 2057.347 8276.695 2053.552 Q 8280.330 2049.757 8288.674 2040.544 Q 8297.018 2031.331 8301.477 2026.411 Q 8305.937 2021.491 8310.180 2016.803 Q 8314.422 2012.115 8321.354 2004.399 Q 8328.284 1996.682 8336.262 1987.165 Q 8344.238 1977.649 8349.567 1972.206 Q 8354.896 1966.763 8357.910 1963.215 Q 8360.925 1959.667 8363.627 1956.684 Q 8366.330 1953.701 8374.934 1946.266 "></path>
    <path id="STROKE_c43312dc-865b-4a47-9b53-d7ad54b9c4b3" opacity="1.000" fill="none" stroke="#48d1ec" stroke-width="1.008" stroke-opacity="1.000" stroke-linecap="round" stroke-linejoin="round" d="M 8210.375 2169.148 Q 8209.935 2169.528 8206.855 2169.830 Q 8203.777 2170.132 8201.678 2169.932 Q 8199.578 2169.732 8198.426 2168.374 Q 8197.272 2167.015 8206.169 2156.912 Q 8215.065 2146.809 8221.693 2139.727 Q 8228.321 2132.644 8243.898 2117.359 Q 8259.475 2102.074 8270.713 2090.457 Q 8281.950 2078.840 8288.541 2071.607 Q 8295.132 2064.374 8299.971 2059.230 Q 8304.809 2054.086 8308.566 2050.216 Q 8312.324 2046.346 8331.303 2028.479 "></path>
    <path id="STROKE_17409602-40fe-448a-a3e1-500d7f888e81" opacity="1.000" fill="none" stroke="#48d1ec" stroke-width="0.902" stroke-opacity="1.000" stroke-linecap="round" stroke-linejoin="round" d="M 8245.963 2152.235 Q 8246.711 2151.768 8249.080 2146.418 Q 8251.448 2141.070 8254.488 2136.941 Q 8257.528 2132.813 8259.082 2130.981 Q 8260.636 2129.150 8263.863 2125.768 Q 8267.092 2122.387 8275.545 2112.454 Q 8283.998 2102.521 8288.313 2097.131 Q 8292.629 2091.741 8295.456 2088.442 Q 8298.283 2085.143 8301.670 2080.777 Q 8305.056 2076.412 8309.988 2069.783 Q 8314.921 2063.155 8318.018 2059.438 Q 8321.115 2055.722 8325.572 2050.212 Q 8330.030 2044.702 8333.309 2040.378 Q 8336.586 2036.054 8342.785 2028.327 "></path>
    <path id="STROKE_87922c31-b266-4252-b7cc-68bc8edeb23c" opacity="1.000" fill="none" stroke="#48d1ec" stroke-width="1.035" stroke-opacity="1.000" stroke-linecap="round" stroke-linejoin="round" d="M 8283.094 2149.903 Q 8282.908 2151.078 8275.897 2150.785 Q 8274.386 2148.580 8282.691 2136.080 Q 8290.998 2123.581 8295.480 2117.029 Q 8299.963 2110.477 8302.322 2107.083 Q 8304.682 2103.688 8309.408 2096.611 Q 8314.136 2089.533 8321.681 2080.003 Q 8329.226 2070.473 8348.729 2054.645 "></path>
    <path id="STROKE_b5e3051b-d1ca-4e60-906e-1d859ada31b0" opacity="1.000" fill="none" stroke="#48d1ec" stroke-width="0.997" stroke-opacity="1.000" stroke-linecap="round" stroke-linejoin="round" d="M 8299.560 2153.847 Q 8301.292 2153.751 8301.166 2153.515 Q 8301.148 2152.971 8304.271 2147.191 Q 8307.395 2141.411 8311.421 2136.339 Q 8315.447 2131.268 8347.363 2097.799 "></path>
    <path id="STROKE_666c0937-1d6b-4701-9a50-0fe1a35ca94e" opacity="1.000" fill="none" stroke="#48d1ec" stroke-width="1.313" stroke-opacity="1.000" stroke-linecap="round" stroke-linejoin="round" d="M 8405.867 2059.954 Q 8405.998 2059.379 8405.750 2060.768 Q 8405.502 2062.157 8403.364 2062.878 Q 8401.227 2063.600 8398.924 2063.500 Q 8398.859 2062.116 8398.886 2062.134 Q 8397.827 2060.554 8401.904 2054.961 Q 8405.982 2049.369 8409.369 2045.750 Q 8412.756 2042.132 8416.465 2038.870 "></path>
    <path id="STROKE_6598a0c1-0ad6-4197-9ae3-74ad9be207af" opacity="1.000" fill="none" stroke="#48d1ec" stroke-width="1.193" stroke-opacity="1.000" stroke-linecap="round" stroke-linejoin="round" d="M 8409.079 2070.344 Q 8409.734 2070.260 8409.606 2070.304 Q 8409.479 2070.349 8409.459 2070.553 Q 8409.439 2070.757 8410.491 2069.755 Q 8411.543 2068.753 8411.738 2067.648 Q 8411.933 2066.543 8413.447 2062.757 Q 8414.963 2058.971 8418.150 2054.165 Q 8421.339 2049.358 8424.609 2044.791 Q 8427.880 2040.224 8434.322 2035.324 "></path>
    <path id="STROKE_f39e5304-40bc-4480-89f3-a8c265c03ffa" opacity="1.000" fill="none" stroke="#48d1ec" stroke-width="0.973" stroke-opacity="1.000" stroke-linecap="round" stroke-linejoin="round" d="M 8414.466 2094.254 Q 8414.429 2094.254 8414.391 2094.254 Q 8413.612 2093.519 8415.658 2088.167 Q 8417.703 2082.815 8423.997 2072.956 Q 8430.291 2063.097 8435.967 2054.986 Q 8441.644 2046.874 8444.838 2042.008 Q 8448.031 2037.142 8449.588 2034.539 Q 8451.145 2031.936 8459.615 2019.625 "></path>
    <path id="STROKE_07cc01cb-99a4-491e-8440-a6dc5179f421" opacity="1.000" fill="none" stroke="#48d1ec" stroke-width="1.007" stroke-opacity="1.000" stroke-linecap="round" stroke-linejoin="round" d="M 8415.428 2111.735 Q 8415.521 2112.566 8416.174 2112.378 Q 8416.825 2112.190 8421.189 2105.307 Q 8425.553 2098.425 8428.686 2093.523 Q 8431.817 2088.622 8437.533 2079.915 Q 8443.248 2071.209 8450.726 2060.305 Q 8458.203 2049.401 8462.011 2043.478 Q 8465.818 2037.554 8470.215 2031.135 Q 8474.612 2024.715 8488.475 2010.277 "></path>
    <path id="STROKE_6644d663-57db-4575-8d91-eb95c896629e" opacity="1.000" fill="none" stroke="#48d1ec" stroke-width="0.954" stroke-opacity="1.000" stroke-linecap="round" stroke-linejoin="round" d="M 8419.045 2151.344 Q 8418.939 2151.144 8420.397 2151.612 Q 8421.855 2152.080 8424.471 2147.407 Q 8427.087 2142.734 8429.430 2139.102 Q 8431.771 2135.470 8433.353 2132.853 Q 8434.934 2130.235 8440.100 2122.303 Q 8445.266 2114.370 8450.293 2106.784 Q 8455.321 2099.198 8460.418 2090.620 Q 8465.515 2082.041 8468.577 2077.206 Q 8471.640 2072.370 8477.386 2063.802 Q 8483.132 2055.234 8489.663 2046.359 "></path>
    <path id="STROKE_bc3f9351-1550-4459-9bd2-e5b06b2d727d" opacity="1.000" fill="none" stroke="#48d1ec" stroke-width="1.013" stroke-opacity="1.000" stroke-linecap="round" stroke-linejoin="round" d="M 8464.446 2134.431 Q 8464.452 2135.715 8464.484 2135.560 Q 8464.901 2136.590 8464.851 2136.327 Q 8466.967 2134.775 8470.771 2126.311 Q 8474.575 2117.846 8479.794 2108.479 Q 8485.013 2099.111 8488.111 2093.845 Q 8491.209 2088.578 8499.150 2077.014 Q 8507.093 2065.449 8512.869 2056.517 Q 8518.646 2047.585 8521.617 2042.253 Q 8524.589 2036.921 8530.892 2030.337 "></path>
    <path id="STROKE_8e0fc7bd-20a9-4818-8447-1e7fbb59f196" opacity="1.000" fill="none" stroke="#48d1ec" stroke-width="1.027" stroke-opacity="1.000" stroke-linecap="round" stroke-linejoin="round" d="M 8480.988 2139.911 Q 8481.551 2139.515 8482.229 2140.020 Q 8482.905 2140.524 8484.368 2139.301 Q 8485.831 2138.078 8488.717 2132.023 Q 8491.602 2125.969 8495.545 2118.450 Q 8499.489 2110.931 8528.488 2074.933 "></path>
    <path id="STROKE_968883df-5afc-4574-a62b-981e2f05d716" opacity="1.000" fill="none" stroke="#48d1ec" stroke-width="1.046" stroke-opacity="1.000" stroke-linecap="round" stroke-linejoin="round" d="M 8586.410 2052.388 Q 8587.871 2052.444 8589.446 2047.811 Q 8591.021 2043.178 8594.572 2037.939 Q 8598.124 2032.700 8601.574 2029.448 Q 8605.025 2026.195 8607.426 2024.050 Q 8609.826 2021.904 8616.164 2015.851 Q 8622.501 2009.797 8628.916 2004.879 Q 8635.331 1999.960 8642.105 1995.222 "></path>
    <path id="STROKE_f66a99b5-e7ed-49a5-9579-18d840413ea3" opacity="1.000" fill="none" stroke="#48d1ec" stroke-width="0.967" stroke-opacity="1.000" stroke-linecap="round" stroke-linejoin="round" d="M 8590.988 2087.257 Q 8593.502 2087.006 8594.863 2083.026 Q 8596.225 2079.046 8598.359 2074.804 Q 8600.493 2070.561 8604.045 2065.671 Q 8607.596 2060.782 8612.295 2054.645 Q 8616.994 2048.508 8620.511 2044.057 Q 8624.027 2039.607 8627.981 2035.162 Q 8631.936 2030.717 8641.169 2019.802 Q 8650.402 2008.887 8656.254 2001.613 Q 8662.105 1994.338 8675.519 1979.200 "></path>
    <path id="STROKE_89a5fb62-fd2c-4fee-9018-aebc718c8279" opacity="1.000" fill="none" stroke="#48d1ec" stroke-width="0.999" stroke-opacity="1.000" stroke-linecap="round" stroke-linejoin="round" d="M 8591.949 2107.223 Q 8593.585 2107.701 8593.518 2107.706 Q 8593.949 2108.043 8594.167 2108.002 Q 8594.385 2107.961 8595.398 2106.256 Q 8596.411 2104.551 8597.506 2102.580 Q 8598.601 2100.609 8599.375 2099.356 Q 8600.149 2098.103 8600.660 2097.134 Q 8601.170 2096.165 8604.480 2090.968 Q 8607.790 2085.771 8610.660 2081.546 Q 8613.529 2077.320 8615.521 2074.453 Q 8617.515 2071.585 8622.468 2064.182 Q 8627.421 2056.778 8633.928 2046.854 Q 8640.434 2036.929 8648.673 2024.638 Q 8656.912 2012.346 8665.072 2001.991 "></path>
    <path id="STROKE_fccc131b-5ae4-4073-9aed-94392ce877ac" opacity="1.000" fill="none" stroke="#48d1ec" stroke-width="1.003" stroke-opacity="1.000" stroke-linecap="round" stroke-linejoin="round" d="M 8609.478 2137.655 Q 8609.478 2136.955 8610.551 2132.931 Q 8611.624 2128.907 8612.678 2125.311 Q 8613.730 2121.714 8623.844 2105.060 Q 8633.958 2088.406 8640.713 2078.141 Q 8647.467 2067.876 8650.689 2063.070 Q 8653.912 2058.264 8655.793 2055.594 Q 8657.673 2052.925 8661.410 2047.617 Q 8665.146 2042.310 8668.010 2038.163 Q 8670.873 2034.015 8674.438 2029.061 Q 8678.001 2024.107 8683.336 2017.101 Q 8688.670 2010.095 8698.333 1996.587 "></path>
    <path id="STROKE_83b6e315-bf9d-4641-aea0-f254039c26ff" opacity="1.000" fill="none" stroke="#48d1ec" stroke-width="0.940" stroke-opacity="1.000" stroke-linecap="round" stroke-linejoin="round" d="M 8628.447 2151.837 Q 8628.229 2151.749 8631.049 2143.973 Q 8633.869 2136.197 8636.399 2130.994 Q 8638.930 2125.790 8640.307 2123.188 Q 8641.683 2120.586 8642.803 2118.065 Q 8643.924 2115.544 8648.043 2108.609 Q 8652.161 2101.673 8656.264 2095.683 Q 8660.365 2089.693 8662.879 2086.031 Q 8665.392 2082.369 8671.484 2073.495 Q 8677.577 2064.621 8681.217 2059.846 Q 8684.856 2055.070 8689.297 2049.606 Q 8693.736 2044.142 8697.364 2039.735 Q 8700.992 2035.327 8707.416 2028.255 Q 8713.839 2021.182 8720.515 2011.737 "></path>
    <path id="STROKE_0b39dd0d-1bf4-46b9-80b5-50812a220ca4" opacity="1.000" fill="none" stroke="#48d1ec" stroke-width="0.985" stroke-opacity="1.000" stroke-linecap="round" stroke-linejoin="round" d="M 8197.931 2234.999 Q 8198.244 2235.999 8198.196 2235.805 Q 8198.285 2235.966 8198.449 2236.610 Q 8198.770 2236.662 8198.585 2236.590 Q 8198.400 2236.518 8216.062 2236.544 Q 8233.726 2236.570 8246.983 2236.734 Q 8260.241 2236.898 8266.414 2236.812 Q 8272.588 2236.727 8278.072 2236.193 Q 8283.556 2235.660 8289.926 2235.036 Q 8296.297 2234.412 8299.643 2234.156 Q 8302.988 2233.899 8307.468 2233.637 Q 8311.947 2233.375 8315.969 2233.111 Q 8319.991 2232.847 8326.883 2232.648 Q 8333.774 2232.450 8345.689 2231.582 Q 8357.604 2230.714 8367.867 2230.100 Q 8378.131 2229.486 8387.302 2230.334 "></path>
    <path id="STROKE_01635515-89a1-40bb-a1e5-9bfcb0a3d130" opacity="1.000" fill="none" stroke="#48d1ec" stroke-width="0.980" stroke-opacity="1.000" stroke-linecap="round" stroke-linejoin="round" d="M 8198.158 2257.392 Q 8199.794 2256.780 8202.131 2254.603 Q 8204.467 2252.426 8209.316 2251.775 Q 8214.165 2251.125 8224.804 2250.304 Q 8235.442 2249.482 8244.105 2248.288 Q 8252.770 2247.093 8262.604 2246.332 Q 8272.439 2245.571 8281.455 2245.783 Q 8290.471 2245.996 8300.876 2245.013 Q 8311.281 2244.030 8329.937 2244.498 "></path>
    <path id="STROKE_c1c7dead-e672-4b1c-b240-5247c97bf94d" opacity="1.000" fill="none" stroke="#48d1ec" stroke-width="0.986" stroke-opacity="1.000" stroke-linecap="round" stroke-linejoin="round" d="M 8202.104 2270.114 Q 8202.148 2270.098 8202.967 2270.360 Q 8203.785 2270.623 8205.775 2269.432 Q 8207.766 2268.241 8212.645 2266.688 Q 8217.524 2265.134 8224.016 2264.453 Q 8230.506 2263.771 8250.290 2261.543 Q 8270.074 2259.315 8282.708 2258.142 Q 8295.342 2256.968 8302.156 2256.656 Q 8308.971 2256.344 8315.390 2256.778 Q 8321.809 2257.213 8333.958 2263.743 "></path>
    <path id="STROKE_f1254b0e-471c-4a30-be2f-f24a240bd5cd" opacity="1.000" fill="none" stroke="#48d1ec" stroke-width="0.947" stroke-opacity="1.000" stroke-linecap="round" stroke-linejoin="round" d="M 8200.484 2278.248 Q 8200.574 2278.248 8201.067 2278.400 Q 8201.067 2278.438 8201.067 2278.476 Q 8201.017 2278.476 8200.891 2278.476 Q 8200.891 2278.523 8200.891 2278.570 Q 8199.699 2278.657 8204.920 2278.765 Q 8210.141 2278.874 8224.140 2277.443 Q 8238.139 2276.013 8249.370 2275.263 Q 8260.602 2274.514 8269.039 2274.278 Q 8277.477 2274.043 8286.590 2275.359 Q 8295.702 2276.676 8306.644 2279.106 Q 8317.585 2281.536 8324.516 2282.841 Q 8331.446 2284.146 8336.766 2286.136 "></path>
    <path id="STROKE_b862fb9a-f017-4c8f-b4f3-6f1d4dae94d4" opacity="1.000" fill="none" stroke="#48d1ec" stroke-width="0.996" stroke-opacity="1.000" stroke-linecap="round" stroke-linejoin="round" d="M 8194.314 2293.777 Q 8195.279 2293.824 8200.875 2293.315 Q 8206.472 2292.806 8214.699 2293.702 Q 8222.926 2294.598 8227.297 2294.894 Q 8231.669 2295.191 8245.520 2294.945 Q 8259.370 2294.699 8280.900 2293.367 Q 8302.430 2292.035 8338.385 2291.369 "></path>
    <path id="STROKE_9a235817-604f-46b8-889f-fd579146c93f" opacity="1.000" fill="none" stroke="#48d1ec" stroke-width="1.007" stroke-opacity="1.000" stroke-linecap="round" stroke-linejoin="round" d="M 8193.099 2315.354 Q 8192.522 2316.167 8191.178 2316.719 Q 8191.717 2315.798 8210.810 2313.990 Q 8229.902 2312.183 8241.188 2311.124 Q 8252.472 2310.065 8257.828 2309.381 Q 8263.184 2308.698 8268.104 2308.473 Q 8273.022 2308.248 8276.119 2308.223 Q 8279.216 2308.198 8292.011 2308.224 Q 8304.806 2308.250 8311.731 2307.948 Q 8318.657 2307.646 8323.338 2307.714 Q 8328.020 2307.782 8332.188 2308.907 "></path>
    <path id="STROKE_c7670f27-d881-49c6-865b-61031dbce01b" opacity="1.000" fill="none" stroke="#48d1ec" stroke-width="0.972" stroke-opacity="1.000" stroke-linecap="round" stroke-linejoin="round" d="M 8194.238 2330.580 Q 8194.320 2330.580 8194.201 2330.613 Q 8194.081 2330.646 8194.498 2331.434 Q 8194.914 2332.221 8195.218 2332.189 Q 8195.521 2332.157 8196.069 2332.180 Q 8196.617 2332.203 8196.454 2332.234 Q 8196.291 2332.265 8196.760 2332.438 Q 8197.228 2332.610 8205.387 2330.503 Q 8213.546 2328.396 8222.689 2327.143 Q 8231.834 2325.889 8247.027 2325.915 Q 8262.222 2325.940 8272.074 2325.837 Q 8281.926 2325.733 8293.746 2326.740 Q 8305.566 2327.748 8311.129 2328.312 Q 8316.691 2328.875 8325.358 2330.326 Q 8334.025 2331.777 8349.134 2333.063 "></path>
    <path id="STROKE_28974fb4-e187-4e67-bb01-0d265c6a7cf8" opacity="1.000" fill="none" stroke="#48d1ec" stroke-width="1.438" stroke-opacity="1.000" stroke-linecap="round" stroke-linejoin="round" d="M 8457.465 2212.701 Q 8457.503 2212.701 8458.021 2212.701 Q 8457.241 2211.496 8457.452 2211.933 Q 8457.290 2211.868 8456.327 2211.658 Q 8456.245 2211.060 8478.585 2216.076 "></path>
    <path id="STROKE_9f199e59-b519-46ef-bb51-9f532e9686f7" opacity="1.000" fill="none" stroke="#48d1ec" stroke-width="1.180" stroke-opacity="1.000" stroke-linecap="round" stroke-linejoin="round" d="M 8445.147 2226.542 Q 8445.109 2226.542 8444.667 2226.637 Q 8444.781 2225.856 8455.064 2224.404 Q 8465.348 2222.952 8473.270 2222.775 Q 8481.192 2222.597 8488.298 2224.931 "></path>
    <path id="STROKE_ad5143a3-df60-4926-a63d-c17d31695611" opacity="1.000" fill="none" stroke="#48d1ec" stroke-width="1.019" stroke-opacity="1.000" stroke-linecap="round" stroke-linejoin="round" d="M 8411.482 2245.711 Q 8411.158 2246.313 8414.144 2245.009 Q 8417.129 2243.704 8423.765 2243.589 Q 8430.400 2243.475 8436.584 2243.071 Q 8442.768 2242.668 8445.816 2242.390 Q 8448.864 2242.111 8454.941 2241.552 Q 8461.018 2240.992 8464.642 2240.865 Q 8468.266 2240.739 8471.115 2240.705 Q 8473.964 2240.671 8475.896 2240.739 Q 8477.830 2240.808 8479.621 2241.240 Q 8481.412 2241.673 8487.919 2243.937 Q 8494.426 2246.201 8499.261 2247.610 Q 8504.096 2249.019 8511.343 2249.975 Q 8518.590 2250.932 8523.530 2251.189 Q 8528.471 2251.446 8542.779 2251.513 "></path>
    <path id="STROKE_b9e9212e-1fad-4132-aee7-277d6188c613" opacity="1.000" fill="none" stroke="#48d1ec" stroke-width="1.047" stroke-opacity="1.000" stroke-linecap="round" stroke-linejoin="round" d="M 8391.323 2258.358 Q 8390.966 2258.369 8392.462 2258.311 Q 8392.483 2257.683 8392.575 2257.704 Q 8392.589 2257.752 8392.542 2257.769 Q 8392.495 2257.785 8392.807 2257.249 Q 8393.119 2256.712 8408.932 2255.844 Q 8424.744 2254.975 8438.270 2254.207 Q 8451.794 2253.438 8457.730 2253.015 Q 8463.667 2252.592 8474.734 2253.174 Q 8485.802 2253.756 8491.719 2254.374 Q 8497.635 2254.992 8501.275 2254.961 Q 8504.916 2254.929 8524.694 2254.566 "></path>
    <path id="STROKE_5676646b-01ab-4b20-bcde-02bf9b27176e" opacity="1.000" fill="none" stroke="#48d1ec" stroke-width="1.025" stroke-opacity="1.000" stroke-linecap="round" stroke-linejoin="round" d="M 8410.116 2276.542 Q 8410.113 2276.763 8410.445 2278.324 Q 8410.349 2278.829 8421.273 2278.303 Q 8432.197 2277.777 8442.789 2276.789 Q 8453.382 2275.801 8461.479 2275.574 Q 8469.577 2275.347 8473.517 2275.230 Q 8477.456 2275.113 8489.688 2275.141 Q 8501.918 2275.170 8509.697 2274.694 Q 8517.478 2274.219 8527.427 2278.077 "></path>
    <path id="STROKE_5f1efa73-a415-4306-b1da-8d578d752816" opacity="1.000" fill="none" stroke="#48d1ec" stroke-width="1.045" stroke-opacity="1.000" stroke-linecap="round" stroke-linejoin="round" d="M 8424.433 2298.763 Q 8426.264 2298.763 8425.672 2298.763 Q 8427.787 2297.743 8432.566 2296.062 Q 8437.346 2294.382 8447.787 2294.456 Q 8458.229 2294.530 8463.539 2295.279 Q 8468.850 2296.028 8476.516 2295.412 Q 8484.183 2294.795 8488.933 2293.313 Q 8493.683 2291.831 8502.538 2292.412 "></path>
    <path id="STROKE_9ae95c8e-378a-4b0c-827b-df4034b98af8" opacity="1.000" fill="none" stroke="#48d1ec" stroke-width="1.072" stroke-opacity="1.000" stroke-linecap="round" stroke-linejoin="round" d="M 8418.008 2319.146 Q 8418.490 2320.361 8429.496 2317.958 Q 8440.502 2315.555 8448.911 2314.155 Q 8457.320 2312.754 8462.625 2311.431 Q 8467.930 2310.108 8477.642 2309.823 Q 8487.354 2309.538 8493.141 2309.445 Q 8498.929 2309.353 8504.460 2310.766 "></path>
    <path id="STROKE_e1c1a600-549f-44fb-bd4c-0f2369be32d9" opacity="1.000" fill="none" stroke="#48d1ec" stroke-width="1.373" stroke-opacity="1.000" stroke-linecap="round" stroke-linejoin="round" d="M 8422.257 2334.031 Q 8422.074 2333.070 8422.105 2333.310 Q 8422.190 2334.297 8421.372 2330.219 Q 8422.403 2328.878 8443.073 2333.556 "></path>
    <path id="STROKE_ce759ae1-2211-41fb-b77f-41d929d5e99c" opacity="1.000" fill="none" stroke="#48d1ec" stroke-width="1.173" stroke-opacity="1.000" stroke-linecap="round" stroke-linejoin="round" d="M 8484.377 2334.031 Q 8483.481 2334.458 8491.893 2333.232 Q 8500.304 2332.006 8512.175 2333.234 "></path>
    <path id="STROKE_f04a5248-d76f-451c-bb6b-532c4af331f8" opacity="1.000" fill="none" stroke="#48d1ec" stroke-width="1.287" stroke-opacity="1.000" stroke-linecap="round" stroke-linejoin="round" d="M 8613.171 2201.666 Q 8613.270 2202.500 8623.527 2200.785 Q 8633.784 2199.069 8641.363 2197.984 Q 8648.943 2196.900 8653.748 2196.945 Q 8658.553 2196.989 8663.166 2197.749 Q 8667.778 2198.508 8673.521 2199.011 "></path>
    <path id="STROKE_b16035d3-929b-4dda-b5fe-d264ecf196c5" opacity="1.000" fill="none" stroke="#48d1ec" stroke-width="1.089" stroke-opacity="1.000" stroke-linecap="round" stroke-linejoin="round" d="M 8600.650 2216.645 Q 8600.603 2216.531 8598.476 2217.612 Q 8598.371 2217.636 8602.675 2216.230 Q 8606.979 2214.824 8619.301 2214.452 Q 8631.622 2214.079 8638.264 2214.106 Q 8644.905 2214.134 8655.941 2212.403 Q 8666.977 2210.671 8672.320 2209.479 Q 8677.665 2208.287 8680.709 2208.098 Q 8683.752 2207.908 8686.076 2207.678 Q 8688.399 2207.448 8690.239 2212.455 "></path>
    <path id="STROKE_40d66666-39d5-4730-9f3e-9749a39ec757" opacity="1.000" fill="none" stroke="#48d1ec" stroke-width="1.077" stroke-opacity="1.000" stroke-linecap="round" stroke-linejoin="round" d="M 8586.183 2244.176 Q 8586.231 2244.531 8587.578 2243.336 Q 8588.926 2242.142 8589.692 2240.706 Q 8590.459 2239.270 8602.527 2238.117 Q 8614.597 2236.965 8621.441 2236.283 Q 8628.287 2235.602 8636.479 2235.309 Q 8644.671 2235.015 8650.654 2235.062 Q 8656.637 2235.107 8664.631 2234.417 Q 8672.625 2233.728 8677.764 2233.247 Q 8682.901 2232.765 8701.545 2227.832 "></path>
    <path id="STROKE_881d9f9b-c09c-4261-bf47-7c941b25ebf7" opacity="1.000" fill="none" stroke="#48d1ec" stroke-width="0.975" stroke-opacity="1.000" stroke-linecap="round" stroke-linejoin="round" d="M 8584.336 2267.535 Q 8584.929 2267.648 8584.289 2267.532 Q 8583.649 2267.416 8587.899 2266.096 Q 8592.149 2264.776 8594.995 2264.408 Q 8597.841 2264.041 8603.100 2263.201 Q 8608.359 2262.360 8614.657 2261.451 Q 8620.955 2260.542 8625.922 2259.913 Q 8630.889 2259.285 8634.206 2258.868 Q 8637.523 2258.451 8647.229 2256.922 Q 8656.934 2255.393 8670.568 2254.316 Q 8684.204 2253.238 8695.182 2252.150 Q 8706.160 2251.062 8718.593 2249.181 "></path>
    <path id="STROKE_81439d2f-a9c3-4057-9298-3b3346688c8b" opacity="1.000" fill="none" stroke="#48d1ec" stroke-width="0.950" stroke-opacity="1.000" stroke-linecap="round" stroke-linejoin="round" d="M 8583.526 2285.567 Q 8583.526 2285.605 8583.273 2285.965 Q 8582.226 2286.444 8586.518 2285.022 Q 8590.810 2283.599 8606.820 2280.225 Q 8622.832 2276.851 8631.438 2275.174 Q 8640.042 2273.498 8645.707 2272.831 Q 8651.372 2272.164 8663.439 2270.434 Q 8675.506 2268.703 8681.691 2267.795 Q 8687.878 2266.888 8690.836 2266.659 Q 8693.795 2266.431 8703.440 2265.815 Q 8713.086 2265.199 8723.020 2263.990 "></path>
    <path id="STROKE_fa367348-0d11-4a86-8e7d-6a76f4c64024" opacity="1.000" fill="none" stroke="#48d1ec" stroke-width="0.989" stroke-opacity="1.000" stroke-linecap="round" stroke-linejoin="round" d="M 8597.337 2297.323 Q 8597.337 2297.657 8597.337 2298.365 Q 8596.284 2298.489 8596.540 2298.441 Q 8596.414 2298.441 8595.896 2298.441 Q 8595.816 2298.827 8607.334 2297.891 Q 8618.851 2296.955 8627.338 2295.157 Q 8635.825 2293.360 8645.947 2290.764 Q 8656.070 2288.167 8661.893 2286.803 Q 8667.714 2285.439 8679.039 2284.603 Q 8690.364 2283.766 8696.398 2283.203 Q 8702.434 2282.639 8706.992 2282.397 Q 8711.551 2282.156 8726.788 2279.841 "></path>
    <path id="STROKE_b892f2a9-3a7b-45cf-9716-453e8bb3a40b" opacity="1.000" fill="none" stroke="#48d1ec" stroke-width="1.055" stroke-opacity="1.000" stroke-linecap="round" stroke-linejoin="round" d="M 8595.971 2315.525 Q 8595.972 2315.804 8595.971 2317.042 Q 8595.934 2317.042 8595.819 2317.042 Q 8597.269 2317.641 8609.887 2316.209 Q 8622.505 2314.777 8634.004 2313.067 Q 8645.503 2311.357 8655.355 2311.183 Q 8665.209 2311.010 8671.021 2310.777 Q 8676.834 2310.545 8688.063 2314.235 "></path>
    <path id="STROKE_bb37c76f-bfaf-4567-890a-3b8aaf0e35c8" opacity="1.000" fill="none" stroke="#48d1ec" stroke-width="1.081" stroke-opacity="1.000" stroke-linecap="round" stroke-linejoin="round" d="M 8603.205 2337.823 Q 8602.987 2336.095 8603.053 2336.656 Q 8603.263 2336.845 8602.977 2336.142 Q 8602.689 2335.439 8603.416 2334.819 Q 8604.144 2334.199 8604.604 2334.162 Q 8605.063 2334.125 8606.639 2333.931 Q 8608.213 2333.736 8612.959 2333.812 Q 8617.705 2333.886 8627.626 2334.020 Q 8637.547 2334.153 8678.983 2328.001 "></path>
  </g>
</svg>