<?xml version="1.0" encoding="UTF-8" standalone="yes"?>
<svg xmlns="http://www.w3.org/2000/svg" xmlns:xlink="http://www.w3.org/1999/xlink" width="537.898pt" height="258.547pt" version="1.1" viewBox="8188.704 1917.959 537.898 258.547">
  <!--
	Exported with Concepts: Smarter Sketching
	Version: 2358 on iOS 17.1
	https://concepts.app/
	-->
  <title>DA3D6FFC-2C56-4958-A72A-6D7D84411830</title>
  <desc>Drawing exported from Concepts: Smarter Sketching</desc>
  <defs></defs>
  <g id="Grid" opacity="1.000">
    <path id="STROKE_d39c158e-43b2-40ac-b339-b29b2bfb7274" opacity="0.900" fill="none" stroke="#7f7e7a" stroke-width="1.707" stroke-opacity="1.000" stroke-linecap="round" stroke-linejoin="round" d="M 8200.285 1986.697 L 8338.773 1986.697 L 8338.774 2148.092 L 8200.284 2148.093 Z"></path>
    <path id="STROKE_27cd47c5-f705-443f-9c5b-831a562b01d0" opacity="0.900" fill="none" stroke="#7f7e7a" stroke-width="1.707" stroke-opacity="1.000" stroke-linecap="round" stroke-linejoin="round" d="M 8715.980 2066.477 Q 8715.989 2067.389 8715.980 2068.302 Q 8715.973 2069.214 8715.945 2070.127 Q 8715.919 2071.039 8715.875 2071.950 Q 8715.832 2072.862 8715.770 2073.772 Q 8715.708 2074.682 8715.629 2075.590 Q 8715.551 2076.498 8715.454 2077.404 Q 8715.357 2078.310 8715.244 2079.213 Q 8715.130 2080.116 8714.998 2081.016 Q 8714.866 2081.915 8714.718 2082.812 Q 8714.569 2083.708 8714.403 2084.600 Q 8714.237 2085.491 8714.055 2086.379 Q 8713.872 2087.266 8713.672 2088.148 Q 8713.471 2089.031 8713.254 2089.907 Q 8713.037 2090.784 8712.803 2091.655 Q 8712.568 2092.525 8712.318 2093.390 Q 8712.067 2094.254 8711.800 2095.111 Q 8711.532 2095.969 8711.249 2096.819 Q 8710.966 2097.669 8710.666 2098.512 Q 8710.366 2099.354 8710.049 2100.188 Q 8709.732 2101.022 8709.400 2101.848 Q 8709.068 2102.674 8708.721 2103.490 Q 8708.372 2104.307 8708.008 2105.114 Q 8707.645 2105.921 8707.266 2106.719 Q 8706.887 2107.516 8706.492 2108.303 Q 8706.098 2109.090 8705.688 2109.867 Q 8705.278 2110.643 8704.854 2111.408 Q 8704.430 2112.174 8703.991 2112.928 Q 8703.553 2113.682 8703.099 2114.424 Q 8702.645 2115.166 8702.178 2115.896 Q 8701.710 2116.626 8701.229 2117.343 Q 8700.746 2118.061 8700.251 2118.765 Q 8699.756 2119.470 8699.246 2120.161 Q 8698.737 2120.852 8698.216 2121.529 Q 8697.694 2122.207 8697.159 2122.870 Q 8696.624 2123.534 8696.076 2124.183 Q 8695.529 2124.832 8694.969 2125.467 Q 8694.409 2126.101 8693.837 2126.720 Q 8693.265 2127.340 8692.681 2127.944 Q 8692.097 2128.548 8691.502 2129.137 Q 8690.906 2129.725 8690.300 2130.298 Q 8689.693 2130.871 8689.076 2131.427 Q 8688.459 2131.983 8687.831 2132.523 Q 8687.203 2133.063 8686.564 2133.586 Q 8685.927 2134.110 8685.278 2134.616 Q 8684.630 2135.122 8683.973 2135.611 Q 8683.314 2136.099 8682.647 2136.571 Q 8681.980 2137.042 8681.305 2137.495 Q 8680.629 2137.949 8679.944 2138.384 Q 8679.260 2138.820 8678.567 2139.237 Q 8677.875 2139.654 8677.174 2140.053 Q 8676.474 2140.451 8675.766 2140.832 Q 8675.057 2141.211 8674.342 2141.573 Q 8673.627 2141.934 8672.904 2142.276 Q 8672.183 2142.618 8671.454 2142.941 Q 8670.726 2143.264 8669.991 2143.568 Q 8669.257 2143.871 8668.518 2144.156 Q 8667.777 2144.440 8667.031 2144.704 Q 8666.286 2144.968 8665.535 2145.213 Q 8664.785 2145.458 8664.030 2145.682 Q 8663.275 2145.907 8662.516 2146.111 Q 8661.757 2146.316 8660.994 2146.500 Q 8660.231 2146.685 8659.466 2146.849 Q 8658.700 2147.013 8657.931 2147.157 Q 8657.161 2147.301 8656.390 2147.424 Q 8655.618 2147.547 8654.844 2147.650 Q 8654.070 2147.753 8653.295 2147.836 Q 8652.520 2147.918 8651.742 2147.980 Q 8650.965 2148.042 8650.188 2148.083 Q 8649.409 2148.124 8648.631 2148.145 Q 8647.853 2148.166 8647.073 2148.166 Q 8646.294 2148.166 8645.516 2148.145 Q 8644.736 2148.124 8643.959 2148.083 Q 8643.182 2148.042 8642.404 2147.980 Q 8641.627 2147.918 8640.852 2147.836 Q 8640.075 2147.753 8639.302 2147.650 Q 8638.528 2147.548 8637.756 2147.424 Q 8636.984 2147.301 8636.216 2147.157 Q 8635.447 2147.013 8634.681 2146.849 Q 8633.914 2146.685 8633.151 2146.500 Q 8632.389 2146.316 8631.630 2146.111 Q 8630.871 2145.907 8630.115 2145.682 Q 8629.360 2145.458 8628.610 2145.213 Q 8627.860 2144.969 8627.115 2144.704 Q 8626.370 2144.440 8625.631 2144.156 Q 8624.891 2143.872 8624.156 2143.568 Q 8623.421 2143.264 8622.693 2142.941 Q 8621.965 2142.618 8621.242 2142.276 Q 8620.520 2141.934 8619.805 2141.573 Q 8619.090 2141.212 8618.381 2140.832 Q 8617.673 2140.451 8616.973 2140.053 Q 8616.272 2139.654 8615.580 2139.237 Q 8614.887 2138.819 8614.202 2138.384 Q 8613.518 2137.949 8612.842 2137.495 Q 8612.166 2137.042 8611.499 2136.570 Q 8610.832 2136.099 8610.174 2135.610 Q 8609.517 2135.122 8608.868 2134.615 Q 8608.220 2134.109 8607.582 2133.586 Q 8606.943 2133.063 8606.315 2132.523 Q 8605.688 2131.983 8605.070 2131.427 Q 8604.452 2130.870 8603.846 2130.298 Q 8603.239 2129.726 8602.644 2129.137 Q 8602.048 2128.548 8601.465 2127.944 Q 8600.881 2127.340 8600.309 2126.721 Q 8599.737 2126.101 8599.177 2125.467 Q 8598.616 2124.832 8598.068 2124.183 Q 8597.521 2123.534 8596.986 2122.871 Q 8596.452 2122.207 8595.930 2121.529 Q 8595.407 2120.852 8594.898 2120.161 Q 8594.391 2119.470 8593.896 2118.765 Q 8593.400 2118.061 8592.918 2117.344 Q 8592.437 2116.626 8591.969 2115.896 Q 8591.502 2115.166 8591.049 2114.424 Q 8590.595 2113.682 8590.156 2112.928 Q 8589.717 2112.174 8589.293 2111.408 Q 8588.868 2110.643 8588.458 2109.866 Q 8588.048 2109.090 8587.654 2108.303 Q 8587.260 2107.516 8586.881 2106.719 Q 8586.501 2105.921 8586.137 2105.114 Q 8585.773 2104.307 8585.426 2103.490 Q 8585.077 2102.673 8584.745 2101.848 Q 8584.413 2101.022 8584.097 2100.188 Q 8583.780 2099.354 8583.480 2098.511 Q 8583.181 2097.669 8582.896 2096.819 Q 8582.613 2095.969 8582.346 2095.111 Q 8582.078 2094.254 8581.828 2093.390 Q 8581.577 2092.525 8581.344 2091.655 Q 8581.109 2090.784 8580.893 2089.907 Q 8580.675 2089.030 8580.475 2088.148 Q 8580.274 2087.266 8580.092 2086.379 Q 8579.908 2085.491 8579.742 2084.600 Q 8579.576 2083.708 8579.428 2082.812 Q 8579.279 2081.916 8579.147 2081.016 Q 8579.016 2080.116 8578.902 2079.213 Q 8578.788 2078.310 8578.691 2077.404 Q 8578.595 2076.498 8578.516 2075.590 Q 8578.437 2074.682 8578.375 2073.771 Q 8578.313 2072.862 8578.270 2071.950 Q 8578.225 2071.039 8578.199 2070.126 Q 8578.173 2069.214 8578.164 2068.301 Q 8578.155 2067.388 8578.164 2066.476 Q 8578.172 2065.562 8578.199 2064.650 Q 8578.226 2063.738 8578.270 2062.827 Q 8578.312 2061.915 8578.375 2061.005 Q 8578.438 2060.095 8578.516 2059.187 Q 8578.595 2058.279 8578.691 2057.373 Q 8578.788 2056.467 8578.902 2055.564 Q 8579.016 2054.661 8579.147 2053.761 Q 8579.279 2052.861 8579.428 2051.965 Q 8579.576 2051.069 8579.742 2050.177 Q 8579.908 2049.285 8580.092 2048.398 Q 8580.274 2047.510 8580.475 2046.628 Q 8580.675 2045.746 8580.892 2044.870 Q 8581.108 2043.993 8581.343 2043.122 Q 8581.577 2042.251 8581.828 2041.387 Q 8582.078 2040.523 8582.346 2039.665 Q 8582.613 2038.808 8582.896 2037.958 Q 8583.180 2037.108 8583.480 2036.265 Q 8583.780 2035.423 8584.097 2034.589 Q 8584.413 2033.754 8584.745 2032.929 Q 8585.077 2032.103 8585.426 2031.286 Q 8585.773 2030.470 8586.137 2029.663 Q 8586.501 2028.855 8586.880 2028.058 Q 8587.259 2027.261 8587.654 2026.474 Q 8588.049 2025.687 8588.458 2024.910 Q 8588.867 2024.134 8589.291 2023.368 Q 8589.716 2022.603 8590.154 2021.849 Q 8590.594 2021.095 8591.047 2020.353 Q 8591.501 2019.610 8591.969 2018.880 Q 8592.437 2018.150 8592.918 2017.433 Q 8593.399 2016.716 8593.895 2016.011 Q 8594.391 2015.307 8594.899 2014.616 Q 8595.408 2013.924 8595.930 2013.247 Q 8596.452 2012.570 8596.986 2011.906 Q 8597.521 2011.243 8598.068 2010.593 Q 8598.616 2009.944 8599.177 2009.310 Q 8599.737 2008.675 8600.309 2008.056 Q 8600.881 2007.436 8601.465 2006.832 Q 8602.049 2006.228 8602.645 2005.639 Q 8603.239 2005.051 8603.846 2004.478 Q 8604.452 2003.906 8605.069 2003.349 Q 8605.687 2002.793 8606.314 2002.253 Q 8606.942 2001.713 8607.580 2001.190 Q 8608.219 2000.667 8608.867 2000.161 Q 8609.516 1999.655 8610.174 1999.166 Q 8610.831 1998.677 8611.498 1998.206 Q 8612.165 1997.734 8612.841 1997.281 Q 8613.517 1996.828 8614.201 1996.392 Q 8614.886 1995.957 8615.578 1995.540 Q 8616.271 1995.122 8616.973 1994.724 Q 8617.673 1994.325 8618.381 1993.945 Q 8619.089 1993.565 8619.805 1993.203 Q 8620.520 1992.842 8621.242 1992.500 Q 8621.964 1992.158 8622.692 1991.835 Q 8623.421 1991.512 8624.155 1991.208 Q 8624.890 1990.905 8625.630 1990.621 Q 8626.370 1990.337 8627.115 1990.072 Q 8627.861 1989.808 8628.611 1989.563 Q 8629.361 1989.319 8630.116 1989.094 Q 8630.871 1988.870 8631.630 1988.665 Q 8632.389 1988.460 8633.152 1988.276 Q 8633.915 1988.091 8634.682 1987.927 Q 8635.447 1987.763 8636.216 1987.619 Q 8636.984 1987.476 8637.756 1987.352 Q 8638.528 1987.229 8639.303 1987.126 Q 8640.076 1987.023 8640.852 1986.940 Q 8641.627 1986.858 8642.404 1986.796 Q 8643.181 1986.734 8643.959 1986.693 Q 8644.737 1986.652 8645.516 1986.631 Q 8646.294 1986.610 8647.072 1986.611 Q 8647.852 1986.611 8648.631 1986.631 Q 8649.409 1986.652 8650.188 1986.693 Q 8650.965 1986.734 8651.742 1986.796 Q 8652.520 1986.858 8653.295 1986.941 Q 8654.071 1987.023 8654.845 1987.126 Q 8655.618 1987.229 8656.391 1987.352 Q 8657.162 1987.476 8657.931 1987.620 Q 8658.699 1987.763 8659.466 1987.927 Q 8660.232 1988.092 8660.995 1988.276 Q 8661.758 1988.461 8662.517 1988.665 Q 8663.275 1988.870 8664.031 1989.094 Q 8664.786 1989.319 8665.536 1989.564 Q 8666.286 1989.808 8667.031 1990.073 Q 8667.777 1990.337 8668.518 1990.621 Q 8669.257 1990.905 8669.992 1991.209 Q 8670.727 1991.512 8671.454 1991.835 Q 8672.182 1992.158 8672.904 1992.500 Q 8673.627 1992.843 8674.342 1993.204 Q 8675.057 1993.565 8675.766 1993.945 Q 8676.474 1994.326 8677.174 1994.724 Q 8677.874 1995.123 8678.566 1995.540 Q 8679.259 1995.957 8679.943 1996.393 Q 8680.629 1996.828 8681.305 1997.282 Q 8681.980 1997.735 8682.647 1998.207 Q 8683.314 1998.678 8683.973 1999.167 Q 8684.630 1999.655 8685.278 2000.162 Q 8685.927 2000.668 8686.564 2001.191 Q 8687.203 2001.714 8687.831 2002.254 Q 8688.459 2002.794 8689.076 2003.350 Q 8689.694 2003.907 8690.301 2004.479 Q 8690.907 2005.052 8691.502 2005.641 Q 8692.098 2006.229 8692.682 2006.833 Q 8693.266 2007.438 8693.838 2008.057 Q 8694.409 2008.676 8694.969 2009.311 Q 8695.529 2009.946 8696.077 2010.595 Q 8696.625 2011.244 8697.160 2011.907 Q 8697.694 2012.571 8698.217 2013.248 Q 8698.739 2013.926 8699.248 2014.617 Q 8699.756 2015.308 8700.251 2016.012 Q 8700.746 2016.717 8701.229 2017.434 Q 8701.710 2018.152 8702.178 2018.882 Q 8702.646 2019.612 8703.098 2020.354 Q 8703.551 2021.096 8703.990 2021.850 Q 8704.430 2022.604 8704.854 2023.370 Q 8705.278 2024.135 8705.688 2024.911 Q 8706.098 2025.688 8706.492 2026.475 Q 8706.887 2027.262 8707.266 2028.060 Q 8707.645 2028.857 8708.009 2029.664 Q 8708.373 2030.471 8708.721 2031.288 Q 8709.069 2032.105 8709.401 2032.930 Q 8709.733 2033.756 8710.050 2034.590 Q 8710.366 2035.425 8710.666 2036.267 Q 8710.966 2037.109 8711.250 2037.959 Q 8711.533 2038.810 8711.801 2039.667 Q 8712.068 2040.525 8712.318 2041.389 Q 8712.569 2042.253 8712.803 2043.124 Q 8713.037 2043.995 8713.254 2044.871 Q 8713.472 2045.748 8713.672 2046.630 Q 8713.872 2047.512 8714.055 2048.400 Q 8714.237 2049.287 8714.404 2050.179 Q 8714.570 2051.071 8714.719 2051.967 Q 8714.867 2052.863 8714.999 2053.763 Q 8715.131 2054.663 8715.244 2055.566 Q 8715.358 2056.469 8715.455 2057.375 Q 8715.551 2058.281 8715.631 2059.189 Q 8715.710 2060.097 8715.771 2061.007 Q 8715.831 2061.917 8715.875 2062.829 Q 8715.920 2063.740 8715.946 2064.652 Q 8715.973 2065.565 8715.980 2066.477 Z"></path>
    <path id="STROKE_7912ec1b-9b21-4763-bc94-21d1e7ad2470" opacity="0.900" fill="none" stroke="#7f7e7a" stroke-width="1.707" stroke-opacity="1.000" stroke-linecap="round" stroke-linejoin="round" d="M 8463.870 2121.428 L 8411.168 2148.996 L 8421.168 2090.347 L 8378.734 2048.996 L 8437.654 2040.347 L 8463.870 1986.833 L 8490.357 2040.347 L 8549.276 2048.996 L 8506.573 2090.347 L 8516.573 2148.996 Z"></path>
  </g>
  <g id="Texts_dots" opacity="1.000">
    <path id="STROKE_3d582b26-b0a6-4479-98f6-d5be2fdaa37c" opacity="1.000" fill="none" stroke="#7f7e7a" stroke-width="2.291" stroke-opacity="1.000" stroke-linecap="round" stroke-linejoin="round" d="M 8206.602 1927.364 Q 8206.656 1927.099 8206.920 1926.407 Q 8207.121 1926.903 8208.061 1934.031 Q 8209.000 1941.158 8209.527 1945.682 Q 8210.054 1950.206 8210.322 1953.223 Q 8210.390 1953.073 8210.433 1952.809 Q 8210.476 1952.544 8210.506 1952.062 "></path>
    <path id="STROKE_29295c6a-055a-41e1-a8ae-96fd7eb21ab5" opacity="1.000" fill="none" stroke="#7f7e7a" stroke-width="2.378" stroke-opacity="1.000" stroke-linecap="round" stroke-linejoin="round" d="M 8222.504 1928.908 Q 8222.046 1928.858 8222.047 1928.878 Q 8221.752 1929.191 8222.413 1933.501 Q 8223.074 1937.812 8223.694 1943.489 Q 8224.314 1949.166 8224.372 1949.554 "></path>
    <path id="STROKE_b6073c3f-1ed4-426f-abb8-c474aedb8df1" opacity="1.000" fill="none" stroke="#7f7e7a" stroke-width="2.441" stroke-opacity="1.000" stroke-linecap="round" stroke-linejoin="round" d="M 8206.068 1939.646 L 8205.924 1939.602 Q 8206.104 1939.652 8211.980 1939.447 Q 8217.856 1939.242 8221.326 1939.222 Q 8224.797 1939.202 8225.542 1939.133 "></path>
    <circle id="STROKE_fe2a0277-71c1-4ba0-9cb1-f1478f711f97" opacity="1.000" fill="#7f7e7a" stroke="#7f7e7a" stroke-width="0.1" stroke-opacity="1.000" fill-opacity="1.000" cx="8230.263" cy="1950.773" r="1.506"></circle>
    <path id="STROKE_cb4f78b2-5e76-4e37-a760-337f3589d455" opacity="1.000" fill="none" stroke="#7f7e7a" stroke-width="2.655" stroke-opacity="1.000" stroke-linecap="round" stroke-linejoin="round" d="M 8229.498 1952.028 Q 8229.499 1951.879 8229.441 1951.776 Q 8229.488 1951.446 8229.427 1951.356 Q 8229.365 1951.266 8230.855 1948.256 Q 8232.347 1945.245 8233.512 1943.032 Q 8234.678 1940.818 8235.568 1936.973 Q 8236.458 1933.127 8236.533 1931.308 Q 8236.609 1929.489 8236.585 1929.506 Q 8236.561 1929.523 8236.346 1929.719 Q 8236.132 1929.915 8236.129 1929.928 Q 8236.126 1929.941 8235.900 1930.862 Q 8235.675 1931.783 8235.619 1932.099 "></path>
    <path id="STROKE_3c997d06-ee4d-411f-bf68-e57beb07a240" opacity="1.000" fill="none" stroke="#7f7e7a" stroke-width="2.268" stroke-opacity="1.000" stroke-linecap="round" stroke-linejoin="round" d="M 8236.975 1926.755 Q 8236.874 1926.748 8236.465 1926.393 Q 8236.531 1926.807 8238.768 1930.337 Q 8241.005 1933.868 8242.533 1936.589 Q 8244.061 1939.310 8245.066 1941.435 Q 8246.073 1943.559 8251.531 1951.889 Q 8251.416 1951.637 8250.381 1950.065 Q 8249.346 1948.492 8248.953 1947.950 "></path>
    <path id="STROKE_406cdf17-9465-4ac0-9e62-34959b281256" opacity="1.000" fill="none" stroke="#7f7e7a" stroke-width="2.444" stroke-opacity="1.000" stroke-linecap="round" stroke-linejoin="round" d="M 8229.877 1941.761 Q 8229.805 1941.696 8231.978 1941.464 Q 8234.150 1941.233 8235.386 1941.175 Q 8236.621 1941.117 8237.893 1941.065 Q 8239.164 1941.012 8241.820 1940.971 Q 8244.478 1940.929 8246.696 1940.935 Q 8248.915 1940.940 8249.869 1940.733 Q 8250.824 1940.526 8251.329 1940.329 "></path>
    <path id="STROKE_9ad426f0-8d11-4979-96ee-a8389f8cc171" opacity="1.000" fill="none" stroke="#7f7e7a" stroke-width="2.729" stroke-opacity="1.000" stroke-linecap="round" stroke-linejoin="round" d="M 8262.564 1932.220 Q 8262.318 1932.609 8263.266 1937.095 Q 8264.213 1941.581 8265.152 1945.065 Q 8266.092 1948.548 8265.991 1952.280 L 8265.910 1952.295 "></path>
    <path id="STROKE_e3b05b63-60fc-45f6-adf7-21fd5e77f845" opacity="1.000" fill="none" stroke="#7f7e7a" stroke-width="2.248" stroke-opacity="1.000" stroke-linecap="round" stroke-linejoin="round" d="M 8253.845 1934.615 L 8253.456 1934.457 L 8252.951 1934.139 Q 8253.343 1934.177 8259.398 1933.625 Q 8265.453 1933.072 8269.865 1932.906 Q 8274.276 1932.741 8275.789 1933.053 Q 8277.301 1933.364 8277.715 1933.537 "></path>
    <path id="STROKE_a1547372-9349-461e-8c07-951b60f4154c" opacity="1.000" fill="none" stroke="#7f7e7a" stroke-width="2.766" stroke-opacity="1.000" stroke-linecap="round" stroke-linejoin="round" d="M 8287.593 1933.930 Q 8286.789 1933.263 8284.459 1934.458 Q 8282.129 1935.654 8280.684 1937.383 Q 8279.238 1939.113 8278.658 1940.227 Q 8278.078 1941.340 8277.727 1942.633 Q 8277.374 1943.925 8277.346 1944.821 Q 8277.317 1945.716 8277.639 1946.638 Q 8277.960 1947.560 8280.086 1948.641 Q 8282.213 1949.721 8285.301 1949.763 Q 8288.389 1949.806 8291.688 1948.926 Q 8294.987 1948.046 8296.600 1946.728 Q 8298.212 1945.411 8298.446 1945.185 "></path>
    <path id="STROKE_1e768024-91da-46e8-993d-567506c2e772" opacity="1.000" fill="none" stroke="#7f7e7a" stroke-width="2.609" stroke-opacity="1.000" stroke-linecap="round" stroke-linejoin="round" d="M 8298.695 1932.321 L 8298.916 1932.251 Q 8299.585 1932.413 8301.230 1935.566 Q 8302.875 1938.719 8303.487 1942.864 Q 8304.100 1947.010 8304.386 1949.266 Q 8304.672 1951.523 8304.896 1951.984 Q 8305.122 1952.444 8305.317 1951.800 Q 8305.513 1951.155 8305.564 1950.542 "></path>
    <path id="STROKE_d23e6e0b-b192-4f7c-9b33-07f20139a441" opacity="1.000" fill="none" stroke="#7f7e7a" stroke-width="2.487" stroke-opacity="1.000" stroke-linecap="round" stroke-linejoin="round" d="M 8311.489 1933.021 Q 8311.505 1933.478 8312.086 1936.848 Q 8312.666 1940.218 8316.498 1950.499 L 8316.396 1950.732 "></path>
    <path id="STROKE_8b7969ad-f645-4f59-9c9e-9700c034eb92" opacity="1.000" fill="none" stroke="#7f7e7a" stroke-width="2.475" stroke-opacity="1.000" stroke-linecap="round" stroke-linejoin="round" d="M 8298.200 1940.799 Q 8298.662 1940.950 8308.584 1940.928 Q 8318.506 1940.906 8319.027 1940.880 "></path>
    <path id="STROKE_dbbff815-c444-4105-a87c-b490fbdc5809" opacity="1.000" fill="none" stroke="#7f7e7a" stroke-width="2.517" stroke-opacity="1.000" stroke-linecap="round" stroke-linejoin="round" d="M 8326.337 1934.266 Q 8326.191 1933.471 8326.214 1933.880 Q 8326.236 1934.290 8326.805 1937.310 Q 8327.373 1940.329 8328.283 1944.202 Q 8329.193 1948.075 8330.475 1951.448 Q 8330.521 1951.413 8330.503 1951.061 "></path>
    <path id="STROKE_eab9896c-a791-4e3a-902c-b155c539c8f7" opacity="1.000" fill="none" stroke="#7f7e7a" stroke-width="2.616" stroke-opacity="1.000" stroke-linecap="round" stroke-linejoin="round" d="M 8336.357 1936.770 Q 8336.576 1936.003 8337.062 1935.090 Q 8337.397 1935.596 8341.180 1950.979 Q 8341.137 1951.066 8340.858 1950.861 Q 8340.580 1950.657 8340.400 1950.439 "></path>
    <path id="STROKE_c3acffc5-a6b1-4792-9730-5267a75bd531" opacity="1.000" fill="none" stroke="#7f7e7a" stroke-width="2.309" stroke-opacity="1.000" stroke-linecap="round" stroke-linejoin="round" d="M 8337.615 1935.029 Q 8337.125 1934.804 8337.132 1934.750 Q 8336.934 1934.583 8337.075 1934.154 Q 8337.348 1934.127 8338.946 1935.236 Q 8340.545 1936.344 8342.035 1937.581 Q 8343.526 1938.817 8344.377 1939.530 Q 8345.229 1940.244 8348.577 1942.920 Q 8351.926 1945.596 8353.840 1947.272 Q 8355.754 1948.948 8355.963 1949.871 Q 8356.172 1950.795 8355.508 1950.998 "></path>
    <path id="STROKE_71afd422-f5ea-47bc-bdef-fdcd4934758e" opacity="1.000" fill="none" stroke="#7f7e7a" stroke-width="2.668" stroke-opacity="1.000" stroke-linecap="round" stroke-linejoin="round" d="M 8357.475 1930.401 Q 8357.400 1930.973 8357.945 1934.425 Q 8358.489 1937.876 8358.271 1941.718 Q 8358.052 1945.560 8357.896 1947.535 Q 8357.742 1949.511 8357.869 1950.395 Q 8357.997 1951.278 8358.186 1951.659 Q 8358.373 1952.041 8358.825 1952.191 L 8359.694 1950.048 "></path>
    <path id="STROKE_798b5652-349d-48d9-a847-dd5194afa87f" opacity="1.000" fill="none" stroke="#7f7e7a" stroke-width="2.706" stroke-opacity="1.000" stroke-linecap="round" stroke-linejoin="round" d="M 8381.469 1935.442 L 8381.414 1934.494 Q 8381.367 1933.586 8380.764 1932.207 Q 8380.159 1930.827 8379.025 1929.940 Q 8377.891 1929.052 8377.531 1928.944 Q 8377.172 1928.837 8376.241 1928.687 Q 8375.311 1928.538 8373.483 1929.754 Q 8371.656 1930.970 8370.312 1933.539 Q 8368.967 1936.108 8368.144 1939.141 Q 8367.320 1942.175 8367.021 1944.333 Q 8366.723 1946.492 8367.062 1948.161 Q 8367.400 1949.829 8368.374 1951.088 Q 8369.348 1952.347 8371.547 1953.217 Q 8373.747 1954.087 8375.453 1954.200 Q 8377.160 1954.313 8378.682 1953.732 Q 8380.203 1953.152 8380.980 1952.680 Q 8381.758 1952.208 8383.295 1950.960 Q 8384.832 1949.713 8385.701 1948.201 Q 8386.569 1946.689 8386.741 1945.900 Q 8386.913 1945.111 8386.712 1944.619 Q 8386.511 1944.126 8386.276 1943.985 Q 8386.042 1943.845 8385.773 1943.737 Q 8385.506 1943.628 8385.223 1943.567 Q 8384.940 1943.506 8384.414 1943.515 Q 8383.887 1943.524 8382.978 1943.660 Q 8382.068 1943.796 8379.962 1944.376 Q 8380.346 1944.525 8380.396 1944.529 Q 8380.446 1944.534 8380.695 1944.614 Q 8380.944 1944.694 8393.059 1943.254 L 8393.062 1943.244 L 8392.660 1943.107 Q 8392.531 1943.032 8392.029 1943.082 Q 8391.528 1943.132 8391.215 1943.190 "></path>
    <path id="STROKE_d46690bf-6897-4181-8988-308cd52666b5" opacity="1.000" fill="none" stroke="#7f7e7a" stroke-width="2.770" stroke-opacity="1.000" stroke-linecap="round" stroke-linejoin="round" d="M 8406.506 1930.321 L 8406.461 1930.373 Q 8406.462 1930.827 8408.748 1934.601 Q 8411.034 1938.376 8412.443 1940.712 Q 8413.853 1943.049 8414.234 1944.164 Q 8414.615 1945.280 8414.620 1945.609 Q 8414.408 1945.613 8414.430 1945.593 Q 8414.349 1945.465 8414.105 1944.927 "></path>
    <path id="STROKE_7caf5302-80b8-432b-9661-77b498a2ccd8" opacity="1.000" fill="none" stroke="#7f7e7a" stroke-width="2.600" stroke-opacity="1.000" stroke-linecap="round" stroke-linejoin="round" d="M 8419.240 1932.554 Q 8419.604 1931.825 8419.611 1931.759 Q 8419.618 1931.694 8420.907 1930.834 Q 8422.087 1932.632 8414.963 1946.126 Q 8414.914 1946.072 8415.262 1945.418 Q 8415.609 1944.764 8415.919 1944.267 "></path>
    <path id="STROKE_542d3ce1-0da5-498b-b920-ee7c7c367893" opacity="1.000" fill="none" stroke="#7f7e7a" stroke-width="2.720" stroke-opacity="1.000" stroke-linecap="round" stroke-linejoin="round" d="M 8418.942 1930.923 L 8419.098 1930.749 Q 8419.410 1930.651 8421.766 1934.407 Q 8424.121 1938.162 8426.168 1941.176 Q 8428.215 1944.190 8431.312 1946.742 Q 8431.294 1946.175 8431.294 1946.149 Q 8431.294 1946.123 8430.452 1943.677 "></path>
    <path id="STROKE_b3257f0b-c13a-4aa5-837b-5c1f7fb1fcfd" opacity="1.000" fill="none" stroke="#7f7e7a" stroke-width="2.653" stroke-opacity="1.000" stroke-linecap="round" stroke-linejoin="round" d="M 8437.572 1929.203 Q 8437.689 1929.163 8437.719 1929.134 Q 8437.747 1929.105 8437.904 1929.564 Q 8438.061 1930.023 8438.070 1931.167 Q 8438.081 1932.310 8437.393 1934.426 Q 8436.705 1936.542 8435.633 1938.209 Q 8434.560 1939.877 8428.960 1949.342 Q 8428.785 1949.332 8430.086 1947.690 Q 8431.386 1946.049 8431.804 1945.579 "></path>
    <path id="STROKE_fe83415b-e774-492c-9c4e-e07d49ebabe2" opacity="1.000" fill="none" stroke="#7f7e7a" stroke-width="2.766" stroke-opacity="1.000" stroke-linecap="round" stroke-linejoin="round" d="M 8440.304 1946.744 Q 8440.308 1946.679 8440.568 1945.971 Q 8440.829 1945.262 8441.729 1943.758 Q 8442.627 1942.253 8443.188 1941.379 Q 8443.749 1940.505 8444.242 1939.842 Q 8444.735 1939.178 8445.939 1936.196 Q 8447.144 1933.213 8447.748 1930.647 Q 8448.354 1928.081 8449.145 1926.836 L 8449.235 1926.853 Q 8449.291 1926.923 8449.622 1927.989 Q 8449.862 1928.253 8452.499 1932.339 Q 8455.136 1936.424 8457.066 1939.177 Q 8458.998 1941.931 8460.577 1943.830 Q 8462.156 1945.729 8462.723 1946.641 Q 8463.289 1947.552 8463.402 1947.930 Q 8463.403 1947.882 8461.705 1945.773 Q 8460.008 1943.664 8459.509 1943.075 "></path>
    <path id="STROKE_2e907c02-e8da-4893-b762-029a9d0fd098" opacity="1.000" fill="none" stroke="#7f7e7a" stroke-width="2.856" stroke-opacity="1.000" stroke-linecap="round" stroke-linejoin="round" d="M 8442.534 1939.383 Q 8441.996 1939.218 8441.728 1939.087 Q 8441.851 1939.126 8444.527 1938.412 Q 8447.204 1937.699 8449.839 1937.754 Q 8452.474 1937.810 8453.852 1937.981 Q 8455.229 1938.153 8455.809 1938.216 Q 8456.389 1938.279 8456.860 1938.295 "></path>
    <path id="STROKE_b9e933d4-370b-46d7-9a80-68b662f85a22" opacity="1.000" fill="none" stroke="#7f7e7a" stroke-width="2.516" stroke-opacity="1.000" stroke-linecap="round" stroke-linejoin="round" d="M 8464.904 1932.959 Q 8464.523 1932.237 8464.743 1930.969 Q 8464.931 1931.011 8466.193 1936.334 Q 8467.456 1941.657 8470.639 1948.918 Q 8470.838 1949.020 8469.572 1944.691 Q 8468.308 1940.362 8467.542 1937.448 Q 8466.776 1934.533 8466.688 1932.821 Q 8466.599 1931.109 8466.906 1929.951 Q 8467.215 1928.793 8468.676 1928.135 Q 8470.138 1927.477 8472.589 1927.614 Q 8475.040 1927.752 8476.893 1928.374 Q 8478.744 1928.996 8479.986 1930.112 Q 8481.228 1931.227 8481.696 1932.944 Q 8482.165 1934.661 8481.447 1936.142 Q 8480.729 1937.622 8477.848 1938.911 Q 8474.965 1940.199 8473.162 1941.091 Q 8471.360 1941.983 8470.526 1942.990 Q 8470.764 1943.480 8470.734 1943.535 Q 8470.704 1943.589 8472.354 1944.085 Q 8474.004 1944.581 8478.974 1944.027 Q 8483.943 1943.474 8487.826 1944.008 Q 8491.709 1944.541 8492.309 1944.678 "></path>
    <path id="STROKE_3786d06a-e981-4bed-89c9-557f0cb2275b" opacity="1.000" fill="none" stroke="#7f7e7a" stroke-width="2.686" stroke-opacity="1.000" stroke-linecap="round" stroke-linejoin="round" d="M 8498.565 1945.892 L 8498.676 1944.579 Q 8498.580 1942.842 8498.456 1938.619 Q 8498.332 1934.397 8497.398 1927.596 Q 8497.605 1927.726 8499.990 1930.633 Q 8502.374 1933.539 8505.539 1936.594 Q 8508.704 1939.648 8510.891 1941.641 Q 8513.076 1943.634 8515.251 1945.443 Q 8515.286 1945.183 8515.107 1943.733 Q 8514.930 1942.282 8515.571 1938.613 Q 8516.213 1934.944 8517.638 1926.494 Q 8517.600 1926.732 8520.388 1931.640 Q 8523.176 1936.548 8524.861 1939.216 Q 8526.546 1941.884 8527.885 1943.862 Q 8529.223 1945.839 8530.099 1946.993 Q 8530.020 1946.605 8529.946 1946.445 Q 8529.873 1946.284 8529.666 1945.978 Q 8529.458 1945.671 8529.387 1945.577 Q 8529.316 1945.483 8528.945 1945.254 Q 8528.575 1945.024 8528.103 1944.783 "></path>
    <path id="STROKE_b7a3913c-ffc2-4c34-8996-b156029fd655" opacity="1.000" fill="none" stroke="#7f7e7a" stroke-width="2.651" stroke-opacity="1.000" stroke-linecap="round" stroke-linejoin="round" d="M 8547.350 1932.106 Q 8547.362 1932.057 8547.228 1929.754 Q 8546.873 1930.357 8547.307 1933.288 Q 8547.740 1936.219 8548.576 1938.290 Q 8549.411 1940.361 8550.766 1941.897 Q 8552.120 1943.433 8554.100 1944.341 Q 8556.078 1945.248 8557.709 1945.688 Q 8559.339 1946.128 8560.404 1945.990 Q 8561.470 1945.851 8562.674 1944.458 Q 8563.879 1943.065 8564.086 1941.025 Q 8564.293 1938.985 8563.880 1937.430 Q 8563.467 1935.874 8563.007 1934.610 Q 8562.547 1933.346 8561.533 1930.889 Q 8560.521 1928.432 8558.392 1925.092 Q 8558.164 1925.263 8558.309 1927.173 Q 8558.454 1929.083 8558.571 1929.820 "></path>
    <path id="STROKE_42ec3645-b5e3-4198-b3ac-455da19d1bc4" opacity="1.000" fill="none" stroke="#7f7e7a" stroke-width="2.582" stroke-opacity="1.000" stroke-linecap="round" stroke-linejoin="round" d="M 8566.992 1933.973 Q 8566.956 1932.776 8567.073 1932.265 Q 8567.171 1932.244 8568.520 1936.842 Q 8569.867 1941.441 8573.318 1946.344 Q 8573.552 1946.320 8572.447 1942.985 Q 8571.344 1939.649 8570.703 1937.178 Q 8570.063 1934.707 8570.276 1933.057 Q 8570.489 1931.407 8570.793 1930.799 Q 8571.096 1930.192 8573.111 1928.913 Q 8575.128 1927.634 8579.066 1927.776 Q 8583.005 1927.918 8585.233 1928.425 Q 8587.462 1928.933 8588.802 1929.775 Q 8590.142 1930.616 8590.566 1931.610 Q 8590.990 1932.603 8590.836 1933.656 Q 8590.681 1934.709 8588.807 1936.428 Q 8586.932 1938.147 8579.295 1939.119 Q 8571.659 1940.092 8571.154 1940.152 "></path>
    <path id="STROKE_2051f0fe-9ad7-4df1-9497-c2290ab1dce1" opacity="1.000" fill="none" stroke="#7f7e7a" stroke-width="3.012" stroke-opacity="1.000" stroke-linecap="round" stroke-linejoin="round" d="M 8533.771 1939.324 Q 8534.156 1938.950 8534.238 1938.952 Q 8535.161 1938.510 8537.047 1938.615 Q 8538.933 1938.721 8539.535 1938.749 "></path>
    <path id="STROKE_ceffd899-a680-4421-9a3b-58cdf00605fc" opacity="1.000" fill="none" stroke="#7f7e7a" stroke-width="2.769" stroke-opacity="1.000" stroke-linecap="round" stroke-linejoin="round" d="M 8604.311 1929.712 Q 8604.274 1929.531 8604.286 1929.003 Q 8604.298 1928.475 8604.010 1928.106 Q 8603.722 1927.737 8603.100 1927.479 Q 8602.479 1927.222 8599.896 1927.827 Q 8597.314 1928.431 8595.707 1929.306 Q 8594.100 1930.182 8593.566 1932.717 Q 8594.003 1933.413 8597.488 1934.946 Q 8600.974 1936.480 8603.521 1937.808 Q 8606.070 1939.137 8607.301 1940.216 Q 8608.530 1941.295 8609.043 1942.241 Q 8609.555 1943.188 8609.496 1943.986 Q 8609.438 1944.784 8609.023 1945.329 Q 8608.608 1945.874 8608.117 1946.213 Q 8607.627 1946.552 8605.083 1946.761 Q 8602.539 1946.970 8600.103 1946.542 Q 8597.666 1946.114 8596.369 1945.789 Q 8595.073 1945.464 8594.377 1944.960 Q 8593.682 1944.457 8593.482 1944.063 Q 8593.283 1943.669 8593.272 1943.198 Q 8593.414 1943.048 8593.867 1942.769 "></path>
  </g>
  <g id="Custom" opacity="1.000">
    <path id="STROKE_97832392-3b7c-4b4e-b007-13b1078258b4" opacity="1.000" fill="none" stroke="#b7deec" stroke-width="2.466" stroke-opacity="1.000" stroke-linecap="round" stroke-linejoin="round" d="M 8201.919 2000.273 Q 8202.555 1999.770 8204.959 1997.914 Q 8207.364 1996.057 8208.976 1994.804 Q 8210.587 1993.551 8211.476 1992.858 Q 8212.364 1992.165 8215.541 1989.708 Q 8218.718 1987.250 8219.557 1986.594 "></path>
    <path id="STROKE_baefa24e-e773-4fed-81d7-be2ca84bc635" opacity="1.000" fill="none" stroke="#b7deec" stroke-width="2.185" stroke-opacity="1.000" stroke-linecap="round" stroke-linejoin="round" d="M 8199.699 2012.965 Q 8202.156 2010.985 8204.560 2009.074 Q 8206.963 2007.164 8209.229 2005.358 Q 8211.495 2003.553 8212.491 2002.763 Q 8213.487 2001.973 8215.002 2000.780 Q 8216.516 1999.587 8217.400 1998.891 Q 8218.285 1998.194 8219.188 1997.485 Q 8220.090 1996.777 8223.018 1994.496 Q 8225.945 1992.214 8227.759 1990.812 Q 8229.572 1989.410 8234.754 1985.414 "></path>
    <path id="STROKE_b4cac214-0fce-4ab6-adb6-ea2c9246e7e8" opacity="1.000" fill="none" stroke="#b7deec" stroke-width="1.736" stroke-opacity="1.000" stroke-linecap="round" stroke-linejoin="round" d="M 8200.964 2022.448 Q 8201.412 2022.084 8202.455 2021.251 Q 8203.498 2020.418 8204.502 2019.620 Q 8205.506 2018.823 8207.670 2017.099 Q 8209.835 2015.375 8211.574 2013.986 Q 8213.314 2012.597 8214.180 2011.910 Q 8215.045 2011.222 8216.500 2010.063 Q 8217.954 2008.903 8219.025 2008.047 Q 8220.098 2007.191 8221.128 2006.372 Q 8222.158 2005.552 8224.262 2003.877 Q 8226.365 2002.202 8227.212 2001.526 Q 8228.059 2000.849 8233.054 1996.878 Q 8238.049 1992.907 8241.404 1990.245 Q 8244.760 1987.583 8248.793 1984.374 "></path>
    <path id="STROKE_bd2e878a-d285-4013-b04a-eb0f5ab407a1" opacity="1.000" fill="none" stroke="#b7deec" stroke-width="1.622" stroke-opacity="1.000" stroke-linecap="round" stroke-linejoin="round" d="M 8201.018 2034.411 Q 8201.411 2034.090 8202.641 2033.109 Q 8203.870 2032.129 8210.259 2027.048 Q 8216.647 2021.968 8218.189 2020.743 Q 8219.732 2019.518 8221.714 2017.954 Q 8223.695 2016.391 8226.555 2014.142 Q 8229.414 2011.893 8231.950 2009.915 Q 8234.486 2007.937 8236.996 2005.993 Q 8239.506 2004.048 8241.820 2002.272 Q 8244.135 2000.497 8244.962 1999.865 Q 8245.789 1999.232 8249.452 1996.452 Q 8253.115 1993.672 8257.823 1990.133 Q 8262.531 1986.594 8264.777 1984.904 "></path>
    <path id="STROKE_1c332c9d-0dc8-4ba5-a534-521c04fd3f48" opacity="1.000" fill="none" stroke="#b7deec" stroke-width="1.592" stroke-opacity="1.000" stroke-linecap="round" stroke-linejoin="round" d="M 8198.984 2047.387 Q 8199.185 2047.243 8200.330 2046.377 Q 8201.475 2045.511 8204.280 2043.392 Q 8207.086 2041.274 8208.804 2039.971 Q 8210.521 2038.668 8211.870 2037.649 Q 8213.219 2036.630 8215.043 2035.242 Q 8216.868 2033.853 8219.822 2031.598 Q 8222.775 2029.343 8226.265 2026.664 Q 8229.754 2023.984 8231.656 2022.518 Q 8233.559 2021.051 8235.940 2019.208 Q 8238.322 2017.365 8245.614 2011.702 Q 8252.906 2006.040 8256.816 2003.003 Q 8260.727 1999.967 8264.690 1996.897 Q 8268.654 1993.828 8270.614 1992.312 Q 8272.574 1990.797 8273.955 1989.731 Q 8275.337 1988.666 8276.230 1987.978 Q 8277.123 1987.290 8283.379 1982.458 "></path>
  </g>
  <g id="New_Layer_1" opacity="1.000">
    <path id="STROKE_3b68530d-83d5-4d6f-a63e-c8a9bbe060b9" opacity="1.000" fill="none" stroke="#48d1ec" stroke-width="1.054" stroke-opacity="1.000" stroke-linecap="round" stroke-linejoin="round" d="M 8200.891 2067.538 Q 8201.862 2068.512 8207.750 2063.885 Q 8213.637 2059.258 8216.770 2056.472 Q 8219.903 2053.686 8223.742 2050.198 Q 8227.581 2046.710 8231.261 2043.264 Q 8234.940 2039.818 8239.418 2035.925 Q 8243.896 2032.032 8247.262 2028.905 Q 8250.628 2025.777 8253.778 2022.607 Q 8256.929 2019.437 8264.803 2012.877 Q 8272.676 2006.317 8279.104 2000.550 Q 8285.533 1994.783 8297.309 1988.548 "></path>
    <path id="STROKE_906808d4-0daa-4255-b9d5-3238bcf99daf" opacity="1.000" fill="none" stroke="#48d1ec" stroke-width="1.047" stroke-opacity="1.000" stroke-linecap="round" stroke-linejoin="round" d="M 8199.044 2097.648 Q 8200.048 2097.819 8195.427 2097.999 Q 8193.453 2096.041 8206.677 2083.999 Q 8219.900 2071.958 8227.259 2065.776 Q 8234.617 2059.593 8238.223 2056.878 Q 8241.829 2054.164 8247.027 2049.629 Q 8252.226 2045.095 8255.042 2042.324 Q 8257.858 2039.553 8259.447 2037.944 Q 8261.035 2036.335 8266.400 2031.367 Q 8271.767 2026.399 8277.648 2019.923 Q 8283.529 2013.448 8286.813 2009.662 Q 8290.098 2005.877 8293.070 2003.041 Q 8296.044 2000.204 8300.688 1995.088 Q 8305.332 1989.973 8313.142 1982.500 "></path>
    <path id="STROKE_866e3226-a453-473c-b020-98a648539fa4" opacity="1.000" fill="none" stroke="#48d1ec" stroke-width="0.946" stroke-opacity="1.000" stroke-linecap="round" stroke-linejoin="round" d="M 8198.816 2125.653 Q 8200.436 2125.378 8202.520 2119.716 Q 8204.603 2114.053 8213.902 2101.931 Q 8223.201 2089.808 8235.281 2077.091 Q 8247.361 2064.374 8259.588 2050.937 Q 8271.813 2037.499 8279.262 2029.307 Q 8286.711 2021.115 8290.816 2017.076 Q 8294.921 2013.037 8297.541 2010.464 Q 8300.161 2007.892 8301.363 2006.751 Q 8302.564 2005.610 8307.318 2000.913 Q 8312.073 1996.217 8314.805 1993.488 Q 8317.535 1990.758 8321.208 1987.134 Q 8324.881 1983.510 8328.824 1979.394 Q 8332.769 1975.278 8350.020 1961.415 "></path>
    <path id="STROKE_0b8098ea-93ed-4f20-a5ee-197fcf9b5072" opacity="1.000" fill="none" stroke="#48d1ec" stroke-width="0.968" stroke-opacity="1.000" stroke-linecap="round" stroke-linejoin="round" d="M 8197.122 2146.509 Q 8196.923 2146.891 8197.652 2143.647 Q 8198.382 2140.405 8198.285 2138.577 Q 8198.189 2136.749 8198.775 2136.432 Q 8199.360 2136.116 8200.079 2135.367 Q 8200.798 2134.618 8201.084 2134.425 Q 8201.371 2134.232 8202.318 2133.369 Q 8203.265 2132.506 8205.042 2130.988 Q 8206.819 2129.470 8210.676 2125.625 Q 8214.531 2121.779 8219.991 2115.635 Q 8225.451 2109.491 8229.572 2104.596 Q 8233.694 2099.701 8239.320 2093.270 Q 8244.946 2086.838 8250.368 2080.974 Q 8255.790 2075.111 8261.283 2069.356 Q 8266.775 2063.602 8269.918 2060.474 Q 8273.062 2057.347 8276.695 2053.552 Q 8280.330 2049.757 8288.674 2040.544 Q 8297.018 2031.331 8301.477 2026.411 Q 8305.937 2021.491 8310.180 2016.803 Q 8314.422 2012.115 8321.354 2004.399 Q 8328.284 1996.682 8336.262 1987.165 Q 8344.238 1977.649 8349.567 1972.206 Q 8354.896 1966.763 8357.910 1963.215 Q 8360.925 1959.667 8363.627 1956.684 Q 8366.330 1953.701 8374.934 1946.266 "></path>
    <path id="STROKE_c43312dc-865b-4a47-9b53-d7ad54b9c4b3" opacity="1.000" fill="none" stroke="#48d1ec" stroke-width="1.008" stroke-opacity="1.000" stroke-linecap="round" stroke-linejoin="round" d="M 8210.375 2169.148 Q 8209.935 2169.528 8206.855 2169.830 Q 8203.777 2170.132 8201.678 2169.932 Q 8199.578 2169.732 8198.426 2168.374 Q 8197.272 2167.015 8206.169 2156.912 Q 8215.065 2146.809 8221.693 2139.727 Q 8228.321 2132.644 8243.898 2117.359 Q 8259.475 2102.074 8270.713 2090.457 Q 8281.950 2078.840 8288.541 2071.607 Q 8295.132 2064.374 8299.971 2059.230 Q 8304.809 2054.086 8308.566 2050.216 Q 8312.324 2046.346 8331.303 2028.479 "></path>
    <path id="STROKE_17409602-40fe-448a-a3e1-500d7f888e81" opacity="1.000" fill="none" stroke="#48d1ec" stroke-width="0.902" stroke-opacity="1.000" stroke-linecap="round" stroke-linejoin="round" d="M 8245.963 2152.235 Q 8246.711 2151.768 8249.080 2146.418 Q 8251.448 2141.070 8254.488 2136.941 Q 8257.528 2132.813 8259.082 2130.981 Q 8260.636 2129.150 8263.863 2125.768 Q 8267.092 2122.387 8275.545 2112.454 Q 8283.998 2102.521 8288.313 2097.131 Q 8292.629 2091.741 8295.456 2088.442 Q 8298.283 2085.143 8301.670 2080.777 Q 8305.056 2076.412 8309.988 2069.783 Q 8314.921 2063.155 8318.018 2059.438 Q 8321.115 2055.722 8325.572 2050.212 Q 8330.030 2044.702 8333.309 2040.378 Q 8336.586 2036.054 8342.785 2028.327 "></path>
    <path id="STROKE_87922c31-b266-4252-b7cc-68bc8edeb23c" opacity="1.000" fill="none" stroke="#48d1ec" stroke-width="1.035" stroke-opacity="1.000" stroke-linecap="round" stroke-linejoin="round" d="M 8283.094 2149.903 Q 8282.908 2151.078 8275.897 2150.785 Q 8274.386 2148.580 8282.691 2136.080 Q 8290.998 2123.581 8295.480 2117.029 Q 8299.963 2110.477 8302.322 2107.083 Q 8304.682 2103.688 8309.408 2096.611 Q 8314.136 2089.533 8321.681 2080.003 Q 8329.226 2070.473 8348.729 2054.645 "></path>
    <path id="STROKE_b5e3051b-d1ca-4e60-906e-1d859ada31b0" opacity="1.000" fill="none" stroke="#48d1ec" stroke-width="0.997" stroke-opacity="1.000" stroke-linecap="round" stroke-linejoin="round" d="M 8299.560 2153.847 Q 8301.292 2153.751 8301.166 2153.515 Q 8301.148 2152.971 8304.271 2147.191 Q 8307.395 2141.411 8311.421 2136.339 Q 8315.447 2131.268 8347.363 2097.799 "></path>
    <path id="STROKE_666c0937-1d6b-4701-9a50-0fe1a35ca94e" opacity="1.000" fill="none" stroke="#48d1ec" stroke-width="1.313" stroke-opacity="1.000" stroke-linecap="round" stroke-linejoin="round" d="M 8405.867 2059.954 Q 8405.998 2059.379 8405.750 2060.768 Q 8405.502 2062.157 8403.364 2062.878 Q 8401.227 2063.600 8398.924 2063.500 Q 8398.859 2062.116 8398.886 2062.134 Q 8397.827 2060.554 8401.904 2054.961 Q 8405.982 2049.369 8409.369 2045.750 Q 8412.756 2042.132 8416.465 2038.870 "></path>
    <path id="STROKE_6598a0c1-0ad6-4197-9ae3-74ad9be207af" opacity="1.000" fill="none" stroke="#48d1ec" stroke-width="1.193" stroke-opacity="1.000" stroke-linecap="round" stroke-linejoin="round" d="M 8409.079 2070.344 Q 8409.734 2070.260 8409.606 2070.304 Q 8409.479 2070.349 8409.459 2070.553 Q 8409.439 2070.757 8410.491 2069.755 Q 8411.543 2068.753 8411.738 2067.648 Q 8411.933 2066.543 8413.447 2062.757 Q 8414.963 2058.971 8418.150 2054.165 Q 8421.339 2049.358 8424.609 2044.791 Q 8427.880 2040.224 8434.322 2035.324 "></path>
    <path id="STROKE_f39e5304-40bc-4480-89f3-a8c265c03ffa" opacity="1.000" fill="none" stroke="#48d1ec" stroke-width="0.973" stroke-opacity="1.000" stroke-linecap="round" stroke-linejoin="round" d="M 8414.466 2094.254 Q 8414.429 2094.254 8414.391 2094.254 Q 8413.612 2093.519 8415.658 2088.167 Q 8417.703 2082.815 8423.997 2072.956 Q 8430.291 2063.097 8435.967 2054.986 Q 8441.644 2046.874 8444.838 2042.008 Q 8448.031 2037.142 8449.588 2034.539 Q 8451.145 2031.936 8459.615 2019.625 "></path>
    <path id="STROKE_07cc01cb-99a4-491e-8440-a6dc5179f421" opacity="1.000" fill="none" stroke="#48d1ec" stroke-width="1.007" stroke-opacity="1.000" stroke-linecap="round" stroke-linejoin="round" d="M 8415.428 2111.735 Q 8415.521 2112.566 8416.174 2112.378 Q 8416.825 2112.190 8421.189 2105.307 Q 8425.553 2098.425 8428.686 2093.523 Q 8431.817 2088.622 8437.533 2079.915 Q 8443.248 2071.209 8450.726 2060.305 Q 8458.203 2049.401 8462.011 2043.478 Q 8465.818 2037.554 8470.215 2031.135 Q 8474.612 2024.715 8488.475 2010.277 "></path>
    <path id="STROKE_6644d663-57db-4575-8d91-eb95c896629e" opacity="1.000" fill="none" stroke="#48d1ec" stroke-width="0.954" stroke-opacity="1.000" stroke-linecap="round" stroke-linejoin="round" d="M 8419.045 2151.344 Q 8418.939 2151.144 8420.397 2151.612 Q 8421.855 2152.080 8424.471 2147.407 Q 8427.087 2142.734 8429.430 2139.102 Q 8431.771 2135.470 8433.353 2132.853 Q 8434.934 2130.235 8440.100 2122.303 Q 8445.266 2114.370 8450.293 2106.784 Q 8455.321 2099.198 8460.418 2090.620 Q 8465.515 2082.041 8468.577 2077.206 Q 8471.640 2072.370 8477.386 2063.802 Q 8483.132 2055.234 8489.663 2046.359 "></path>
    <path id="STROKE_bc3f9351-1550-4459-9bd2-e5b06b2d727d" opacity="1.000" fill="none" stroke="#48d1ec" stroke-width="1.013" stroke-opacity="1.000" stroke-linecap="round" stroke-linejoin="round" d="M 8464.446 2134.431 Q 8464.452 2135.715 8464.484 2135.560 Q 8464.901 2136.590 8464.851 2136.327 Q 8466.967 2134.775 8470.771 2126.311 Q 8474.575 2117.846 8479.794 2108.479 Q 8485.013 2099.111 8488.111 2093.845 Q 8491.209 2088.578 8499.150 2077.014 Q 8507.093 2065.449 8512.869 2056.517 Q 8518.646 2047.585 8521.617 2042.253 Q 8524.589 2036.921 8530.892 2030.337 "></path>
    <path id="STROKE_8e0fc7bd-20a9-4818-8447-1e7fbb59f196" opacity="1.000" fill="none" stroke="#48d1ec" stroke-width="1.027" stroke-opacity="1.000" stroke-linecap="round" stroke-linejoin="round" d="M 8480.988 2139.911 Q 8481.551 2139.515 8482.229 2140.020 Q 8482.905 2140.524 8484.368 2139.301 Q 8485.831 2138.078 8488.717 2132.023 Q 8491.602 2125.969 8495.545 2118.450 Q 8499.489 2110.931 8528.488 2074.933 "></path>
    <path id="STROKE_968883df-5afc-4574-a62b-981e2f05d716" opacity="1.000" fill="none" stroke="#48d1ec" stroke-width="1.046" stroke-opacity="1.000" stroke-linecap="round" stroke-linejoin="round" d="M 8586.410 2052.388 Q 8587.871 2052.444 8589.446 2047.811 Q 8591.021 2043.178 8594.572 2037.939 Q 8598.124 2032.700 8601.574 2029.448 Q 8605.025 2026.195 8607.426 2024.050 Q 8609.826 2021.904 8616.164 2015.851 Q 8622.501 2009.797 8628.916 2004.879 Q 8635.331 1999.960 8642.105 1995.222 "></path>
    <path id="STROKE_f66a99b5-e7ed-49a5-9579-18d840413ea3" opacity="1.000" fill="none" stroke="#48d1ec" stroke-width="0.967" stroke-opacity="1.000" stroke-linecap="round" stroke-linejoin="round" d="M 8590.988 2087.257 Q 8593.502 2087.006 8594.863 2083.026 Q 8596.225 2079.046 8598.359 2074.804 Q 8600.493 2070.561 8604.045 2065.671 Q 8607.596 2060.782 8612.295 2054.645 Q 8616.994 2048.508 8620.511 2044.057 Q 8624.027 2039.607 8627.981 2035.162 Q 8631.936 2030.717 8641.169 2019.802 Q 8650.402 2008.887 8656.254 2001.613 Q 8662.105 1994.338 8675.519 1979.200 "></path>
    <path id="STROKE_89a5fb62-fd2c-4fee-9018-aebc718c8279" opacity="1.000" fill="none" stroke="#48d1ec" stroke-width="0.999" stroke-opacity="1.000" stroke-linecap="round" stroke-linejoin="round" d="M 8591.949 2107.223 Q 8593.585 2107.701 8593.518 2107.706 Q 8593.949 2108.043 8594.167 2108.002 Q 8594.385 2107.961 8595.398 2106.256 Q 8596.411 2104.551 8597.506 2102.580 Q 8598.601 2100.609 8599.375 2099.356 Q 8600.149 2098.103 8600.660 2097.134 Q 8601.170 2096.165 8604.480 2090.968 Q 8607.790 2085.771 8610.660 2081.546 Q 8613.529 2077.320 8615.521 2074.453 Q 8617.515 2071.585 8622.468 2064.182 Q 8627.421 2056.778 8633.928 2046.854 Q 8640.434 2036.929 8648.673 2024.638 Q 8656.912 2012.346 8665.072 2001.991 "></path>
    <path id="STROKE_fccc131b-5ae4-4073-9aed-94392ce877ac" opacity="1.000" fill="none" stroke="#48d1ec" stroke-width="1.003" stroke-opacity="1.000" stroke-linecap="round" stroke-linejoin="round" d="M 8609.478 2137.655 Q 8609.478 2136.955 8610.551 2132.931 Q 8611.624 2128.907 8612.678 2125.311 Q 8613.730 2121.714 8623.844 2105.060 Q 8633.958 2088.406 8640.713 2078.141 Q 8647.467 2067.876 8650.689 2063.070 Q 8653.912 2058.264 8655.793 2055.594 Q 8657.673 2052.925 8661.410 2047.617 Q 8665.146 2042.310 8668.010 2038.163 Q 8670.873 2034.015 8674.438 2029.061 Q 8678.001 2024.107 8683.336 2017.101 Q 8688.670 2010.095 8698.333 1996.587 "></path>
    <path id="STROKE_83b6e315-bf9d-4641-aea0-f254039c26ff" opacity="1.000" fill="none" stroke="#48d1ec" stroke-width="0.940" stroke-opacity="1.000" stroke-linecap="round" stroke-linejoin="round" d="M 8628.447 2151.837 Q 8628.229 2151.749 8631.049 2143.973 Q 8633.869 2136.197 8636.399 2130.994 Q 8638.930 2125.790 8640.307 2123.188 Q 8641.683 2120.586 8642.803 2118.065 Q 8643.924 2115.544 8648.043 2108.609 Q 8652.161 2101.673 8656.264 2095.683 Q 8660.365 2089.693 8662.879 2086.031 Q 8665.392 2082.369 8671.484 2073.495 Q 8677.577 2064.621 8681.217 2059.846 Q 8684.856 2055.070 8689.297 2049.606 Q 8693.736 2044.142 8697.364 2039.735 Q 8700.992 2035.327 8707.416 2028.255 Q 8713.839 2021.182 8720.515 2011.737 "></path>
  </g>
</svg>