<svg viewBox="0 0 150 49" fill="none" xmlns="http://www.w3.org/2000/svg">
<path d="M12.0117 21.6152C6.83686 21.6152 2.64234 17.4247 2.64234 12.2552C2.64234 7.08572 6.83686 2.89454 12.0117 2.89454C17.1859 2.89454 21.3811 7.08572 21.3811 12.2552C21.3811 17.4247 17.1859 21.6152 12.0117 21.6152ZM12.0117 0.254883C5.37775 0.254883 0 5.62728 0 12.2552C0 18.8825 5.37775 24.2549 12.0117 24.2549C18.645 24.2549 24.0241 18.8825 24.0241 12.2552C24.0241 5.62728 18.645 0.254883 12.0117 0.254883Z" fill="#0173CF"/>
<path d="M24.1253 31.7198C21.6048 31.7198 19.5605 29.6782 19.5605 27.1597C19.5605 24.6412 21.6048 22.6002 24.1253 22.6002C26.6458 22.6002 28.6901 24.6412 28.6901 27.1597C28.6901 29.6782 26.6458 31.7198 24.1253 31.7198ZM24.1253 19.9592C20.1444 19.9592 16.9175 23.1828 16.9175 27.159C16.9175 31.1353 20.1444 34.3595 24.1253 34.3595C28.1062 34.3595 31.3325 31.1353 31.3325 27.159C31.3325 23.1828 28.1062 19.9592 24.1253 19.9592Z" fill="#FF7700"/>
<path d="M16.6967 45.6144C13.7731 45.6144 11.4033 43.2472 11.4033 40.327C11.4033 37.4068 13.7731 35.039 16.6967 35.039C19.6196 35.039 21.9901 37.4068 21.9901 40.327C21.9901 43.2472 19.6196 45.6144 16.6967 45.6144ZM16.6967 32.4141C12.3181 32.4141 8.76904 35.9611 8.76904 40.335C8.76904 44.709 12.3181 48.2547 16.6967 48.2547C21.0747 48.2547 24.6244 44.709 24.6244 40.335C24.6244 35.9611 21.0747 32.4141 16.6967 32.4141Z" fill="#0173CF"/>
<path d="M37.2271 31.9461L44.8942 22.3008H37.3462V20.1091H47.8814V22.3812L40.1741 31.9856H48.0013V34.2181H37.2271V31.9461Z" fill="#0173CF"/>
<path d="M61.1821 24.6534H63.4729V26.2465H63.5124C64.0307 25.1503 65.0459 24.3735 66.3007 24.3735C66.4802 24.3735 66.7186 24.3943 66.8786 24.4338V26.6255C66.5599 26.5451 66.361 26.5257 66.1414 26.5257C63.9905 26.5257 63.5727 28.3993 63.5727 29.0964V34.2183H61.1821V24.6534Z" fill="#0173CF"/>
<path d="M70.3039 29.3756C70.3039 30.8896 71.3197 32.405 73.032 32.405C74.8051 32.405 75.8805 30.9693 75.8805 29.3756C75.8805 27.7217 74.785 26.3268 73.052 26.3268C71.3197 26.3268 70.3039 27.6815 70.3039 29.3756ZM78.1506 24.6534V33.3612C78.1506 36.8085 76.4772 39.0001 72.7534 39.0001C71.1999 39.0001 69.2479 38.443 68.0131 37.4265L69.3872 35.573C70.3039 36.4489 71.5387 36.9283 72.734 36.9283C75.0442 36.9283 75.7607 35.5328 75.7607 33.6398V32.9427H75.7212C75.0234 33.8789 73.9085 34.3771 72.594 34.3771C69.726 34.3771 67.8745 32.1057 67.8745 29.395C67.8745 26.6255 69.6664 24.3735 72.5545 24.3735C73.8891 24.3735 75.144 24.932 75.8404 26.0878H75.8805V24.6534H78.1506Z" fill="#0173CF"/>
<path d="M85.7373 32.0251C88.3267 32.0251 91.2349 30.9691 91.2349 27.163C91.2349 23.1178 88.3267 22.2606 85.7373 22.2606H83.646V32.0251H85.7373ZM81.137 20.1091H86.1357C89.8206 20.1091 93.9228 21.8622 93.9228 27.163C93.9228 32.1048 89.8206 34.2174 86.1357 34.2174H81.137V20.1091Z" fill="#0173CF"/>
<path d="M122.315 28.2393V34.2183H119.926V28.9176C119.926 27.7813 119.666 26.367 118.133 26.367C116.639 26.367 116.022 27.7612 116.022 28.9966V34.2183H113.632V28.4388C113.632 27.2636 113.074 26.367 111.859 26.367C110.425 26.367 109.767 27.6815 109.767 28.9571V34.2183H107.378V24.6534H109.649V26.1875H109.688C110.106 25.2507 111.122 24.3735 112.655 24.3735C114.129 24.3735 115.106 25.1115 115.643 26.1875C116.281 25.0311 117.356 24.3735 118.79 24.3735C121.28 24.3735 122.315 26.2873 122.315 28.2393Z" fill="#0173CF"/>
<path d="M131.315 28.4783C131.315 27.2429 130.618 26.1668 129.064 26.1668C127.651 26.1668 126.516 27.1444 126.416 28.4783H131.315ZM133.685 30.1926H126.416C126.516 31.5472 127.75 32.5436 129.144 32.5436C130.34 32.5436 131.135 32.0655 131.674 31.3082L133.267 32.5831C132.331 33.8594 130.977 34.4969 129.164 34.4969C126.217 34.4969 124.026 32.6039 124.026 29.4955C124.026 26.4058 126.197 24.3735 129.084 24.3735C131.753 24.3735 133.705 26.1072 133.705 29.5551C133.705 29.7747 133.705 29.9729 133.685 30.1926Z" fill="#0173CF"/>
<path d="M135.73 24.6533H138.121V34.2182H135.73V24.6533Z" fill="#0173CF"/>
<path d="M140.41 24.6534H142.68V26.1875H142.72C143.138 25.2307 144.273 24.3735 145.687 24.3735C148.177 24.3735 149.213 26.2873 149.213 28.2393V34.2183H146.822V28.9176C146.822 27.7813 146.564 26.367 145.031 26.367C143.517 26.367 142.799 27.6815 142.799 28.9571V34.2183H140.41V24.6534Z" fill="#0173CF"/>
<path d="M100.491 32.4014C98.8185 32.4014 97.4626 31.0448 97.4626 29.3707C97.4626 27.698 98.8185 26.3413 100.491 26.3413C102.164 26.3413 103.52 27.698 103.52 29.3707C103.52 31.0448 102.164 32.4014 100.491 32.4014ZM100.491 24.2434C97.6608 24.2434 95.366 26.5389 95.366 29.3714C95.366 32.2032 97.6608 34.4994 100.491 34.4994C103.322 34.4994 105.617 32.2032 105.617 29.3714C105.617 26.5389 103.322 24.2434 100.491 24.2434Z" fill="#0173CF"/>
<path d="M54.2796 32.4363C52.5875 32.4363 51.2161 31.0635 51.2161 29.3707C51.2161 27.6779 52.5875 26.3065 54.2796 26.3065C55.9711 26.3065 57.3425 27.6779 57.3425 29.3707C57.3425 31.0635 55.9711 32.4363 54.2796 32.4363ZM54.2796 24.2434C51.4491 24.2434 49.1543 26.5389 49.1543 29.3714C49.1543 32.2032 51.4491 34.4994 54.2796 34.4994C57.1101 34.4994 59.4042 32.2032 59.4042 29.3714C59.4042 26.5389 57.1101 24.2434 54.2796 24.2434Z" fill="#0173CF"/>
<path d="M138.459 21.7699C138.459 22.6163 137.772 23.3033 136.925 23.3033C136.078 23.3033 135.392 22.6163 135.392 21.7699C135.392 20.9221 136.078 20.2351 136.925 20.2351C137.772 20.2351 138.459 20.9221 138.459 21.7699Z" fill="#0173CF"/>
</svg>