<svg width="495" height="220" viewBox="0 0 495 220" xmlns="http://www.w3.org/2000/svg" xmlns:xlink="http://www.w3.org/1999/xlink"><defs><path d="M265.924 1.265c-.828.83-1.241 1.83-1.241 3.002 0 1.221.417 2.258 1.254 3.114.835.853 1.846 1.281 3.03 1.281 1.153 0 2.143-.419 2.971-1.257.827-.838 1.241-1.851 1.241-3.04 0-1.204-.418-2.229-1.254-3.076-.836-.846-1.838-1.27-3.007-1.27-1.168 0-2.166.416-2.994 1.246zm-113.459 0c-.828.83-1.241 1.83-1.241 3.002 0 1.221.418 2.258 1.254 3.114.834.853 1.846 1.281 3.03 1.281 1.152 0 2.142-.419 2.97-1.257.828-.838 1.242-1.851 1.242-3.04 0-1.204-.418-2.229-1.254-3.076-.835-.846-1.838-1.27-3.007-1.27-1.167 0-2.165.416-2.994 1.246zm-121.993 0c-.828.83-1.241 1.83-1.241 3.002 0 1.221.418 2.258 1.254 3.114.835.853 1.846 1.281 3.03 1.281 1.152 0 2.142-.419 2.971-1.257.827-.838 1.241-1.851 1.241-3.04 0-1.204-.418-2.229-1.254-3.076-.836-.846-1.838-1.27-3.007-1.27-1.168 0-2.166.416-2.994 1.246zM253.085 37.52h6.664V.704h-6.664V37.52zm-12.493 0h6.665V.704h-6.665V37.52zm-114.541 0h6.665V.704h-6.665V37.52zm69.497-36.353v9.79h-3.419v5.737h3.419V37.52h6.664V16.694h3.956v-5.737h-3.956v-9.79h-6.664zm209.204 13.122c-2.614 2.678-3.92 6.043-3.92 10.096 0 3.954 1.31 7.247 3.931 9.875 2.62 2.629 6.013 3.944 10.18 3.944 2.686 0 5.005-.477 6.959-1.429 1.953-.953 3.629-2.421 5.029-4.407l-5.615-2.636c-1.792 1.741-3.931 2.612-6.421 2.612-2.084 0-3.796-.558-5.14-1.672-1.341-1.116-2.168-2.616-2.477-4.505h21.411l.024-1.269c0-4.395-1.31-7.931-3.93-10.609-2.622-2.677-6.023-4.015-10.205-4.015-3.94 0-7.215 1.338-9.826 4.015zm5.264 3.187c1.402-1.042 3.032-1.563 4.891-1.563 1.712 0 3.215.464 4.512 1.392 1.296.927 2.164 2.133 2.605 3.613H407.57c.75-1.643 1.567-2.791 2.446-3.442zm-32.078-5.347c-2.303 1.237-4.098 2.938-5.383 5.103-1.286 2.164-1.929 4.533-1.929 7.104 0 3.711 1.322 6.95 3.968 9.717 2.645 2.767 6.301 4.151 10.973 4.151 5.192 0 9.213-1.853 12.061-5.557l-5.256-3.599c-1.662 2.035-3.983 3.052-6.966 3.052-2.412 0-4.359-.715-5.841-2.145-1.484-1.43-2.225-3.275-2.225-5.534 0-2.323.77-4.228 2.31-5.716 1.54-1.487 3.557-2.23 6.05-2.23 1.368 0 2.562.211 3.581.634 1.018.424 2.048 1.181 3.091 2.271l5.55-3.052a13.492 13.492 0 00-5.152-4.48c-2.1-1.05-4.468-1.574-7.105-1.574-2.848 0-5.424.619-7.727 1.855zm-24.875-1.108c-1.227.497-2.596 1.384-4.108 2.658v-2.722h-6.664V37.52h6.664V26.863c0-2.763.098-4.56.293-5.39.373-1.592 1.043-2.84 2.01-3.743.965-.901 2.123-1.353 3.47-1.353 1.038 0 1.911.272 2.618.818.706.544 1.201 1.336 1.485 2.377.284 1.04.427 3.146.427 6.316V37.52h6.592V19.966c0-3.06-.772-5.371-2.316-6.934-1.837-1.838-4.072-2.758-6.705-2.758a9.91 9.91 0 00-3.766.747zm-39.62 3.268c-2.614 2.678-3.919 6.043-3.919 10.096 0 3.954 1.309 7.247 3.931 9.875 2.62 2.629 6.013 3.944 10.18 3.944 2.685 0 5.005-.477 6.959-1.429 1.952-.953 3.628-2.421 5.029-4.407l-5.615-2.636c-1.792 1.741-3.932 2.612-6.422 2.612-2.083 0-3.795-.558-5.14-1.672-1.341-1.116-2.168-2.616-2.477-4.505h21.411l.025-1.269c0-4.395-1.311-7.931-3.931-10.609-2.621-2.677-6.022-4.015-10.205-4.015-3.94 0-7.215 1.338-9.826 4.015zm5.264 3.187c1.402-1.042 3.032-1.563 4.892-1.563 1.711 0 3.215.464 4.511 1.392 1.296.927 2.165 2.133 2.605 3.613h-14.453c.75-1.643 1.566-2.791 2.445-3.442zm-37.817-3.735c-2.605 2.555-3.906 5.941-3.906 10.155 0 3.94 1.229 7.195 3.687 9.766 2.457 2.572 5.468 3.858 9.033 3.858 1.626 0 3.083-.256 4.369-.77 1.285-.512 2.515-1.355 3.687-2.526 0 2.148-.224 3.662-.672 4.541-.447.878-1.217 1.594-2.306 2.148-1.091.553-2.532.83-4.321.83-1.401 0-2.613-.192-3.638-.573-1.026-.383-1.865-.95-2.515-1.697h-7.349c.587 1.807 1.489 3.34 2.711 4.601 1.22 1.262 2.717 2.218 4.492 2.869 1.773.651 3.962.977 6.567.977 4.882 0 8.536-1.433 10.962-4.297 1.806-2.116 2.71-5.419 2.71-9.912V10.957h-6.641v2.929c-1.367-1.285-2.73-2.208-4.09-2.771a11.256 11.256 0 00-4.333-.841c-3.271 0-6.088 1.155-8.447 3.467zm4.81 15.624c-1.401-1.416-2.1-3.23-2.1-5.444 0-2.132.683-3.902 2.051-5.31 1.367-1.408 3.101-2.112 5.2-2.112 2.131 0 3.873.692 5.225 2.075 1.35 1.384 2.026 3.183 2.026 5.396 0 2.245-.672 4.062-2.014 5.444-1.343 1.384-3.049 2.076-5.115 2.076-2.116 0-3.874-.709-5.273-2.125zm-73.699-15.076c-2.613 2.678-3.918 6.043-3.918 10.096 0 3.954 1.309 7.247 3.93 9.875 2.62 2.629 6.014 3.944 10.181 3.944 2.686 0 5.005-.477 6.958-1.429 1.953-.953 3.629-2.421 5.029-4.407l-5.615-2.636c-1.791 1.741-3.931 2.612-6.421 2.612-2.084 0-3.796-.558-5.14-1.672-1.342-1.116-2.169-2.616-2.477-4.505h21.411l.024-1.269c0-4.395-1.31-7.931-3.93-10.609-2.621-2.677-6.023-4.015-10.205-4.015-3.94 0-7.216 1.338-9.827 4.015zm5.265 3.187c1.403-1.042 3.032-1.563 4.892-1.563 1.712 0 3.215.464 4.512 1.392 1.296.927 2.163 2.133 2.604 3.613H214.82c.751-1.643 1.566-2.791 2.446-3.442zm-41.501-6.455c-1.227.497-2.596 1.384-4.107 2.658v-2.722h-6.665V37.52h6.665V26.863c0-2.763.097-4.56.292-5.39.374-1.592 1.044-2.84 2.009-3.743.966-.901 2.123-1.353 3.471-1.353 1.039 0 1.911.272 2.618.818.706.544 1.201 1.336 1.486 2.377.284 1.04.426 3.146.426 6.316V37.52h6.592V19.966c0-3.06-.772-5.371-2.315-6.934-1.838-1.838-4.072-2.758-6.706-2.758a9.913 9.913 0 00-3.766.747zm-79.692 3.183c-2.423 2.621-3.633 5.982-3.633 10.083 0 3.955 1.252 7.264 3.755 9.924 2.504 2.662 5.47 3.993 8.901 3.993 1.528 0 2.946-.273 4.255-.819 1.309-.545 2.614-1.436 3.914-2.673v2.808h6.665V10.957h-6.665v2.929c-1.188-1.203-2.479-2.107-3.878-2.71-1.398-.601-2.894-.902-4.487-.902-3.462 0-6.405 1.31-8.827 3.93zm5.087 15.674c-1.386-1.481-2.08-3.369-2.08-5.664 0-2.278.682-4.146 2.044-5.603 1.363-1.457 3.075-2.185 5.134-2.185 2.109 0 3.853.717 5.231 2.148 1.379 1.433 2.069 3.305 2.069 5.616 0 2.36-.69 4.268-2.069 5.725-1.378 1.457-3.114 2.185-5.206 2.185-2.029 0-3.736-.741-5.123-2.222zm-56.95-17.37c-1.62 1.488-2.429 3.283-2.429 5.383 0 3.256 2.148 5.966 6.445 8.129l2.246 1.123c1.937.977 2.905 1.979 2.905 3.004 0 .553-.268 1.042-.805 1.464-.537.424-1.246.635-2.124.635-.815 0-1.745-.281-2.796-.842a9.493 9.493 0 01-2.746-2.209l-4.102 4.467c2.311 3.028 5.403 4.542 9.277 4.542 2.914 0 5.237-.79 6.971-2.369 1.733-1.578 2.6-3.548 2.6-5.908 0-1.774-.48-3.321-1.441-4.639-.961-1.318-2.726-2.612-5.297-3.882l-2.442-1.22c-1.058-.521-1.721-.932-1.99-1.233-.268-.302-.403-.631-.403-.989 0-.471.211-.866.635-1.185.423-.316 1.009-.475 1.758-.475 1.367 0 2.889.83 4.566 2.49l4.125-4.126c-1.058-1.416-2.347-2.501-3.869-3.259a10.807 10.807 0 00-4.87-1.135c-2.524 0-4.595.743-6.214 2.234zM265.586 37.52h6.664V10.957h-6.664V37.52zm-113.459 0h6.665V10.957h-6.665V37.52zM80.941 10.957V23.97c0 2.507-.139 4.143-.416 4.907-.376 1.026-.95 1.803-1.725 2.332-.776.528-1.719.793-2.828.793-1.109 0-2.043-.269-2.802-.806-.759-.537-1.309-1.29-1.652-2.258-.343-.968-.514-2.697-.514-5.188V10.957h-6.738v11.06c0 4.248.26 7.178.782 8.788.731 2.329 1.998 4.143 3.795 5.446 1.799 1.301 4.154 1.953 7.068 1.953 2.686 0 4.899-.559 6.641-1.673 1.741-1.115 3.06-2.713 3.955-4.798.733-1.709 1.099-4.882 1.099-9.521V10.957h-6.665zM30.134 37.52h6.665V10.957h-6.665V37.52zm-9.903-26.563l-6.697 15.674-6.709-15.674H.034L11.363 37.52h4.32l11.305-26.563h-6.757z" id="a"/><path d="M265.924 1.265c-.828.83-1.241 1.83-1.241 3.002 0 1.221.417 2.258 1.254 3.114.835.853 1.846 1.281 3.03 1.281 1.153 0 2.143-.419 2.971-1.257.827-.838 1.241-1.851 1.241-3.04 0-1.204-.418-2.229-1.254-3.076-.836-.846-1.838-1.27-3.007-1.27-1.168 0-2.166.416-2.994 1.246zm-113.459 0c-.828.83-1.241 1.83-1.241 3.002 0 1.221.418 2.258 1.254 3.114.834.853 1.846 1.281 3.03 1.281 1.152 0 2.142-.419 2.97-1.257.828-.838 1.242-1.851 1.242-3.04 0-1.204-.418-2.229-1.254-3.076-.835-.846-1.838-1.27-3.007-1.27-1.167 0-2.165.416-2.994 1.246zm-121.993 0c-.828.83-1.241 1.83-1.241 3.002 0 1.221.418 2.258 1.254 3.114.835.853 1.846 1.281 3.03 1.281 1.152 0 2.142-.419 2.971-1.257.827-.838 1.241-1.851 1.241-3.04 0-1.204-.418-2.229-1.254-3.076-.836-.846-1.838-1.27-3.007-1.27-1.168 0-2.166.416-2.994 1.246zM253.085 37.52h6.664V.704h-6.664V37.52zm-12.493 0h6.665V.704h-6.665V37.52zm-114.541 0h6.665V.704h-6.665V37.52zm69.497-36.353v9.79h-3.419v5.737h3.419V37.52h6.664V16.694h3.956v-5.737h-3.956v-9.79h-6.664zm209.204 13.122c-2.614 2.678-3.92 6.043-3.92 10.096 0 3.954 1.31 7.247 3.931 9.875 2.62 2.629 6.013 3.944 10.18 3.944 2.686 0 5.005-.477 6.959-1.429 1.953-.953 3.629-2.421 5.029-4.407l-5.615-2.636c-1.792 1.741-3.931 2.612-6.421 2.612-2.084 0-3.796-.558-5.14-1.672-1.341-1.116-2.168-2.616-2.477-4.505h21.411l.024-1.269c0-4.395-1.31-7.931-3.93-10.609-2.622-2.677-6.023-4.015-10.205-4.015-3.94 0-7.215 1.338-9.826 4.015zm5.264 3.187c1.402-1.042 3.032-1.563 4.891-1.563 1.712 0 3.215.464 4.512 1.392 1.296.927 2.164 2.133 2.605 3.613H407.57c.75-1.643 1.567-2.791 2.446-3.442zm-32.078-5.347c-2.303 1.237-4.098 2.938-5.383 5.103-1.286 2.164-1.929 4.533-1.929 7.104 0 3.711 1.322 6.95 3.968 9.717 2.645 2.767 6.301 4.151 10.973 4.151 5.192 0 9.213-1.853 12.061-5.557l-5.256-3.599c-1.662 2.035-3.983 3.052-6.966 3.052-2.412 0-4.359-.715-5.841-2.145-1.484-1.43-2.225-3.275-2.225-5.534 0-2.323.77-4.228 2.31-5.716 1.54-1.487 3.557-2.23 6.05-2.23 1.368 0 2.562.211 3.581.634 1.018.424 2.048 1.181 3.091 2.271l5.55-3.052a13.492 13.492 0 00-5.152-4.48c-2.1-1.05-4.468-1.574-7.105-1.574-2.848 0-5.424.619-7.727 1.855zm-24.875-1.108c-1.227.497-2.596 1.384-4.108 2.658v-2.722h-6.664V37.52h6.664V26.863c0-2.763.098-4.56.293-5.39.373-1.592 1.043-2.84 2.01-3.743.965-.901 2.123-1.353 3.47-1.353 1.038 0 1.911.272 2.618.818.706.544 1.201 1.336 1.485 2.377.284 1.04.427 3.146.427 6.316V37.52h6.592V19.966c0-3.06-.772-5.371-2.316-6.934-1.837-1.838-4.072-2.758-6.705-2.758a9.91 9.91 0 00-3.766.747zm-39.62 3.268c-2.614 2.678-3.919 6.043-3.919 10.096 0 3.954 1.309 7.247 3.931 9.875 2.62 2.629 6.013 3.944 10.18 3.944 2.685 0 5.005-.477 6.959-1.429 1.952-.953 3.628-2.421 5.029-4.407l-5.615-2.636c-1.792 1.741-3.932 2.612-6.422 2.612-2.083 0-3.795-.558-5.14-1.672-1.341-1.116-2.168-2.616-2.477-4.505h21.411l.025-1.269c0-4.395-1.311-7.931-3.931-10.609-2.621-2.677-6.022-4.015-10.205-4.015-3.94 0-7.215 1.338-9.826 4.015zm5.264 3.187c1.402-1.042 3.032-1.563 4.892-1.563 1.711 0 3.215.464 4.511 1.392 1.296.927 2.165 2.133 2.605 3.613h-14.453c.75-1.643 1.566-2.791 2.445-3.442zm-37.817-3.735c-2.605 2.555-3.906 5.941-3.906 10.155 0 3.94 1.229 7.195 3.687 9.766 2.457 2.572 5.468 3.858 9.033 3.858 1.626 0 3.083-.256 4.369-.77 1.285-.512 2.515-1.355 3.687-2.526 0 2.148-.224 3.662-.672 4.541-.447.878-1.217 1.594-2.306 2.148-1.091.553-2.532.83-4.321.83-1.401 0-2.613-.192-3.638-.573-1.026-.383-1.865-.95-2.515-1.697h-7.349c.587 1.807 1.489 3.34 2.711 4.601 1.22 1.262 2.717 2.218 4.492 2.869 1.773.651 3.962.977 6.567.977 4.882 0 8.536-1.433 10.962-4.297 1.806-2.116 2.71-5.419 2.71-9.912V10.957h-6.641v2.929c-1.367-1.285-2.73-2.208-4.09-2.771a11.256 11.256 0 00-4.333-.841c-3.271 0-6.088 1.155-8.447 3.467zm4.81 15.624c-1.401-1.416-2.1-3.23-2.1-5.444 0-2.132.683-3.902 2.051-5.31 1.367-1.408 3.101-2.112 5.2-2.112 2.131 0 3.873.692 5.225 2.075 1.35 1.384 2.026 3.183 2.026 5.396 0 2.245-.672 4.062-2.014 5.444-1.343 1.384-3.049 2.076-5.115 2.076-2.116 0-3.874-.709-5.273-2.125zm-73.699-15.076c-2.613 2.678-3.918 6.043-3.918 10.096 0 3.954 1.309 7.247 3.93 9.875 2.62 2.629 6.014 3.944 10.181 3.944 2.686 0 5.005-.477 6.958-1.429 1.953-.953 3.629-2.421 5.029-4.407l-5.615-2.636c-1.791 1.741-3.931 2.612-6.421 2.612-2.084 0-3.796-.558-5.14-1.672-1.342-1.116-2.169-2.616-2.477-4.505h21.411l.024-1.269c0-4.395-1.31-7.931-3.93-10.609-2.621-2.677-6.023-4.015-10.205-4.015-3.94 0-7.216 1.338-9.827 4.015zm5.265 3.187c1.403-1.042 3.032-1.563 4.892-1.563 1.712 0 3.215.464 4.512 1.392 1.296.927 2.163 2.133 2.604 3.613H214.82c.751-1.643 1.566-2.791 2.446-3.442zm-41.501-6.455c-1.227.497-2.596 1.384-4.107 2.658v-2.722h-6.665V37.52h6.665V26.863c0-2.763.097-4.56.292-5.39.374-1.592 1.044-2.84 2.009-3.743.966-.901 2.123-1.353 3.471-1.353 1.039 0 1.911.272 2.618.818.706.544 1.201 1.336 1.486 2.377.284 1.04.426 3.146.426 6.316V37.52h6.592V19.966c0-3.06-.772-5.371-2.315-6.934-1.838-1.838-4.072-2.758-6.706-2.758a9.913 9.913 0 00-3.766.747zm-79.692 3.183c-2.423 2.621-3.633 5.982-3.633 10.083 0 3.955 1.252 7.264 3.755 9.924 2.504 2.662 5.47 3.993 8.901 3.993 1.528 0 2.946-.273 4.255-.819 1.309-.545 2.614-1.436 3.914-2.673v2.808h6.665V10.957h-6.665v2.929c-1.188-1.203-2.479-2.107-3.878-2.71-1.398-.601-2.894-.902-4.487-.902-3.462 0-6.405 1.31-8.827 3.93zm5.087 15.674c-1.386-1.481-2.08-3.369-2.08-5.664 0-2.278.682-4.146 2.044-5.603 1.363-1.457 3.075-2.185 5.134-2.185 2.109 0 3.853.717 5.231 2.148 1.379 1.433 2.069 3.305 2.069 5.616 0 2.36-.69 4.268-2.069 5.725-1.378 1.457-3.114 2.185-5.206 2.185-2.029 0-3.736-.741-5.123-2.222zm-56.95-17.37c-1.62 1.488-2.429 3.283-2.429 5.383 0 3.256 2.148 5.966 6.445 8.129l2.246 1.123c1.937.977 2.905 1.979 2.905 3.004 0 .553-.268 1.042-.805 1.464-.537.424-1.246.635-2.124.635-.815 0-1.745-.281-2.796-.842a9.493 9.493 0 01-2.746-2.209l-4.102 4.467c2.311 3.028 5.403 4.542 9.277 4.542 2.914 0 5.237-.79 6.971-2.369 1.733-1.578 2.6-3.548 2.6-5.908 0-1.774-.48-3.321-1.441-4.639-.961-1.318-2.726-2.612-5.297-3.882l-2.442-1.22c-1.058-.521-1.721-.932-1.99-1.233-.268-.302-.403-.631-.403-.989 0-.471.211-.866.635-1.185.423-.316 1.009-.475 1.758-.475 1.367 0 2.889.83 4.566 2.49l4.125-4.126c-1.058-1.416-2.347-2.501-3.869-3.259a10.807 10.807 0 00-4.87-1.135c-2.524 0-4.595.743-6.214 2.234zM265.586 37.52h6.664V10.957h-6.664V37.52zm-113.459 0h6.665V10.957h-6.665V37.52zM80.941 10.957V23.97c0 2.507-.139 4.143-.416 4.907-.376 1.026-.95 1.803-1.725 2.332-.776.528-1.719.793-2.828.793-1.109 0-2.043-.269-2.802-.806-.759-.537-1.309-1.29-1.652-2.258-.343-.968-.514-2.697-.514-5.188V10.957h-6.738v11.06c0 4.248.26 7.178.782 8.788.731 2.329 1.998 4.143 3.795 5.446 1.799 1.301 4.154 1.953 7.068 1.953 2.686 0 4.899-.559 6.641-1.673 1.741-1.115 3.06-2.713 3.955-4.798.733-1.709 1.099-4.882 1.099-9.521V10.957h-6.665zM30.134 37.52h6.665V10.957h-6.665V37.52zm-9.903-26.563l-6.697 15.674-6.709-15.674H.034L11.363 37.52h4.32l11.305-26.563h-6.757z" id="c"/><path d="M265.924 1.265c-.828.83-1.241 1.83-1.241 3.002 0 1.221.417 2.258 1.254 3.114.835.853 1.846 1.281 3.03 1.281 1.153 0 2.143-.419 2.971-1.257.827-.838 1.241-1.851 1.241-3.04 0-1.204-.418-2.229-1.254-3.076-.836-.846-1.838-1.27-3.007-1.27-1.168 0-2.166.416-2.994 1.246zm-113.459 0c-.828.83-1.241 1.83-1.241 3.002 0 1.221.418 2.258 1.254 3.114.834.853 1.846 1.281 3.03 1.281 1.152 0 2.142-.419 2.97-1.257.828-.838 1.242-1.851 1.242-3.04 0-1.204-.418-2.229-1.254-3.076-.835-.846-1.838-1.27-3.007-1.27-1.167 0-2.165.416-2.994 1.246zm-121.993 0c-.828.83-1.241 1.83-1.241 3.002 0 1.221.418 2.258 1.254 3.114.835.853 1.846 1.281 3.03 1.281 1.152 0 2.142-.419 2.971-1.257.827-.838 1.241-1.851 1.241-3.04 0-1.204-.418-2.229-1.254-3.076-.836-.846-1.838-1.27-3.007-1.27-1.168 0-2.166.416-2.994 1.246zM253.085 37.52h6.664V.704h-6.664V37.52zm-12.493 0h6.665V.704h-6.665V37.52zm-114.541 0h6.665V.704h-6.665V37.52zm69.497-36.353v9.79h-3.419v5.737h3.419V37.52h6.664V16.694h3.956v-5.737h-3.956v-9.79h-6.664zm209.204 13.122c-2.614 2.678-3.92 6.043-3.92 10.096 0 3.954 1.31 7.247 3.931 9.875 2.62 2.629 6.013 3.944 10.18 3.944 2.686 0 5.005-.477 6.959-1.429 1.953-.953 3.629-2.421 5.029-4.407l-5.615-2.636c-1.792 1.741-3.931 2.612-6.421 2.612-2.084 0-3.796-.558-5.14-1.672-1.341-1.116-2.168-2.616-2.477-4.505h21.411l.024-1.269c0-4.395-1.31-7.931-3.93-10.609-2.622-2.677-6.023-4.015-10.205-4.015-3.94 0-7.215 1.338-9.826 4.015zm5.264 3.187c1.402-1.042 3.032-1.563 4.891-1.563 1.712 0 3.215.464 4.512 1.392 1.296.927 2.164 2.133 2.605 3.613H407.57c.75-1.643 1.567-2.791 2.446-3.442zm-32.078-5.347c-2.303 1.237-4.098 2.938-5.383 5.103-1.286 2.164-1.929 4.533-1.929 7.104 0 3.711 1.322 6.95 3.968 9.717 2.645 2.767 6.301 4.151 10.973 4.151 5.192 0 9.213-1.853 12.061-5.557l-5.256-3.599c-1.662 2.035-3.983 3.052-6.966 3.052-2.412 0-4.359-.715-5.841-2.145-1.484-1.43-2.225-3.275-2.225-5.534 0-2.323.77-4.228 2.31-5.716 1.54-1.487 3.557-2.23 6.05-2.23 1.368 0 2.562.211 3.581.634 1.018.424 2.048 1.181 3.091 2.271l5.55-3.052a13.492 13.492 0 00-5.152-4.48c-2.1-1.05-4.468-1.574-7.105-1.574-2.848 0-5.424.619-7.727 1.855zm-24.875-1.108c-1.227.497-2.596 1.384-4.108 2.658v-2.722h-6.664V37.52h6.664V26.863c0-2.763.098-4.56.293-5.39.373-1.592 1.043-2.84 2.01-3.743.965-.901 2.123-1.353 3.47-1.353 1.038 0 1.911.272 2.618.818.706.544 1.201 1.336 1.485 2.377.284 1.04.427 3.146.427 6.316V37.52h6.592V19.966c0-3.06-.772-5.371-2.316-6.934-1.837-1.838-4.072-2.758-6.705-2.758a9.91 9.91 0 00-3.766.747zm-39.62 3.268c-2.614 2.678-3.919 6.043-3.919 10.096 0 3.954 1.309 7.247 3.931 9.875 2.62 2.629 6.013 3.944 10.18 3.944 2.685 0 5.005-.477 6.959-1.429 1.952-.953 3.628-2.421 5.029-4.407l-5.615-2.636c-1.792 1.741-3.932 2.612-6.422 2.612-2.083 0-3.795-.558-5.14-1.672-1.341-1.116-2.168-2.616-2.477-4.505h21.411l.025-1.269c0-4.395-1.311-7.931-3.931-10.609-2.621-2.677-6.022-4.015-10.205-4.015-3.94 0-7.215 1.338-9.826 4.015zm5.264 3.187c1.402-1.042 3.032-1.563 4.892-1.563 1.711 0 3.215.464 4.511 1.392 1.296.927 2.165 2.133 2.605 3.613h-14.453c.75-1.643 1.566-2.791 2.445-3.442zm-37.817-3.735c-2.605 2.555-3.906 5.941-3.906 10.155 0 3.94 1.229 7.195 3.687 9.766 2.457 2.572 5.468 3.858 9.033 3.858 1.626 0 3.083-.256 4.369-.77 1.285-.512 2.515-1.355 3.687-2.526 0 2.148-.224 3.662-.672 4.541-.447.878-1.217 1.594-2.306 2.148-1.091.553-2.532.83-4.321.83-1.401 0-2.613-.192-3.638-.573-1.026-.383-1.865-.95-2.515-1.697h-7.349c.587 1.807 1.489 3.34 2.711 4.601 1.22 1.262 2.717 2.218 4.492 2.869 1.773.651 3.962.977 6.567.977 4.882 0 8.536-1.433 10.962-4.297 1.806-2.116 2.71-5.419 2.71-9.912V10.957h-6.641v2.929c-1.367-1.285-2.73-2.208-4.09-2.771a11.256 11.256 0 00-4.333-.841c-3.271 0-6.088 1.155-8.447 3.467zm4.81 15.624c-1.401-1.416-2.1-3.23-2.1-5.444 0-2.132.683-3.902 2.051-5.31 1.367-1.408 3.101-2.112 5.2-2.112 2.131 0 3.873.692 5.225 2.075 1.35 1.384 2.026 3.183 2.026 5.396 0 2.245-.672 4.062-2.014 5.444-1.343 1.384-3.049 2.076-5.115 2.076-2.116 0-3.874-.709-5.273-2.125zm-73.699-15.076c-2.613 2.678-3.918 6.043-3.918 10.096 0 3.954 1.309 7.247 3.93 9.875 2.62 2.629 6.014 3.944 10.181 3.944 2.686 0 5.005-.477 6.958-1.429 1.953-.953 3.629-2.421 5.029-4.407l-5.615-2.636c-1.791 1.741-3.931 2.612-6.421 2.612-2.084 0-3.796-.558-5.14-1.672-1.342-1.116-2.169-2.616-2.477-4.505h21.411l.024-1.269c0-4.395-1.31-7.931-3.93-10.609-2.621-2.677-6.023-4.015-10.205-4.015-3.94 0-7.216 1.338-9.827 4.015zm5.265 3.187c1.403-1.042 3.032-1.563 4.892-1.563 1.712 0 3.215.464 4.512 1.392 1.296.927 2.163 2.133 2.604 3.613H214.82c.751-1.643 1.566-2.791 2.446-3.442zm-41.501-6.455c-1.227.497-2.596 1.384-4.107 2.658v-2.722h-6.665V37.52h6.665V26.863c0-2.763.097-4.56.292-5.39.374-1.592 1.044-2.84 2.009-3.743.966-.901 2.123-1.353 3.471-1.353 1.039 0 1.911.272 2.618.818.706.544 1.201 1.336 1.486 2.377.284 1.04.426 3.146.426 6.316V37.52h6.592V19.966c0-3.06-.772-5.371-2.315-6.934-1.838-1.838-4.072-2.758-6.706-2.758a9.913 9.913 0 00-3.766.747zm-79.692 3.183c-2.423 2.621-3.633 5.982-3.633 10.083 0 3.955 1.252 7.264 3.755 9.924 2.504 2.662 5.47 3.993 8.901 3.993 1.528 0 2.946-.273 4.255-.819 1.309-.545 2.614-1.436 3.914-2.673v2.808h6.665V10.957h-6.665v2.929c-1.188-1.203-2.479-2.107-3.878-2.71-1.398-.601-2.894-.902-4.487-.902-3.462 0-6.405 1.31-8.827 3.93zm5.087 15.674c-1.386-1.481-2.08-3.369-2.08-5.664 0-2.278.682-4.146 2.044-5.603 1.363-1.457 3.075-2.185 5.134-2.185 2.109 0 3.853.717 5.231 2.148 1.379 1.433 2.069 3.305 2.069 5.616 0 2.36-.69 4.268-2.069 5.725-1.378 1.457-3.114 2.185-5.206 2.185-2.029 0-3.736-.741-5.123-2.222zm-56.95-17.37c-1.62 1.488-2.429 3.283-2.429 5.383 0 3.256 2.148 5.966 6.445 8.129l2.246 1.123c1.937.977 2.905 1.979 2.905 3.004 0 .553-.268 1.042-.805 1.464-.537.424-1.246.635-2.124.635-.815 0-1.745-.281-2.796-.842a9.493 9.493 0 01-2.746-2.209l-4.102 4.467c2.311 3.028 5.403 4.542 9.277 4.542 2.914 0 5.237-.79 6.971-2.369 1.733-1.578 2.6-3.548 2.6-5.908 0-1.774-.48-3.321-1.441-4.639-.961-1.318-2.726-2.612-5.297-3.882l-2.442-1.22c-1.058-.521-1.721-.932-1.99-1.233-.268-.302-.403-.631-.403-.989 0-.471.211-.866.635-1.185.423-.316 1.009-.475 1.758-.475 1.367 0 2.889.83 4.566 2.49l4.125-4.126c-1.058-1.416-2.347-2.501-3.869-3.259a10.807 10.807 0 00-4.87-1.135c-2.524 0-4.595.743-6.214 2.234zM265.586 37.52h6.664V10.957h-6.664V37.52zm-113.459 0h6.665V10.957h-6.665V37.52zM80.941 10.957V23.97c0 2.507-.139 4.143-.416 4.907-.376 1.026-.95 1.803-1.725 2.332-.776.528-1.719.793-2.828.793-1.109 0-2.043-.269-2.802-.806-.759-.537-1.309-1.29-1.652-2.258-.343-.968-.514-2.697-.514-5.188V10.957h-6.738v11.06c0 4.248.26 7.178.782 8.788.731 2.329 1.998 4.143 3.795 5.446 1.799 1.301 4.154 1.953 7.068 1.953 2.686 0 4.899-.559 6.641-1.673 1.741-1.115 3.06-2.713 3.955-4.798.733-1.709 1.099-4.882 1.099-9.521V10.957h-6.665zM30.134 37.52h6.665V10.957h-6.665V37.52zm-9.903-26.563l-6.697 15.674-6.709-15.674H.034L11.363 37.52h4.32l11.305-26.563h-6.757z" id="e"/><path d="M321.497.929l66.36 116.336h-62.555v31.352h119.453L378.091 32.288h56.485V.929M130.732 148.617h37.054V.929h-37.054m-120.414 0v31.359h56.476L.138 148.617h119.453v-31.352H57.045L123.388.929m335.25 115.179c-4.156 4.118-6.242 9.117-6.242 15.001 0 5.883 2.086 10.907 6.242 15.071 4.164 4.156 9.187 6.242 15.071 6.242 5.882 0 10.906-2.086 15.069-6.242 4.157-4.164 6.235-9.188 6.235-15.071 0-5.884-2.078-10.883-6.235-15.001-4.163-4.117-9.187-6.179-15.069-6.179-5.884 0-10.907 2.062-15.071 6.179" id="g"/><path d="M321.497.929l66.36 116.336h-62.555v31.352h119.453L378.091 32.288h56.485V.929H321.497zM130.732 148.617h37.054V.929h-37.054v147.688zM10.318.929v31.359h56.476L.138 148.617h119.453v-31.352H57.045L123.388.929H10.318zm448.32 115.179c-4.156 4.118-6.242 9.117-6.242 15.001 0 5.883 2.086 10.907 6.242 15.071 4.164 4.156 9.187 6.242 15.071 6.242 5.882 0 10.906-2.086 15.069-6.242 4.157-4.164 6.235-9.188 6.235-15.071 0-5.884-2.078-10.883-6.235-15.001-4.163-4.117-9.187-6.179-15.069-6.179-5.884 0-10.907 2.062-15.071 6.179z" id="i"/><path d="M321.497.929l66.36 116.336h-62.555v31.352h119.453L378.091 32.288h56.485V.929H321.497zM130.732 148.617h37.054V.929h-37.054v147.688zM10.318.929v31.359h56.476L.138 148.617h119.453v-31.352H57.045L123.388.929H10.318zm448.32 115.179c-4.156 4.118-6.242 9.117-6.242 15.001 0 5.883 2.086 10.907 6.242 15.071 4.164 4.156 9.187 6.242 15.071 6.242 5.882 0 10.906-2.086 15.069-6.242 4.157-4.164 6.235-9.188 6.235-15.071 0-5.884-2.078-10.883-6.235-15.001-4.163-4.117-9.187-6.179-15.069-6.179-5.884 0-10.907 2.062-15.071 6.179z" id="k"/><path d="M321.497.929l66.36 116.336h-62.555v31.352h119.453L378.091 32.288h56.485V.929H321.497zM130.732 148.617h37.054V.929h-37.054v147.688zM10.318.929v31.359h56.476L.138 148.617h119.453v-31.352H57.045L123.388.929H10.318zm448.32 115.179c-4.156 4.118-6.242 9.117-6.242 15.001 0 5.883 2.086 10.907 6.242 15.071 4.164 4.156 9.187 6.242 15.071 6.242 5.882 0 10.906-2.086 15.069-6.242 4.157-4.164 6.235-9.188 6.235-15.071 0-5.884-2.078-10.883-6.235-15.001-4.163-4.117-9.187-6.179-15.069-6.179-5.884 0-10.907 2.062-15.071 6.179z" id="m"/><path d="M321.497.929l66.36 116.336h-62.555v31.352h119.453L378.091 32.288h56.485V.929H321.497zM130.732 148.617h37.054V.929h-37.054v147.688zM10.318.929v31.359h56.476L.138 148.617h119.453v-31.352H57.045L123.388.929H10.318zm448.32 115.179c-4.156 4.118-6.242 9.117-6.242 15.001 0 5.883 2.086 10.907 6.242 15.071 4.164 4.156 9.187 6.242 15.071 6.242 5.882 0 10.906-2.086 15.069-6.242 4.157-4.164 6.235-9.188 6.235-15.071 0-5.884-2.078-10.883-6.235-15.001-4.163-4.117-9.187-6.179-15.069-6.179-5.884 0-10.907 2.062-15.071 6.179z" id="o"/></defs><g fill="none" fill-rule="evenodd"><g transform="translate(8 171.151)"><mask id="b" fill="#fff"><use xlink:href="#a"/></mask><path fill="#121210" mask="url(#b)" d="M.034 10.957h6.791l6.709 15.674 6.697-15.674h6.757L15.683 37.52h-4.32z"/><mask id="d" fill="#fff"><use xlink:href="#c"/></mask><path stroke="#121210" stroke-width=".16" mask="url(#d)" d="M.034 10.957h6.791l6.709 15.674 6.697-15.674h6.757L15.683 37.52h-4.32z"/><mask id="f" fill="#fff"><use xlink:href="#e"/></mask><path d="M30.134 37.519h6.665V10.957h-6.665v26.562zM33.466.02c1.169 0 2.171.423 3.007 1.269.836.847 1.254 1.872 1.254 3.076 0 1.189-.414 2.201-1.241 3.039-.828.839-1.819 1.258-2.971 1.258-1.185 0-2.195-.428-3.03-1.281-.836-.856-1.254-1.893-1.254-3.113 0-1.172.413-2.173 1.241-3.003C31.3.435 32.298.02 33.466.02z" fill="#121210" mask="url(#f)"/><path d="M30.134 37.519h6.665V10.957h-6.665v26.562zM33.466.02c1.169 0 2.171.423 3.007 1.269.836.847 1.254 1.872 1.254 3.076 0 1.189-.414 2.201-1.241 3.039-.828.839-1.819 1.258-2.971 1.258-1.185 0-2.195-.428-3.03-1.281-.836-.856-1.254-1.893-1.254-3.113 0-1.172.413-2.173 1.241-3.003C31.3.435 32.298.02 33.466.02z" stroke="#121210" stroke-width=".16" mask="url(#f)"/><path d="M59.163 14.668l-4.126 4.126c-1.677-1.66-3.198-2.49-4.565-2.49-.749 0-1.335.159-1.758.475-.424.319-.635.713-.635 1.185 0 .358.135.687.402.989.27.301.932.712 1.991 1.233l2.441 1.22c2.571 1.27 4.337 2.564 5.298 3.882.96 1.318 1.44 2.865 1.44 4.639 0 2.36-.867 4.33-2.599 5.908-1.735 1.579-4.058 2.368-6.97 2.368-3.875 0-6.968-1.514-9.278-4.541l4.101-4.468a9.48 9.48 0 002.746 2.21c1.051.561 1.982.842 2.796.842.88 0 1.587-.211 2.124-.635.537-.422.806-.911.806-1.464 0-1.026-.969-2.027-2.905-3.003l-2.247-1.123c-4.296-2.165-6.445-4.874-6.445-8.13 0-2.1.81-3.895 2.43-5.383 1.62-1.49 3.69-2.235 6.213-2.235 1.724 0 3.348.379 4.871 1.135 1.521.758 2.81 1.844 3.87 3.26" fill="#121210" mask="url(#f)"/><path d="M59.163 14.668l-4.126 4.126c-1.677-1.66-3.198-2.49-4.565-2.49-.749 0-1.335.159-1.758.475-.424.319-.635.713-.635 1.185 0 .358.135.687.402.989.27.301.932.712 1.991 1.233l2.441 1.22c2.571 1.27 4.337 2.564 5.298 3.882.96 1.318 1.44 2.865 1.44 4.639 0 2.36-.867 4.33-2.599 5.908-1.735 1.579-4.058 2.368-6.97 2.368-3.875 0-6.968-1.514-9.278-4.541l4.101-4.468a9.48 9.48 0 002.746 2.21c1.051.561 1.982.842 2.796.842.88 0 1.587-.211 2.124-.635.537-.422.806-.911.806-1.464 0-1.026-.969-2.027-2.905-3.003l-2.247-1.123c-4.296-2.165-6.445-4.874-6.445-8.13 0-2.1.81-3.895 2.43-5.383 1.62-1.49 3.69-2.235 6.213-2.235 1.724 0 3.348.379 4.871 1.135 1.521.758 2.81 1.844 3.87 3.26z" stroke="#121210" stroke-width=".16" mask="url(#f)"/><path d="M64.266 10.957h6.738V23.75c0 2.49.171 4.22.514 5.187.343.97.894 1.722 1.652 2.26.759.536 1.693.805 2.802.805s2.052-.265 2.827-.793c.776-.529 1.35-1.307 1.726-2.332.277-.765.416-2.4.416-4.907V10.957h6.665v11.255c0 4.64-.366 7.812-1.099 9.521-.895 2.084-2.214 3.683-3.955 4.798-1.742 1.114-3.955 1.672-6.64 1.672-2.915 0-5.27-.65-7.069-1.953-1.798-1.302-3.063-3.116-3.796-5.444-.521-1.612-.781-4.54-.781-8.789v-11.06z" fill="#121210" mask="url(#f)"/><path d="M64.266 10.957h6.738V23.75c0 2.49.171 4.22.514 5.187.343.97.894 1.722 1.652 2.26.759.536 1.693.805 2.802.805s2.052-.265 2.827-.793c.776-.529 1.35-1.307 1.726-2.332.277-.765.416-2.4.416-4.907V10.957h6.665v11.255c0 4.64-.366 7.812-1.099 9.521-.895 2.084-2.214 3.683-3.955 4.798-1.742 1.114-3.955 1.672-6.64 1.672-2.915 0-5.27-.65-7.069-1.953-1.798-1.302-3.063-3.116-3.796-5.444-.521-1.612-.781-4.54-.781-8.789v-11.06z" stroke="#121210" stroke-width=".16" mask="url(#f)"/><path d="M106.258 16.426c-2.06 0-3.77.729-5.134 2.186-1.362 1.456-2.044 3.324-2.044 5.602 0 2.295.694 4.184 2.08 5.664 1.387 1.482 3.094 2.222 5.122 2.222 2.093 0 3.83-.73 5.207-2.186 1.38-1.456 2.07-3.364 2.07-5.724 0-2.311-.69-4.183-2.07-5.616-1.378-1.431-3.122-2.148-5.23-2.148zm7.007-5.47h6.665V37.52h-6.665v-2.808c-1.3 1.237-2.606 2.128-3.914 2.673-1.309.546-2.727.818-4.255.818-3.43 0-6.398-1.33-8.9-3.992-2.504-2.66-3.756-5.97-3.756-9.924 0-4.101 1.211-7.462 3.633-10.083 2.422-2.62 5.365-3.93 8.828-3.93 1.592 0 3.088.3 4.486.903 1.398.603 2.69 1.506 3.878 2.71v-2.93z" fill="#121210" mask="url(#f)"/><path d="M106.258 16.426c-2.06 0-3.77.729-5.134 2.186-1.362 1.456-2.044 3.324-2.044 5.602 0 2.295.694 4.184 2.08 5.664 1.387 1.482 3.094 2.222 5.122 2.222 2.093 0 3.83-.73 5.207-2.186 1.38-1.456 2.07-3.364 2.07-5.724 0-2.311-.69-4.183-2.07-5.616-1.378-1.431-3.122-2.148-5.23-2.148zm7.007-5.47h6.665V37.52h-6.665v-2.808c-1.3 1.237-2.606 2.128-3.914 2.673-1.309.546-2.727.818-4.255.818-3.43 0-6.398-1.33-8.9-3.992-2.504-2.66-3.756-5.97-3.756-9.924 0-4.101 1.211-7.462 3.633-10.083 2.422-2.62 5.365-3.93 8.828-3.93 1.592 0 3.088.3 4.486.903 1.398.603 2.69 1.506 3.878 2.71v-2.93z" stroke="#121210" stroke-width=".16" mask="url(#f)"/><path fill="#121210" mask="url(#f)" d="M126.051 37.519h6.665V.703h-6.665z"/><path stroke="#121210" stroke-width=".16" mask="url(#f)" d="M126.051 37.519h6.665V.703h-6.665z"/><path d="M152.127 37.519h6.665V10.957h-6.665v26.562zM155.459.02c1.169 0 2.171.423 3.007 1.269.836.847 1.254 1.872 1.254 3.076 0 1.189-.414 2.201-1.241 3.039-.828.839-1.819 1.258-2.971 1.258-1.184 0-2.195-.428-3.03-1.281-.836-.856-1.254-1.893-1.254-3.113 0-1.172.413-2.173 1.241-3.003.828-.83 1.826-1.245 2.994-1.245z" fill="#121210" mask="url(#f)"/><path d="M152.127 37.519h6.665V10.957h-6.665v26.562zM155.459.02c1.169 0 2.171.423 3.007 1.269.836.847 1.254 1.872 1.254 3.076 0 1.189-.414 2.201-1.241 3.039-.828.839-1.819 1.258-2.971 1.258-1.184 0-2.195-.428-3.03-1.281-.836-.856-1.254-1.893-1.254-3.113 0-1.172.413-2.173 1.241-3.003.828-.83 1.826-1.245 2.994-1.245z" stroke="#121210" stroke-width=".16" mask="url(#f)"/><path d="M164.993 10.957h6.665v2.723c1.512-1.275 2.88-2.16 4.107-2.66a9.937 9.937 0 013.767-.747c2.632 0 4.867.92 6.704 2.76 1.544 1.562 2.317 3.873 2.317 6.933V37.52h-6.593V25.89c0-3.17-.143-5.277-.427-6.318-.283-1.04-.778-1.832-1.484-2.377-.708-.545-1.58-.817-2.619-.817-1.347 0-2.505.451-3.47 1.353-.966.903-1.637 2.151-2.01 3.744-.194.83-.292 2.626-.292 5.39V37.52h-6.665V10.957z" fill="#121210" mask="url(#f)"/><path d="M164.993 10.957h6.665v2.723c1.512-1.275 2.88-2.16 4.107-2.66a9.937 9.937 0 013.767-.747c2.632 0 4.867.92 6.704 2.76 1.544 1.562 2.317 3.873 2.317 6.933V37.52h-6.593V25.89c0-3.17-.143-5.277-.427-6.318-.283-1.04-.778-1.832-1.484-2.377-.708-.545-1.58-.817-2.619-.817-1.347 0-2.505.451-3.47 1.353-.966.903-1.637 2.151-2.01 3.744-.194.83-.292 2.626-.292 5.39V37.52h-6.665V10.957z" stroke="#121210" stroke-width=".16" mask="url(#f)"/><path fill="#121210" mask="url(#f)" d="M195.547 1.167h6.665v9.79h3.955v5.737h-3.955V37.52h-6.665V16.694h-3.418v-5.737h3.418z"/><path stroke="#121210" stroke-width=".16" mask="url(#f)" d="M195.547 1.167h6.665v9.79h3.955v5.737h-3.955V37.52h-6.665V16.694h-3.418v-5.737h3.418z"/><path d="M229.274 20.918c-.44-1.48-1.31-2.686-2.604-3.613-1.297-.928-2.8-1.392-4.512-1.392-1.86 0-3.49.522-4.892 1.563-.88.651-1.695 1.798-2.445 3.442h14.453zm6.665 5.249h-21.411c.308 1.889 1.136 3.39 2.477 4.505 1.344 1.114 3.056 1.672 5.14 1.672 2.49 0 4.63-.87 6.42-2.613l5.616 2.637c-1.4 1.987-3.076 3.454-5.03 4.407-1.952.952-4.272 1.428-6.957 1.428-4.167 0-7.561-1.314-10.181-3.943-2.621-2.628-3.93-5.92-3.93-9.875 0-4.053 1.305-7.418 3.919-10.096 2.61-2.677 5.886-4.016 9.826-4.016 4.182 0 7.584 1.339 10.205 4.016 2.62 2.678 3.93 6.214 3.93 10.608l-.024 1.27z" fill="#121210" mask="url(#f)"/><path d="M229.274 20.918c-.44-1.48-1.31-2.686-2.604-3.613-1.297-.928-2.8-1.392-4.512-1.392-1.86 0-3.49.522-4.892 1.563-.88.651-1.695 1.798-2.445 3.442h14.453zm6.665 5.249h-21.411c.308 1.889 1.136 3.39 2.477 4.505 1.344 1.114 3.056 1.672 5.14 1.672 2.49 0 4.63-.87 6.42-2.613l5.616 2.637c-1.4 1.987-3.076 3.454-5.03 4.407-1.952.952-4.272 1.428-6.957 1.428-4.167 0-7.561-1.314-10.181-3.943-2.621-2.628-3.93-5.92-3.93-9.875 0-4.053 1.305-7.418 3.919-10.096 2.61-2.677 5.886-4.016 9.826-4.016 4.182 0 7.584 1.339 10.205 4.016 2.62 2.678 3.93 6.214 3.93 10.608l-.024 1.27z" stroke="#121210" stroke-width=".16" mask="url(#f)"/><path fill="#121210" mask="url(#f)" d="M240.592 37.519h6.665V.703h-6.665z"/><path stroke="#121210" stroke-width=".16" mask="url(#f)" d="M240.592 37.519h6.665V.703h-6.665z"/><path fill="#121210" mask="url(#f)" d="M253.084 37.519h6.665V.703h-6.665z"/><path stroke="#121210" stroke-width=".16" mask="url(#f)" d="M253.084 37.519h6.665V.703h-6.665z"/><path d="M265.586 37.519h6.665V10.957h-6.665v26.562zM268.918.02c1.169 0 2.171.423 3.007 1.269.836.847 1.254 1.872 1.254 3.076 0 1.189-.414 2.201-1.241 3.039-.828.839-1.819 1.258-2.971 1.258-1.184 0-2.195-.428-3.03-1.281-.836-.856-1.254-1.893-1.254-3.113 0-1.172.413-2.173 1.241-3.003.828-.83 1.826-1.245 2.994-1.245z" fill="#121210" mask="url(#f)"/><path d="M265.586 37.519h6.665V10.957h-6.665v26.562zM268.918.02c1.169 0 2.171.423 3.007 1.269.836.847 1.254 1.872 1.254 3.076 0 1.189-.414 2.201-1.241 3.039-.828.839-1.819 1.258-2.971 1.258-1.184 0-2.195-.428-3.03-1.281-.836-.856-1.254-1.893-1.254-3.113 0-1.172.413-2.173 1.241-3.003.828-.83 1.826-1.245 2.994-1.245z" stroke="#121210" stroke-width=".16" mask="url(#f)"/><path d="M290.85 16.5c-2.1 0-3.832.703-5.2 2.111-1.366 1.408-2.05 3.178-2.05 5.31 0 2.214.699 4.028 2.1 5.444 1.399 1.416 3.157 2.124 5.273 2.124 2.066 0 3.772-.69 5.115-2.075 1.342-1.383 2.014-3.198 2.014-5.444 0-2.213-.676-4.012-2.026-5.396-1.352-1.383-3.093-2.075-5.225-2.075zm6.91-5.543h6.64v22.754c0 4.492-.903 7.796-2.71 9.912-2.425 2.864-6.078 4.297-10.961 4.297-2.605 0-4.794-.326-6.567-.977-1.775-.65-3.272-1.607-4.493-2.869-1.22-1.26-2.124-2.795-2.71-4.6h7.349c.65.747 1.489 1.313 2.515 1.696 1.025.382 2.237.573 3.637.573 1.79 0 3.23-.277 4.322-.83 1.09-.554 1.859-1.269 2.306-2.148.449-.879.672-2.393.672-4.54-1.172 1.17-2.401 2.013-3.686 2.525-1.286.514-2.744.77-4.37.77-3.565 0-6.577-1.286-9.034-3.858-2.458-2.57-3.686-5.826-3.686-9.766 0-4.214 1.302-7.6 3.906-10.156 2.359-2.31 5.176-3.467 8.447-3.467 1.53 0 2.975.282 4.333.842 1.36.563 2.723 1.487 4.09 2.772v-2.93z" fill="#121210" mask="url(#f)"/><path d="M290.85 16.5c-2.1 0-3.832.703-5.2 2.111-1.366 1.408-2.05 3.178-2.05 5.31 0 2.214.699 4.028 2.1 5.444 1.399 1.416 3.157 2.124 5.273 2.124 2.066 0 3.772-.69 5.115-2.075 1.342-1.383 2.014-3.198 2.014-5.444 0-2.213-.676-4.012-2.026-5.396-1.352-1.383-3.093-2.075-5.225-2.075zm6.91-5.543h6.64v22.754c0 4.492-.903 7.796-2.71 9.912-2.425 2.864-6.078 4.297-10.961 4.297-2.605 0-4.794-.326-6.567-.977-1.775-.65-3.272-1.607-4.493-2.869-1.22-1.26-2.124-2.795-2.71-4.6h7.349c.65.747 1.489 1.313 2.515 1.696 1.025.382 2.237.573 3.637.573 1.79 0 3.23-.277 4.322-.83 1.09-.554 1.859-1.269 2.306-2.148.449-.879.672-2.393.672-4.54-1.172 1.17-2.401 2.013-3.686 2.525-1.286.514-2.744.77-4.37.77-3.565 0-6.577-1.286-9.034-3.858-2.458-2.57-3.686-5.826-3.686-9.766 0-4.214 1.302-7.6 3.906-10.156 2.359-2.31 5.176-3.467 8.447-3.467 1.53 0 2.975.282 4.333.842 1.36.563 2.723 1.487 4.09 2.772v-2.93z" stroke="#121210" stroke-width=".16" mask="url(#f)"/><path d="M330.715 20.918c-.44-1.48-1.309-2.686-2.604-3.613-1.297-.928-2.8-1.392-4.512-1.392-1.86 0-3.489.522-4.892 1.563-.88.651-1.695 1.798-2.445 3.442h14.453zm6.665 5.249h-21.41c.307 1.889 1.135 3.39 2.476 4.505 1.344 1.114 3.056 1.672 5.14 1.672 2.49 0 4.63-.87 6.421-2.613l5.615 2.637c-1.4 1.987-3.076 3.454-5.029 4.407-1.953.952-4.273 1.428-6.958 1.428-4.167 0-7.56-1.314-10.18-3.943-2.622-2.628-3.93-5.92-3.93-9.875 0-4.053 1.304-7.418 3.918-10.096 2.611-2.677 5.886-4.016 9.826-4.016 4.182 0 7.584 1.339 10.205 4.016 2.62 2.678 3.93 6.214 3.93 10.608l-.024 1.27z" fill="#121210" mask="url(#f)"/><path d="M330.715 20.918c-.44-1.48-1.309-2.686-2.604-3.613-1.297-.928-2.8-1.392-4.512-1.392-1.86 0-3.489.522-4.892 1.563-.88.651-1.695 1.798-2.445 3.442h14.453zm6.665 5.249h-21.41c.307 1.889 1.135 3.39 2.476 4.505 1.344 1.114 3.056 1.672 5.14 1.672 2.49 0 4.63-.87 6.421-2.613l5.615 2.637c-1.4 1.987-3.076 3.454-5.029 4.407-1.953.952-4.273 1.428-6.958 1.428-4.167 0-7.56-1.314-10.18-3.943-2.622-2.628-3.93-5.92-3.93-9.875 0-4.053 1.304-7.418 3.918-10.096 2.611-2.677 5.886-4.016 9.826-4.016 4.182 0 7.584 1.339 10.205 4.016 2.62 2.678 3.93 6.214 3.93 10.608l-.024 1.27z" stroke="#121210" stroke-width=".16" mask="url(#f)"/><path d="M342.29 10.957h6.665v2.723c1.512-1.275 2.881-2.16 4.107-2.66a9.937 9.937 0 013.767-.747c2.633 0 4.868.92 6.705 2.76 1.543 1.562 2.316 3.873 2.316 6.933V37.52h-6.592V25.89c0-3.17-.143-5.277-.427-6.318-.284-1.04-.779-1.832-1.485-2.377-.707-.545-1.579-.817-2.618-.817-1.348 0-2.505.451-3.47 1.353-.967.903-1.637 2.151-2.01 3.744-.195.83-.293 2.626-.293 5.39V37.52h-6.665V10.957z" fill="#121210" mask="url(#f)"/><path d="M342.29 10.957h6.665v2.723c1.512-1.275 2.881-2.16 4.107-2.66a9.937 9.937 0 013.767-.747c2.633 0 4.868.92 6.705 2.76 1.543 1.562 2.316 3.873 2.316 6.933V37.52h-6.592V25.89c0-3.17-.143-5.277-.427-6.318-.284-1.04-.779-1.832-1.485-2.377-.707-.545-1.579-.817-2.618-.817-1.348 0-2.505.451-3.47 1.353-.967.903-1.637 2.151-2.01 3.744-.195.83-.293 2.626-.293 5.39V37.52h-6.665V10.957z" stroke="#121210" stroke-width=".16" mask="url(#f)"/><path d="M397.921 16.328l-5.549 3.052c-1.043-1.09-2.073-1.847-3.092-2.27-1.018-.424-2.212-.636-3.58-.636-2.494 0-4.51.744-6.05 2.231-1.54 1.487-2.31 3.393-2.31 5.716 0 2.26.741 4.103 2.225 5.534 1.482 1.43 3.43 2.144 5.841 2.144 2.983 0 5.304-1.016 6.966-3.05l5.256 3.597c-2.849 3.705-6.869 5.557-12.06 5.557-4.672 0-8.33-1.383-10.974-4.15-2.646-2.767-3.968-6.006-3.968-9.717 0-2.57.643-4.94 1.93-7.105 1.284-2.164 3.08-3.865 5.382-5.102 2.303-1.237 4.88-1.856 7.727-1.856 2.637 0 5.005.526 7.105 1.575a13.49 13.49 0 015.151 4.48" fill="#121210" mask="url(#f)"/><path d="M397.921 16.328l-5.549 3.052c-1.043-1.09-2.073-1.847-3.092-2.27-1.018-.424-2.212-.636-3.58-.636-2.494 0-4.51.744-6.05 2.231-1.54 1.487-2.31 3.393-2.31 5.716 0 2.26.741 4.103 2.225 5.534 1.482 1.43 3.43 2.144 5.841 2.144 2.983 0 5.304-1.016 6.966-3.05l5.256 3.597c-2.849 3.705-6.869 5.557-12.06 5.557-4.672 0-8.33-1.383-10.974-4.15-2.646-2.767-3.968-6.006-3.968-9.717 0-2.57.643-4.94 1.93-7.105 1.284-2.164 3.08-3.865 5.382-5.102 2.303-1.237 4.88-1.856 7.727-1.856 2.637 0 5.005.526 7.105 1.575a13.49 13.49 0 015.151 4.48z" stroke="#121210" stroke-width=".16" mask="url(#f)"/><path d="M422.024 20.918c-.44-1.48-1.31-2.686-2.604-3.613-1.297-.928-2.8-1.392-4.512-1.392-1.86 0-3.49.522-4.892 1.563-.88.651-1.695 1.798-2.445 3.442h14.453zm6.665 5.249h-21.411c.308 1.889 1.136 3.39 2.477 4.505 1.344 1.114 3.056 1.672 5.14 1.672 2.49 0 4.63-.87 6.42-2.613l5.616 2.637c-1.4 1.987-3.076 3.454-5.03 4.407-1.952.952-4.272 1.428-6.957 1.428-4.167 0-7.561-1.314-10.181-3.943-2.621-2.628-3.93-5.92-3.93-9.875 0-4.053 1.305-7.418 3.919-10.096 2.61-2.677 5.886-4.016 9.826-4.016 4.182 0 7.584 1.339 10.205 4.016 2.62 2.678 3.93 6.214 3.93 10.608l-.024 1.27z" fill="#121210" mask="url(#f)"/><path d="M422.024 20.918c-.44-1.48-1.31-2.686-2.604-3.613-1.297-.928-2.8-1.392-4.512-1.392-1.86 0-3.49.522-4.892 1.563-.88.651-1.695 1.798-2.445 3.442h14.453zm6.665 5.249h-21.411c.308 1.889 1.136 3.39 2.477 4.505 1.344 1.114 3.056 1.672 5.14 1.672 2.49 0 4.63-.87 6.42-2.613l5.616 2.637c-1.4 1.987-3.076 3.454-5.03 4.407-1.952.952-4.272 1.428-6.957 1.428-4.167 0-7.561-1.314-10.181-3.943-2.621-2.628-3.93-5.92-3.93-9.875 0-4.053 1.305-7.418 3.919-10.096 2.61-2.677 5.886-4.016 9.826-4.016 4.182 0 7.584 1.339 10.205 4.016 2.62 2.678 3.93 6.214 3.93 10.608l-.024 1.27z" stroke="#121210" stroke-width=".16" mask="url(#f)"/></g><path d="M185.56.08h37.469v71.133c0 13.85.953 23.46 2.859 28.844 1.906 5.382 4.969 9.57 9.188 12.554 4.21 2.985 9.406 4.485 15.578 4.485 6.164 0 11.406-1.47 15.719-4.414 4.304-2.938 7.5-7.258 9.593-12.961 1.532-4.25 2.313-13.344 2.313-27.282V.079h37.054v62.579c0 25.797-2.04 43.438-6.11 52.938-4.975 11.593-12.304 20.485-21.991 26.68-9.688 6.196-21.984 9.297-36.922 9.297-16.203 0-29.297-3.617-39.297-10.86-10-7.242-17.031-17.328-21.11-30.274-2.89-8.953-4.343-25.25-4.343-48.86V.08z" fill="#FFD400"/><g transform="translate(0 -.849)"><mask id="h" fill="#fff"><use xlink:href="#g"/></mask><path d="M488.779 116.109c4.156 4.117 6.234 9.117 6.234 15 0 5.883-2.078 10.906-6.234 15.07-4.164 4.157-9.188 6.243-15.07 6.243-5.883 0-10.907-2.085-15.071-6.243-4.156-4.163-6.242-9.186-6.242-15.07s2.086-10.884 6.242-15c4.164-4.117 9.188-6.18 15.07-6.18 5.883 0 10.907 2.063 15.07 6.18" fill="#121210" mask="url(#h)"/><mask id="j" fill="#fff"><use xlink:href="#i"/></mask><path d="M488.779 116.109c4.156 4.117 6.234 9.117 6.234 15 0 5.883-2.078 10.906-6.234 15.07-4.164 4.157-9.188 6.243-15.07 6.243-5.883 0-10.907-2.085-15.071-6.243-4.156-4.163-6.242-9.186-6.242-15.07s2.086-10.884 6.242-15c4.164-4.117 9.188-6.18 15.07-6.18 5.883 0 10.907 2.063 15.07 6.18z" stroke="#121210" stroke-width=".16" mask="url(#j)"/><mask id="l" fill="#fff"><use xlink:href="#k"/></mask><path fill="#121210" mask="url(#l)" d="M434.575 32.288h-56.483l66.663 116.33H325.303v-31.353h62.553L321.498.93h113.077z"/><mask id="n" fill="#fff"><use xlink:href="#m"/></mask><path stroke="#121210" stroke-width=".16" mask="url(#n)" d="M434.575 32.288h-56.483l66.663 116.33H325.303v-31.353h62.553L321.498.93h113.077z"/><mask id="p" fill="#fff"><use xlink:href="#o"/></mask><path fill="#121210" mask="url(#p)" d="M130.732 148.617h37.055V.929h-37.055z"/><path stroke="#121210" stroke-width=".16" mask="url(#p)" d="M130.732 148.617h37.055V.929h-37.055z"/><path fill="#121210" mask="url(#p)" d="M10.318.929h113.07L57.045 117.265h62.546v31.352H.138l66.657-116.33H10.318z"/><path stroke="#121210" stroke-width=".16" mask="url(#p)" d="M10.318.929h113.07L57.045 117.265h62.546v31.352H.138l66.657-116.33H10.318z"/></g></g></svg>