<?xml version="1.0" encoding="UTF-8" standalone="yes"?>
<svg xmlns="http://www.w3.org/2000/svg" xmlns:xlink="http://www.w3.org/1999/xlink" width="217.205pt" height="128.442pt" version="1.1" viewBox="-532.836 25.630 217.205 128.442">
  <!--
	Exported with Concepts: Smarter Sketching
	Version: 4301 on iOS 18.6
	https://concepts.app/
	-->
  <title>1EB9534A-BCE9-4D3D-B94B-75FB29131281</title>
  <desc>Drawing exported from Concepts: Smarter Sketching</desc>
  <defs></defs>
  <g id="Fill" opacity="1.000">
    <path id="STROKE_338e375b-6e1a-4763-b673-4c08380ccc54" opacity="1.000" fill="#50514f" stroke="#50514f" stroke-width="0.500" stroke-opacity="1.000" stroke-linecap="round" stroke-linejoin="round" d="M -507.738 82.061 Q -507.582 82.065 -508.954 84.045 Q -510.326 86.026 -511.178 87.223 Q -512.030 88.419 -513.888 91.247 Q -515.746 94.074 -517.194 96.165 Q -518.643 98.256 -520.190 100.480 Q -521.738 102.703 -522.603 104.148 Q -523.468 105.593 -524.793 108.165 Q -526.118 110.737 -526.959 112.474 Q -527.800 114.212 -530.587 118.141 "></path>
    <path id="STROKE_08642508-c4e5-4456-934f-d1ac8dfdc3fc" opacity="1.000" fill="#50514f" stroke="#50514f" stroke-width="0.500" stroke-opacity="1.000" stroke-linecap="round" stroke-linejoin="round" d="M -504.561 83.265 Q -504.458 83.286 -504.558 83.279 Q -504.658 83.272 -504.381 83.275 Q -504.104 83.279 -503.980 83.236 Q -503.855 83.193 -503.408 84.281 Q -502.960 85.368 -502.577 86.259 Q -502.194 87.150 -501.482 88.655 Q -500.769 90.160 -499.187 93.363 Q -497.605 96.566 -496.809 98.459 Q -496.012 100.351 -494.850 102.872 Q -493.688 105.394 -492.702 107.263 Q -491.716 109.132 -491.170 110.101 Q -490.624 111.071 -489.559 112.618 Q -488.493 114.166 -487.276 115.597 Q -486.060 117.029 -484.803 118.467 Q -483.547 119.906 -479.149 123.135 "></path>
    <path id="STROKE_cf5b162a-f744-45d6-9a7d-e209bbc75bf6" opacity="1.000" fill="#1c7aa2" stroke="#1c7aa2" stroke-width="0.500" stroke-opacity="1.000" stroke-linecap="round" stroke-linejoin="round" d="M -502.344 83.078 Q -501.936 83.115 -502.018 83.129 Q -501.870 83.175 -501.780 83.214 Q -501.825 83.232 -501.804 83.233 Q -501.782 83.234 -501.780 83.263 Q -501.778 83.292 -501.757 83.279 Q -501.736 83.266 -501.905 83.278 Q -502.073 83.291 -502.520 83.766 Q -502.968 84.241 -503.593 85.604 Q -504.218 86.966 -504.684 87.821 Q -505.150 88.676 -506.104 90.413 Q -507.057 92.149 -507.511 93.309 Q -507.965 94.469 -508.039 95.020 Q -508.113 95.570 -507.996 96.357 Q -507.879 97.143 -506.747 98.351 Q -505.615 99.558 -504.216 100.939 Q -502.818 102.319 -501.733 103.253 Q -500.647 104.188 -499.863 104.629 Q -499.078 105.069 -498.887 106.249 Q -498.695 107.429 -498.637 108.225 Q -498.578 109.020 -498.240 110.211 Q -497.903 111.402 -497.366 112.259 Q -496.830 113.116 -496.458 113.515 Q -496.087 113.914 -494.874 115.280 Q -493.661 116.645 -492.956 117.541 Q -492.252 118.437 -491.798 118.769 Q -491.344 119.101 -490.607 119.672 Q -489.870 120.243 -487.886 121.909 Q -485.903 123.574 -484.993 124.492 Q -484.083 125.409 -483.558 125.741 Q -483.032 126.073 -482.852 126.180 Q -482.672 126.287 -482.385 126.433 Q -482.099 126.578 -481.553 126.566 Q -481.553 126.121 -481.553 126.251 Q -481.553 125.836 -481.553 125.803 Q -481.553 125.770 -481.553 125.861 Q -481.434 125.247 -481.469 125.456 Q -481.259 125.090 -481.306 125.109 Q -481.282 125.028 -481.196 124.832 Q -481.109 124.637 -481.073 124.505 Q -481.036 124.373 -480.957 124.218 Q -480.878 124.063 -480.774 123.908 Q -480.669 123.753 -480.627 123.591 Q -480.585 123.430 -480.465 122.777 "></path>
    <path id="STROKE_ca7d51a6-66cb-4597-bcdc-5c05395d6dc0" opacity="1.000" fill="#ffe15c" stroke="#ffe15c" stroke-width="0.500" stroke-opacity="1.000" stroke-linecap="round" stroke-linejoin="round" d="M -461.716 73.769 Q -461.551 73.690 -462.565 74.548 Q -462.610 74.587 -462.815 74.321 Q -462.758 74.095 -460.599 73.297 Q -458.439 72.499 -456.869 71.930 Q -455.300 71.361 -454.148 70.819 Q -452.997 70.278 -451.468 69.086 Q -449.939 67.894 -448.912 66.956 Q -447.886 66.017 -447.081 65.396 Q -446.276 64.775 -445.184 64.009 Q -445.434 64.235 -445.425 64.243 Q -445.416 64.251 -445.449 64.312 Q -445.482 64.374 -445.489 64.404 Q -445.495 64.435 -446.110 66.470 "></path>
    <path id="STROKE_184f7b75-0f1b-4912-870d-d8a2aa48e89e" opacity="1.000" fill="#ffe15c" stroke="#ffe15c" stroke-width="0.500" stroke-opacity="1.000" stroke-linecap="round" stroke-linejoin="round" d="M -459.134 71.789 Q -458.937 71.939 -459.008 71.864 Q -459.079 71.790 -458.948 71.929 Q -458.818 72.068 -458.563 72.328 Q -458.307 72.588 -457.606 73.326 Q -456.905 74.064 -456.567 74.523 Q -456.229 74.981 -455.759 75.562 Q -455.290 76.142 -454.302 77.710 Q -453.314 79.278 -452.571 80.485 Q -451.828 81.691 -451.499 82.185 Q -451.169 82.679 -451.031 82.948 Q -450.893 83.216 -449.606 85.395 Q -448.320 87.574 -446.109 90.266 Q -443.899 92.958 -442.761 94.331 Q -441.623 95.704 -441.115 96.443 Q -440.606 97.183 -439.565 98.579 Q -438.524 99.976 -436.935 102.154 Q -435.345 104.331 -434.302 105.939 Q -433.259 107.547 -432.725 108.457 Q -432.191 109.368 -431.328 110.955 Q -430.466 112.541 -429.584 114.154 Q -428.703 115.767 -427.706 117.013 L -427.655 116.992 Q -427.653 116.780 -427.675 116.585 "></path>
    <path id="STROKE_9512bbe4-2c34-4183-9658-7770fbb29f4c" opacity="1.000" fill="#ffe15c" stroke="#ffe15c" stroke-width="0.500" stroke-opacity="1.000" stroke-linecap="round" stroke-linejoin="round" d="M -429.087 114.136 Q -428.776 113.994 -428.873 114.045 Q -428.491 113.763 -428.559 113.809 Q -428.628 113.855 -428.580 113.822 Q -428.533 113.788 -428.468 113.738 Q -428.404 113.688 -428.393 113.691 Q -428.382 113.695 -428.419 113.693 Q -428.455 113.690 -428.244 113.669 Q -428.033 113.648 -427.852 113.688 Q -427.670 113.728 -427.577 113.738 Q -427.483 113.748 -427.377 113.759 Q -427.270 113.769 -427.101 113.762 Q -426.933 113.755 -426.533 113.764 Q -426.134 113.773 -424.997 113.396 Q -423.859 113.019 -422.672 112.321 Q -421.485 111.623 -420.504 111.276 Q -419.523 110.929 -418.480 110.714 Q -417.437 110.499 -415.141 109.288 Q -415.128 109.307 -415.087 109.364 Q -415.095 109.370 -415.158 109.416 Q -415.294 109.227 -415.269 109.262 Q -415.419 109.052 -415.427 109.041 Q -415.435 109.030 -415.434 109.030 Q -415.574 108.637 -415.534 108.762 Q -415.494 108.886 -415.597 108.607 Q -415.700 108.328 -415.912 107.637 Q -416.124 106.946 -416.746 105.428 Q -417.368 103.910 -418.227 102.096 Q -419.086 100.282 -419.551 99.334 Q -420.015 98.386 -420.240 97.762 Q -420.465 97.137 -422.624 93.185 Q -424.784 89.234 -425.931 87.202 Q -427.079 85.169 -427.766 83.937 Q -428.454 82.705 -428.823 82.082 Q -429.191 81.458 -429.516 80.837 Q -429.840 80.217 -430.706 78.821 Q -431.572 77.425 -432.558 76.297 Q -433.544 75.170 -434.264 74.466 Q -434.984 73.761 -435.438 73.246 Q -435.892 72.730 -437.341 71.613 Q -438.790 70.495 -439.641 69.851 Q -440.492 69.207 -441.034 68.714 Q -441.576 68.222 -442.161 67.649 Q -442.745 67.076 -443.159 66.798 Q -443.572 66.520 -444.003 66.127 Q -444.435 65.733 -445.222 65.488 Q -446.010 65.243 -446.464 65.228 Q -446.919 65.213 -447.235 65.297 Q -447.550 65.381 -447.674 65.452 Q -447.797 65.522 -447.947 65.606 Q -448.098 65.690 -448.164 65.756 Q -448.231 65.822 -449.105 66.373 Q -449.980 66.923 -450.801 67.356 Q -451.621 67.790 -452.074 68.012 Q -452.526 68.235 -452.980 68.509 Q -453.435 68.782 -453.894 69.085 Q -454.353 69.387 -454.919 69.866 Q -455.484 70.345 -455.968 70.957 Q -456.452 71.570 -456.801 71.957 Q -457.150 72.345 -457.342 72.524 Q -457.534 72.703 -457.822 72.941 Q -458.111 73.179 -458.229 73.285 Q -458.348 73.392 -458.382 73.434 Q -458.417 73.476 -458.436 73.500 Q -458.455 73.525 -458.465 73.559 Q -458.474 73.593 -458.459 73.544 Q -458.443 73.495 -458.485 73.602 Q -458.527 73.708 -458.570 73.840 Q -458.613 73.971 -458.599 73.964 Q -458.585 73.956 -458.592 73.911 Q -458.598 73.866 -458.584 74.130 Q -458.860 74.042 -459.136 73.955 "></path>
    <path id="STROKE_79cd2fe0-e22d-40c1-8905-10fcfd13147e" opacity="1.000" fill="#6dc1b3" stroke="#6dc1b3" stroke-width="0.500" stroke-opacity="1.000" stroke-linecap="round" stroke-linejoin="round" d="M -330.127 78.067 Q -330.116 78.067 -330.041 78.067 Q -330.041 77.753 -330.041 77.810 Q -330.167 77.582 -330.137 77.650 Q -330.308 77.612 -330.227 77.615 Q -330.145 77.619 -330.618 77.577 Q -331.091 77.536 -331.627 77.721 Q -332.164 77.906 -332.550 78.045 Q -332.936 78.185 -333.266 78.299 Q -333.596 78.413 -333.756 78.458 Q -333.916 78.503 -334.029 78.511 Q -334.142 78.519 -334.112 78.515 L -334.123 78.515 Q -334.112 78.515 -333.987 78.515 Q -333.816 78.679 -334.273 80.187 Q -334.730 81.694 -334.892 83.262 Q -335.055 84.831 -335.053 85.817 Q -335.052 86.804 -334.945 87.945 Q -334.837 89.086 -334.749 91.029 Q -334.661 92.972 -334.586 94.755 Q -334.510 96.537 -334.369 97.465 Q -334.227 98.394 -334.105 99.604 Q -333.982 100.815 -333.632 102.283 Q -333.283 103.752 -333.030 104.821 Q -332.777 105.890 -332.548 106.710 Q -332.319 107.529 -332.140 108.149 Q -331.961 108.769 -331.289 110.235 Q -330.616 111.702 -330.131 112.649 Q -329.646 113.595 -329.187 114.703 Q -328.727 115.811 -328.478 116.674 Q -328.229 117.537 -328.114 117.910 Q -328.000 118.284 -327.898 118.517 Q -327.797 118.750 -327.732 118.914 Q -327.668 119.078 -327.655 119.100 Q -327.642 119.122 -327.638 119.126 Q -327.633 119.130 -327.580 119.262 Q -327.527 119.394 -327.497 119.486 Q -327.466 119.577 -327.420 119.716 Q -327.375 119.855 -327.398 119.789 Q -327.421 119.724 -327.265 120.164 Q -327.110 120.603 -326.974 120.961 Q -326.838 121.319 -326.637 121.837 Q -326.436 122.354 -326.351 122.582 Q -326.265 122.809 -326.206 122.901 Q -326.147 122.993 -326.137 123.012 Q -326.126 123.031 -326.041 123.164 Q -325.956 123.296 -325.954 123.288 Q -325.952 123.279 -325.966 123.271 Q -325.980 123.263 -325.972 123.271 Q -325.965 123.279 -325.806 123.416 Q -325.646 123.554 -325.576 123.606 Q -325.505 123.658 -325.333 123.777 Q -325.161 123.896 -325.112 123.931 Q -325.062 123.966 -324.890 124.084 Q -324.718 124.201 -324.701 124.206 Q -324.683 124.212 -324.691 124.196 Q -324.699 124.181 -324.697 124.188 Q -324.695 124.196 -324.367 124.388 Q -324.039 124.580 -323.585 124.462 Q -323.131 124.344 -322.825 124.170 Q -322.519 123.996 -322.412 123.936 Q -322.305 123.876 -322.271 123.852 Q -322.238 123.828 -322.250 123.839 Q -322.263 123.849 -322.130 123.761 Q -321.997 123.673 -321.849 123.563 Q -321.701 123.453 -321.617 123.387 Q -321.532 123.320 -321.502 123.299 Q -321.472 123.279 -321.509 123.302 Q -321.545 123.324 -321.459 123.267 Q -321.372 123.209 -321.174 123.081 Q -320.976 122.952 -320.968 122.946 Q -320.959 122.940 -320.950 122.935 Q -320.941 122.931 -320.779 122.826 Q -320.617 122.722 -320.662 122.740 Q -320.706 122.758 -320.581 122.688 Q -320.456 122.618 -320.256 122.437 Q -320.055 122.257 -319.909 122.040 Q -319.763 121.824 -319.778 121.842 Q -319.793 121.859 -319.748 121.781 Q -319.704 121.703 -319.642 121.587 Q -319.581 121.472 -319.585 121.512 Q -319.589 121.552 -319.513 121.019 Q -319.371 121.232 -319.335 121.286 "></path>
  </g>
  <g id="Pen" opacity="1.000">
    <path id="STROKE_a985472d-764e-4109-8718-92ebea7a1103" opacity="1.000" fill="none" stroke="#6c4370" stroke-width="1.902" stroke-opacity="1.000" stroke-linecap="round" stroke-linejoin="round" d="M -508.756 63.120 Q -509.001 63.150 -509.573 63.291 Q -510.146 63.432 -510.719 63.948 Q -511.292 64.464 -511.906 65.896 Q -512.520 67.328 -512.742 68.870 Q -512.964 70.411 -512.973 71.513 Q -512.982 72.614 -512.707 73.595 Q -512.433 74.575 -511.644 75.671 Q -510.856 76.768 -509.807 77.603 Q -508.758 78.438 -507.545 78.930 Q -506.331 79.422 -504.804 79.520 Q -503.277 79.618 -502.257 79.516 Q -501.237 79.414 -500.232 79.053 Q -499.227 78.692 -497.898 77.859 Q -496.569 77.027 -495.523 76.025 Q -494.477 75.023 -493.916 74.105 Q -493.354 73.186 -493.174 72.506 Q -492.993 71.827 -492.930 71.434 Q -492.868 71.042 -493.019 70.071 Q -493.170 69.101 -493.615 68.315 Q -494.060 67.530 -494.579 66.926 Q -495.098 66.322 -496.176 65.425 Q -497.253 64.527 -498.463 63.882 Q -499.672 63.237 -500.938 62.815 Q -502.203 62.394 -503.567 62.283 Q -504.931 62.171 -505.911 62.344 Q -506.890 62.517 -507.537 62.765 Q -508.185 63.014 -510.079 64.697 "></path>
    <path id="STROKE_09bbd0b5-caf0-46e6-8633-8198c6b887b6" opacity="1.000" fill="none" stroke="#6c4370" stroke-width="1.043" stroke-opacity="1.000" stroke-linecap="round" stroke-linejoin="round" d="M -507.606 70.296 Q -507.598 70.312 -507.487 70.039 Q -507.518 70.118 -507.517 70.132 Q -507.517 70.146 -507.462 70.008 Q -507.407 69.870 -507.219 69.405 "></path>
    <path id="STROKE_36d3edb4-4761-4ae5-ba96-73799198fb6a" opacity="1.000" fill="none" stroke="#6c4370" stroke-width="1.404" stroke-opacity="1.000" stroke-linecap="round" stroke-linejoin="round" d="M -506.456 67.393 L -506.375 67.355 L -506.303 67.482 Q -506.125 67.650 -506.105 67.669 Q -506.085 67.688 -504.237 67.548 "></path>
    <path id="STROKE_909175b1-6aae-4c24-b8a2-1b49210adf4a" opacity="1.000" fill="none" stroke="#6c4370" stroke-width="1.206" stroke-opacity="1.000" stroke-linecap="round" stroke-linejoin="round" d="M -500.167 68.631 L -500.128 68.688 Q -499.900 68.789 -496.931 68.690 "></path>
    <path id="STROKE_8b7f6156-7fa4-4b6a-a5d5-94d29ce8cb03" opacity="1.000" fill="none" stroke="#6c4370" stroke-width="1.682" stroke-opacity="1.000" stroke-linecap="round" stroke-linejoin="round" d="M -504.980 73.148 L -504.964 73.711 Q -504.863 74.248 -504.818 74.280 Q -504.434 74.785 -503.264 75.163 Q -502.094 75.541 -501.237 75.535 Q -500.379 75.529 -499.408 75.209 Q -498.437 74.888 -497.185 72.499 "></path>
    <path id="STROKE_803430c4-7cd6-4f73-8fd1-627717f3bd63" opacity="1.000" fill="none" stroke="#50514f" stroke-width="1.304" stroke-opacity="1.000" stroke-linecap="round" stroke-linejoin="round" d="M -426.476 117.160 Q -426.683 117.076 -426.795 117.037 Q -426.908 116.998 -427.159 116.812 Q -427.411 116.625 -427.628 116.198 "></path>
    <path id="STROKE_c6e27a80-edde-447a-bee0-a1071c040d05" opacity="1.000" fill="none" stroke="#50514f" stroke-width="1.304" stroke-opacity="1.000" stroke-linecap="round" stroke-linejoin="round" d="M -428.858 113.656 Q -428.854 113.738 -428.846 113.993 L -428.737 113.999 Q -428.491 113.984 -428.478 113.999 Q -428.082 114.065 -427.957 114.095 Q -427.832 114.125 -425.802 115.598 Q -423.771 117.071 -422.128 118.206 Q -420.485 119.340 -419.585 120.108 Q -418.684 120.876 -417.769 121.862 Q -416.853 122.848 -416.003 123.838 Q -415.153 124.827 -414.158 125.648 Q -413.162 126.470 -412.610 126.797 Q -412.059 127.125 -411.577 127.334 Q -411.096 127.542 -410.372 127.330 Q -410.341 127.211 -411.006 124.895 "></path>
    <path id="STROKE_b08def11-487a-4473-b28a-bdfe4f51aa62" opacity="1.000" fill="none" stroke="#50514f" stroke-width="1.304" stroke-opacity="1.000" stroke-linecap="round" stroke-linejoin="round" d="M -410.852 125.720 Q -411.151 125.898 -411.461 124.100 Q -411.771 122.301 -412.216 120.023 Q -412.662 117.745 -412.929 116.633 Q -413.196 115.520 -413.550 114.464 Q -413.904 113.408 -414.151 112.553 Q -414.398 111.698 -414.558 110.942 Q -414.719 110.186 -414.793 109.683 L -415.023 109.387 "></path>
    <path id="STROKE_2f42b017-a7ba-46c7-8eee-86dbc05100e6" opacity="1.000" fill="none" stroke="#50514f" stroke-width="1.304" stroke-opacity="1.000" stroke-linecap="round" stroke-linejoin="round" d="M -427.986 113.139 Q -428.042 113.023 -428.797 112.559 Q -429.552 112.094 -430.009 111.767 Q -430.466 111.439 -431.066 110.682 Q -431.666 109.926 -432.013 109.425 Q -432.361 108.924 -433.357 107.415 Q -434.353 105.907 -434.882 105.101 Q -435.412 104.296 -436.550 102.890 Q -437.688 101.484 -438.358 100.709 Q -439.029 99.934 -440.893 97.352 Q -442.757 94.770 -443.716 93.423 Q -444.675 92.077 -445.484 90.691 Q -446.293 89.305 -447.102 88.008 Q -447.911 86.711 -448.294 86.067 Q -448.677 85.423 -450.072 83.307 Q -451.467 81.190 -452.294 80.058 Q -453.122 78.926 -453.735 78.064 Q -454.348 77.202 -454.806 76.567 Q -455.264 75.932 -456.282 74.485 Q -457.300 73.039 -458.147 71.667 Q -458.155 71.525 -458.190 71.293 Q -458.225 71.061 -458.143 70.844 Q -458.061 70.627 -457.964 70.499 Q -457.866 70.371 -457.626 70.163 Q -457.387 69.956 -457.205 69.829 Q -457.022 69.703 -456.199 69.197 Q -455.376 68.691 -453.667 67.484 Q -451.958 66.278 -451.009 65.642 Q -450.059 65.006 -449.559 64.689 Q -449.059 64.372 -447.584 63.509 Q -446.109 62.646 -442.315 61.137 L -442.266 61.192 L -442.290 61.421 Q -442.304 61.460 -442.283 61.548 Q -442.262 61.636 -442.188 61.858 Q -442.114 62.079 -442.063 62.179 Q -442.011 62.279 -441.748 62.753 Q -441.485 63.228 -441.075 63.944 Q -440.665 64.659 -439.736 66.151 Q -438.807 67.643 -437.865 68.928 Q -436.923 70.213 -436.415 70.852 Q -435.907 71.491 -435.045 72.645 Q -434.183 73.800 -433.163 75.655 Q -432.143 77.510 -431.339 78.865 Q -430.535 80.220 -430.032 81.023 Q -429.529 81.825 -428.334 83.904 Q -427.140 85.983 -426.486 87.032 Q -425.833 88.081 -424.386 90.417 Q -422.939 92.754 -422.163 94.119 Q -421.386 95.484 -420.992 96.064 Q -420.598 96.644 -419.618 98.480 Q -418.637 100.316 -418.199 101.264 Q -417.760 102.212 -417.608 102.558 Q -417.455 102.903 -417.053 103.687 Q -416.650 104.470 -416.105 105.636 Q -415.561 106.802 -415.314 107.348 Q -415.068 107.895 -414.982 108.080 Q -414.897 108.265 -414.708 108.766 L -414.981 108.154 "></path>
    <path id="STROKE_86000e53-666d-486e-b0c9-b6276e6225a5" opacity="1.000" fill="none" stroke="#50514f" stroke-width="1.304" stroke-opacity="1.000" stroke-linecap="round" stroke-linejoin="round" d="M -415.151 122.839 Q -415.160 122.856 -415.273 122.939 Q -415.385 123.022 -415.400 123.030 Q -415.414 123.037 -415.502 123.015 Q -415.590 122.993 -415.590 122.988 Q -415.590 122.983 -415.652 122.926 Q -415.713 122.868 -415.780 122.656 Q -415.846 122.444 -415.827 121.992 Q -415.809 121.541 -415.780 121.421 Q -415.751 121.301 -415.654 121.083 Q -415.558 120.865 -415.497 120.785 Q -415.436 120.704 -415.319 120.606 Q -415.201 120.508 -415.067 120.439 Q -414.933 120.370 -414.688 120.362 Q -414.443 120.355 -414.420 120.360 Q -414.396 120.365 -413.993 120.428 Q -413.591 120.491 -413.113 120.535 Q -412.635 120.579 -412.340 120.650 Q -412.044 120.721 -411.610 121.421 "></path>
    <path id="STROKE_7bc31ab6-a140-45c8-b810-6b0da56255f2" opacity="1.000" fill="none" stroke="#50514f" stroke-width="1.304" stroke-opacity="1.000" stroke-linecap="round" stroke-linejoin="round" d="M -413.696 122.013 Q -413.691 122.049 -413.739 122.215 Q -413.788 122.381 -413.657 122.968 Q -413.526 123.556 -413.155 124.145 Q -413.116 124.169 -413.113 123.667 Q -413.109 123.166 -413.394 121.258 Q -413.378 121.262 -413.135 124.908 Q -413.059 124.953 -413.814 120.544 Q -413.870 120.527 -414.178 123.873 Q -414.182 123.913 -414.509 121.264 Q -414.510 121.284 -414.449 122.150 Q -414.388 123.015 -413.956 124.481 Q -413.911 124.494 -414.350 122.030 Q -414.329 122.140 -414.337 122.183 Q -414.345 122.226 -413.973 123.986 Q -413.987 123.979 -413.604 123.587 Q -413.389 123.641 -412.027 126.303 Q -411.914 126.454 -412.199 124.206 Q -412.208 124.211 -411.393 126.126 Q -411.347 126.103 -411.335 126.120 Q -411.323 126.136 -411.265 126.018 Q -411.207 125.900 -411.193 125.682 Q -411.180 125.465 -411.183 125.361 Q -411.185 125.257 -411.185 125.072 Q -411.184 124.887 -411.196 124.841 Q -411.208 124.796 -411.325 124.533 Q -411.442 124.270 -411.626 123.944 Q -411.809 123.618 -411.867 123.521 Q -411.926 123.424 -411.976 123.299 Q -412.026 123.174 -412.061 122.964 Q -412.096 122.754 -412.090 122.685 Q -412.084 122.616 -412.083 122.228 Q -412.083 121.841 -412.121 121.623 Q -412.159 121.405 -412.295 121.187 Q -412.432 120.969 -412.520 120.895 Q -412.608 120.822 -412.738 120.805 Q -412.867 120.789 -413.015 120.844 Q -413.163 120.899 -413.192 120.894 Q -413.220 120.889 -413.747 121.470 Q -414.273 122.051 -414.843 122.674 Q -415.412 123.298 -415.644 123.560 Q -415.598 123.599 -415.251 123.366 Q -414.904 123.133 -414.673 122.804 Q -414.442 122.476 -414.345 122.241 Q -414.248 122.005 -414.178 121.772 Q -414.107 121.540 -414.064 121.331 Q -414.021 121.122 -413.561 120.489 Q -413.435 120.526 -412.618 121.265 L -412.460 121.095 "></path>
    <path id="STROKE_9cd2d185-25d2-4c8b-8642-8e39637d90bf" opacity="1.000" fill="none" stroke="#50514f" stroke-width="1.678" stroke-opacity="1.000" stroke-linecap="round" stroke-linejoin="round" d="M -340.313 56.387 L -340.325 56.336 L -340.432 56.247 Q -341.152 55.990 -341.971 56.260 Q -342.790 56.531 -344.247 57.494 Q -345.705 58.456 -346.480 59.101 Q -347.256 59.746 -347.643 60.089 Q -348.031 60.433 -348.641 61.324 Q -349.252 62.214 -349.588 62.910 Q -349.925 63.606 -350.223 64.998 Q -350.520 66.389 -350.580 67.274 Q -350.640 68.158 -350.657 68.879 Q -350.674 69.599 -350.219 70.740 Q -349.764 71.881 -349.396 72.543 Q -349.027 73.206 -348.170 74.234 Q -347.313 75.262 -346.435 75.989 Q -345.557 76.717 -344.520 77.291 Q -343.482 77.866 -342.048 78.206 Q -340.615 78.545 -339.016 78.570 Q -337.416 78.595 -336.044 78.407 Q -334.672 78.219 -332.981 77.464 Q -331.290 76.709 -330.496 76.238 Q -329.702 75.766 -328.493 74.892 Q -327.284 74.018 -326.110 72.891 Q -324.935 71.763 -323.930 70.439 Q -322.926 69.115 -322.410 68.168 Q -321.895 67.221 -321.649 66.306 Q -321.402 65.392 -321.334 64.890 Q -321.265 64.388 -321.274 63.497 Q -321.283 62.605 -321.697 61.529 Q -322.111 60.454 -322.965 59.368 Q -323.820 58.281 -324.291 57.808 Q -324.762 57.335 -325.645 56.793 Q -326.529 56.252 -327.534 55.869 Q -328.540 55.486 -330.410 55.329 Q -332.279 55.172 -335.678 55.580 Q -339.076 55.987 -340.827 56.172 Q -342.578 56.358 -343.436 56.501 Q -344.294 56.644 -344.577 56.924 Q -344.859 57.205 -345.726 59.283 "></path>
    <path id="STROKE_62b97ec3-3540-4c86-9788-7528da0ba70a" opacity="1.000" fill="none" stroke="#50514f" stroke-width="1.745" stroke-opacity="1.000" stroke-linecap="round" stroke-linejoin="round" d="M -342.492 61.169 L -342.439 61.174 L -342.299 61.237 Q -342.157 61.353 -341.798 61.777 Q -341.439 62.201 -341.104 62.454 Q -340.769 62.708 -339.864 62.697 "></path>
    <path id="STROKE_6dd2f964-5d65-466f-a3ff-52ea0ee4e80e" opacity="1.000" fill="none" stroke="#50514f" stroke-width="1.745" stroke-opacity="1.000" stroke-linecap="round" stroke-linejoin="round" d="M -333.289 61.259 Q -333.181 61.699 -333.181 61.713 Q -333.181 61.726 -333.034 61.881 Q -332.887 62.035 -332.377 62.242 Q -331.866 62.449 -331.146 62.608 Q -330.425 62.767 -328.467 62.381 "></path>
    <path id="STROKE_c996f34c-4f5e-4238-bba0-e03871c06ca2" opacity="1.000" fill="none" stroke="#50514f" stroke-width="1.745" stroke-opacity="1.000" stroke-linecap="round" stroke-linejoin="round" d="M -342.179 67.766 Q -342.226 67.802 -342.542 68.184 Q -342.859 68.566 -342.991 69.026 Q -343.123 69.485 -343.122 69.942 Q -343.121 70.399 -343.001 70.826 Q -342.882 71.253 -342.613 71.572 Q -342.344 71.892 -341.854 72.091 Q -341.363 72.291 -340.324 72.290 Q -339.284 72.290 -337.506 71.605 Q -335.728 70.920 -334.504 70.174 Q -333.280 69.428 -332.600 68.946 Q -331.920 68.463 -331.159 66.666 "></path>
    <path id="STROKE_1c99deb1-d87e-4a1a-8e0a-c89644048463" opacity="1.000" fill="none" stroke="#50514f" stroke-width="1.458" stroke-opacity="1.000" stroke-linecap="round" stroke-linejoin="round" d="M -346.916 76.314 Q -346.737 76.280 -346.655 76.250 L -346.633 76.196 Q -346.748 76.271 -346.734 76.309 Q -346.853 76.515 -347.322 77.535 Q -347.792 78.555 -348.187 79.459 Q -348.582 80.362 -348.799 80.923 Q -349.016 81.485 -350.363 84.351 Q -351.709 87.218 -353.372 90.480 Q -355.035 93.742 -356.193 96.288 Q -357.351 98.835 -357.869 100.113 Q -358.387 101.391 -360.065 104.920 Q -361.743 108.449 -362.823 110.573 Q -363.903 112.698 -364.926 114.846 L -364.887 114.891 "></path>
    <path id="STROKE_66186518-ba30-4046-8ebf-b480a2a73b84" opacity="1.000" fill="none" stroke="#50514f" stroke-width="1.558" stroke-opacity="1.000" stroke-linecap="round" stroke-linejoin="round" d="M -330.440 75.395 Q -330.348 75.488 -330.285 76.288 Q -330.221 77.088 -329.983 78.465 Q -329.745 79.843 -329.532 80.691 Q -329.318 81.540 -329.201 81.894 Q -329.085 82.248 -328.554 83.699 Q -328.023 85.149 -327.596 86.728 Q -327.168 88.307 -326.979 89.603 Q -326.790 90.899 -326.430 94.046 Q -326.070 97.193 -325.434 100.516 Q -324.798 103.838 -324.457 105.468 Q -324.116 107.099 -323.944 107.853 Q -323.773 108.607 -323.576 109.440 Q -323.379 110.273 -322.758 112.313 Q -322.136 114.353 -321.679 115.651 Q -321.221 116.949 -320.902 117.660 Q -320.583 118.371 -320.227 118.769 Q -319.872 119.166 -319.365 119.354 Q -319.091 119.256 -318.772 119.042 "></path>
    <path id="STROKE_1749b50d-9327-4e78-be39-143a27a65f96" opacity="1.000" fill="none" stroke="#6dc1b3" stroke-width="1.745" stroke-opacity="1.000" stroke-linecap="round" stroke-linejoin="round" d="M -329.948 78.606 Q -329.978 78.611 -330.205 78.633 Q -330.433 78.655 -331.202 78.670 "></path>
    <path id="STROKE_27500f47-73e5-4868-9b3b-59676764ccc2" opacity="1.000" fill="none" stroke="#50514f" stroke-width="1.842" stroke-opacity="1.000" stroke-linecap="round" stroke-linejoin="round" d="M -470.219 125.936 Q -470.135 126.057 -470.096 126.120 Q -470.056 126.183 -470.042 126.197 Q -470.027 126.210 -469.741 127.005 Q -469.455 127.800 -469.120 128.761 Q -468.785 129.722 -468.524 130.264 Q -468.262 130.805 -468.018 131.223 Q -467.773 131.642 -467.635 131.851 Q -467.497 132.060 -467.370 132.243 Q -467.243 132.427 -467.141 132.569 Q -467.039 132.711 -466.955 132.839 Q -466.871 132.966 -466.073 134.075 Q -465.275 135.185 -464.116 136.315 Q -462.957 137.446 -462.382 137.946 Q -461.806 138.447 -461.055 138.989 Q -460.303 139.532 -459.004 140.333 Q -457.705 141.135 -456.263 141.873 Q -454.821 142.611 -454.071 142.932 Q -453.322 143.254 -451.815 143.862 Q -450.307 144.470 -447.807 145.320 Q -445.306 146.170 -443.754 146.669 Q -442.203 147.167 -440.980 147.484 Q -439.756 147.801 -439.139 147.946 Q -438.521 148.092 -438.200 148.173 Q -437.879 148.253 -436.637 148.491 Q -435.395 148.728 -434.642 148.845 Q -433.889 148.961 -433.306 149.046 Q -432.724 149.130 -430.799 149.379 Q -428.875 149.628 -425.672 149.727 Q -422.470 149.826 -420.877 149.819 Q -419.285 149.813 -418.584 149.808 Q -417.884 149.803 -417.401 149.807 Q -416.918 149.812 -414.880 149.623 Q -412.841 149.434 -411.717 149.262 Q -410.593 149.089 -409.755 148.962 Q -408.917 148.835 -407.419 148.494 Q -405.921 148.154 -404.869 147.796 Q -403.816 147.439 -403.224 147.220 Q -402.632 147.002 -402.064 146.753 Q -401.495 146.503 -400.972 146.268 Q -400.450 146.032 -399.003 145.264 Q -397.557 144.496 -396.618 143.893 Q -395.678 143.290 -395.198 142.933 Q -394.718 142.576 -394.107 142.137 Q -393.496 141.699 -392.921 141.298 Q -392.346 140.896 -391.461 140.247 Q -390.577 139.597 -389.992 139.111 Q -389.407 138.624 -388.951 138.226 Q -388.495 137.828 -387.753 137.252 Q -387.011 136.677 -385.994 135.830 Q -384.977 134.983 -384.036 134.151 Q -383.095 133.319 -381.709 131.769 L -381.665 131.725 "></path>
    <path id="STROKE_1ee6c632-368e-4534-9931-dfeb9d6eb7e5" opacity="1.000" fill="none" stroke="#50514f" stroke-width="0.967" stroke-opacity="1.000" stroke-linecap="round" stroke-linejoin="round" d="M -383.088 131.793 L -383.118 131.840 Q -383.199 131.936 -383.234 131.941 Q -383.269 131.947 -385.282 132.493 Q -387.294 133.040 -390.812 133.600 Q -390.819 133.614 -389.908 133.444 "></path>
    <path id="STROKE_aed74072-e96a-44e3-a6e7-6fca13a12d97" opacity="1.000" fill="none" stroke="#50514f" stroke-width="0.985" stroke-opacity="1.000" stroke-linecap="round" stroke-linejoin="round" d="M -383.176 132.053 Q -383.069 132.122 -382.824 132.323 Q -382.578 132.525 -382.121 133.143 Q -381.663 133.761 -381.351 134.264 Q -381.040 134.767 -380.362 135.675 Q -379.685 136.583 -379.143 137.628 "></path>
    <path id="STROKE_2dc3850c-6615-4c91-8ef5-afc8152ecd54" opacity="1.000" fill="none" stroke="#50514f" stroke-width="1.680" stroke-opacity="1.000" stroke-linecap="round" stroke-linejoin="round" d="M -380.380 59.473 Q -380.387 59.446 -380.524 58.509 Q -380.662 57.573 -381.071 56.420 Q -381.479 55.267 -381.862 54.518 Q -382.244 53.770 -382.719 52.843 Q -383.194 51.915 -383.806 50.826 Q -384.419 49.737 -384.992 48.852 Q -385.565 47.968 -386.769 46.526 Q -387.973 45.084 -389.238 43.851 Q -390.502 42.618 -391.176 42.093 Q -391.850 41.569 -392.270 41.259 Q -392.690 40.949 -394.020 40.099 Q -395.349 39.250 -396.399 38.690 Q -397.450 38.130 -398.087 37.833 Q -398.723 37.537 -399.589 37.177 Q -400.454 36.817 -401.714 36.331 Q -402.973 35.845 -405.233 35.058 Q -407.492 34.272 -408.851 33.889 Q -410.211 33.507 -412.148 33.101 Q -414.084 32.696 -415.289 32.445 Q -416.494 32.194 -418.396 31.880 Q -420.298 31.566 -422.274 31.315 Q -424.251 31.065 -427.135 30.710 Q -430.018 30.355 -433.397 30.120 Q -436.775 29.886 -438.492 29.856 Q -440.210 29.826 -440.989 29.824 Q -441.769 29.823 -443.276 29.734 Q -444.782 29.644 -447.328 30.042 Q -449.874 30.440 -451.251 30.732 Q -452.629 31.025 -453.978 31.392 Q -455.327 31.760 -456.104 32.034 Q -456.882 32.307 -457.324 32.492 Q -457.766 32.676 -459.332 33.390 Q -460.898 34.105 -462.586 35.146 Q -464.273 36.188 -465.476 37.229 Q -466.679 38.271 -467.178 38.762 Q -467.677 39.253 -468.533 40.338 Q -469.389 41.424 -470.074 42.374 Q -470.759 43.325 -471.398 44.174 Q -472.037 45.024 -472.959 46.834 Q -473.882 48.645 -474.609 50.469 Q -475.337 52.293 -476.262 54.758 "></path>
    <path id="STROKE_e38adbfe-478c-48ac-9363-5c6ff9072ea4" opacity="1.000" fill="none" stroke="#50514f" stroke-width="2.221" stroke-opacity="1.000" stroke-linecap="round" stroke-linejoin="round" d="M -477.447 50.355 L -477.386 50.362 Q -477.321 50.319 -477.607 51.502 Q -477.893 52.686 -478.109 54.164 Q -478.325 55.643 -478.388 56.554 Q -478.450 57.465 -478.371 58.132 Q -478.292 58.799 -478.153 59.183 Q -478.014 59.567 -477.758 59.861 Q -477.503 60.155 -476.752 60.275 Q -476.002 60.395 -475.011 59.840 Q -474.020 59.284 -473.104 58.466 Q -472.188 57.648 -471.678 57.139 Q -471.169 56.631 -470.991 56.106 Q -471.102 55.812 -471.404 55.404 "></path>
    <path id="STROKE_064cebb7-c76b-4a58-9df7-3954cf84632b" opacity="1.000" fill="none" stroke="#50514f" stroke-width="4.574" stroke-opacity="1.000" stroke-linecap="round" stroke-linejoin="round" d="M -449.682 49.623 L -450.385 49.953 Q -450.853 50.186 -450.929 50.226 Q -451.005 50.267 -452.238 50.954 Q -453.472 51.640 -454.553 52.322 Q -455.634 53.004 -456.351 53.517 Q -457.068 54.029 -457.471 54.349 Q -457.873 54.669 -458.393 55.116 Q -458.912 55.564 -460.477 57.208 Q -462.042 58.852 -463.089 60.287 Q -464.135 61.722 -464.812 62.862 Q -465.489 64.001 -465.868 64.759 Q -466.248 65.517 -466.500 66.071 Q -466.753 66.626 -467.399 68.365 Q -468.044 70.104 -468.322 71.029 Q -468.600 71.955 -469.201 74.835 Q -469.802 77.714 -470.110 81.401 Q -470.417 85.087 -470.350 87.379 Q -470.282 89.671 -469.742 93.574 Q -469.201 97.477 -468.718 99.399 Q -468.236 101.322 -467.226 104.138 Q -466.217 106.955 -465.258 109.004 Q -464.298 111.053 -463.587 112.358 Q -462.876 113.663 -461.806 115.379 Q -460.736 117.095 -459.952 118.208 Q -459.169 119.322 -458.553 120.121 Q -457.938 120.919 -457.546 121.396 Q -457.154 121.872 -456.880 122.197 Q -456.605 122.523 -455.052 124.174 Q -453.499 125.825 -452.162 127.046 Q -450.825 128.267 -448.788 129.850 Q -446.752 131.433 -445.099 132.523 Q -443.447 133.612 -442.660 134.077 Q -441.874 134.542 -440.819 135.111 Q -439.764 135.680 -435.942 137.265 Q -432.120 138.851 -431.071 139.136 Q -430.022 139.421 -428.234 139.727 Q -426.447 140.034 -424.792 140.133 Q -423.137 140.232 -421.907 140.185 Q -420.676 140.139 -419.216 139.959 Q -417.756 139.779 -416.954 139.633 Q -416.151 139.488 -415.126 139.245 Q -414.100 139.002 -412.792 138.614 Q -411.484 138.227 -410.745 137.961 Q -410.006 137.696 -409.449 137.470 Q -408.892 137.244 -407.579 136.634 Q -406.266 136.025 -404.730 135.124 Q -403.193 134.222 -402.020 133.371 Q -400.847 132.520 -400.008 131.806 Q -399.168 131.093 -398.303 130.249 Q -397.438 129.405 -396.201 127.969 Q -394.964 126.533 -393.915 125.075 Q -392.866 123.617 -392.352 122.810 Q -391.838 122.004 -391.332 121.150 Q -390.826 120.296 -390.138 118.960 Q -389.450 117.625 -388.941 116.440 Q -388.432 115.255 -388.145 114.480 Q -387.858 113.705 -387.432 112.327 Q -387.005 110.948 -386.577 109.040 Q -386.150 107.132 -385.879 104.747 Q -385.608 102.362 -385.563 101.042 Q -385.518 99.722 -385.554 98.227 Q -385.590 96.732 -385.656 95.805 Q -385.722 94.877 -386.100 92.165 Q -386.478 89.454 -386.818 87.809 Q -387.158 86.164 -387.370 85.305 Q -387.582 84.447 -388.307 81.944 Q -389.032 79.441 -390.029 76.854 Q -391.026 74.267 -391.758 72.767 Q -392.489 71.267 -392.972 70.420 Q -393.454 69.572 -394.386 68.177 Q -395.318 66.782 -396.717 65.121 Q -398.117 63.461 -399.285 62.338 Q -400.452 61.216 -401.519 60.348 Q -402.586 59.480 -403.659 58.715 Q -404.732 57.950 -406.365 56.945 Q -407.997 55.940 -409.014 55.394 Q -410.031 54.848 -412.172 53.857 Q -414.314 52.867 -416.794 51.920 Q -419.274 50.974 -420.486 50.578 Q -421.698 50.181 -423.055 49.780 Q -424.411 49.379 -426.291 48.942 Q -428.171 48.505 -429.111 48.339 Q -430.051 48.173 -430.994 48.041 Q -431.938 47.910 -436.114 47.797 Q -440.291 47.684 -442.370 47.891 Q -444.449 48.097 -445.291 48.234 Q -446.133 48.370 -446.441 48.426 Q -446.750 48.482 -447.238 48.582 Q -447.727 48.683 -448.179 48.793 Q -448.631 48.903 -451.564 49.663 "></path>
  </g>
</svg>