<?xml version="1.0" encoding="UTF-8" standalone="no"?>
<svg
   width="627.52344"
   height="730.02423"
   version="1.1"
   id="svg32"
   sodipodi:docname="gt-ts-black-squares.svg"
   inkscape:version="1.4.2 (ebf0e940, 2025-05-08)"
   xmlns:inkscape="http://www.inkscape.org/namespaces/inkscape"
   xmlns:sodipodi="http://sodipodi.sourceforge.net/DTD/sodipodi-0.dtd"
   xmlns="http://www.w3.org/2000/svg"
   xmlns:svg="http://www.w3.org/2000/svg">
  <defs
     id="defs32" />
  <sodipodi:namedview
     id="namedview32"
     pagecolor="#ffffff"
     bordercolor="#000000"
     borderopacity="0.25"
     inkscape:showpageshadow="2"
     inkscape:pageopacity="0.0"
     inkscape:pagecheckerboard="0"
     inkscape:deskcolor="#d1d1d1"
     inkscape:zoom="0.5"
     inkscape:cx="303"
     inkscape:cy="343"
     inkscape:window-width="1800"
     inkscape:window-height="1126"
     inkscape:window-x="0"
     inkscape:window-y="43"
     inkscape:window-maximized="0"
     inkscape:current-layer="svg32" />
  <clipPath
     id="cl_44">
    <rect
       width="1116.5"
       height="1732.804"
       id="rect2"
       x="0"
       y="0" />
  </clipPath>
  <g
     clip-path="url(#cl_44)"
     id="g32"
     transform="translate(-264.864,-524.119)">
    <rect
       transform="matrix(24.4488,0,0,24.4488,264.864,524.119)"
       width="2.4377506"
       height="2.4377506"
       id="rect3"
       x="0"
       y="0" />
    <rect
       transform="matrix(24.4488,0,0,24.4488,403.583,524.119)"
       width="1.5797836"
       height="1.5797836"
       id="rect4"
       x="0"
       y="0" />
    <rect
       transform="matrix(24.4488,0,0,24.4488,540.85,524.119)"
       width="3.568671"
       height="3.568671"
       id="rect5"
       x="0"
       y="0" />
    <rect
       transform="matrix(24.4488,0,0,24.4488,676.998,524.119)"
       width="2.5599067"
       height="2.5599067"
       id="rect6"
       x="0"
       y="0" />
    <rect
       transform="matrix(24.4488,0,0,24.4488,810.554,524.119)"
       width="2.9965117"
       height="2.9965117"
       id="rect7"
       x="0"
       y="0" />
    <rect
       transform="matrix(24.4488,0,0,24.4488,264.864,660.266)"
       width="3.0817072"
       height="3.0817072"
       id="rect8"
       x="0"
       y="0" />
    <rect
       transform="matrix(24.4488,0,0,24.4488,403.583,660.266)"
       width="3.3021145"
       height="3.3021145"
       id="rect9"
       x="0"
       y="0" />
    <rect
       transform="matrix(24.4488,0,0,24.4488,540.85,660.266)"
       width="3.4367986"
       height="3.4367986"
       id="rect10"
       x="0"
       y="0" />
    <rect
       transform="matrix(24.4488,0,0,24.4488,676.998,660.266)"
       width="3.2743888"
       height="3.2743888"
       id="rect11"
       x="0"
       y="0" />
    <rect
       transform="matrix(24.4488,0,0,24.4488,810.554,660.266)"
       width="3.3224261"
       height="3.3224261"
       id="rect12"
       x="0"
       y="0" />
    <rect
       transform="matrix(24.4488,0,0,24.4488,264.864,793.189)"
       width="3.4500952"
       height="3.4500952"
       id="rect13"
       x="0"
       y="0" />
    <rect
       transform="matrix(24.4488,0,0,24.4488,403.583,793.189)"
       width="3.3752978"
       height="3.3752978"
       id="rect14"
       x="0"
       y="0" />
    <rect
       transform="matrix(24.4488,0,0,24.4488,540.85,793.189)"
       width="3.1958997"
       height="3.1958997"
       id="rect15"
       x="0"
       y="0" />
    <rect
       transform="matrix(24.4488,0,0,24.4488,676.998,793.189)"
       width="3.2636361"
       height="3.2636361"
       id="rect16"
       x="0"
       y="0" />
    <rect
       transform="matrix(24.4488,0,0,24.4488,810.554,793.189)"
       width="3.3471348"
       height="3.3471348"
       id="rect17"
       x="0"
       y="0" />
    <rect
       transform="matrix(24.4488,0,0,24.4488,264.864,926.438)"
       width="3.6738501"
       height="3.6738501"
       id="rect18"
       x="0"
       y="0" />
    <rect
       transform="matrix(24.4488,0,0,24.4488,403.583,926.438)"
       width="3.6144753"
       height="3.6144753"
       id="rect19"
       x="0"
       y="0" />
    <rect
       transform="matrix(24.4488,0,0,24.4488,540.85,926.438)"
       width="2.7315888"
       height="2.7315888"
       id="rect20"
       x="0"
       y="0" />
    <rect
       transform="matrix(24.4488,0,0,24.4488,676.998,926.438)"
       width="3.4626975"
       height="3.4626975"
       id="rect21"
       x="0"
       y="0" />
    <rect
       transform="matrix(24.4488,0,0,24.4488,810.554,926.438)"
       width="3.3364596"
       height="3.3364596"
       id="rect22"
       x="0"
       y="0" />
    <rect
       transform="matrix(24.4488,0,0,24.4488,264.864,1065.16)"
       width="2.7041504"
       height="2.7041504"
       id="rect23"
       x="0"
       y="0" />
    <rect
       transform="matrix(24.4488,0,0,24.4488,403.583,1065.16)"
       width="2.923244"
       height="2.923244"
       id="rect24"
       x="0"
       y="0" />
    <rect
       transform="matrix(24.4488,0,0,24.4488,540.85,1065.16)"
       width="3.3816564"
       height="3.3816564"
       id="rect25"
       x="0"
       y="0" />
    <rect
       transform="matrix(24.4488,0,0,24.4488,676.998,1065.16)"
       width="2.6560981"
       height="2.6560981"
       id="rect26"
       x="0"
       y="0" />
    <rect
       transform="matrix(24.4488,0,0,24.4488,810.554,1065.16)"
       width="1.7403626"
       height="1.7403626"
       id="rect27"
       x="0"
       y="0" />
    <rect
       transform="matrix(24.4488,0,0,24.4488,264.864,1196.73)"
       width="2.0086002"
       height="2.0086002"
       id="rect28"
       x="0"
       y="0" />
    <rect
       transform="matrix(24.4488,0,0,24.4488,403.583,1196.73)"
       width="2.0606978"
       height="2.0606978"
       id="rect29"
       x="0"
       y="0" />
    <rect
       transform="matrix(24.4488,0,0,24.4488,540.85,1196.73)"
       width="2.1003706"
       height="2.1003706"
       id="rect30"
       x="0"
       y="0" />
    <rect
       transform="matrix(24.4488,0,0,24.4488,676.998,1196.73)"
       width="1.7403626"
       height="1.7403626"
       id="rect31"
       x="0"
       y="0" />
    <rect
       transform="matrix(24.4488,0,0,24.4488,810.554,1196.73)"
       width="2.3483047"
       height="2.3483047"
       id="rect32"
       x="0"
       y="0" />
  </g>
</svg>
