<?xml version="1.0" encoding="UTF-8" standalone="yes"?>
<svg xmlns="http://www.w3.org/2000/svg" xmlns:xlink="http://www.w3.org/1999/xlink" width="500.666pt" height="323.342pt" version="1.1" viewBox="-610.617 528.318 500.666 323.342">
  <!--
	Exported with Concepts: Smarter Sketching
	Version: 4097 on iOS 18.5
	https://concepts.app/
	-->
  <title>C288787E-68E3-4F07-A2DC-4A3F2C981247</title>
  <desc>Drawing exported from Concepts: Smarter Sketching</desc>
  <defs></defs>
  <g id="Fill" opacity="1.000">
    <path id="STROKE_4b963c9b-e417-4c8e-9c95-1b20480a3e9a" opacity="0.420" fill="#f45e58" stroke="#f45e58" stroke-width="0.500" stroke-opacity="1.000" stroke-linecap="round" stroke-linejoin="round" d="M -287.761 690.815 Q -287.705 690.755 -288.905 690.860 Q -290.105 690.964 -290.604 691.218 Q -291.103 691.472 -291.709 692.007 Q -292.315 692.542 -292.815 693.249 Q -293.315 693.955 -293.699 694.473 Q -294.083 694.990 -294.740 696.751 Q -295.397 698.512 -295.555 700.377 Q -295.713 702.242 -295.351 703.740 Q -294.989 705.239 -294.440 706.529 Q -293.890 707.818 -293.895 709.545 Q -293.900 711.272 -293.850 712.961 Q -293.800 714.649 -292.588 717.305 Q -291.376 719.960 -290.600 721.226 Q -289.823 722.491 -288.795 724.016 Q -287.767 725.542 -286.321 727.318 Q -284.874 729.094 -283.116 730.377 Q -281.358 731.661 -277.656 735.216 Q -273.954 738.771 -272.069 740.791 Q -270.184 742.810 -267.575 745.968 Q -264.965 749.126 -259.547 753.838 Q -254.128 758.550 -250.398 761.447 Q -246.667 764.345 -243.904 766.365 Q -241.140 768.385 -236.992 772.221 Q -232.844 776.057 -230.574 778.022 Q -228.304 779.988 -227.324 780.849 Q -226.343 781.710 -224.264 783.694 Q -222.185 785.678 -220.934 786.872 Q -219.682 788.066 -217.259 789.490 Q -214.837 790.913 -211.631 793.233 Q -208.425 795.553 -204.790 798.196 Q -201.155 800.839 -198.756 802.514 Q -196.356 804.188 -194.875 805.244 Q -193.394 806.299 -190.882 807.897 Q -188.371 809.495 -186.770 810.720 Q -185.169 811.944 -183.918 813.356 Q -182.667 814.768 -181.983 815.808 Q -181.300 816.847 -179.907 817.675 Q -178.514 818.503 -177.735 818.800 Q -176.957 819.096 -176.721 819.008 Q -176.485 818.921 -176.335 818.865 Q -176.185 818.810 -176.092 818.703 Q -176.000 818.597 -175.728 818.329 Q -175.456 818.061 -174.693 817.097 Q -173.931 816.133 -172.719 814.897 Q -171.508 813.661 -170.734 812.945 Q -169.961 812.229 -169.657 811.969 Q -169.354 811.708 -169.349 811.718 Q -169.344 811.727 -168.377 810.904 Q -167.411 810.082 -166.613 809.361 Q -165.815 808.640 -165.457 808.334 Q -165.098 808.028 -164.760 807.697 Q -164.422 807.366 -164.566 807.528 Q -164.710 807.690 -164.112 807.079 Q -163.514 806.469 -163.103 806.018 Q -162.691 805.566 -162.394 805.224 Q -162.097 804.882 -162.101 804.894 Q -162.105 804.905 -162.152 804.964 Q -162.200 805.024 -161.478 804.083 Q -160.757 803.142 -160.559 802.973 Q -160.361 802.803 -159.859 802.349 Q -159.356 801.895 -159.159 801.478 Q -158.962 801.061 -158.905 800.752 Q -158.847 800.443 -158.845 800.455 Q -158.843 800.467 -158.818 800.401 Q -158.793 800.334 -158.893 800.562 Q -158.994 800.789 -158.332 799.238 L -158.309 799.238 Q -158.487 799.471 -157.672 798.399 "></path>
    <path id="STROKE_76a66b58-3785-4b71-961f-b40589fd1acb" opacity="0.420" fill="#f45e58" stroke="#f45e58" stroke-width="0.500" stroke-opacity="1.000" stroke-linecap="round" stroke-linejoin="round" d="M -297.111 796.990 Q -297.308 796.920 -296.619 797.033 Q -295.929 797.146 -295.460 796.920 Q -294.990 796.694 -294.678 796.288 Q -294.367 795.883 -294.355 795.895 Q -294.343 795.907 -294.051 795.621 Q -293.759 795.336 -293.396 794.967 Q -293.032 794.599 -292.639 794.202 Q -292.246 793.805 -291.949 793.499 Q -291.652 793.193 -291.536 793.083 Q -291.420 792.973 -290.461 791.984 Q -289.501 790.995 -286.048 786.508 Q -282.594 782.021 -280.285 779.297 Q -277.975 776.573 -276.561 775.060 Q -275.147 773.547 -273.307 771.539 Q -271.467 769.531 -268.545 766.075 Q -265.624 762.619 -263.817 760.543 Q -262.010 758.467 -260.673 757.064 Q -259.336 755.661 -257.325 753.684 Q -255.313 751.707 -253.139 749.552 Q -250.964 747.396 -249.382 745.729 Q -247.799 744.061 -246.162 742.291 Q -244.525 740.520 -242.545 738.481 Q -240.564 736.442 -237.971 733.725 Q -235.379 731.009 -232.071 727.560 Q -228.763 724.110 -221.710 717.329 Q -214.658 710.548 -210.424 706.551 Q -206.189 702.553 -204.155 700.703 Q -202.121 698.852 -201.022 697.550 Q -199.923 696.247 -193.036 690.862 Q -192.470 691.278 -192.625 691.153 Q -192.023 691.563 -191.956 691.596 Q -191.890 691.629 -191.896 691.630 Q -191.902 691.632 -191.976 691.585 Q -192.050 691.538 -191.810 691.686 Q -191.569 691.834 -191.157 692.106 Q -190.745 692.377 -190.765 692.377 Q -190.784 692.376 -190.800 692.368 Q -190.815 692.360 -190.582 692.519 Q -190.349 692.677 -190.094 692.847 Q -189.839 693.017 -189.759 693.060 Q -189.679 693.103 -189.700 693.047 Q -189.721 692.991 -187.383 695.238 Q -185.045 697.485 -182.326 699.595 Q -179.607 701.705 -178.398 702.701 Q -177.188 703.696 -175.968 704.261 Q -174.749 704.827 -174.064 705.334 Q -173.379 705.842 -173.238 706.313 Q -173.097 706.784 -173.083 706.882 Q -173.069 706.981 -173.068 706.996 Q -173.068 707.011 -173.064 707.016 Q -173.059 707.021 -173.074 707.338 Q -173.089 707.654 -172.881 708.122 Q -172.673 708.590 -172.476 709.044 Q -172.280 709.498 -172.207 709.656 Q -172.134 709.814 -172.055 709.992 Q -171.976 710.169 -172.035 710.052 Q -172.095 709.934 -171.972 710.117 Q -171.848 710.299 -171.778 710.550 Q -171.708 710.801 -171.806 711.050 Q -171.903 711.300 -171.976 711.449 Q -172.049 711.597 -172.130 711.716 Q -172.210 711.834 -172.158 711.820 Q -172.105 711.806 -173.203 713.716 Q -174.301 715.625 -175.037 716.722 Q -175.772 717.819 -176.874 719.246 Q -177.977 720.672 -180.431 723.511 Q -182.885 726.350 -184.573 728.204 Q -186.261 730.059 -188.049 731.719 Q -189.836 733.378 -191.229 734.697 Q -192.622 736.015 -193.966 737.303 Q -195.309 738.591 -199.340 742.424 Q -203.371 746.258 -205.757 748.250 Q -208.143 750.242 -210.171 751.766 Q -212.199 753.289 -213.253 754.229 Q -214.306 755.168 -217.508 757.840 Q -220.709 760.512 -224.927 763.582 Q -229.145 766.653 -231.201 768.499 Q -233.257 770.345 -236.833 773.089 Q -240.409 775.832 -242.218 777.193 Q -244.027 778.555 -247.317 781.107 Q -250.607 783.659 -254.246 786.366 Q -257.886 789.073 -260.444 790.576 Q -263.003 792.079 -265.986 794.203 Q -268.968 796.326 -270.729 797.438 Q -272.489 798.549 -273.775 799.238 Q -275.061 799.927 -276.510 801.095 Q -277.959 802.262 -278.681 802.872 Q -279.403 803.482 -279.751 803.740 Q -280.099 803.998 -280.233 804.129 Q -280.367 804.259 -280.366 804.255 Q -280.365 804.251 -280.768 804.602 Q -281.172 804.954 -281.156 804.948 Q -281.141 804.942 -281.336 805.115 Q -281.530 805.288 -281.563 805.305 Q -281.597 805.321 -282.474 806.007 Q -283.350 806.694 -283.779 807.135 Q -284.207 807.576 -284.542 807.849 Q -284.878 808.123 -284.834 808.082 Q -284.790 808.040 -284.837 808.100 Q -284.884 808.160 -284.881 808.149 Q -284.878 808.138 -284.861 808.121 Q -284.845 808.104 -285.063 808.415 Q -285.280 808.726 -285.318 808.795 Q -285.356 808.864 -285.276 808.755 Q -285.276 809.486 -285.276 809.461 Q -285.276 809.436 -285.276 809.390 Q -285.276 810.139 -285.276 810.116 Q -285.276 810.093 -285.276 810.048 Q -285.276 811.058 -285.276 810.735 Q -285.053 811.550 -285.097 811.370 Q -285.113 811.350 -284.999 811.571 Q -284.886 811.792 -284.728 812.017 Q -284.570 812.241 -284.425 812.471 Q -284.281 812.700 -284.254 812.686 Q -284.228 812.671 -284.349 812.615 Q -284.470 812.558 -284.075 812.873 Q -283.680 813.188 -283.227 813.462 Q -282.774 813.736 -282.828 813.688 Q -282.883 813.641 -282.770 813.711 Q -282.657 813.781 -282.514 813.855 Q -282.370 813.928 -282.414 813.890 Q -282.458 813.852 -282.197 813.980 Q -281.936 814.109 -281.532 814.161 Q -281.129 814.213 -280.641 814.234 Q -280.153 814.254 -280.232 814.262 Q -280.312 814.270 -280.271 814.260 Q -280.230 814.250 -279.960 814.389 Q -279.690 814.527 -279.728 814.514 Q -279.767 814.501 -279.821 814.478 Q -279.875 814.455 -279.498 814.602 Q -279.498 814.626 -279.498 814.649 Q -279.899 814.590 -279.820 814.617 Q -279.742 814.644 -279.812 814.651 Q -279.882 814.657 -279.970 814.511 Q -280.058 814.364 -280.112 813.451 Q -280.166 812.537 -280.080 811.973 Q -279.993 811.409 -279.690 810.903 Q -279.386 810.398 -279.101 809.981 Q -278.815 809.565 -278.676 809.380 Q -278.537 809.194 -278.462 809.130 Q -278.388 809.065 -278.317 808.984 Q -278.247 808.904 -277.323 807.288 Q -276.399 805.673 -275.667 804.644 Q -274.936 803.616 -274.571 803.333 Q -274.206 803.050 -273.795 802.720 Q -273.384 802.390 -273.299 802.278 Q -273.214 802.166 -272.506 801.555 Q -271.797 800.944 -271.265 800.529 Q -270.733 800.114 -269.362 799.546 Q -267.992 798.978 -266.980 797.526 Q -267.016 797.586 -266.934 797.545 Q -266.852 797.504 -267.243 797.454 Q -267.633 797.405 -268.002 797.664 Q -268.371 797.923 -268.701 798.279 Q -269.031 798.636 -268.979 798.585 Q -268.928 798.534 -269.250 798.934 Q -269.571 799.334 -271.254 801.169 Q -272.936 803.003 -274.473 804.825 Q -276.009 806.648 -276.710 807.916 Q -277.410 809.183 -277.809 810.142 Q -278.208 811.101 -278.553 811.936 Q -278.898 812.772 -279.391 813.501 Q -279.884 814.230 -280.288 814.817 Q -280.691 815.404 -281.253 815.336 Q -281.256 815.059 -280.805 814.769 Q -280.355 814.479 -279.998 814.137 Q -279.641 813.794 -279.611 813.779 Q -279.581 813.765 -279.261 813.460 Q -278.942 813.156 -279.088 813.278 Q -279.234 813.400 -277.830 811.910 Q -276.426 810.420 -274.264 809.419 Q -274.645 809.498 -274.606 809.559 Q -275.263 810.350 -275.733 810.800 Q -276.204 811.249 -276.914 812.221 Q -277.624 813.194 -277.971 813.849 Q -278.319 814.505 -278.357 814.855 Q -278.395 815.206 -278.400 815.195 Q -278.406 815.183 -278.415 815.230 Q -278.425 815.277 -278.486 815.481 Q -278.548 815.685 -278.537 815.636 Q -278.527 815.587 -278.532 815.599 Q -278.537 815.612 -278.637 815.870 Q -278.737 816.127 -278.953 816.643 Q -279.169 817.159 -279.142 817.117 Q -279.116 817.076 -279.140 817.154 Q -279.165 817.232 -279.208 817.290 Q -279.252 817.349 -279.638 818.470 L -279.615 818.470 Q -279.366 818.004 -277.743 814.742 "></path>
    <path id="STROKE_b0a4f149-d592-48c4-8376-e2026c50d5b3" opacity="0.420" fill="#ffe15c" stroke="#ffe15c" stroke-width="0.500" stroke-opacity="1.000" stroke-linecap="round" stroke-linejoin="round" d="M -489.821 638.776 Q -490.443 638.776 -490.294 638.776 Q -490.959 638.698 -490.909 638.663 Q -491.412 638.475 -491.442 638.463 Q -491.473 638.450 -491.427 638.472 Q -491.495 638.449 -491.803 638.280 L -491.803 638.258 Q -491.581 638.230 -490.815 638.774 Q -490.049 639.318 -488.372 640.069 Q -486.695 640.819 -485.923 641.147 Q -485.151 641.475 -484.299 642.141 Q -483.448 642.807 -482.412 643.500 Q -481.377 644.192 -480.700 644.465 Q -480.023 644.738 -479.742 644.817 Q -479.462 644.896 -479.318 644.938 Q -479.174 644.979 -479.155 644.977 Q -479.137 644.975 -478.963 645.020 Q -478.789 645.064 -478.095 645.070 Q -477.932 644.796 -478.721 646.290 Q -479.509 647.784 -480.495 650.424 Q -481.481 653.064 -482.413 655.345 Q -483.345 657.626 -485.464 662.663 Q -487.584 667.700 -489.410 672.116 Q -491.236 676.532 -492.344 678.869 Q -493.453 681.207 -496.285 687.985 Q -499.117 694.764 -501.255 700.368 Q -503.394 705.972 -504.960 710.501 Q -506.527 715.030 -507.347 717.439 Q -508.167 719.848 -508.707 721.527 Q -509.248 723.207 -511.642 729.122 Q -514.036 735.037 -516.835 741.177 Q -519.635 747.317 -521.178 750.661 Q -522.720 754.005 -523.979 756.368 Q -525.237 758.730 -526.364 760.635 Q -527.492 762.540 -528.583 764.466 Q -529.675 766.391 -531.363 769.473 Q -533.051 772.555 -534.045 774.398 Q -535.038 776.241 -537.566 780.838 Q -540.094 785.434 -541.998 788.724 Q -543.902 792.014 -544.914 793.885 Q -545.925 795.756 -546.980 797.864 Q -548.035 799.971 -548.693 801.256 Q -549.352 802.541 -549.612 802.909 Q -549.872 803.276 -550.533 804.240 Q -551.195 805.204 -552.471 807.161 Q -553.747 809.117 -554.550 810.453 Q -555.353 811.789 -556.638 813.816 Q -557.923 815.844 -559.673 817.360 Q -561.423 818.877 -562.452 819.485 Q -563.481 820.094 -564.004 820.362 Q -564.528 820.631 -564.889 820.826 Q -565.250 821.020 -565.539 821.147 Q -565.827 821.275 -566.854 821.612 Q -567.882 821.949 -569.121 822.446 Q -570.360 822.944 -571.262 823.210 Q -572.163 823.476 -572.393 823.512 Q -572.624 823.548 -572.979 823.607 Q -573.333 823.666 -573.802 823.737 Q -574.270 823.808 -574.719 823.896 Q -575.167 823.983 -575.233 823.869 Q -575.298 823.754 -577.735 824.386 Q -580.171 825.018 -581.663 825.609 Q -583.154 826.201 -583.857 826.450 Q -584.560 826.699 -584.817 826.802 Q -585.074 826.905 -585.321 826.990 Q -585.567 827.074 -585.695 827.120 Q -585.822 827.166 -586.190 827.277 Q -586.559 827.389 -586.656 827.421 Q -586.753 827.453 -586.748 827.452 Q -586.743 827.452 -586.767 827.458 Q -586.791 827.464 -586.704 827.441 Q -586.618 827.418 -586.655 827.430 Q -586.692 827.441 -586.727 827.457 Q -586.763 827.472 -587.236 827.588 Q -587.709 827.703 -587.878 827.741 Q -588.047 827.779 -587.964 827.759 Q -587.509 827.687 -588.392 827.810 Q -589.275 827.933 -590.031 827.872 Q -590.787 827.811 -591.201 827.713 Q -591.616 827.615 -592.084 827.448 Q -592.552 827.281 -592.407 827.338 Q -592.261 827.394 -592.541 827.289 Q -592.821 827.183 -593.280 826.963 Q -593.739 826.742 -593.706 826.741 Q -593.673 826.741 -593.728 826.722 Q -593.783 826.703 -593.959 826.583 Q -594.134 826.462 -594.058 826.515 Q -593.981 826.567 -594.001 826.562 Q -594.021 826.558 -594.124 826.446 Q -594.226 826.335 -594.518 826.090 Q -594.809 825.844 -594.754 825.901 Q -594.699 825.958 -594.841 825.877 Q -594.984 825.796 -595.249 825.696 Q -595.515 825.596 -595.539 825.603 Q -595.562 825.611 -595.489 825.580 Q -595.415 825.548 -596.122 825.457 Q -596.828 825.366 -597.180 825.366 Q -597.533 825.366 -597.719 825.366 Q -597.905 825.367 -597.872 825.367 Q -597.839 825.366 -597.889 825.367 Q -597.939 825.367 -598.207 825.367 Q -598.474 825.367 -598.473 825.367 Q -598.471 825.367 -598.522 825.367 Q -598.572 825.367 -598.826 825.367 Q -599.080 825.367 -599.083 825.367 Q -599.086 825.367 -599.139 825.367 Q -599.192 825.367 -599.406 825.367 Q -599.620 825.367 -599.663 825.367 Q -599.706 825.367 -599.578 825.367 Q -599.450 825.367 -600.080 825.367 Q -600.080 825.344 -600.080 825.322 Q -600.049 825.322 -599.974 825.322 Q -599.644 826.408 -599.359 827.495 "></path>
  </g>
  <g id="Pen" opacity="1.000">
    <path id="STROKE_74f21279-65b7-4e2b-ad46-e8713210fac8" opacity="1.000" fill="none" stroke="#000000" stroke-width="2.793" stroke-opacity="1.000" stroke-linecap="round" stroke-linejoin="round" d="M -451.635 552.929 Q -451.735 552.936 -455.387 553.391 Q -459.040 553.846 -461.687 554.354 Q -464.333 554.863 -469.087 558.992 Q -473.840 563.121 -476.470 566.512 Q -479.101 569.902 -481.638 574.522 Q -484.176 579.142 -486.212 585.808 Q -488.247 592.475 -489.069 596.902 Q -489.891 601.329 -489.883 605.794 Q -489.876 610.259 -488.889 613.716 Q -487.902 617.172 -486.197 619.920 Q -484.492 622.668 -482.246 624.616 Q -480.000 626.563 -475.875 627.756 Q -471.749 628.949 -467.192 628.632 Q -462.635 628.314 -459.495 627.546 Q -456.355 626.777 -450.384 623.065 Q -444.413 619.353 -441.569 616.766 Q -438.724 614.179 -436.059 611.228 Q -433.393 608.276 -430.573 603.963 Q -427.753 599.651 -426.321 595.887 Q -424.889 592.124 -424.360 589.991 Q -423.831 587.859 -423.518 586.378 Q -423.204 584.898 -423.034 580.312 Q -422.863 575.726 -423.713 570.901 Q -424.562 566.075 -425.954 563.955 Q -427.347 561.834 -429.149 560.100 Q -430.952 558.366 -435.634 556.370 Q -440.316 554.374 -445.441 553.704 Q -450.565 553.034 -464.264 555.164 "></path>
    <path id="STROKE_7e2b9ac7-53ef-487a-98b3-431764117283" opacity="1.000" fill="none" stroke="#000000" stroke-width="10.388" stroke-opacity="1.000" stroke-linecap="round" stroke-linejoin="round" d="M -319.259 561.291 L -319.342 563.144 Q -319.415 564.134 -320.416 568.142 Q -321.416 572.150 -322.091 576.390 Q -322.766 580.629 -323.252 592.135 Q -323.738 603.640 -323.931 611.251 Q -324.125 618.862 -324.174 622.614 Q -324.222 626.366 -324.305 628.119 Q -324.388 629.873 -324.695 642.870 Q -325.003 655.867 -325.209 662.886 Q -325.416 669.905 -325.566 672.802 Q -325.716 675.700 -325.786 677.302 Q -325.855 678.904 -326.021 683.176 Q -326.186 687.448 -326.431 694.186 Q -326.675 700.923 -327.251 711.188 Q -327.826 721.452 -328.810 731.439 Q -329.794 741.426 -330.462 747.124 Q -331.131 752.821 -331.545 755.979 Q -331.959 759.137 -332.183 760.637 Q -332.408 762.138 -332.773 764.851 Q -333.139 767.564 -333.415 769.870 Q -333.691 772.176 -335.135 781.046 Q -336.580 789.916 -337.403 795.958 Q -338.225 802.000 -338.524 804.631 Q -338.823 807.261 -339.202 811.879 Q -339.581 816.497 -339.718 819.320 Q -339.855 822.143 -339.985 823.508 Q -340.115 824.874 -340.197 825.420 Q -340.278 825.966 -340.414 826.917 Q -340.552 827.155 -340.583 827.632 L -340.423 827.796 Q -340.395 828.000 -336.638 828.469 Q -332.881 828.938 -327.465 828.880 Q -322.050 828.823 -319.157 828.716 Q -316.264 828.609 -313.180 829.068 Q -310.095 829.526 -306.667 830.559 Q -303.239 831.591 -295.790 832.534 Q -288.341 833.477 -283.110 833.988 Q -277.879 834.498 -275.427 834.843 Q -272.974 835.187 -266.111 836.243 Q -259.249 837.299 -252.432 837.669 Q -245.616 838.038 -242.172 838.020 Q -238.728 838.001 -237.081 838.030 Q -235.433 838.058 -232.647 837.993 Q -229.861 837.927 -225.430 837.167 Q -220.999 836.407 -215.690 836.121 Q -210.381 835.834 -207.477 835.824 Q -204.573 835.813 -198.727 835.801 Q -192.881 835.788 -182.817 835.801 Q -172.753 835.814 -167.658 835.805 Q -162.563 835.796 -158.714 836.072 Q -154.865 836.347 -152.592 836.494 Q -150.319 836.640 -144.923 836.863 Q -139.528 837.085 -134.776 837.300 Q -130.025 837.515 -128.114 837.551 Q -126.204 837.587 -124.644 837.597 Q -123.084 837.607 -122.643 837.457 Q -122.202 837.306 -122.190 837.270 Q -122.179 837.233 -122.437 836.780 Q -122.696 836.327 -123.028 835.688 Q -123.361 835.050 -123.583 834.579 Q -123.804 834.107 -124.435 832.445 Q -125.067 830.782 -125.654 828.491 Q -126.241 826.199 -126.656 823.805 Q -127.071 821.411 -127.232 820.100 Q -127.392 818.789 -127.956 814.729 Q -128.519 810.670 -129.183 803.458 Q -129.846 796.246 -130.058 791.530 Q -130.270 786.814 -130.322 784.816 Q -130.374 782.819 -130.375 782.197 Q -130.377 781.575 -130.389 777.336 Q -130.401 773.097 -130.406 770.302 Q -130.410 767.506 -130.239 764.985 Q -130.067 762.465 -129.879 751.615 Q -129.691 740.765 -129.721 734.857 Q -129.751 728.949 -129.715 726.495 Q -129.680 724.040 -129.191 713.832 Q -128.703 703.624 -128.525 697.734 Q -128.348 691.843 -128.206 683.056 Q -128.063 674.270 -127.948 669.655 Q -127.833 665.040 -127.759 660.167 Q -127.686 655.295 -127.675 645.892 Q -127.664 636.490 -127.666 629.153 Q -127.667 621.816 -127.661 618.651 Q -127.656 615.485 -127.684 613.326 Q -127.712 611.167 -127.979 603.525 Q -128.245 595.883 -128.342 591.905 Q -128.439 587.927 -128.474 586.150 Q -128.508 584.372 -128.526 583.642 Q -128.544 582.911 -128.563 581.440 Q -128.582 579.969 -128.580 578.759 Q -128.578 577.549 -128.593 574.941 Q -128.608 572.333 -128.578 568.201 Q -128.548 564.070 -128.057 558.003 Q -127.565 551.937 -127.252 548.488 Q -126.939 545.040 -127.082 543.561 Q -127.224 542.083 -127.376 541.796 Q -127.527 541.508 -127.803 541.345 Q -128.078 541.182 -128.334 541.167 Q -128.591 541.153 -128.793 541.224 Q -128.996 541.295 -129.837 541.778 Q -130.679 542.260 -132.376 543.172 Q -134.072 544.083 -134.940 544.489 Q -135.807 544.895 -136.662 545.253 Q -137.517 545.610 -139.518 546.442 Q -141.519 547.274 -145.027 548.432 Q -148.536 549.590 -151.109 550.109 Q -153.683 550.627 -158.547 551.053 Q -163.411 551.479 -167.478 551.559 Q -171.546 551.638 -175.876 551.643 Q -180.207 551.647 -191.265 551.801 Q -202.324 551.955 -207.974 551.950 Q -213.624 551.945 -216.655 551.958 Q -219.686 551.970 -221.203 552.012 Q -222.720 552.055 -223.710 552.082 Q -224.700 552.108 -231.205 552.424 Q -237.711 552.740 -241.585 552.932 Q -245.459 553.125 -248.527 553.143 Q -251.595 553.160 -255.856 553.233 Q -260.118 553.307 -262.320 553.402 Q -264.522 553.497 -265.730 553.561 Q -266.937 553.625 -269.029 553.726 Q -271.121 553.828 -272.528 553.892 Q -273.936 553.955 -278.309 554.243 Q -282.683 554.530 -289.799 554.710 Q -296.915 554.890 -300.564 554.998 Q -304.212 555.105 -305.564 555.155 Q -306.917 555.205 -308.115 555.550 Q -309.314 555.895 -310.294 556.153 Q -311.274 556.411 -312.308 556.509 Q -313.342 556.606 -314.067 556.704 Q -314.791 556.803 -315.384 556.940 Q -315.978 557.078 -317.149 557.569 L -317.225 557.743 Q -317.106 558.019 -316.800 558.184 L -317.972 558.675 "></path>
    <path id="STROKE_0e93a834-0a78-42a9-8a50-9e31c6a314f4" opacity="1.000" fill="none" stroke="#000000" stroke-width="2.943" stroke-opacity="1.000" stroke-linecap="round" stroke-linejoin="round" d="M -291.083 595.941 Q -290.260 596.437 -285.687 596.469 Q -281.115 596.501 -278.096 596.416 Q -275.078 596.331 -272.822 596.360 Q -270.566 596.390 -267.057 596.284 Q -263.547 596.177 -257.824 595.548 Q -252.101 594.918 -244.409 594.414 Q -236.717 593.909 -228.255 593.921 Q -219.792 593.933 -212.334 593.779 Q -204.875 593.626 -198.973 593.922 Q -193.071 594.218 -190.274 594.537 Q -187.478 594.856 -185.867 595.043 Q -184.257 595.231 -178.782 596.138 Q -173.308 597.046 -167.896 598.455 Q -162.484 599.863 -157.128 600.704 Q -151.772 601.546 -146.976 601.954 "></path>
    <path id="STROKE_85d89ec4-b28b-4030-9bc3-6a68739d363a" opacity="1.000" fill="none" stroke="#000000" stroke-width="3.028" stroke-opacity="1.000" stroke-linecap="round" stroke-linejoin="round" d="M -296.624 625.824 Q -295.321 625.681 -295.199 625.614 L -294.706 625.532 Q -294.476 625.457 -288.474 625.714 Q -282.473 625.970 -278.882 626.245 Q -275.290 626.521 -273.531 626.638 Q -271.773 626.756 -270.027 626.857 Q -268.281 626.957 -255.466 627.434 Q -242.651 627.912 -235.896 628.259 Q -229.141 628.606 -225.902 628.838 Q -222.662 629.070 -221.279 629.148 Q -219.896 629.227 -214.452 629.896 Q -209.008 630.566 -203.347 631.495 Q -197.687 632.423 -194.498 632.729 Q -191.308 633.035 -189.612 633.121 Q -187.915 633.207 -184.265 633.184 Q -180.615 633.161 -176.056 632.333 Q -171.497 631.505 -165.766 629.368 "></path>
    <path id="STROKE_eebbd22c-2271-4de6-818b-b57652be3405" opacity="1.000" fill="none" stroke="#000000" stroke-width="3.724" stroke-opacity="1.000" stroke-linecap="round" stroke-linejoin="round" d="M -301.089 661.708 L -300.559 662.563 Q -300.323 662.843 -293.439 663.912 Q -286.555 664.980 -282.661 665.430 Q -278.768 665.879 -276.922 666.010 Q -275.077 666.141 -265.870 666.235 Q -256.663 666.329 -251.714 666.404 Q -246.766 666.479 -244.538 666.639 Q -242.310 666.800 -240.284 666.897 Q -238.259 666.994 -229.973 668.042 Q -221.686 669.090 -213.880 670.749 Q -206.074 672.408 -201.001 673.812 Q -195.928 675.216 -191.008 675.908 Q -186.089 676.600 -183.027 676.632 Q -179.966 676.664 -176.739 676.623 Q -173.512 676.582 -168.226 677.682 "></path>
    <path id="STROKE_bb107e02-42fe-479a-87e8-dafd602e6191" opacity="1.000" fill="none" stroke="#000000" stroke-width="3.262" stroke-opacity="1.000" stroke-linecap="round" stroke-linejoin="round" d="M -298.579 706.478 Q -298.084 706.488 -294.278 707.621 Q -290.473 708.754 -285.147 709.664 Q -279.822 710.573 -276.505 710.789 Q -273.187 711.004 -271.337 711.078 Q -269.486 711.152 -264.228 711.125 Q -258.970 711.099 -250.132 710.813 Q -241.294 710.527 -234.805 710.618 Q -228.315 710.708 -224.470 711.136 Q -220.624 711.565 -218.250 711.918 Q -215.877 712.272 -208.281 713.129 Q -200.685 713.987 -195.137 714.354 Q -189.589 714.720 -184.646 715.130 Q -179.703 715.540 -175.005 716.646 "></path>
    <path id="STROKE_a6f10920-7fcc-4252-a517-fb746da51eb8" opacity="1.000" fill="none" stroke="#000000" stroke-width="4.404" stroke-opacity="1.000" stroke-linecap="round" stroke-linejoin="round" d="M -310.378 746.774 Q -310.093 746.758 -306.453 747.006 Q -302.812 747.254 -298.792 747.765 Q -294.771 748.275 -289.668 748.403 Q -284.564 748.530 -281.467 748.540 Q -278.370 748.551 -274.928 748.678 Q -271.485 748.805 -264.443 749.505 Q -257.401 750.205 -253.763 750.627 Q -250.125 751.048 -239.082 751.385 Q -228.040 751.723 -222.151 751.853 Q -216.262 751.984 -211.325 752.366 Q -206.388 752.749 -203.559 753.043 Q -200.729 753.337 -198.550 753.565 Q -196.371 753.794 -193.040 754.156 Q -189.710 754.518 -187.813 754.839 Q -185.916 755.161 -184.781 755.657 Q -183.646 756.153 -183.082 756.650 Q -182.518 757.146 -183.170 759.766 "></path>
    <path id="STROKE_3fb43810-d517-4b71-9e81-12820a705971" opacity="1.000" fill="none" stroke="#000000" stroke-width="3.790" stroke-opacity="1.000" stroke-linecap="round" stroke-linejoin="round" d="M -307.705 777.329 Q -307.464 777.383 -303.104 778.463 Q -298.743 779.542 -294.766 780.305 Q -290.789 781.069 -288.641 781.369 Q -286.492 781.670 -284.733 781.891 Q -282.973 782.111 -276.579 782.433 Q -270.184 782.755 -266.106 782.868 Q -262.028 782.982 -259.707 783.067 Q -257.386 783.152 -255.117 783.239 Q -252.849 783.326 -247.830 783.608 Q -242.811 783.890 -236.199 784.363 Q -229.586 784.835 -223.806 785.238 Q -218.027 785.642 -213.844 785.984 Q -209.662 786.326 -205.991 786.523 Q -202.320 786.719 -197.980 786.798 Q -193.641 786.877 -190.862 787.161 Q -188.083 787.446 -186.489 787.972 Q -184.895 788.498 -184.161 788.950 Q -183.426 789.403 -182.502 791.605 "></path>
    <path id="STROKE_ed071be4-ebfc-4b24-b3b6-8c2803351539" opacity="1.000" fill="none" stroke="#000000" stroke-width="4.515" stroke-opacity="1.000" stroke-linecap="round" stroke-linejoin="round" d="M -293.234 800.331 Q -292.361 800.473 -288.180 801.296 Q -283.999 802.118 -278.966 803.306 Q -273.933 804.493 -269.348 805.141 Q -264.763 805.789 -255.640 805.997 Q -246.517 806.206 -238.587 806.321 Q -230.657 806.437 -226.561 806.623 Q -222.465 806.808 -217.951 807.262 Q -213.438 807.715 -208.898 808.219 Q -204.358 808.722 -201.401 809.035 Q -198.445 809.347 -191.220 808.850 "></path>
    <path id="STROKE_ec3ae717-1cc4-4919-a8b2-1c5080a8efb0" opacity="1.000" fill="none" stroke="#000000" stroke-width="2.849" stroke-opacity="1.000" stroke-linecap="round" stroke-linejoin="round" d="M -491.717 633.499 L -491.715 633.543 Q -491.792 633.479 -492.105 633.567 Q -492.419 633.656 -492.462 633.684 Q -492.506 633.712 -495.005 637.748 Q -497.505 641.784 -499.378 645.509 Q -501.251 649.235 -502.077 650.955 Q -502.903 652.674 -505.059 656.590 Q -507.216 660.505 -510.626 667.123 Q -514.036 673.740 -515.802 677.519 Q -517.567 681.298 -519.299 684.675 Q -521.031 688.051 -522.608 690.887 Q -524.186 693.724 -527.601 699.898 Q -531.017 706.071 -533.914 710.826 Q -536.812 715.580 -538.211 717.807 Q -539.610 720.033 -543.842 726.973 Q -548.074 733.912 -550.554 737.695 Q -553.035 741.478 -554.481 743.555 Q -555.928 745.633 -556.965 747.199 Q -558.003 748.765 -560.427 752.318 Q -562.851 755.871 -566.736 761.283 Q -570.622 766.695 -572.734 769.875 Q -574.847 773.054 -575.928 774.782 Q -577.010 776.510 -579.424 780.323 Q -581.838 784.136 -584.294 787.955 Q -586.749 791.773 -587.939 793.767 Q -589.129 795.762 -590.935 798.766 Q -592.741 801.771 -594.912 805.655 Q -597.083 809.538 -599.015 813.632 Q -600.948 817.725 -602.862 825.157 "></path>
    <path id="STROKE_ffdbc730-ec53-4ff6-b896-3acf5a7e10e3" opacity="1.000" fill="none" stroke="#000000" stroke-width="2.732" stroke-opacity="1.000" stroke-linecap="round" stroke-linejoin="round" d="M -442.578 635.301 Q -442.272 635.987 -442.216 636.018 Q -441.875 636.338 -439.197 645.249 Q -436.519 654.159 -434.947 659.709 Q -433.376 665.259 -432.681 667.755 Q -431.986 670.250 -431.070 673.626 Q -430.154 677.002 -427.180 685.250 Q -424.205 693.499 -422.166 699.386 Q -420.128 705.273 -418.469 710.599 Q -416.811 715.926 -415.705 719.452 Q -414.600 722.979 -413.277 726.688 Q -411.955 730.398 -409.821 738.179 Q -407.686 745.961 -406.127 753.125 Q -404.568 760.289 -403.808 763.777 Q -403.048 767.265 -402.584 769.240 Q -402.120 771.214 -401.610 773.365 Q -401.100 775.516 -400.512 777.843 Q -399.923 780.170 -398.540 784.709 Q -397.157 789.248 -396.357 791.868 Q -395.558 794.488 -395.137 795.907 Q -394.716 797.325 -393.742 800.734 Q -392.768 804.142 -392.326 805.731 Q -391.885 807.321 -391.204 809.312 Q -390.522 811.304 -389.704 812.703 Q -388.886 814.103 -388.248 814.710 Q -387.610 815.318 -387.053 815.510 Q -386.496 815.703 -386.111 815.764 Q -385.727 815.826 -383.966 812.861 "></path>
  </g>
</svg>