<?xml version="1.0" encoding="UTF-8" standalone="yes"?>
<svg xmlns="http://www.w3.org/2000/svg" xmlns:xlink="http://www.w3.org/1999/xlink" width="594.899pt" height="368.248pt" version="1.1" viewBox="2634.351 180.634 594.899 368.248">
  <!--
	Exported with Concepts: Smarter Sketching
	Version: 3963 on iOS 18.4
	https://concepts.app/
	-->
  <title>BA3A6727-D8DA-43C5-8832-A943810AA847</title>
  <desc>Drawing exported from Concepts: Smarter Sketching</desc>
  <defs></defs>
  <g id="Pen" opacity="1.000">
    <path id="STROKE_ddf9bdaa-5a91-4d3f-a119-732b3a4f4426" opacity="1.000" fill="none" stroke="#7f7e7a" stroke-width="1.746" stroke-opacity="1.000" stroke-linecap="round" stroke-linejoin="round" d="M 2689.643 357.267 Q 2689.795 356.688 2689.570 356.302 Q 2689.345 355.916 2689.078 355.818 Q 2688.812 355.720 2688.876 355.760 Q 2688.940 355.801 2688.851 355.811 Q 2688.762 355.822 2688.631 355.621 Q 2688.500 355.421 2687.544 358.758 Q 2686.587 362.094 2686.291 365.005 Q 2685.994 367.915 2685.860 369.892 Q 2685.727 371.870 2686.178 373.144 Q 2686.628 374.417 2687.132 375.076 Q 2687.635 375.735 2688.419 376.203 Q 2689.202 376.670 2689.327 376.745 Q 2689.451 376.820 2690.494 376.882 Q 2691.537 376.944 2692.523 376.710 Q 2693.509 376.476 2695.604 373.692 Q 2697.698 370.907 2699.839 366.716 Q 2701.980 362.525 2705.009 358.754 Q 2705.281 359.072 2704.713 364.027 Q 2704.145 368.983 2703.667 372.208 Q 2703.188 375.433 2703.827 377.834 Q 2705.636 378.815 2709.331 374.327 Q 2713.025 369.840 2716.598 363.886 Q 2720.171 357.932 2722.410 353.997 Q 2724.648 350.063 2726.939 347.011 "></path>
    <path id="STROKE_20c77584-74c7-47e6-aa5a-ae789eba9646" opacity="1.000" fill="none" stroke="#7f7e7a" stroke-width="1.095" stroke-opacity="1.000" stroke-linecap="round" stroke-linejoin="round" d="M 2730.376 365.805 Q 2730.366 365.751 2730.392 365.812 Q 2730.418 365.873 2730.397 365.376 Q 2730.376 364.879 2730.314 364.420 Q 2730.252 363.962 2730.234 363.975 Q 2730.215 363.989 2730.206 363.941 Q 2730.196 363.893 2730.087 363.616 Q 2729.979 363.339 2729.948 363.275 Q 2729.916 363.211 2729.943 363.253 Q 2729.969 363.295 2730.005 363.277 Q 2730.042 363.259 2729.349 362.886 Q 2729.217 362.392 2726.430 373.824 Q 2726.022 374.289 2727.224 372.130 Q 2728.426 369.972 2730.566 367.573 Q 2732.706 365.174 2734.082 363.963 Q 2735.458 362.752 2737.054 361.785 Q 2738.650 360.818 2739.985 360.540 Q 2741.321 360.263 2741.975 360.245 Q 2742.628 360.228 2743.452 360.973 Q 2744.276 361.719 2744.251 364.427 "></path>
    <path id="STROKE_a483308c-f405-4727-a7f7-538a03833103" opacity="1.000" fill="none" stroke="#7f7e7a" stroke-width="0.855" stroke-opacity="1.000" stroke-linecap="round" stroke-linejoin="round" d="M 2755.762 358.304 Q 2756.437 359.288 2756.162 359.101 Q 2755.922 360.317 2754.319 362.543 Q 2752.717 364.770 2752.054 366.983 Q 2751.390 369.197 2751.272 370.354 Q 2751.154 371.510 2751.170 372.620 Q 2751.186 373.731 2751.547 374.344 Q 2751.908 374.957 2752.740 375.157 Q 2753.573 375.358 2754.127 375.360 Q 2754.680 375.362 2755.173 375.059 Q 2755.666 374.757 2756.326 371.765 "></path>
    <path id="STROKE_c19392a2-4650-4590-991a-cee76f2f7a95" opacity="1.000" fill="none" stroke="#7f7e7a" stroke-width="0.603" stroke-opacity="1.000" stroke-linecap="round" stroke-linejoin="round" d="M 2760.635 349.248 Q 2760.593 349.372 2758.453 346.847 Q 2758.425 346.976 2759.762 351.594 "></path>
    <path id="STROKE_86beab21-449b-4686-97ec-3f1626d0d0c5" opacity="1.000" fill="none" stroke="#7f7e7a" stroke-width="1.313" stroke-opacity="1.000" stroke-linecap="round" stroke-linejoin="round" d="M 2775.346 348.211 Q 2775.328 347.953 2775.572 348.941 Q 2775.817 349.929 2773.980 351.925 Q 2772.144 353.921 2770.746 356.786 Q 2769.347 359.652 2768.434 362.539 Q 2767.521 365.426 2767.472 367.651 Q 2767.424 369.876 2767.336 370.973 Q 2767.249 372.071 2768.192 373.124 Q 2769.136 374.177 2770.456 374.728 Q 2771.776 375.279 2772.846 375.360 Q 2773.916 375.441 2774.956 375.327 Q 2775.995 375.212 2777.419 371.014 "></path>
    <path id="STROKE_18f91581-b4ba-4922-944e-be6198dd2df5" opacity="1.000" fill="none" stroke="#7f7e7a" stroke-width="0.945" stroke-opacity="1.000" stroke-linecap="round" stroke-linejoin="round" d="M 2770.364 358.808 Q 2770.950 359.223 2768.309 357.867 Q 2768.309 357.813 2768.309 357.785 Q 2768.427 357.580 2770.929 357.510 Q 2773.430 357.441 2775.872 357.888 Q 2778.313 358.334 2783.548 361.740 "></path>
    <path id="STROKE_34903eef-6997-427d-9979-3ca5b95e7c1f" opacity="1.000" fill="none" stroke="#7f7e7a" stroke-width="1.502" stroke-opacity="1.000" stroke-linecap="round" stroke-linejoin="round" d="M 2790.985 367.919 Q 2791.348 368.659 2793.078 369.272 Q 2794.809 369.885 2796.601 368.944 Q 2798.394 368.002 2799.612 367.022 Q 2800.830 366.041 2801.550 365.096 Q 2802.270 364.151 2802.552 363.127 Q 2802.833 362.102 2802.668 361.583 Q 2802.504 361.064 2801.933 360.969 Q 2801.362 360.874 2800.642 360.879 Q 2799.923 360.884 2798.417 362.191 Q 2796.911 363.497 2796.012 365.110 Q 2795.113 366.722 2794.793 367.931 Q 2794.474 369.141 2794.685 370.120 Q 2794.896 371.099 2796.861 372.085 Q 2798.825 373.071 2802.111 373.122 Q 2805.397 373.172 2807.863 373.022 Q 2810.329 372.872 2816.607 369.064 "></path>
    <path id="STROKE_d9f0b145-6793-460e-8838-36a149317222" opacity="1.000" fill="none" stroke="#7f7e7a" stroke-width="2.148" stroke-opacity="1.000" stroke-linecap="round" stroke-linejoin="round" d="M 2771.400 337.505 Q 2771.400 337.505 2771.026 337.505 Q 2770.652 337.505 2770.882 337.505 Q 2769.763 337.154 2770.200 337.219 Q 2770.200 336.282 2770.200 336.377 Q 2770.200 336.471 2770.200 336.415 Q 2770.199 336.360 2770.205 336.002 Q 2770.211 335.645 2770.203 335.611 Q 2770.194 335.576 2770.243 334.901 Q 2770.292 334.226 2772.300 330.731 Q 2774.307 327.236 2776.715 323.935 Q 2779.123 320.633 2780.633 318.604 Q 2782.142 316.575 2785.353 312.888 Q 2788.563 309.201 2791.622 305.756 Q 2794.682 302.310 2797.036 299.626 Q 2799.391 296.941 2803.487 293.380 Q 2807.584 289.820 2809.836 288.022 Q 2812.088 286.224 2813.945 284.703 Q 2815.801 283.181 2820.009 280.510 Q 2824.216 277.838 2827.025 276.257 Q 2829.834 274.676 2831.819 273.679 Q 2833.803 272.682 2835.091 272.001 Q 2836.378 271.321 2843.302 268.382 Q 2850.226 265.442 2855.966 263.265 Q 2861.705 261.087 2866.379 259.796 Q 2871.053 258.504 2873.479 257.936 Q 2875.905 257.369 2877.962 257.018 Q 2880.020 256.667 2882.460 256.419 Q 2884.900 256.171 2886.497 255.954 Q 2888.094 255.737 2896.576 255.648 Q 2905.058 255.559 2910.334 255.706 Q 2915.610 255.852 2920.240 254.830 Q 2919.975 255.245 2919.651 255.514 Q 2919.328 255.783 2917.658 257.189 "></path>
    <path id="STROKE_584699d1-7617-402f-b6b0-92e2bdfd58b4" opacity="1.000" fill="none" stroke="#7f7e7a" stroke-width="1.643" stroke-opacity="1.000" stroke-linecap="round" stroke-linejoin="round" d="M 2907.692 245.610 Q 2907.552 245.615 2906.147 244.151 Q 2906.447 243.537 2909.859 244.623 Q 2913.271 245.709 2915.306 246.756 Q 2917.340 247.802 2919.365 249.162 Q 2921.391 250.522 2923.146 252.202 Q 2924.901 253.881 2925.930 255.679 Q 2926.960 257.478 2926.952 259.112 Q 2926.944 260.745 2926.850 261.485 Q 2926.756 262.225 2924.840 263.383 Q 2922.924 264.540 2913.476 265.236 Q 2913.557 265.836 2913.875 266.354 "></path>
    <path id="STROKE_961ba731-0e25-4f2b-be30-1b1e4599137f" opacity="1.000" fill="none" stroke="#48d1ec" stroke-width="2.148" stroke-opacity="1.000" stroke-linecap="round" stroke-linejoin="round" d="M 2949.335 239.541 Q 2949.363 239.541 2949.917 239.336 Q 2949.917 238.932 2949.917 238.941 Q 2949.922 238.278 2949.881 238.423 Q 2949.844 238.341 2949.735 238.000 Q 2949.935 237.796 2949.185 244.535 Q 2948.434 251.274 2947.944 255.492 Q 2947.454 259.709 2946.021 267.264 Q 2944.588 274.819 2943.354 279.346 Q 2942.120 283.872 2941.279 286.818 Q 2940.438 289.764 2940.170 291.899 Q 2940.184 291.894 2942.971 285.489 "></path>
    <path id="STROKE_a5ecfa2f-d3f4-4f2c-8305-526459317df9" opacity="1.000" fill="none" stroke="#48d1ec" stroke-width="1.463" stroke-opacity="1.000" stroke-linecap="round" stroke-linejoin="round" d="M 2949.226 248.883 Q 2949.797 248.609 2950.213 247.463 Q 2950.629 246.316 2951.137 246.175 Q 2951.646 246.034 2952.837 245.909 Q 2954.028 245.783 2956.485 247.067 Q 2958.943 248.350 2960.849 250.535 Q 2962.756 252.719 2963.684 254.029 Q 2964.612 255.338 2965.241 256.970 Q 2965.870 258.602 2965.877 259.979 Q 2965.884 261.356 2965.881 262.265 Q 2965.878 263.174 2964.908 264.460 Q 2963.938 265.745 2960.679 266.889 Q 2957.420 268.034 2945.162 267.663 Q 2945.735 267.922 2946.480 268.182 "></path>
    <path id="STROKE_12744251-c2f1-4626-9a1a-74041777040d" opacity="1.000" fill="none" stroke="#48d1ec" stroke-width="1.488" stroke-opacity="1.000" stroke-linecap="round" stroke-linejoin="round" d="M 2977.575 261.649 Q 2977.576 261.649 2977.343 261.346 Q 2977.110 261.043 2977.176 261.226 Q 2977.176 261.221 2976.770 261.204 Q 2976.364 261.188 2976.534 261.225 Q 2976.703 261.263 2976.195 261.265 Q 2975.688 261.266 2974.320 263.764 Q 2972.951 266.262 2972.397 269.377 Q 2971.844 272.492 2971.795 274.231 Q 2971.746 275.970 2971.861 276.817 Q 2971.976 277.664 2972.421 278.494 Q 2972.867 279.324 2974.121 279.786 Q 2975.374 280.249 2977.007 279.769 Q 2978.641 279.290 2979.356 278.931 Q 2980.071 278.572 2982.275 276.982 Q 2984.480 275.391 2987.115 273.323 Q 2989.750 271.255 2991.349 270.105 Q 2992.947 268.954 2994.651 268.809 Q 2995.080 269.065 2994.472 272.496 Q 2993.865 275.926 2993.269 278.150 Q 2992.673 280.373 2992.933 282.536 Q 2993.769 282.618 2994.487 282.502 "></path>
    <path id="STROKE_7ede6d4e-6375-441c-b3a7-501912227ece" opacity="1.000" fill="none" stroke="#48d1ec" stroke-width="2.272" stroke-opacity="1.000" stroke-linecap="round" stroke-linejoin="round" d="M 3016.818 245.037 Q 3017.497 245.126 3017.672 244.642 Q 3017.380 243.981 3016.368 248.075 Q 3015.356 252.170 3012.410 262.027 Q 3009.464 271.884 3007.403 277.664 Q 3005.342 283.445 3004.425 287.603 Q 3004.653 288.521 3008.942 287.120 Q 3013.232 285.718 3015.678 284.869 Q 3018.124 284.020 3019.292 283.819 Q 3020.460 283.618 3022.586 283.417 Q 3024.711 283.216 3026.131 283.265 Q 3027.551 283.314 3028.570 284.611 Q 3029.589 285.907 3027.334 287.136 Q 3025.079 288.366 3017.897 290.083 Q 3010.716 291.800 3003.389 293.733 Q 3004.389 293.590 3005.416 293.385 "></path>
    <path id="STROKE_ab67fdf1-5e15-486f-b46a-58b0df01f156" opacity="1.000" fill="none" stroke="#48d1ec" stroke-width="1.978" stroke-opacity="1.000" stroke-linecap="round" stroke-linejoin="round" d="M 3045.003 247.956 Q 3045.153 248.949 3044.658 245.760 Q 3044.573 245.772 3043.951 245.711 Q 3043.330 245.650 3041.358 250.801 Q 3039.386 255.953 3038.035 260.520 Q 3036.684 265.087 3036.034 268.740 Q 3035.385 272.394 3035.154 274.549 Q 3034.924 276.705 3035.050 278.567 Q 3035.175 280.429 3036.268 281.839 Q 3037.360 283.249 3039.396 284.050 Q 3041.431 284.851 3043.691 284.969 Q 3045.950 285.087 3048.336 284.641 Q 3050.723 284.196 3053.078 282.215 "></path>
    <path id="STROKE_43bcd39f-7615-4114-8525-5b7cedccb837" opacity="1.000" fill="none" stroke="#48d1ec" stroke-width="0.997" stroke-opacity="1.000" stroke-linecap="round" stroke-linejoin="round" d="M 3061.569 268.986 Q 3061.570 268.986 3061.439 269.322 Q 3061.309 269.658 3061.333 269.477 Q 3060.973 269.807 3060.658 270.216 Q 3060.344 270.624 3060.465 270.479 Q 3060.586 270.334 3060.258 270.857 Q 3059.929 271.379 3059.660 271.731 Q 3059.390 272.082 3058.932 274.197 Q 3058.473 276.313 3058.361 278.293 Q 3058.248 280.274 3058.119 281.932 Q 3057.989 283.590 3058.446 284.888 Q 3058.902 286.187 3060.451 287.057 Q 3061.040 286.563 3063.570 282.966 "></path>
    <path id="STROKE_3ed0b4eb-9d4a-4107-9ddb-bfc193a7789d" opacity="1.000" fill="none" stroke="#48d1ec" stroke-width="0.702" stroke-opacity="1.000" stroke-linecap="round" stroke-linejoin="round" d="M 3067.807 257.012 Q 3067.954 256.903 3066.498 255.293 Q 3066.150 255.260 3069.935 261.935 "></path>
    <path id="STROKE_f55dbab9-1981-4b61-ae2c-3fa0765c409c" opacity="1.000" fill="none" stroke="#48d1ec" stroke-width="1.370" stroke-opacity="1.000" stroke-linecap="round" stroke-linejoin="round" d="M 3093.992 263.886 Q 3094.083 263.812 3094.074 262.372 Q 3092.458 261.678 3090.332 262.959 Q 3088.205 264.240 3086.624 266.321 Q 3085.044 268.402 3084.262 271.124 Q 3083.480 273.846 3083.526 276.774 Q 3083.571 279.702 3083.556 281.238 Q 3083.542 282.773 3083.473 283.987 Q 3083.404 285.201 3080.504 286.322 Q 3077.605 287.443 3075.718 287.808 Q 3073.831 288.173 3072.756 288.850 Q 3071.682 289.527 3071.354 290.357 Q 3071.027 291.186 3071.108 291.728 Q 3071.189 292.269 3071.749 292.736 Q 3072.308 293.203 3073.186 293.461 Q 3074.063 293.720 3075.372 294.135 "></path>
    <path id="STROKE_90ee6ef1-74c2-4007-8fa0-5cc57528f315" opacity="1.000" fill="none" stroke="#48d1ec" stroke-width="1.915" stroke-opacity="1.000" stroke-linecap="round" stroke-linejoin="round" d="M 3109.795 249.102 Q 3109.323 249.002 3110.595 249.252 Q 3110.840 249.263 3107.946 256.573 Q 3105.051 263.884 3103.318 268.433 Q 3101.584 272.982 3100.784 276.324 Q 3101.212 276.447 3103.792 274.648 Q 3106.372 272.848 3109.031 271.597 Q 3111.691 270.346 3113.666 270.003 Q 3115.642 269.659 3117.137 269.626 Q 3118.633 269.594 3119.627 270.290 Q 3120.622 270.986 3121.388 272.343 Q 3122.153 273.701 3122.842 282.250 L 3122.469 282.393 "></path>
    <path id="STROKE_59ea6d82-4746-42e1-931b-4101505c18b4" opacity="1.000" fill="none" stroke="#48d1ec" stroke-width="1.906" stroke-opacity="1.000" stroke-linecap="round" stroke-linejoin="round" d="M 3135.980 269.736 Q 3136.562 269.751 3136.553 269.818 Q 3136.255 269.933 3138.672 269.849 Q 3141.089 269.766 3142.694 269.938 Q 3144.300 270.111 3145.375 270.740 Q 3146.450 271.369 3149.646 275.292 Q 3152.841 279.215 3155.114 282.450 Q 3157.387 285.685 3161.280 293.400 Q 3165.173 301.114 3167.438 305.716 Q 3169.704 310.318 3171.620 315.546 Q 3173.536 320.774 3174.741 326.343 Q 3175.946 331.912 3176.420 334.589 Q 3176.895 337.267 3177.110 339.037 Q 3177.324 340.807 3177.678 342.967 Q 3178.032 345.127 3178.320 351.168 Q 3178.607 357.209 3178.681 361.594 Q 3178.755 365.980 3178.477 370.881 Q 3178.199 375.783 3177.790 378.559 Q 3177.381 381.335 3176.736 385.121 Q 3176.090 388.908 3173.897 394.905 Q 3171.705 400.903 3169.900 404.672 Q 3168.095 408.440 3166.785 410.572 Q 3165.475 412.704 3164.063 413.721 Q 3162.651 414.738 3162.351 414.790 Q 3162.052 414.842 3161.651 415.146 Q 3161.250 415.450 3161.239 415.557 Q 3162.138 415.504 3162.220 415.475 "></path>
    <path id="STROKE_4c8d983e-18f8-417e-8363-3103c849f7f7" opacity="1.000" fill="none" stroke="#48d1ec" stroke-width="1.846" stroke-opacity="1.000" stroke-linecap="round" stroke-linejoin="round" d="M 3153.110 400.869 Q 3153.262 401.195 3153.495 401.223 Q 3153.727 401.251 3153.044 403.814 Q 3152.362 406.376 3152.165 408.515 Q 3151.968 410.653 3151.879 412.258 Q 3151.791 413.862 3152.263 415.174 Q 3152.734 416.487 3153.746 417.338 Q 3154.757 418.190 3156.722 418.770 Q 3158.688 419.351 3162.320 418.037 Q 3165.952 416.722 3168.302 415.348 Q 3170.651 413.974 3172.246 412.894 Q 3173.840 411.814 3183.524 406.447 Q 3183.469 406.304 3183.242 406.242 "></path>
    <path id="STROKE_7e20ced8-69e9-474a-ba24-0d9d2d542eac" opacity="1.000" fill="none" stroke="#45b046" stroke-width="1.969" stroke-opacity="1.000" stroke-linecap="round" stroke-linejoin="round" d="M 3065.625 420.399 Q 3066.099 420.390 3064.718 427.176 Q 3063.337 433.961 3062.523 437.962 Q 3061.709 441.962 3060.577 446.041 Q 3059.445 450.120 3058.596 452.677 Q 3057.748 455.234 3054.350 465.719 Q 3054.350 465.322 3054.350 464.792 "></path>
    <path id="STROKE_88984a3f-c54f-4449-a14c-36e27519dbbd" opacity="1.000" fill="none" stroke="#45b046" stroke-width="1.403" stroke-opacity="1.000" stroke-linecap="round" stroke-linejoin="round" d="M 3065.279 433.751 Q 3065.372 433.665 3066.128 432.548 Q 3066.885 431.432 3067.758 430.740 Q 3068.630 430.048 3070.332 429.846 Q 3072.034 429.645 3074.222 430.579 Q 3076.409 431.514 3078.400 433.058 Q 3080.391 434.602 3081.607 436.258 Q 3082.823 437.914 3083.407 439.071 Q 3083.991 440.227 3084.188 441.391 Q 3084.386 442.554 3084.139 443.891 Q 3083.893 445.227 3081.286 445.796 Q 3078.680 446.365 3074.883 445.873 Q 3071.086 445.382 3067.143 443.570 Q 3067.543 442.793 3068.316 442.220 "></path>
    <path id="STROKE_bfa1459d-94d9-4a1b-a194-ec27005b272b" opacity="1.000" fill="none" stroke="#45b046" stroke-width="1.448" stroke-opacity="1.000" stroke-linecap="round" stroke-linejoin="round" d="M 3106.139 430.028 Q 3106.131 430.220 3106.099 429.226 Q 3106.067 428.231 3105.354 427.335 Q 3104.639 426.438 3104.056 426.188 Q 3103.473 425.939 3102.763 425.907 Q 3102.054 425.874 3101.495 425.702 Q 3100.935 425.530 3098.803 426.809 Q 3096.670 428.089 3094.821 430.149 Q 3092.973 432.209 3092.003 434.074 Q 3091.034 435.939 3090.621 437.844 Q 3090.208 439.748 3090.401 440.961 Q 3090.593 442.174 3091.819 442.708 Q 3093.046 443.242 3094.453 443.148 Q 3095.860 443.053 3097.749 442.189 Q 3099.637 441.324 3102.441 439.411 Q 3105.245 437.498 3110.486 431.173 Q 3110.558 431.331 3108.795 433.872 Q 3107.032 436.412 3105.937 438.012 Q 3104.840 439.613 3104.985 442.370 Q 3104.957 442.453 3106.335 442.628 Q 3107.713 442.802 3111.522 439.138 "></path>
    <path id="STROKE_933cf205-e44c-4d01-a724-6698f89a3d97" opacity="1.000" fill="none" stroke="#45b046" stroke-width="0.669" stroke-opacity="1.000" stroke-linecap="round" stroke-linejoin="round" d="M 3101.211 430.082 Q 3101.205 430.187 3101.390 430.022 Q 3101.575 429.857 3101.795 429.600 Q 3102.015 429.343 3102.203 429.088 Q 3102.391 428.833 3102.532 428.545 Q 3102.673 428.256 3102.636 428.101 Q 3102.600 427.945 3102.992 427.383 Q 3103.384 426.822 3103.484 426.691 Q 3103.585 426.560 3104.152 426.231 Q 3104.719 425.902 3105.581 426.283 Q 3106.443 426.664 3106.578 426.950 Q 3106.713 427.236 3106.973 427.676 Q 3107.232 428.116 3107.773 429.391 Q 3108.314 430.666 3109.449 433.124 "></path>
    <path id="STROKE_585d2d5b-f2bd-426a-a21c-faa5b470fa7a" opacity="1.000" fill="none" stroke="#45b046" stroke-width="1.311" stroke-opacity="1.000" stroke-linecap="round" stroke-linejoin="round" d="M 3124.178 427.327 Q 3124.495 426.965 3122.960 428.911 Q 3121.427 430.856 3117.596 439.643 Q 3117.800 439.224 3120.028 436.503 Q 3122.256 433.782 3124.440 431.847 Q 3126.625 429.911 3128.154 428.927 Q 3129.684 427.942 3131.112 427.731 Q 3132.540 427.520 3133.803 427.666 Q 3135.066 427.811 3136.671 435.865 "></path>
    <path id="STROKE_01305270-a85e-4dc9-9e34-79509e49a38e" opacity="1.000" fill="none" stroke="#45b046" stroke-width="1.598" stroke-opacity="1.000" stroke-linecap="round" stroke-linejoin="round" d="M 3154.765 422.513 Q 3154.842 422.837 3154.753 423.257 Q 3154.664 423.678 3154.302 423.912 Q 3153.939 424.147 3153.673 424.409 Q 3153.406 424.671 3153.254 424.866 Q 3153.102 425.062 3152.833 425.287 Q 3152.564 425.512 3151.209 427.550 Q 3149.855 429.588 3148.666 432.968 Q 3147.477 436.347 3147.214 438.800 Q 3146.951 441.253 3146.974 442.570 Q 3146.996 443.887 3147.014 445.167 Q 3147.031 446.446 3149.419 447.444 Q 3150.301 446.469 3150.928 445.493 "></path>
    <path id="STROKE_110e435d-ffcf-422f-b3c5-b03e835386a3" opacity="1.000" fill="none" stroke="#45b046" stroke-width="0.938" stroke-opacity="1.000" stroke-linecap="round" stroke-linejoin="round" d="M 3149.164 430.423 Q 3149.178 430.495 3150.101 430.253 Q 3150.147 429.329 3150.128 429.591 Q 3150.349 428.527 3154.192 429.847 Q 3158.035 431.167 3162.621 432.251 "></path>
    <path id="STROKE_a65725bd-efe0-4ecf-b669-7fd0b4f1eca7" opacity="1.000" fill="none" stroke="#45b046" stroke-width="2.003" stroke-opacity="1.000" stroke-linecap="round" stroke-linejoin="round" d="M 3179.459 424.641 Q 3179.453 425.424 3179.432 425.213 Q 3179.399 425.039 3178.205 426.986 Q 3177.012 428.932 3176.750 431.110 Q 3176.489 433.287 3176.495 434.286 Q 3176.500 435.285 3177.159 436.682 Q 3177.818 438.079 3187.142 437.781 Q 3188.762 439.115 3185.154 444.227 Q 3181.545 449.340 3178.949 452.360 Q 3176.354 455.381 3174.614 456.869 Q 3172.875 458.357 3171.254 459.652 Q 3169.633 460.948 3168.117 461.429 Q 3166.602 461.909 3165.474 462.031 Q 3164.347 462.153 3164.234 461.412 Q 3164.121 460.671 3164.205 459.724 Q 3164.290 458.777 3166.145 456.995 Q 3168.000 455.213 3171.833 453.191 Q 3175.667 451.168 3179.469 449.792 Q 3183.271 448.416 3187.024 448.303 "></path>
    <path id="STROKE_34afade0-6614-4d34-8d36-4673cfd53e4d" opacity="1.000" fill="none" stroke="#45b046" stroke-width="1.742" stroke-opacity="1.000" stroke-linecap="round" stroke-linejoin="round" d="M 3220.701 405.219 Q 3219.918 405.623 3222.566 404.524 Q 3223.347 405.091 3221.260 411.677 Q 3219.174 418.264 3217.908 422.044 Q 3216.642 425.825 3216.327 428.464 Q 3216.011 431.102 3215.916 432.618 Q 3215.821 434.133 3216.810 435.060 "></path>
    <path id="STROKE_e778c537-e330-4a1e-8354-82a7ebf7e858" opacity="1.000" fill="none" stroke="#45b046" stroke-width="0.591" stroke-opacity="1.000" stroke-linecap="round" stroke-linejoin="round" d="M 3210.736 447.662 Q 3210.879 448.738 3210.918 448.726 Q 3210.996 448.756 3211.055 450.308 Q 3211.098 450.289 3210.937 450.341 Q 3210.777 450.393 3212.464 450.076 Q 3212.617 449.174 3212.628 448.412 "></path>
    <path id="STROKE_1c315bd2-5e6e-46b7-b368-871a62dccd40" opacity="1.000" fill="none" stroke="#45b046" stroke-width="2.141" stroke-opacity="1.000" stroke-linecap="round" stroke-linejoin="round" d="M 3099.375 475.457 Q 3099.375 475.457 3099.425 475.668 Q 3099.475 475.879 3099.484 475.798 Q 3099.484 475.825 3099.539 475.907 Q 3099.430 475.993 3099.510 475.903 Q 3099.590 475.813 3099.223 476.175 Q 3098.856 476.537 3097.135 479.282 Q 3095.414 482.028 3094.142 484.124 Q 3092.870 486.221 3092.165 487.615 Q 3091.458 489.010 3088.519 493.876 Q 3085.580 498.743 3082.408 502.901 Q 3079.237 507.059 3076.846 509.648 Q 3074.456 512.237 3071.508 514.236 Q 3068.559 516.235 3066.462 517.348 Q 3064.365 518.460 3059.706 520.470 Q 3055.048 522.480 3051.227 523.724 Q 3047.406 524.967 3043.014 525.715 Q 3038.623 526.463 3031.111 527.267 Q 3023.598 528.072 3018.998 528.274 Q 3014.398 528.477 3012.285 528.392 Q 3010.172 528.306 3002.637 528.335 Q 2995.102 528.363 2991.089 528.503 Q 2987.075 528.643 2982.073 529.222 Q 2977.070 529.802 2971.150 530.293 Q 2965.230 530.784 2960.269 530.817 Q 2955.308 530.851 2952.018 530.358 Q 2948.728 529.866 2943.620 528.972 Q 2938.512 528.078 2933.202 527.530 Q 2927.893 526.982 2922.922 528.360 L 2922.804 528.851 "></path>
    <path id="STROKE_b22c21d8-baf6-4d51-a4e0-bfc112cf47f2" opacity="1.000" fill="none" stroke="#45b046" stroke-width="1.570" stroke-opacity="1.000" stroke-linecap="round" stroke-linejoin="round" d="M 2921.549 527.132 Q 2922.190 526.595 2920.404 528.728 Q 2920.003 528.535 2924.849 524.518 Q 2929.695 520.500 2935.180 517.088 Q 2940.665 513.676 2946.698 511.435 Q 2946.698 511.462 2943.953 513.262 "></path>
    <path id="STROKE_b4de1d68-5924-4546-9aa5-bdf1d82fbaa9" opacity="1.000" fill="none" stroke="#45b046" stroke-width="1.199" stroke-opacity="1.000" stroke-linecap="round" stroke-linejoin="round" d="M 2924.823 522.659 Q 2925.169 522.645 2924.249 524.281 Q 2923.329 525.916 2923.281 527.383 Q 2923.233 528.850 2923.519 530.872 Q 2923.806 532.894 2925.904 535.252 Q 2928.003 537.610 2930.088 539.445 Q 2932.174 541.280 2936.643 542.448 L 2936.843 542.189 "></path>
    <path id="STROKE_8362a7f7-6c14-4a47-a6a6-8726463e082f" opacity="1.000" fill="none" stroke="#45b046" stroke-width="2.226" stroke-opacity="1.000" stroke-linecap="round" stroke-linejoin="round" d="M 2752.561 489.654 Q 2752.562 489.654 2752.212 489.834 Q 2751.863 490.014 2752.034 490.029 Q 2751.634 489.938 2749.434 495.131 Q 2747.234 500.324 2745.499 503.808 Q 2743.763 507.292 2742.540 509.257 Q 2741.316 511.222 2739.487 511.830 Q 2739.268 511.623 2739.501 509.785 Q 2739.734 507.948 2742.858 503.230 Q 2745.981 498.512 2749.859 493.668 Q 2753.737 488.825 2756.350 486.095 Q 2758.963 483.365 2760.620 481.873 Q 2762.276 480.380 2763.810 479.372 Q 2765.345 478.364 2766.536 477.877 Q 2767.726 477.391 2768.395 477.498 Q 2769.064 477.605 2769.436 477.950 Q 2769.807 478.296 2769.746 481.758 "></path>
    <path id="STROKE_eefe0088-69df-457b-9fc2-5630e52d8072" opacity="1.000" fill="none" stroke="#45b046" stroke-width="1.075" stroke-opacity="1.000" stroke-linecap="round" stroke-linejoin="round" d="M 2751.070 496.883 Q 2750.913 496.898 2750.830 496.956 Q 2750.746 497.015 2750.402 496.582 Q 2750.057 496.148 2750.006 495.856 Q 2749.954 495.565 2749.942 495.353 Q 2749.930 495.141 2749.904 494.768 Q 2749.878 494.396 2750.168 494.124 Q 2750.458 493.852 2750.686 493.391 Q 2750.915 492.931 2755.379 492.200 Q 2759.844 491.469 2766.527 491.782 "></path>
    <path id="STROKE_c980eb56-d42d-4024-a775-cf5c5eb19b5c" opacity="1.000" fill="none" stroke="#45b046" stroke-width="1.416" stroke-opacity="1.000" stroke-linecap="round" stroke-linejoin="round" d="M 2768.873 501.411 Q 2768.897 501.606 2768.852 501.718 Q 2768.807 501.830 2769.019 502.402 Q 2769.231 502.975 2769.312 502.909 Q 2769.392 502.844 2769.405 502.909 Q 2769.417 502.974 2770.284 503.201 Q 2771.151 503.429 2773.253 502.709 Q 2775.356 501.989 2777.816 499.732 Q 2780.276 497.474 2781.719 495.600 Q 2783.162 493.725 2783.874 492.302 Q 2784.587 490.879 2784.640 490.293 Q 2784.693 489.707 2784.707 489.361 Q 2784.721 489.014 2784.105 488.634 Q 2783.490 488.255 2783.128 488.211 Q 2782.767 488.168 2782.191 488.169 Q 2781.616 488.170 2781.223 488.188 Q 2780.830 488.206 2780.022 488.685 Q 2779.214 489.164 2778.464 489.522 Q 2777.715 489.880 2775.874 492.023 Q 2774.033 494.166 2772.893 495.915 Q 2771.752 497.664 2771.452 499.057 Q 2771.152 500.451 2771.182 501.538 Q 2771.211 502.626 2772.173 503.518 Q 2773.135 504.409 2776.360 504.376 Q 2779.586 504.343 2781.760 504.396 Q 2783.935 504.449 2788.876 501.574 "></path>
    <path id="STROKE_33d3d4d0-6321-4c84-b429-4be2ece22daa" opacity="1.000" fill="none" stroke="#45b046" stroke-width="1.580" stroke-opacity="1.000" stroke-linecap="round" stroke-linejoin="round" d="M 2789.512 499.051 Q 2789.414 499.912 2789.887 500.289 Q 2790.360 500.666 2791.640 500.149 Q 2792.919 499.631 2794.469 498.103 Q 2796.019 496.574 2796.702 495.254 Q 2797.385 493.935 2797.606 493.107 Q 2797.827 492.280 2797.871 491.521 Q 2797.914 490.762 2797.743 490.399 Q 2797.573 490.036 2796.224 489.726 Q 2794.874 489.416 2792.807 491.449 Q 2790.739 493.482 2789.688 494.845 Q 2788.637 496.209 2788.162 497.804 Q 2787.688 499.399 2787.624 500.769 Q 2787.560 502.140 2788.552 503.484 Q 2789.544 504.827 2791.944 505.472 Q 2794.345 506.118 2796.685 505.964 Q 2799.025 505.810 2800.312 505.780 Q 2801.600 505.749 2804.433 503.705 Q 2807.265 501.660 2810.697 498.656 "></path>
    <path id="STROKE_482d3c72-cf0f-4e89-a36a-81d31f1fa30b" opacity="1.000" fill="none" stroke="#45b046" stroke-width="1.830" stroke-opacity="1.000" stroke-linecap="round" stroke-linejoin="round" d="M 2817.061 493.787 Q 2817.010 494.530 2814.865 495.045 Q 2812.719 495.560 2810.516 497.224 Q 2808.313 498.888 2806.784 500.451 Q 2805.254 502.014 2805.287 504.697 Q 2806.058 505.910 2809.796 503.610 Q 2813.534 501.310 2815.985 498.514 Q 2818.437 495.718 2819.616 494.161 Q 2820.795 492.605 2821.599 491.288 Q 2822.403 489.972 2824.071 487.191 Q 2825.740 484.410 2828.254 475.075 Q 2826.778 475.014 2824.671 478.976 Q 2822.564 482.938 2821.576 485.157 Q 2820.587 487.376 2819.688 489.663 Q 2818.788 491.949 2818.450 493.576 Q 2818.113 495.202 2818.045 496.463 Q 2817.977 497.724 2818.730 498.736 Q 2819.484 499.749 2820.190 500.094 Q 2820.896 500.439 2825.826 498.246 "></path>
    <path id="STROKE_f332acf1-630e-4c2f-9604-8b2c5e70be8a" opacity="1.000" fill="none" stroke="#45b046" stroke-width="1.812" stroke-opacity="1.000" stroke-linecap="round" stroke-linejoin="round" d="M 2841.919 469.211 Q 2841.920 469.210 2841.764 468.920 Q 2841.608 468.629 2840.880 471.428 Q 2840.152 474.226 2838.944 478.311 Q 2837.735 482.395 2832.355 501.806 Q 2832.598 502.161 2834.387 500.739 Q 2836.176 499.317 2839.183 498.189 Q 2842.190 497.061 2844.025 496.581 Q 2845.860 496.102 2847.776 495.891 Q 2849.692 495.680 2851.145 495.809 Q 2852.598 495.938 2853.369 496.441 Q 2854.139 496.944 2854.387 497.922 Q 2854.635 498.900 2854.083 499.952 Q 2853.531 501.005 2851.557 502.313 Q 2849.583 503.622 2845.182 504.062 Q 2840.780 504.501 2836.246 504.275 Q 2836.346 504.323 2843.120 503.006 "></path>
    <path id="STROKE_00e94b36-7799-4530-abf7-edde54714aa2" opacity="1.000" fill="none" stroke="#45b046" stroke-width="1.249" stroke-opacity="1.000" stroke-linecap="round" stroke-linejoin="round" d="M 2871.833 494.414 Q 2871.860 494.414 2871.942 494.414 L 2871.942 494.441 Q 2871.450 494.078 2869.009 495.245 Q 2866.568 496.413 2864.794 497.839 Q 2863.021 499.264 2862.250 502.120 Q 2862.235 502.492 2863.522 502.266 Q 2864.809 502.041 2866.543 500.654 Q 2868.277 499.267 2876.016 491.727 Q 2875.959 492.229 2874.378 494.630 Q 2872.797 497.031 2872.122 498.843 Q 2871.446 500.655 2871.346 501.514 Q 2871.246 502.372 2871.231 502.894 Q 2871.216 503.416 2871.746 503.718 Q 2872.275 504.021 2873.296 504.196 Q 2874.318 504.371 2879.107 499.910 "></path>
    <path id="STROKE_8966eaff-4748-419d-9c37-baf069cdb4c6" opacity="1.000" fill="none" stroke="#45b046" stroke-width="1.426" stroke-opacity="1.000" stroke-linecap="round" stroke-linejoin="round" d="M 2893.818 485.767 Q 2894.278 485.792 2893.624 485.693 Q 2892.969 485.594 2891.881 485.770 Q 2890.793 485.945 2889.412 487.337 Q 2888.031 488.728 2886.405 490.979 Q 2884.778 493.229 2883.933 494.571 Q 2883.088 495.913 2882.535 497.399 Q 2881.981 498.885 2881.910 500.213 Q 2881.840 501.542 2883.434 501.748 Q 2885.028 501.954 2887.211 501.280 Q 2889.393 500.607 2893.309 496.133 "></path>
    <path id="STROKE_19487780-7e54-42ac-9911-77e199a8d9d3" opacity="1.000" fill="none" stroke="#45b046" stroke-width="1.357" stroke-opacity="1.000" stroke-linecap="round" stroke-linejoin="round" d="M 2908.093 475.225 Q 2908.753 475.293 2909.293 475.102 Q 2909.293 475.075 2909.293 475.048 Q 2908.811 474.975 2908.750 475.006 Q 2908.690 475.037 2908.796 475.062 Q 2908.903 475.087 2908.497 475.089 Q 2908.092 475.091 2905.467 480.052 Q 2902.842 485.013 2901.255 488.505 Q 2899.669 491.996 2898.796 494.290 Q 2897.923 496.585 2898.010 499.488 Q 2898.350 499.681 2899.009 499.596 Q 2899.668 499.512 2900.671 498.933 Q 2901.673 498.354 2902.749 497.504 Q 2903.825 496.653 2905.347 495.476 Q 2906.869 494.298 2907.924 493.503 Q 2908.979 492.707 2910.666 492.928 Q 2910.799 493.397 2910.753 495.354 Q 2910.707 497.312 2910.569 499.074 Q 2910.432 500.836 2911.639 502.897 "></path>
    <path id="STROKE_1165b95f-6d19-4435-99f9-6095b3a102bb" opacity="1.000" fill="none" stroke="#7f7e7a" stroke-width="1.150" stroke-opacity="1.000" stroke-linecap="round" stroke-linejoin="round" d="M 2797.458 471.270 Q 2797.459 471.270 2797.601 471.270 Q 2797.742 471.270 2797.859 471.270 Q 2797.859 471.243 2797.859 471.215 Q 2797.973 471.275 2797.939 471.265 Q 2797.904 471.254 2797.303 470.987 Q 2796.702 470.720 2796.816 470.771 Q 2796.930 470.821 2796.685 470.641 Q 2796.441 470.460 2796.267 470.182 Q 2796.092 469.903 2793.618 466.544 Q 2791.144 463.186 2789.490 460.238 Q 2787.836 457.290 2787.196 455.712 Q 2786.556 454.134 2785.082 450.991 Q 2783.607 447.847 2782.126 444.000 Q 2780.645 440.153 2778.370 432.591 Q 2776.095 425.029 2774.792 419.793 Q 2773.489 414.556 2772.700 408.566 Q 2771.910 402.575 2771.480 399.128 Q 2771.049 395.681 2771.373 391.158 Q 2771.546 391.847 2771.691 392.563 "></path>
    <path id="STROKE_4800d4b7-f72e-4651-a988-d13e78987e8e" opacity="1.000" fill="none" stroke="#7f7e7a" stroke-width="1.151" stroke-opacity="1.000" stroke-linecap="round" stroke-linejoin="round" d="M 2770.018 395.932 Q 2770.019 395.932 2769.991 395.807 Q 2769.964 395.683 2769.572 395.593 Q 2769.180 395.502 2768.911 395.533 Q 2768.642 395.564 2768.277 395.895 Q 2767.913 396.225 2766.817 397.688 Q 2765.722 399.151 2764.423 401.058 Q 2763.123 402.964 2761.700 405.076 Q 2760.277 407.188 2757.171 408.315 Q 2757.068 408.186 2756.959 407.600 Q 2756.851 407.014 2756.952 407.131 Q 2757.054 407.247 2756.882 407.023 Q 2756.711 406.800 2757.263 404.569 Q 2757.814 402.337 2759.734 399.642 Q 2761.653 396.948 2763.994 394.888 Q 2766.335 392.828 2768.274 391.732 Q 2770.214 390.637 2772.057 390.296 Q 2773.900 389.955 2775.121 390.150 Q 2776.341 390.344 2777.375 391.434 Q 2778.409 392.523 2779.138 393.503 Q 2779.866 394.482 2782.748 401.660 "></path>
    <path id="STROKE_3aaee96c-0131-4ecc-9c92-ac99af7b8e6c" opacity="1.000" fill="none" stroke="#7f7e7a" stroke-width="0.695" stroke-opacity="1.000" stroke-linecap="round" stroke-linejoin="round" d="M 2810.297 431.337 Q 2810.297 431.337 2810.292 431.753 Q 2810.288 432.169 2810.270 431.882 Q 2809.853 432.293 2809.924 432.223 Q 2809.444 432.741 2809.296 434.512 Q 2809.148 436.284 2809.172 437.059 Q 2809.195 437.834 2809.816 438.714 Q 2810.436 439.594 2811.423 439.742 Q 2812.410 439.890 2812.911 439.392 Q 2813.412 438.895 2813.669 437.381 Q 2813.926 435.867 2813.803 434.609 Q 2813.679 433.351 2812.526 432.701 Q 2811.373 432.051 2810.545 432.005 Q 2809.717 431.958 2809.082 432.098 Q 2808.446 432.239 2808.642 436.042 "></path>
    <path id="STROKE_1d3828f7-ccec-4f0d-b1fe-3d574a957fc7" opacity="1.000" fill="none" stroke="#7f7e7a" stroke-width="0.578" stroke-opacity="1.000" stroke-linecap="round" stroke-linejoin="round" d="M 2811.442 420.344 Q 2811.497 420.344 2811.843 420.344 Q 2811.275 420.324 2811.415 420.426 Q 2811.386 420.543 2811.304 421.291 Q 2811.223 422.039 2811.472 423.094 Q 2811.722 424.148 2812.492 424.273 Q 2813.263 424.398 2814.181 424.543 Q 2815.100 424.688 2815.485 423.594 Q 2815.870 422.501 2815.812 421.290 Q 2815.754 420.078 2815.388 419.520 Q 2815.021 418.963 2814.199 418.556 Q 2813.376 418.149 2812.188 418.333 Q 2811.987 419.028 2811.679 421.313 "></path>
    <path id="STROKE_3450a3bf-decc-416b-af68-fd90d2a10f35" opacity="1.000" fill="none" stroke="#7f7e7a" stroke-width="0.521" stroke-opacity="1.000" stroke-linecap="round" stroke-linejoin="round" d="M 2816.771 409.052 Q 2816.771 409.052 2816.912 409.563 Q 2817.052 410.074 2816.986 409.507 Q 2816.920 408.941 2816.052 413.157 Q 2816.908 414.148 2816.171 409.168 Q 2815.452 409.250 2814.771 409.393 "></path>
    <path id="STROKE_2c2295dc-9f69-4a9a-9589-af6ddf38d96d" opacity="1.000" fill="none" stroke="#7f7e7a" stroke-width="0.527" stroke-opacity="1.000" stroke-linecap="round" stroke-linejoin="round" d="M 2817.916 406.420 Q 2818.181 406.705 2817.600 407.347 Q 2817.019 407.988 2814.989 408.629 Q 2814.663 408.963 2816.080 409.303 Q 2817.497 409.642 2818.491 409.552 Q 2819.485 409.461 2819.944 409.293 Q 2820.402 409.125 2820.583 408.628 Q 2820.763 408.132 2820.876 407.287 Q 2820.990 406.442 2820.135 405.542 Q 2819.281 404.642 2817.944 404.128 Q 2817.716 404.585 2817.571 405.042 "></path>
    <path id="STROKE_d9b30c8a-e5a8-4c5a-9afa-144a28c14f49" opacity="1.000" fill="none" stroke="#7f7e7a" stroke-width="1.064" stroke-opacity="1.000" stroke-linecap="round" stroke-linejoin="round" d="M 2843.865 380.520 Q 2843.865 380.520 2843.865 380.828 Q 2843.865 381.136 2843.865 379.088 Q 2842.778 379.165 2843.011 379.238 Q 2842.418 379.209 2841.021 381.926 Q 2839.624 384.643 2838.869 386.737 Q 2838.114 388.831 2837.979 390.911 Q 2837.845 392.991 2837.794 394.310 Q 2837.743 395.628 2838.413 397.275 Q 2839.082 398.922 2840.545 400.047 Q 2842.008 401.171 2843.500 401.338 Q 2844.992 401.505 2846.512 401.049 Q 2848.031 400.592 2849.594 398.796 "></path>
    <path id="STROKE_9d12b082-c465-4aaf-99a1-dd6e6652acf6" opacity="1.000" fill="none" stroke="#7f7e7a" stroke-width="0.995" stroke-opacity="1.000" stroke-linecap="round" stroke-linejoin="round" d="M 2836.428 386.085 Q 2835.417 386.085 2835.710 386.085 Q 2834.610 386.085 2834.964 386.085 Q 2834.792 386.085 2834.301 386.085 Q 2834.511 386.814 2837.805 386.970 Q 2841.099 387.125 2843.526 387.077 Q 2845.953 387.030 2849.375 385.567 "></path>
    <path id="STROKE_04d39787-b846-416f-bbdd-8a625b243435" opacity="1.000" fill="none" stroke="#7f7e7a" stroke-width="1.415" stroke-opacity="1.000" stroke-linecap="round" stroke-linejoin="round" d="M 2859.395 374.738 Q 2859.438 375.192 2859.313 373.047 Q 2858.909 373.879 2858.771 375.319 Q 2858.633 376.758 2858.061 379.717 Q 2857.489 382.676 2856.629 386.013 Q 2855.770 389.351 2853.958 396.914 Q 2854.407 396.749 2856.295 395.519 Q 2858.182 394.288 2859.818 393.993 Q 2861.455 393.698 2862.371 393.722 Q 2863.287 393.745 2864.052 393.894 Q 2864.817 394.044 2865.551 399.948 Q 2866.443 399.864 2866.432 399.723 "></path>
    <path id="STROKE_38ebdce6-f2d4-4a0c-8aa5-75be5089a8a4" opacity="1.000" fill="none" stroke="#7f7e7a" stroke-width="1.008" stroke-opacity="1.000" stroke-linecap="round" stroke-linejoin="round" d="M 2879.507 390.326 Q 2878.958 390.250 2875.670 391.267 L 2875.670 391.295 Q 2875.889 391.295 2876.288 391.213 Q 2876.354 390.899 2876.343 390.926 L 2876.343 390.899 Q 2876.750 390.589 2875.125 393.244 Q 2873.501 395.900 2872.949 398.259 Q 2872.396 400.618 2872.276 401.679 Q 2872.156 402.740 2872.394 403.919 Q 2872.632 405.098 2873.741 405.332 Q 2874.850 405.567 2875.329 405.652 Q 2875.808 405.737 2877.076 405.405 Q 2878.344 405.073 2879.940 403.459 Q 2881.536 401.844 2882.430 400.000 Q 2883.323 398.155 2883.606 396.114 Q 2883.890 394.073 2883.647 392.484 Q 2883.405 390.895 2882.453 390.007 Q 2881.501 389.120 2880.894 389.171 Q 2880.286 389.223 2879.881 389.448 Q 2879.476 389.672 2879.202 390.132 Q 2878.929 390.591 2877.725 395.018 "></path>
    <path id="STROKE_cd2e3a8a-2fa9-424a-8221-fb9fe7ed04d1" opacity="1.000" fill="none" stroke="#7f7e7a" stroke-width="0.882" stroke-opacity="1.000" stroke-linecap="round" stroke-linejoin="round" d="M 2894.291 392.495 Q 2894.291 392.495 2894.305 392.495 Q 2894.318 392.495 2894.400 392.331 Q 2893.625 392.432 2893.709 392.638 Q 2893.676 392.731 2893.738 392.636 Q 2893.799 392.542 2893.167 393.206 Q 2892.534 393.870 2892.018 397.336 Q 2891.952 397.769 2894.445 397.045 Q 2896.938 396.321 2898.701 395.840 Q 2900.464 395.358 2901.468 395.587 Q 2902.472 395.815 2902.897 396.402 Q 2903.323 396.989 2903.540 397.772 Q 2903.757 398.555 2903.890 400.403 Q 2904.022 402.250 2904.911 404.353 Q 2905.829 404.067 2906.602 403.610 "></path>
    <path id="STROKE_a0b51ea5-f43d-4c83-ba47-d2ccc7bee17c" opacity="1.000" fill="none" stroke="#7f7e7a" stroke-width="1.609" stroke-opacity="1.000" stroke-linecap="round" stroke-linejoin="round" d="M 2918.694 397.487 Q 2917.982 397.490 2915.181 398.993 Q 2912.379 400.495 2910.148 403.815 Q 2910.952 404.625 2914.637 401.031 Q 2918.322 397.437 2922.159 393.818 Q 2922.873 393.845 2920.698 398.938 Q 2918.523 404.032 2916.651 407.342 Q 2914.780 410.652 2913.302 412.668 Q 2911.825 414.683 2908.684 415.387 Q 2908.652 414.514 2908.668 414.561 Q 2908.685 414.609 2908.608 414.476 Q 2908.531 414.343 2909.454 413.281 Q 2910.377 412.218 2915.004 408.639 Q 2919.631 405.060 2925.514 399.723 "></path>
    <path id="STROKE_6c11a1e4-a962-4748-bd81-60477c3786c9" opacity="1.000" fill="none" stroke="#7f7e7a" stroke-width="1.634" stroke-opacity="1.000" stroke-linecap="round" stroke-linejoin="round" d="M 2935.642 383.453 Q 2935.649 382.362 2935.637 382.785 Q 2935.625 383.208 2935.697 381.448 Q 2935.586 382.491 2933.676 388.272 Q 2931.766 394.053 2930.462 398.031 Q 2929.158 402.008 2929.060 405.165 Q 2929.944 405.605 2932.365 403.783 Q 2934.787 401.961 2936.747 401.078 Q 2938.708 400.195 2939.658 400.012 Q 2940.608 399.829 2941.760 400.073 Q 2942.912 400.316 2943.753 406.474 L 2944.071 406.563 Q 2944.741 405.889 2945.262 405.097 "></path>
    <path id="STROKE_5d2c8e65-13ab-4823-a92b-49fc90678531" opacity="1.000" fill="none" stroke="#7f7e7a" stroke-width="1.323" stroke-opacity="1.000" stroke-linecap="round" stroke-linejoin="round" d="M 2962.973 384.885 Q 2962.957 385.111 2963.537 384.476 Q 2962.458 384.029 2960.436 387.552 Q 2958.414 391.076 2957.486 394.014 Q 2956.559 396.951 2956.410 398.620 Q 2956.261 400.289 2956.166 401.852 Q 2956.070 403.416 2956.329 404.633 Q 2956.589 405.851 2958.591 406.365 Q 2958.914 405.763 2960.173 401.551 "></path>
    <path id="STROKE_289dce60-c259-4938-b49f-877d017ad1b7" opacity="1.000" fill="none" stroke="#7f7e7a" stroke-width="0.877" stroke-opacity="1.000" stroke-linecap="round" stroke-linejoin="round" d="M 2959.009 394.568 Q 2958.991 394.671 2959.686 394.193 Q 2960.381 393.716 2961.132 393.437 Q 2961.884 393.158 2963.614 393.300 Q 2965.344 393.442 2973.339 395.714 "></path>
    <path id="STROKE_f6d49b35-f0e5-4243-b148-f64b3efbfeee" opacity="1.000" fill="none" stroke="#7f7e7a" stroke-width="1.473" stroke-opacity="1.000" stroke-linecap="round" stroke-linejoin="round" d="M 2985.995 389.808 Q 2986.079 389.415 2986.050 389.031 Q 2984.346 388.517 2981.650 393.940 Q 2978.954 399.362 2977.719 402.356 Q 2976.484 405.349 2975.755 406.956 Q 2975.026 408.564 2973.687 410.137 Q 2972.348 411.710 2966.756 413.184 "></path>
    <path id="STROKE_a99df635-631a-4f2e-a45f-36b27c470b5e" opacity="1.000" fill="none" stroke="#7f7e7a" stroke-width="2.007" stroke-opacity="1.000" stroke-linecap="round" stroke-linejoin="round" d="M 2844.447 363.568 Q 2844.236 364.223 2843.745 364.574 Q 2843.255 364.925 2842.876 365.197 Q 2842.497 365.469 2842.348 365.572 Q 2842.198 365.675 2842.283 365.675 Q 2842.368 365.675 2841.924 365.893 Q 2841.481 366.111 2838.664 368.918 Q 2835.846 371.725 2834.027 374.414 Q 2832.208 377.103 2830.519 380.264 Q 2828.831 383.425 2827.700 388.600 Q 2826.570 393.774 2826.241 396.619 Q 2825.912 399.463 2825.761 401.795 Q 2825.611 404.128 2825.994 406.385 Q 2826.378 408.643 2828.249 412.017 Q 2830.121 415.392 2831.983 417.796 Q 2833.845 420.199 2838.403 423.380 Q 2842.960 426.561 2847.440 428.937 Q 2851.921 431.312 2859.239 433.579 Q 2866.557 435.846 2870.760 437.153 Q 2874.963 438.460 2877.383 439.264 Q 2879.802 440.068 2883.752 440.729 Q 2887.702 441.390 2889.898 441.721 Q 2892.094 442.051 2897.399 442.515 Q 2902.705 442.979 2905.361 443.067 Q 2908.018 443.156 2912.604 443.475 Q 2917.189 443.794 2922.772 443.382 Q 2928.356 442.970 2931.374 442.465 Q 2934.392 441.961 2939.276 440.962 Q 2944.160 439.963 2947.708 438.858 Q 2951.255 437.754 2955.173 436.282 Q 2959.091 434.810 2961.379 433.453 Q 2963.667 432.096 2967.559 429.056 Q 2971.451 426.016 2973.481 424.334 Q 2975.510 422.653 2977.170 421.176 Q 2978.830 419.700 2981.085 417.793 Q 2983.340 415.886 2985.549 414.378 Q 2987.758 412.870 2990.290 410.704 Q 2992.822 408.538 2994.268 406.369 Q 2995.714 404.199 2997.838 401.069 Q 2999.961 397.939 3001.004 396.215 Q 3002.046 394.490 3002.387 393.564 Q 3002.727 392.637 3003.061 390.549 Q 3003.394 388.460 3003.055 386.153 Q 3002.715 383.847 3002.096 382.097 Q 3001.476 380.348 3000.066 378.323 Q 2998.655 376.298 2997.176 374.726 Q 2995.697 373.153 2993.573 371.439 Q 2991.450 369.725 2988.299 367.850 Q 2985.149 365.976 2982.829 364.811 Q 2980.509 363.647 2976.244 361.399 Q 2971.978 359.150 2967.856 357.433 Q 2963.734 355.716 2960.463 354.554 Q 2957.193 353.391 2944.713 352.284 Q 2932.233 351.176 2922.191 350.759 Q 2912.148 350.342 2906.653 350.375 Q 2901.157 350.408 2896.863 350.423 Q 2892.568 350.437 2888.695 350.423 Q 2884.822 350.408 2879.472 350.417 Q 2874.122 350.426 2870.306 350.586 Q 2866.490 350.746 2862.369 351.895 Q 2858.248 353.044 2856.147 353.897 Q 2854.046 354.749 2852.236 355.877 Q 2850.426 357.005 2849.150 358.742 Q 2847.875 360.479 2849.430 364.768 "></path>
    <path id="STROKE_4361c30a-013d-41fc-b053-a8bea57da5fc" opacity="1.000" fill="none" stroke="#7f7e7a" stroke-width="1.631" stroke-opacity="1.000" stroke-linecap="round" stroke-linejoin="round" d="M 2673.659 373.360 Q 2673.265 373.568 2672.162 373.749 Q 2671.059 373.929 2669.552 373.889 Q 2668.046 373.848 2665.720 372.305 Q 2663.395 370.762 2660.340 368.910 Q 2657.285 367.057 2654.350 365.568 Q 2651.414 364.080 2649.685 362.650 Q 2647.955 361.220 2647.088 360.197 Q 2646.221 359.175 2645.879 358.479 Q 2645.538 357.783 2645.321 357.461 Q 2645.105 357.140 2643.933 354.068 Q 2642.760 350.997 2642.081 345.654 Q 2641.402 340.311 2641.422 335.413 Q 2641.441 330.515 2642.446 325.085 Q 2643.450 319.655 2644.988 315.023 Q 2646.526 310.390 2648.478 306.781 Q 2650.429 303.172 2652.117 300.651 Q 2653.804 298.130 2655.907 295.861 Q 2658.010 293.593 2659.210 292.425 Q 2660.411 291.258 2662.552 289.747 Q 2664.693 288.235 2668.591 287.289 Q 2672.489 286.342 2676.961 286.112 Q 2681.433 285.882 2686.367 286.687 Q 2691.302 287.492 2694.373 288.120 Q 2697.443 288.747 2700.379 290.058 Q 2703.315 291.368 2705.664 292.984 Q 2708.013 294.600 2710.190 296.249 Q 2712.367 297.899 2714.991 300.409 Q 2717.615 302.919 2719.165 304.450 Q 2720.715 305.982 2723.292 310.901 Q 2725.869 315.820 2730.122 329.881 Q 2730.531 329.363 2730.849 328.790 "></path>
    <path id="STROKE_f4c0cc4b-9cbe-429e-99e0-b451b64caa0a" opacity="1.000" fill="none" stroke="#7f7e7a" stroke-width="1.384" stroke-opacity="1.000" stroke-linecap="round" stroke-linejoin="round" d="M 2730.613 332.800 Q 2730.613 332.800 2730.014 332.621 Q 2729.415 332.442 2729.854 332.232 Q 2730.293 332.021 2725.597 331.744 Q 2720.901 331.467 2718.399 331.521 Q 2715.898 331.575 2714.211 331.544 Q 2712.524 331.513 2709.755 331.832 Q 2709.585 332.388 2711.729 333.033 Q 2713.873 333.678 2715.305 333.755 Q 2716.736 333.832 2717.371 333.736 Q 2718.006 333.640 2719.155 333.319 Q 2720.305 332.998 2723.544 330.815 Q 2726.783 328.633 2728.299 327.392 Q 2729.816 326.151 2732.143 324.196 Q 2734.471 322.241 2737.228 319.945 Q 2739.986 317.650 2745.960 310.010 "></path>
    <path id="STROKE_b223c35b-d71f-4774-807c-e5fcfb8850a4" opacity="1.000" fill="none" stroke="#f8c577" stroke-width="0.554" stroke-opacity="1.000" stroke-linecap="round" stroke-linejoin="round" d="M 2675.647 336.473 Q 2675.648 336.473 2675.641 336.282 Q 2675.635 336.092 2675.573 336.125 Q 2675.653 336.098 2674.099 332.358 Q 2672.544 328.618 2671.545 326.590 Q 2670.545 324.563 2670.020 323.232 Q 2669.496 321.900 2668.816 319.413 Q 2668.136 316.925 2667.874 315.644 Q 2667.613 314.362 2667.528 313.474 Q 2667.443 312.586 2668.000 311.589 Q 2668.557 310.593 2669.236 309.743 Q 2669.914 308.894 2670.356 308.370 Q 2670.798 307.846 2670.922 307.709 Q 2671.046 307.573 2671.230 307.367 Q 2671.415 307.160 2671.558 307.011 Q 2671.700 306.862 2671.602 306.966 Q 2671.504 307.069 2672.062 306.545 Q 2672.620 306.022 2673.044 305.828 Q 2673.467 305.633 2673.653 305.550 Q 2673.838 305.466 2673.850 305.491 Q 2673.862 305.516 2673.775 305.499 Q 2673.689 305.481 2674.894 305.225 Q 2676.099 304.969 2677.209 304.985 Q 2678.320 305.001 2678.891 305.150 Q 2679.461 305.299 2679.596 305.400 Q 2679.732 305.502 2679.593 305.480 Q 2679.453 305.457 2679.953 305.548 Q 2680.452 305.638 2681.702 306.382 Q 2682.951 307.127 2683.466 307.650 Q 2683.980 308.173 2684.205 308.536 Q 2684.431 308.899 2684.528 309.054 Q 2684.626 309.209 2684.670 309.302 Q 2684.714 309.395 2684.680 309.310 Q 2684.647 309.225 2684.819 309.559 Q 2684.991 309.893 2685.122 310.215 Q 2685.253 310.536 2685.317 310.701 Q 2685.382 310.865 2685.369 310.858 Q 2685.357 310.850 2685.349 310.803 Q 2685.341 310.755 2685.964 312.374 Q 2686.587 313.993 2686.994 315.296 Q 2687.400 316.599 2687.550 317.036 Q 2687.699 317.473 2687.729 317.605 Q 2687.758 317.738 2687.804 318.269 Q 2687.850 318.801 2687.874 319.029 Q 2687.897 319.257 2687.869 319.097 Q 2687.869 319.875 2687.869 319.861 Q 2687.869 319.846 2687.869 319.823 Q 2687.869 320.437 2687.869 320.426 Q 2687.657 321.229 2687.679 321.078 Q 2687.672 321.072 2687.705 321.003 Q 2687.738 320.933 2687.546 321.442 Q 2687.355 321.950 2687.227 322.186 Q 2687.098 322.423 2686.916 322.774 Q 2686.734 323.126 2686.722 323.125 Q 2686.709 323.124 2686.703 323.156 Q 2686.697 323.189 2686.709 323.156 Q 2686.721 323.122 2686.703 323.180 Q 2686.685 323.239 2686.403 323.762 Q 2686.121 324.286 2685.314 326.258 Q 2684.508 328.229 2683.945 330.213 Q 2685.080 329.520 2684.854 329.645 Q 2684.629 329.770 2686.346 327.654 "></path>
    <path id="STROKE_e8a3da84-5e73-44f1-8fa5-23b6ff3d2fc4" opacity="1.000" fill="none" stroke="#f8c577" stroke-width="0.552" stroke-opacity="1.000" stroke-linecap="round" stroke-linejoin="round" d="M 2686.611 327.654 Q 2686.611 327.654 2686.320 327.606 Q 2686.029 327.558 2686.122 327.542 Q 2686.025 327.537 2685.678 327.477 Q 2685.330 327.416 2685.380 327.421 Q 2685.430 327.426 2685.418 327.393 Q 2685.385 327.393 2684.913 327.418 Q 2684.685 327.815 2683.630 333.467 Q 2683.870 333.051 2684.110 332.610 "></path>
    <path id="STROKE_68ee3425-13d2-4ae5-ac37-1e6096ca22b0" opacity="1.000" fill="none" stroke="#f8c577" stroke-width="0.609" stroke-opacity="1.000" stroke-linecap="round" stroke-linejoin="round" d="M 2683.696 327.393 Q 2684.000 327.851 2684.023 327.883 Q 2684.046 327.914 2683.994 327.915 Q 2684.327 328.341 2682.752 335.169 L 2682.777 335.169 Q 2683.114 334.005 2683.481 332.610 "></path>
    <path id="STROKE_7e69cf0d-655a-4049-969a-49ae94034797" opacity="1.000" fill="none" stroke="#f8c577" stroke-width="0.660" stroke-opacity="1.000" stroke-linecap="round" stroke-linejoin="round" d="M 2676.757 333.914 Q 2676.757 333.914 2676.777 333.981 Q 2676.796 334.047 2676.611 334.291 Q 2676.427 334.535 2676.477 334.556 Q 2676.527 334.577 2676.504 334.536 Q 2676.482 334.495 2676.991 334.892 Q 2677.501 335.288 2677.823 335.390 Q 2678.145 335.491 2678.204 335.464 Q 2678.264 335.437 2678.486 335.458 Q 2678.708 335.480 2680.347 335.764 Q 2681.986 336.048 2684.740 332.759 "></path>
    <path id="STROKE_0fc0c929-41dd-47d3-9627-23b6b938927a" opacity="1.000" fill="none" stroke="#f8c577" stroke-width="0.521" stroke-opacity="1.000" stroke-linecap="round" stroke-linejoin="round" d="M 2674.505 340.857 Q 2674.505 340.857 2674.505 341.255 Q 2674.505 341.654 2674.505 341.453 Q 2674.505 341.503 2674.580 342.161 Q 2675.114 342.328 2675.148 342.341 Q 2675.183 342.354 2675.134 342.310 Q 2675.620 342.437 2676.178 339.752 "></path>
    <path id="STROKE_ec4d2a23-e4cf-42ae-8d94-821b4fbe22de" opacity="1.000" fill="none" stroke="#f8c577" stroke-width="0.521" stroke-opacity="1.000" stroke-linecap="round" stroke-linejoin="round" d="M 2676.442 339.392 Q 2676.443 339.391 2676.430 339.391 Q 2676.418 339.391 2676.178 339.391 Q 2676.198 340.270 2676.227 340.013 Q 2676.323 340.723 2678.037 341.106 Q 2679.751 341.489 2680.873 341.508 Q 2681.994 341.527 2682.752 340.273 "></path>
    <path id="STROKE_67e28978-33e9-4c3b-847f-d2051f88939c" opacity="1.000" fill="none" stroke="#f8c577" stroke-width="0.521" stroke-opacity="1.000" stroke-linecap="round" stroke-linejoin="round" d="M 2677.999 345.552 Q 2678.000 346.417 2677.999 346.198 Q 2677.794 347.314 2678.559 347.712 Q 2679.323 348.110 2679.886 348.077 Q 2680.449 348.045 2680.809 348.039 Q 2681.168 348.034 2681.380 347.922 Q 2681.592 347.809 2682.363 347.502 Q 2682.363 347.372 2682.289 347.266 "></path>
    <path id="STROKE_8a32ff4d-39a0-4e2d-a200-55975d1338c1" opacity="1.000" fill="none" stroke="#f8c577" stroke-width="0.588" stroke-opacity="1.000" stroke-linecap="round" stroke-linejoin="round" d="M 2678.728 349.514 Q 2678.679 349.480 2678.624 349.505 Q 2678.568 349.530 2678.583 349.523 Q 2678.597 349.517 2678.669 349.484 Q 2678.741 349.451 2677.685 349.800 Q 2677.874 350.296 2677.999 350.191 Q 2678.736 350.447 2678.711 350.421 Q 2679.123 350.474 2680.041 350.713 Q 2680.958 350.952 2684.259 347.527 "></path>
    <path id="STROKE_345c7e57-8046-4754-bcd4-4a2692b36833" opacity="1.000" fill="none" stroke="#f8c577" stroke-width="0.607" stroke-opacity="1.000" stroke-linecap="round" stroke-linejoin="round" d="M 2661.041 309.595 Q 2660.194 309.625 2658.135 307.462 Q 2656.077 305.299 2655.072 302.062 Q 2655.579 301.975 2658.756 301.770 "></path>
    <path id="STROKE_8e9d690b-1650-4012-8c55-66268aaca544" opacity="1.000" fill="none" stroke="#f8c577" stroke-width="0.811" stroke-opacity="1.000" stroke-linecap="round" stroke-linejoin="round" d="M 2670.232 303.075 Q 2670.232 303.075 2670.372 303.065 Q 2670.511 303.056 2669.596 300.211 Q 2668.681 297.367 2667.417 292.927 Q 2667.914 293.269 2668.411 293.635 "></path>
    <path id="STROKE_a648d3e0-eb73-460b-967f-5497181744b5" opacity="1.000" fill="none" stroke="#f8c577" stroke-width="0.803" stroke-opacity="1.000" stroke-linecap="round" stroke-linejoin="round" d="M 2677.171 300.106 Q 2677.171 300.106 2677.197 300.186 Q 2677.223 300.265 2677.137 300.194 Q 2677.051 300.124 2677.092 300.172 Q 2677.132 300.221 2677.144 300.214 Q 2677.156 300.208 2676.882 299.820 Q 2676.609 299.432 2676.817 298.695 Q 2677.025 297.957 2677.612 297.196 Q 2678.198 296.435 2679.420 294.987 Q 2680.643 293.539 2683.945 291.598 "></path>
    <path id="STROKE_37425436-6aa4-42c4-a76a-73e9dfc070e8" opacity="1.000" fill="none" stroke="#f8c577" stroke-width="0.753" stroke-opacity="1.000" stroke-linecap="round" stroke-linejoin="round" d="M 2687.438 301.410 Q 2687.351 301.093 2689.250 299.416 Q 2691.148 297.739 2692.418 296.956 Q 2693.689 296.173 2696.729 295.560 "></path>
    <path id="STROKE_4f669a66-f845-4d77-af13-77e94bc6aab1" opacity="1.000" fill="none" stroke="#f8c577" stroke-width="0.532" stroke-opacity="1.000" stroke-linecap="round" stroke-linejoin="round" d="M 2665.016 319.879 Q 2665.016 319.741 2657.390 318.674 Q 2657.522 318.805 2657.762 318.935 "></path>
    <path id="STROKE_a9d31983-3c08-4c06-87d8-cc5f9438b45c" opacity="1.000" fill="none" stroke="#f8c577" stroke-width="0.824" stroke-opacity="1.000" stroke-linecap="round" stroke-linejoin="round" d="M 2690.055 309.235 Q 2690.279 309.235 2691.295 307.106 Q 2692.311 304.977 2701.846 300.677 "></path>
    <path id="STROKE_5e7fa62c-835b-4f12-907e-1a32229906d5" opacity="1.000" fill="none" stroke="#f8c577" stroke-width="0.831" stroke-opacity="1.000" stroke-linecap="round" stroke-linejoin="round" d="M 2691.314 318.053 Q 2691.314 317.425 2691.314 317.581 Q 2691.604 316.634 2691.495 316.838 Q 2691.385 317.042 2691.742 316.667 Q 2692.099 316.291 2693.288 315.884 Q 2694.477 315.477 2699.031 314.762 "></path>
    <path id="STROKE_7011cb95-bfcd-4cae-8320-b4628bc6983b" opacity="1.000" fill="none" stroke="#45b046" stroke-width="0.633" stroke-opacity="1.000" stroke-linecap="round" stroke-linejoin="round" d="M 3124.650 422.868 Q 3124.609 422.877 3124.861 422.426 Q 3125.112 421.975 3125.089 420.831 Q 3124.906 420.656 3124.844 420.746 Q 3124.782 420.836 3124.837 420.761 Q 3124.892 420.686 3124.697 420.892 Q 3124.502 421.098 3124.274 421.365 Q 3124.046 421.632 3124.143 421.645 Q 3124.240 421.658 3124.076 421.543 Q 3123.913 421.427 3123.840 423.413 Q 3123.768 425.399 3123.800 426.817 Q 3123.833 428.235 3123.694 429.092 Q 3123.555 429.949 3123.495 430.224 Q 3123.434 430.498 3123.385 430.820 Q 3123.336 431.141 3123.316 431.157 Q 3123.297 431.173 3123.356 431.117 Q 3123.415 431.060 3123.123 432.597 Q 3122.830 434.134 3122.539 435.058 Q 3122.247 435.982 3122.154 436.209 Q 3122.062 436.437 3121.994 436.657 Q 3121.926 436.877 3121.795 437.229 Q 3121.665 437.582 3121.639 437.699 Q 3121.614 437.816 3121.443 438.345 Q 3121.272 438.874 3120.969 439.972 Q 3120.666 441.070 3120.589 441.373 Q 3120.512 441.676 3120.203 442.636 Q 3119.894 443.595 3118.804 448.852 Q 3118.068 448.287 3122.199 437.214 "></path>
    <path id="STROKE_9e8dc80b-a5b4-40e7-b49f-4125524022e5" opacity="1.000" fill="none" stroke="#45b046" stroke-width="0.820" stroke-opacity="1.000" stroke-linecap="round" stroke-linejoin="round" d="M 3124.070 425.626 Q 3124.070 425.626 3124.087 425.717 Q 3124.103 425.807 3124.022 425.238 Q 3123.941 424.670 3123.921 423.489 Q 3123.776 424.002 3122.309 429.524 Q 3120.841 435.046 3118.539 443.834 Q 3118.756 443.850 3119.409 440.855 Q 3120.062 437.860 3120.984 435.084 Q 3121.906 432.308 3122.771 428.416 Q 3123.635 424.523 3125.577 420.049 Q 3125.508 419.873 3125.659 420.435 Q 3125.810 420.997 3125.170 423.350 Q 3124.529 425.702 3123.210 430.177 Q 3121.890 434.651 3121.252 436.844 Q 3120.614 439.037 3120.181 440.403 Q 3119.749 441.769 3119.218 446.293 Q 3119.057 446.435 3119.448 442.675 Q 3119.840 438.915 3120.805 435.830 Q 3121.771 432.745 3123.466 429.016 L 3123.491 429.016 Q 3123.620 429.898 3123.347 431.682 Q 3123.075 433.466 3122.576 435.309 Q 3122.077 437.152 3120.995 440.648 Q 3119.914 444.143 3119.066 446.431 Q 3118.218 448.719 3117.546 451.137 Q 3117.548 450.728 3117.576 450.719 Q 3117.604 450.709 3117.705 450.277 Q 3117.805 449.845 3117.875 449.428 Q 3117.944 449.011 3117.926 449.133 Q 3117.908 449.256 3117.941 449.118 Q 3117.975 448.980 3118.002 448.847 Q 3118.030 448.715 3118.114 448.302 Q 3118.197 447.889 3118.406 447.524 Q 3118.615 447.159 3121.181 437.835 Q 3121.206 437.835 3121.230 437.835 Q 3121.280 437.940 3120.891 439.449 "></path>
    <path id="STROKE_4acf0e32-7cd0-4902-8705-44ca30881d79" opacity="1.000" fill="none" stroke="#45b046" stroke-width="0.743" stroke-opacity="1.000" stroke-linecap="round" stroke-linejoin="round" d="M 3126.471 426.359 Q 3126.472 426.358 3126.383 426.310 Q 3126.294 426.262 3126.146 426.057 Q 3125.999 425.853 3125.905 425.692 Q 3125.812 425.532 3125.738 425.075 Q 3125.664 424.617 3125.681 424.864 Q 3125.698 425.110 3125.718 423.676 Q 3125.768 423.651 3125.892 423.651 Q 3125.892 424.411 3125.892 424.386 Q 3125.892 424.361 3125.886 424.714 Q 3125.880 425.066 3125.890 425.186 Q 3125.900 425.306 3125.890 425.899 Q 3125.879 426.491 3124.404 430.313 Q 3122.929 434.136 3121.799 436.950 Q 3120.669 439.765 3119.847 451.982 Q 3119.744 452.087 3120.526 450.255 "></path>
    <path id="STROKE_5048a66c-56fb-4d2a-a041-c9c5f6c219d0" opacity="1.000" fill="none" stroke="#48d1ec" stroke-width="0.824" stroke-opacity="1.000" stroke-linecap="round" stroke-linejoin="round" d="M 2998.592 192.000 Q 2998.592 192.000 2998.538 192.100 Q 2998.484 192.201 2998.521 192.040 Q 2998.557 191.879 2998.480 192.254 Q 2998.405 192.628 2998.392 193.404 Q 2998.380 194.179 2998.383 194.602 Q 2998.386 195.025 2998.428 196.075 Q 2998.470 197.124 2998.011 199.774 Q 2997.553 202.423 2996.748 206.993 Q 2995.942 211.564 2995.663 215.327 Q 2995.383 219.090 2995.727 222.554 Q 2995.717 222.640 2995.823 222.627 Q 2995.930 222.613 2996.173 222.492 Q 2996.416 222.371 2996.581 222.179 Q 2996.746 221.987 2996.894 221.605 Q 2997.042 221.224 2997.665 219.709 "></path>
    <path id="STROKE_31907661-f126-4a74-8997-439d6e97585f" opacity="1.000" fill="none" stroke="#48d1ec" stroke-width="0.921" stroke-opacity="1.000" stroke-linecap="round" stroke-linejoin="round" d="M 2999.122 190.907 Q 2999.122 190.907 2999.086 191.004 Q 2999.050 191.102 2999.271 190.236 Q 2999.228 190.047 2999.656 190.161 Q 3000.084 190.276 3000.886 192.813 Q 3001.688 195.351 3002.483 197.754 Q 3003.279 200.157 3005.451 202.288 Q 3007.624 204.419 3010.433 205.886 Q 3010.335 205.815 3010.290 205.786 Q 3010.246 205.758 3010.187 205.718 Q 3010.128 205.678 3010.255 205.758 Q 3010.381 205.839 3009.456 205.252 Q 3010.506 205.414 3010.334 205.383 Q 3010.164 205.352 3010.231 205.360 Q 3010.298 205.368 3010.638 205.368 Q 3010.979 205.367 3011.102 205.380 Q 3011.226 205.394 3011.905 205.295 Q 3012.585 205.196 3015.424 203.691 Q 3018.264 202.187 3030.421 195.682 Q 3029.850 195.136 3029.279 194.670 "></path>
    <path id="STROKE_28c3add3-bd78-43a0-bf55-7a7351f09665" opacity="1.000" fill="none" stroke="#48d1ec" stroke-width="0.905" stroke-opacity="1.000" stroke-linecap="round" stroke-linejoin="round" d="M 2999.851 187.305 Q 2999.851 187.305 2999.773 187.372 Q 2999.695 187.438 3003.897 187.272 Q 3008.099 187.106 3013.775 187.828 Q 3019.452 188.549 3022.985 189.001 Q 3026.518 189.453 3030.637 189.814 Q 3030.601 190.191 3029.908 196.179 Q 3030.322 195.111 3030.736 193.987 "></path>
    <path id="STROKE_9c471652-a1f9-41f3-a5c0-0d64ab6d3aa5" opacity="1.000" fill="none" stroke="#48d1ec" stroke-width="0.970" stroke-opacity="1.000" stroke-linecap="round" stroke-linejoin="round" d="M 3030.007 190.907 Q 3030.007 190.907 3030.020 190.907 Q 3030.032 190.907 3030.272 190.932 Q 3030.888 191.428 3029.490 197.112 Q 3028.093 202.797 3026.656 207.372 Q 3025.220 211.947 3024.162 219.026 Q 3024.786 218.922 3025.983 216.319 "></path>
    <path id="STROKE_3c84af23-af74-4266-a1a1-4c9103426cf2" opacity="1.000" fill="none" stroke="#48d1ec" stroke-width="0.872" stroke-opacity="1.000" stroke-linecap="round" stroke-linejoin="round" d="M 2995.363 218.095 Q 2996.271 217.767 2995.992 217.884 Q 2996.958 217.632 2996.814 217.679 Q 2996.670 217.726 2997.073 217.613 Q 2997.477 217.500 2997.306 217.593 Q 2997.136 217.686 3002.387 217.012 Q 3007.638 216.337 3010.394 215.694 Q 3013.150 215.050 3015.560 214.950 Q 3017.969 214.849 3019.590 215.174 Q 3021.211 215.498 3021.814 215.737 Q 3022.418 215.975 3023.681 216.495 Q 3024.944 217.015 3029.958 217.052 Q 3029.842 217.185 3029.544 217.412 "></path>
    <path id="STROKE_183dd82e-9c2a-4f0c-a67c-ce0054e818bb" opacity="1.000" fill="none" stroke="#48d1ec" stroke-width="0.679" stroke-opacity="1.000" stroke-linecap="round" stroke-linejoin="round" d="M 3110.093 249.233 Q 3110.479 249.987 3109.464 247.357 Q 3109.439 247.357 3109.390 247.357 Q 3109.812 248.003 3108.461 253.933 Q 3107.110 259.862 3106.173 262.779 Q 3105.236 265.695 3105.055 267.275 Q 3104.873 268.855 3104.367 271.422 Q 3103.861 273.988 3103.539 275.609 Q 3103.217 277.231 3102.673 279.444 Q 3102.129 281.658 3099.975 287.686 Q 3099.975 286.847 3099.975 287.034 Q 3099.979 286.174 3100.000 286.357 Q 3100.175 285.758 3100.256 285.403 Q 3100.336 285.048 3100.515 284.381 Q 3100.694 283.714 3101.421 281.827 Q 3102.149 279.941 3102.744 278.644 Q 3103.339 277.346 3103.641 276.436 Q 3103.943 275.526 3104.236 274.665 Q 3104.530 273.805 3104.561 273.791 Q 3104.591 273.778 3104.659 273.494 Q 3104.727 273.210 3104.875 272.600 Q 3105.022 271.990 3104.993 271.842 Q 3104.965 271.693 3105.444 269.793 Q 3105.923 267.893 3106.363 266.355 Q 3106.803 264.817 3106.927 262.408 Q 3107.051 259.999 3106.870 258.581 Q 3106.688 257.162 3107.891 255.182 Q 3108.218 254.783 3106.835 259.906 Q 3105.452 265.028 3104.068 269.078 Q 3102.685 273.127 3101.657 275.690 Q 3100.629 278.254 3100.373 279.397 Q 3100.116 280.540 3099.881 281.614 Q 3099.646 282.688 3099.605 283.268 Q 3099.564 283.848 3097.988 288.369 Q 3097.963 288.369 3097.938 288.369 Q 3097.938 288.394 3097.938 288.419 Q 3097.938 287.703 3097.938 287.742 Q 3097.834 286.742 3099.518 281.184 Q 3101.202 275.627 3102.776 270.611 Q 3104.351 265.594 3105.271 263.129 Q 3106.192 260.664 3106.547 258.307 Q 3106.902 255.950 3107.179 254.288 Q 3107.457 252.626 3107.825 251.437 Q 3108.192 250.248 3109.390 248.562 Q 3109.520 248.747 3109.548 250.064 Q 3109.575 251.381 3109.577 252.820 Q 3109.579 254.258 3108.946 256.479 Q 3108.313 258.701 3106.978 261.837 Q 3105.643 264.973 3104.056 269.414 Q 3102.469 273.855 3101.966 276.306 Q 3101.462 278.756 3101.154 279.901 Q 3100.846 281.045 3100.658 281.594 Q 3100.470 282.143 3099.995 283.292 Q 3099.519 284.442 3099.349 284.702 Q 3099.179 284.962 3098.551 286.282 Q 3098.641 285.345 3098.535 285.631 Q 3098.429 285.917 3098.725 284.906 Q 3099.021 283.896 3099.098 283.570 Q 3099.175 283.244 3100.487 280.937 Q 3101.799 278.630 3103.287 277.239 Q 3104.775 275.848 3105.783 275.221 Q 3106.792 274.594 3107.899 273.845 Q 3109.006 273.096 3109.957 272.439 Q 3110.908 271.781 3111.614 271.193 Q 3112.320 270.604 3114.446 270.483 Q 3116.572 270.363 3117.943 270.457 Q 3119.315 270.551 3119.869 270.714 Q 3120.422 270.876 3120.566 270.974 Q 3120.711 271.072 3121.073 271.306 Q 3121.435 271.540 3121.447 271.558 Q 3121.459 271.576 3121.426 271.542 Q 3121.393 271.508 3121.590 271.654 Q 3121.787 271.800 3121.943 271.946 Q 3122.099 272.091 3122.268 272.277 Q 3122.438 272.463 3122.633 272.680 Q 3122.828 272.896 3122.861 272.976 Q 3122.894 273.056 3122.903 272.945 Q 3122.912 272.834 3123.416 273.745 Q 3123.918 274.656 3124.072 275.119 Q 3124.225 275.581 3124.319 275.858 Q 3124.412 276.134 3124.554 276.772 Q 3124.696 277.409 3124.844 277.872 Q 3124.993 278.336 3125.097 279.812 Q 3125.201 281.288 3125.186 282.366 Q 3125.171 283.443 3125.098 284.310 Q 3125.025 285.176 3124.988 285.617 Q 3124.951 286.058 3124.960 286.346 Q 3124.969 286.635 3124.968 286.940 Q 3124.967 287.245 3124.955 287.604 Q 3124.944 287.964 3124.987 288.424 Q 3125.031 288.883 3125.189 289.154 Q 3125.348 289.425 3125.448 289.556 Q 3125.549 289.686 3125.546 289.816 Q 3125.544 289.946 3126.579 290.294 Q 3127.151 289.487 3127.614 288.679 "></path>
  </g>
</svg>