<?xml version="1.0" encoding="UTF-8" standalone="yes"?>
<svg xmlns="http://www.w3.org/2000/svg" xmlns:xlink="http://www.w3.org/1999/xlink" width="275.545pt" height="159.251pt" version="1.1" viewBox="-616.534 574.241 275.545 159.251">
  <!--
	Exported with Concepts: Smarter Sketching
	Version: 4301 on iOS 18.6
	https://concepts.app/
	-->
  <title>7FE6F816-A846-4230-935F-6F3E1365E2AA</title>
  <desc>Drawing exported from Concepts: Smarter Sketching</desc>
  <defs></defs>
  <g id="Fill" opacity="1.000">
    <path id="STROKE_901f1db7-6a58-4f4c-b335-cf94de25b5c0" opacity="0.340" fill="#83c3c3" stroke="#83c3c3" stroke-width="0.500" stroke-opacity="1.000" stroke-linecap="round" stroke-linejoin="round" d="M -441.665 669.478 L -440.771 669.634 Q -440.287 669.425 -437.996 669.027 Q -435.705 668.630 -434.279 668.173 Q -432.852 667.716 -431.777 667.316 L -431.325 667.078 Q -431.189 666.831 -429.899 664.724 Q -428.609 662.618 -428.015 661.372 Q -427.422 660.126 -426.271 657.309 Q -425.120 654.491 -424.352 652.231 Q -423.583 649.971 -422.627 645.729 Q -421.670 641.486 -421.464 638.527 Q -421.258 635.568 -421.392 633.948 Q -421.525 632.328 -421.922 629.377 Q -423.762 625.885 -424.630 624.551 L -425.188 623.461 "></path>
  </g>
  <g id="Pen" opacity="1.000">
    <path id="STROKE_6f193d0e-e0d8-4203-9c40-3da843591fa9" opacity="1.000" fill="none" stroke="#072b67" stroke-width="1.976" stroke-opacity="1.000" stroke-linecap="round" stroke-linejoin="round" d="M -410.577 582.404 L -410.827 581.841 Q -411.271 581.660 -412.915 581.627 Q -414.559 581.594 -415.775 582.233 Q -416.991 582.872 -417.848 583.578 Q -418.704 584.285 -419.464 585.202 Q -420.224 586.119 -421.111 586.922 Q -421.999 587.726 -422.819 590.755 Q -423.638 593.783 -423.740 595.812 Q -423.841 597.840 -423.516 599.268 Q -423.191 600.696 -421.706 601.827 Q -420.222 602.958 -417.432 603.454 Q -414.641 603.951 -410.897 602.736 Q -407.153 601.521 -404.320 598.954 Q -401.487 596.387 -399.757 593.598 Q -398.027 590.810 -397.332 588.021 Q -396.637 585.232 -396.777 583.324 Q -396.917 581.417 -398.265 580.066 Q -399.613 578.715 -401.905 578.455 Q -404.198 578.195 -405.996 578.501 Q -407.794 578.807 -409.773 580.481 Q -411.751 582.154 -412.529 582.873 Q -413.306 583.591 -415.221 585.948 Q -417.137 588.305 -417.840 590.466 Q -418.543 592.627 -417.444 595.948 "></path>
    <path id="STROKE_a137d13b-df07-4c32-9ef9-5eb2f43b178f" opacity="1.000" fill="none" stroke="#072b67" stroke-width="3.305" stroke-opacity="1.000" stroke-linecap="round" stroke-linejoin="round" d="M -428.043 623.355 L -427.693 622.630 Q -427.376 621.185 -427.457 621.367 Q -427.492 621.373 -429.075 627.601 Q -430.657 633.830 -434.575 645.689 Q -438.492 657.547 -441.296 664.754 Q -444.100 671.961 -446.538 676.859 L -445.649 675.011 "></path>
    <path id="STROKE_62a03a3b-a510-4ead-8703-7b10f86e078d" opacity="1.000" fill="none" stroke="#072b67" stroke-width="2.856" stroke-opacity="1.000" stroke-linecap="round" stroke-linejoin="round" d="M -410.407 625.327 Q -410.090 625.579 -411.564 622.989 Q -411.448 622.953 -408.980 627.125 Q -406.511 631.298 -404.557 635.387 Q -402.602 639.477 -400.655 644.183 Q -398.707 648.889 -397.015 653.046 Q -395.323 657.203 -393.330 661.439 Q -391.337 665.675 -387.932 668.361 Q -387.302 667.461 -386.978 666.193 "></path>
    <path id="STROKE_b6b4b35b-e2eb-4b27-8975-7c6e35639196" opacity="1.000" fill="none" stroke="#072b67" stroke-width="3.477" stroke-opacity="1.000" stroke-linecap="round" stroke-linejoin="round" d="M -462.129 694.137 Q -460.736 694.160 -448.348 694.069 Q -435.960 693.978 -423.735 693.954 Q -411.510 693.930 -405.698 693.967 Q -399.886 694.004 -396.070 694.051 Q -392.255 694.098 -390.418 694.131 Q -388.582 694.163 -387.493 694.191 Q -386.404 694.218 -378.957 694.389 L -375.065 694.497 "></path>
    <path id="STROKE_8cf185af-3c6a-4ab3-ad7c-cd5ade4fda30" opacity="1.000" fill="none" stroke="#072b67" stroke-width="4.288" stroke-opacity="1.000" stroke-linecap="round" stroke-linejoin="round" d="M -392.552 682.924 Q -391.318 683.336 -391.149 683.399 Q -390.979 683.462 -389.641 683.986 Q -388.303 684.510 -387.808 684.706 Q -387.313 684.903 -385.379 685.657 Q -383.445 686.412 -379.654 687.909 Q -375.863 689.406 -366.386 693.553 Q -356.909 697.701 -354.869 698.839 Q -352.830 699.977 -351.106 701.280 Q -349.382 702.584 -347.893 705.030 Q -347.939 705.306 -348.321 706.067 Q -348.658 706.717 -348.825 706.899 Q -348.992 707.081 -350.343 708.033 Q -351.694 708.985 -353.395 709.820 Q -355.096 710.654 -359.757 712.461 Q -364.417 714.267 -367.016 715.173 Q -369.614 716.078 -371.947 716.885 Q -374.280 717.692 -374.943 717.923 Q -375.607 718.154 -379.104 719.351 Q -382.602 720.548 -384.687 721.251 Q -386.772 721.955 -389.144 722.757 Q -391.516 723.559 -394.273 724.483 Q -397.031 725.407 -397.136 725.451 Q -397.241 725.494 -399.506 726.210 "></path>
    <path id="STROKE_1f088f13-48d2-4199-895b-3f3002e1343a" opacity="1.000" fill="none" stroke="#072b67" stroke-width="4.098" stroke-opacity="1.000" stroke-linecap="round" stroke-linejoin="round" d="M -462.584 714.933 Q -461.532 714.997 -460.965 715.063 Q -460.399 715.129 -452.976 715.617 Q -445.554 716.105 -441.135 716.347 Q -436.716 716.589 -427.814 716.841 Q -418.912 717.094 -413.495 717.129 Q -408.077 717.164 -403.141 717.127 Q -398.206 717.089 -395.537 717.055 Q -392.868 717.020 -388.980 716.981 Q -385.092 716.943 -381.485 716.861 Q -377.878 716.779 -372.175 716.624 Q -371.471 716.569 -369.181 716.407 "></path>
    <path id="STROKE_581fda72-6d16-45ca-8ce8-542334d20282" opacity="1.000" fill="none" stroke="#072b67" stroke-width="17.149" stroke-opacity="1.000" stroke-linecap="round" stroke-linejoin="round" d="M -606.479 589.999 Q -601.948 592.486 -597.365 595.014 Q -592.782 597.543 -588.744 599.897 Q -584.706 602.252 -582.517 603.592 Q -580.328 604.933 -576.219 607.573 Q -572.110 610.212 -568.304 612.813 Q -564.498 615.413 -560.089 618.586 Q -555.679 621.758 -550.951 625.290 Q -546.223 628.822 -543.727 630.785 Q -541.230 632.748 -536.228 637.083 Q -531.225 641.417 -528.414 644.580 Q -525.603 647.743 -524.478 649.605 Q -523.352 651.467 -522.884 652.555 Q -522.416 653.643 -522.198 654.325 Q -521.980 655.007 -521.815 655.732 Q -521.651 656.458 -521.627 656.816 Q -521.603 657.174 -521.676 657.908 Q -521.748 658.641 -522.041 659.836 Q -522.334 661.031 -522.470 661.435 Q -522.605 661.839 -528.458 669.063 Q -534.310 676.288 -539.269 680.142 Q -544.228 683.995 -546.723 685.740 Q -549.218 687.485 -558.388 693.282 Q -567.558 699.080 -571.488 701.337 Q -575.418 703.594 -580.491 706.323 Q -585.565 709.051 -588.956 710.773 Q -592.348 712.494 -594.023 713.314 Q -595.699 714.133 -596.719 714.613 Q -597.739 715.093 -599.858 716.064 "></path>
  </g>
</svg>