<?xml version="1.0" encoding="UTF-8" standalone="yes"?>
<svg xmlns="http://www.w3.org/2000/svg" xmlns:xlink="http://www.w3.org/1999/xlink" width="307.198pt" height="307.684pt" version="1.1" viewBox="-101.638 461.947 307.198 307.684">
  <!--
	Exported with Concepts: Smarter Sketching
	Version: 4301 on iOS 18.6
	https://concepts.app/
	-->
  <title>7FE6F816-A846-4230-935F-6F3E1365E2AA</title>
  <desc>Drawing exported from Concepts: Smarter Sketching</desc>
  <defs></defs>
  <g id="Fill" opacity="1.000">
    <path id="STROKE_06e46853-5626-44e3-93e3-a32197d6522a" opacity="1.000" fill="#c2326b" stroke="#c2326b" stroke-width="0.500" stroke-opacity="1.000" stroke-linecap="round" stroke-linejoin="round" d="M -97.538 565.254 L -97.633 565.967 Q -97.471 566.394 -97.344 572.635 Q -97.216 578.877 -97.237 582.869 Q -97.258 586.861 -97.269 589.722 Q -97.279 592.584 -97.223 598.224 Q -97.166 603.864 -97.031 610.673 Q -96.895 617.481 -96.941 621.175 Q -96.986 624.869 -97.073 626.984 Q -97.161 629.099 -97.289 631.853 Q -97.418 634.607 -97.504 637.072 Q -97.590 639.537 -97.682 642.597 Q -97.775 645.658 -97.855 647.938 Q -97.935 650.219 -97.953 651.290 Q -97.970 652.361 -98.010 653.404 Q -98.049 654.448 -98.126 656.114 Q -98.202 657.781 -98.205 658.240 Q -98.208 658.699 -97.965 661.257 Q -97.721 663.816 -97.694 664.082 Q -97.667 664.348 -97.262 666.051 Q -96.857 667.755 -96.690 668.117 Q -96.523 668.479 -96.168 669.135 Q -95.813 669.792 -94.139 672.438 Q -92.464 675.083 -89.580 678.933 Q -86.696 682.783 -85.701 684.068 Q -84.706 685.353 -82.882 687.689 Q -81.057 690.025 -77.452 694.831 Q -73.846 699.636 -70.782 703.241 Q -67.718 706.846 -65.407 709.165 Q -63.097 711.483 -62.095 712.391 Q -61.093 713.299 -56.542 717.178 Q -51.990 721.058 -49.346 723.355 Q -46.703 725.653 -43.818 728.355 Q -40.933 731.057 -39.828 732.091 Q -38.723 733.124 -37.930 733.854 Q -37.136 734.584 -34.606 736.936 Q -32.075 739.289 -29.918 741.263 Q -27.760 743.236 -26.311 744.537 Q -24.862 745.837 -22.734 747.758 Q -20.607 749.678 -19.118 750.902 Q -17.628 752.126 -16.257 753.076 Q -14.886 754.026 -13.886 754.656 Q -12.887 755.285 -10.765 756.558 Q -8.644 757.831 -6.642 758.741 Q -4.639 759.651 -3.592 760.011 Q -2.545 760.371 -1.217 760.781 Q 0.112 761.192 0.702 761.337 Q 1.292 761.482 2.934 761.755 Q 4.576 762.028 5.482 762.159 Q 6.388 762.291 10.619 762.679 Q 14.850 763.068 17.351 763.236 Q 19.852 763.404 25.026 763.958 Q 30.199 764.511 32.850 764.797 Q 35.501 765.083 37.932 765.236 Q 40.364 765.389 46.376 765.503 Q 52.388 765.616 55.555 765.625 Q 58.723 765.633 62.358 765.722 Q 65.994 765.812 69.034 765.910 Q 72.074 766.008 75.344 766.113 Q 78.615 766.218 83.139 766.198 Q 87.664 766.179 91.509 765.851 Q 95.354 765.522 97.213 765.211 Q 99.071 764.900 100.211 764.654 Q 101.350 764.409 106.745 762.608 L 107.297 762.107 L 107.531 761.879 Q 108.444 761.265 109.369 760.542 Q 110.294 759.818 111.434 758.772 Q 112.574 757.726 113.842 756.423 Q 115.111 755.120 117.912 752.233 Q 120.714 749.346 122.647 747.485 Q 124.581 745.624 125.919 744.426 Q 127.257 743.229 130.475 740.540 Q 133.694 737.851 136.424 735.478 Q 139.153 733.106 143.123 729.684 Q 147.092 726.262 150.625 723.355 Q 154.158 720.448 156.676 718.212 Q 159.194 715.976 167.602 707.282 Q 176.010 698.588 179.687 693.816 Q 183.363 689.045 187.580 683.063 Q 191.798 677.080 192.693 675.561 Q 193.588 674.042 194.040 673.176 Q 194.491 672.311 195.330 670.413 Q 196.169 668.515 196.218 668.419 Q 196.267 668.324 196.930 666.509 Q 197.592 664.694 197.876 663.692 Q 198.159 662.689 198.267 662.175 Q 198.374 661.661 198.427 661.230 Q 198.479 660.799 198.900 653.011 Q 199.321 645.223 199.487 639.021 Q 199.653 632.819 199.844 629.768 Q 200.034 626.717 200.466 622.160 Q 200.897 617.604 201.203 613.405 Q 201.510 609.206 201.691 603.820 Q 201.873 598.433 201.961 593.858 Q 202.049 589.283 202.100 587.100 Q 202.150 584.916 202.109 580.978 Q 202.068 577.040 201.750 574.467 Q 201.432 571.895 200.210 567.979 Q 199.812 567.425 199.307 566.621 Q 198.803 565.817 198.586 565.525 Q 198.370 565.232 195.552 561.773 Q 192.734 558.314 190.777 556.163 Q 188.819 554.012 187.415 552.424 Q 186.010 550.836 182.052 546.457 Q 178.094 542.079 174.392 538.350 Q 170.690 534.622 166.611 530.614 Q 162.533 526.606 157.518 521.446 Q 152.503 516.287 146.705 509.517 Q 140.908 502.747 137.956 499.142 Q 135.004 495.537 132.268 492.465 Q 129.533 489.392 127.763 487.466 Q 125.994 485.539 121.881 481.394 Q 117.769 477.249 116.266 475.841 Q 114.764 474.434 113.747 473.555 Q 112.730 472.676 112.449 472.442 Q 112.168 472.208 111.148 471.468 Q 110.128 470.729 109.341 470.267 Q 108.553 469.805 107.166 469.254 L 106.490 469.131 Q 105.768 468.927 97.929 467.602 Q 90.090 466.278 85.188 465.943 Q 80.286 465.608 72.973 465.447 Q 65.660 465.285 59.936 465.499 Q 54.213 465.714 50.979 465.943 Q 47.745 466.171 45.621 466.367 Q 43.497 466.563 38.640 467.004 Q 33.782 467.446 28.302 467.574 Q 22.822 467.702 21.937 467.683 Q 21.053 467.664 18.803 467.623 Q 16.553 467.581 13.784 467.527 Q 11.015 467.474 7.777 467.399 Q 4.538 467.323 1.208 467.267 Q 0.974 467.319 -1.593 467.127 "></path>
  </g>
  <g id="Pen" opacity="1.000">
    <path id="STROKE_f61b2d86-ce45-43a2-ae76-210cc27289c2" opacity="1.000" fill="none" stroke="#ffffff" stroke-width="6.033" stroke-opacity="1.000" stroke-linecap="round" stroke-linejoin="round" d="M -6.761 589.621 L -6.228 589.108 L -6.001 588.645 Q -5.781 587.643 -5.776 587.253 Q -5.770 586.863 -5.754 586.733 Q -5.737 586.602 -6.350 585.366 Q -6.964 584.129 -8.992 582.608 Q -11.021 581.087 -12.872 580.418 Q -14.723 579.749 -16.095 579.498 Q -17.467 579.247 -19.761 579.118 Q -22.055 578.989 -23.944 579.066 Q -25.834 579.143 -27.544 580.375 Q -29.254 581.607 -30.020 582.794 Q -30.786 583.980 -31.014 585.787 Q -31.243 587.593 -30.999 589.542 Q -30.754 591.491 -28.774 595.342 Q -26.794 599.193 -23.609 603.584 Q -20.424 607.974 -18.471 611.442 Q -16.518 614.910 -15.614 616.959 Q -14.710 619.007 -13.825 622.518 Q -12.940 626.029 -12.850 629.151 Q -12.761 632.274 -12.757 634.154 Q -12.752 636.033 -13.859 638.995 Q -14.965 641.957 -15.980 643.810 Q -16.994 645.663 -18.719 647.451 Q -20.443 649.240 -23.423 650.263 Q -26.402 651.286 -30.927 651.494 Q -35.451 651.702 -39.178 651.648 Q -42.905 651.594 -46.434 651.564 Q -46.466 652.053 -46.371 652.623 "></path>
    <path id="STROKE_ca241753-c827-4bde-abc7-cdee25a5823f" opacity="1.000" fill="none" stroke="#ffffff" stroke-width="4.879" stroke-opacity="1.000" stroke-linecap="round" stroke-linejoin="round" d="M 20.033 579.169 L 20.833 579.074 L 21.023 578.946 Q 21.315 578.829 21.573 579.094 Q 21.830 579.360 21.808 579.435 Q 21.966 579.942 22.069 587.089 Q 22.171 594.235 22.163 600.231 Q 22.156 606.227 17.212 649.021 L 17.917 645.055 "></path>
    <path id="STROKE_902545b9-bf16-4829-9bbe-24420d0a5922" opacity="1.000" fill="none" stroke="#ffffff" stroke-width="5.055" stroke-opacity="1.000" stroke-linecap="round" stroke-linejoin="round" d="M 14.316 579.490 L 14.487 579.618 Q 14.771 579.697 15.449 579.872 Q 16.127 580.048 19.747 580.162 Q 23.366 580.275 25.945 580.265 Q 28.525 580.254 30.275 580.275 Q 32.025 580.297 47.940 578.525 Q 48.080 578.417 48.291 578.269 "></path>
    <path id="STROKE_690cfb15-939b-4d8a-9fd4-9398221cc5b0" opacity="1.000" fill="none" stroke="#ffffff" stroke-width="7.351" stroke-opacity="1.000" stroke-linecap="round" stroke-linejoin="round" d="M 77.078 592.627 Q 76.704 592.010 74.041 593.032 Q 71.377 594.054 68.772 596.386 Q 66.167 598.718 64.846 600.169 Q 63.524 601.620 61.981 604.561 Q 60.437 607.501 59.682 609.749 Q 58.927 611.997 58.358 616.049 Q 57.789 620.101 57.814 622.753 Q 57.839 625.405 58.275 627.730 Q 58.712 630.055 60.133 632.878 Q 61.555 635.700 63.167 637.575 Q 64.780 639.450 66.563 640.671 Q 68.345 641.893 70.966 642.827 Q 73.588 643.762 76.748 643.865 Q 79.908 643.968 83.164 643.160 Q 86.420 642.353 89.315 640.725 Q 92.209 639.096 95.193 636.657 Q 98.177 634.217 100.570 631.075 Q 102.964 627.933 104.114 626.269 Q 105.264 624.605 106.259 620.813 Q 107.253 617.020 107.389 614.229 Q 107.525 611.437 107.456 608.945 Q 107.387 606.454 106.906 603.821 Q 106.425 601.188 105.263 598.983 Q 104.101 596.777 103.306 595.838 Q 102.512 594.899 100.970 593.631 Q 99.428 592.364 96.670 591.404 Q 93.911 590.443 91.238 590.385 Q 88.565 590.327 86.482 590.863 Q 84.400 591.400 82.341 592.816 Q 80.282 594.232 77.831 597.174 "></path>
    <path id="STROKE_17868e7f-32b8-4ac7-acc7-28fb61eb73f2" opacity="1.000" fill="none" stroke="#ffffff" stroke-width="4.877" stroke-opacity="1.000" stroke-linecap="round" stroke-linejoin="round" d="M 141.550 587.439 Q 141.562 587.489 142.246 587.419 Q 142.294 587.373 142.461 596.029 Q 142.627 604.685 141.575 615.074 Q 140.524 625.463 139.790 630.554 Q 139.057 635.645 138.557 639.234 Q 138.058 642.822 137.522 645.589 Q 136.987 648.356 136.144 661.086 Q 136.144 660.854 136.667 655.629 "></path>
    <path id="STROKE_c752ed42-5be5-45bf-a54f-1d62fbc781a5" opacity="1.000" fill="none" stroke="#ffffff" stroke-width="5.766" stroke-opacity="1.000" stroke-linecap="round" stroke-linejoin="round" d="M 143.157 598.913 Q 143.171 598.888 143.799 597.896 Q 144.427 596.905 146.237 596.544 Q 148.047 596.182 149.776 596.420 Q 151.505 596.659 153.333 597.424 Q 155.161 598.189 157.231 599.659 Q 159.301 601.128 160.812 603.312 Q 162.322 605.497 162.870 607.748 Q 163.418 609.999 163.061 611.821 Q 162.703 613.643 161.741 614.787 Q 160.779 615.931 159.088 616.672 Q 157.396 617.414 152.972 617.282 Q 148.548 617.150 141.565 614.243 Q 141.654 613.836 141.997 613.332 "></path>
    <path id="STROKE_c451d3cf-5212-440f-8f36-ef0282d5b439" opacity="1.000" fill="none" stroke="#ffffff" stroke-width="7.772" stroke-opacity="1.000" stroke-linecap="round" stroke-linejoin="round" d="M 0.726 488.352 Q 1.749 488.452 5.843 488.674 Q 9.937 488.897 12.007 488.995 Q 14.077 489.094 15.386 489.158 Q 16.694 489.221 17.000 489.250 Q 17.305 489.279 20.730 489.462 Q 24.154 489.645 30.177 489.823 Q 36.200 490.001 39.342 490.055 Q 42.483 490.109 44.175 490.122 Q 45.866 490.135 53.704 490.106 Q 61.541 490.077 68.083 490.040 Q 74.625 490.004 83.368 489.961 Q 92.112 489.918 93.625 489.919 Q 95.137 489.919 96.531 489.927 Q 97.924 489.936 99.400 489.974 L 103.465 489.893 "></path>
    <path id="STROKE_17025827-1019-49b9-9e92-d818e65e5153" opacity="1.000" fill="none" stroke="#ffffff" stroke-width="6.825" stroke-opacity="1.000" stroke-linecap="round" stroke-linejoin="round" d="M 104.869 491.236 Q 107.164 493.967 108.077 495.077 Q 108.990 496.187 110.118 497.583 Q 111.247 498.980 113.468 501.742 Q 115.688 504.504 116.824 505.894 Q 117.960 507.284 120.014 509.757 Q 122.068 512.229 123.395 513.722 Q 124.722 515.215 127.165 517.808 Q 129.607 520.400 131.085 521.923 Q 132.562 523.446 137.395 528.439 Q 142.227 533.432 146.764 538.213 Q 151.300 542.994 153.571 545.502 Q 155.841 548.010 158.247 550.792 Q 160.653 553.575 161.489 554.567 Q 162.324 555.560 164.164 557.765 Q 166.004 559.970 168.249 562.793 Q 170.493 565.616 171.841 567.307 Q 173.188 568.998 173.246 569.085 Q 173.305 569.171 174.858 571.105 Q 176.411 573.040 178.041 575.049 Q 179.671 577.059 181.201 578.986 "></path>
    <path id="STROKE_f8e878fe-d927-40b6-ae1d-173b26549239" opacity="1.000" fill="none" stroke="#ffffff" stroke-width="4.383" stroke-opacity="1.000" stroke-linecap="round" stroke-linejoin="round" d="M 182.157 579.490 Q 182.168 580.283 181.795 587.310 Q 181.422 594.338 181.162 599.422 Q 180.902 604.506 180.696 608.427 Q 180.490 612.347 179.938 623.361 Q 179.386 634.375 179.216 643.830 Q 179.045 653.285 179.142 657.774 Q 179.239 662.264 179.467 665.727 Q 179.695 669.190 179.914 671.079 Q 180.133 672.968 180.284 673.996 Q 180.434 675.025 180.660 675.719 Q 180.885 676.413 181.588 678.775 "></path>
    <path id="STROKE_9b47af77-895e-44fd-9b71-464a1b1a2d5e" opacity="1.000" fill="none" stroke="#ffffff" stroke-width="4.078" stroke-opacity="1.000" stroke-linecap="round" stroke-linejoin="round" d="M 175.688 678.897 L 174.814 679.951 Q 174.189 680.947 169.180 687.482 Q 164.171 694.017 161.298 697.569 Q 158.425 701.121 156.790 703.056 Q 155.156 704.991 150.967 709.741 Q 146.777 714.492 143.996 717.549 Q 141.214 720.607 139.373 722.616 Q 137.532 724.626 135.717 726.544 Q 133.902 728.463 131.710 730.716 Q 129.517 732.970 127.073 735.342 Q 124.629 737.715 123.148 739.082 Q 121.668 740.449 118.880 742.828 Q 116.093 745.206 114.083 746.759 Q 112.073 748.313 111.570 748.649 Q 111.066 748.985 107.880 751.069 "></path>
    <path id="STROKE_09c32c08-302e-4efe-b4ef-8070b9e999ad" opacity="1.000" fill="none" stroke="#ffffff" stroke-width="5.475" stroke-opacity="1.000" stroke-linecap="round" stroke-linejoin="round" d="M -4.279 746.705 Q -2.973 746.817 1.336 747.149 Q 5.645 747.480 14.676 748.026 Q 23.708 748.572 31.331 748.843 Q 38.954 749.113 43.106 749.182 Q 47.257 749.250 53.377 749.326 Q 59.496 749.403 62.912 749.445 Q 66.329 749.488 73.220 749.528 Q 80.110 749.568 83.619 749.528 Q 87.129 749.489 91.332 749.495 Q 95.536 749.501 98.135 749.474 Q 100.733 749.447 102.678 749.373 Q 104.623 749.300 105.754 749.275 Q 106.886 749.250 114.736 748.506 "></path>
    <path id="STROKE_0630ae9e-0adb-4888-9caf-f18e658b03e9" opacity="1.000" fill="none" stroke="#ffffff" stroke-width="6.466" stroke-opacity="1.000" stroke-linecap="round" stroke-linejoin="round" d="M -68.506 682.041 Q -68.116 682.487 -67.331 683.315 Q -66.546 684.143 -63.884 686.858 Q -61.222 689.573 -55.500 695.042 Q -49.778 700.510 -43.574 705.734 Q -37.370 710.957 -33.960 713.643 Q -30.550 716.330 -28.893 717.628 Q -27.237 718.927 -22.717 722.321 Q -18.198 725.716 -14.150 728.777 Q -10.101 731.838 -8.899 732.691 Q -7.696 733.544 -2.110 737.327 Q -1.849 737.460 1.621 739.595 "></path>
    <path id="STROKE_dd9894cd-6ba1-477e-8998-5e65a0693aca" opacity="1.000" fill="none" stroke="#ffffff" stroke-width="3.966" stroke-opacity="1.000" stroke-linecap="round" stroke-linejoin="round" d="M -86.633 570.838 Q -86.491 571.792 -86.444 572.732 Q -86.398 573.672 -86.044 578.017 Q -85.690 582.362 -85.087 588.358 Q -84.484 594.353 -83.137 605.105 Q -81.790 615.857 -80.637 623.337 Q -79.483 630.817 -78.805 634.910 Q -78.127 639.003 -77.460 643.474 Q -76.794 647.945 -75.975 653.554 Q -75.156 659.163 -74.713 662.011 Q -74.270 664.859 -73.838 667.244 Q -73.406 669.629 -72.834 672.106 Q -72.262 674.583 -71.350 678.338 Q -71.315 678.428 -70.174 682.422 "></path>
    <path id="STROKE_9a8d42d5-c17f-4082-85a3-995f9d8fc437" opacity="1.000" fill="none" stroke="#ffffff" stroke-width="4.337" stroke-opacity="1.000" stroke-linecap="round" stroke-linejoin="round" d="M -83.175 570.518 Q -82.164 569.221 -78.648 565.389 Q -75.131 561.558 -70.586 556.552 Q -66.040 551.547 -64.306 549.632 Q -62.572 547.717 -58.995 543.759 Q -55.419 539.802 -50.514 534.382 Q -45.610 528.962 -40.889 523.943 Q -36.169 518.924 -33.764 516.472 Q -31.359 514.020 -30.205 512.856 Q -29.051 511.692 -25.400 508.155 Q -21.749 504.617 -19.894 502.898 Q -18.039 501.179 -13.993 497.578 Q -9.946 493.976 -7.631 491.927 Q -5.315 489.878 -1.519 486.586 Q 2.278 483.294 3.795 481.974 Q 5.313 480.654 5.871 480.091 Q 6.428 479.529 8.864 476.939 "></path>
  </g>
</svg>