<?xml version="1.0" encoding="UTF-8" standalone="no"?>
<!-- Created with Inkscape (http://www.inkscape.org/) -->

<svg
   xmlns:dc="http://purl.org/dc/elements/1.1/"
   xmlns:cc="http://creativecommons.org/ns#"
   xmlns:rdf="http://www.w3.org/1999/02/22-rdf-syntax-ns#"
   xmlns:svg="http://www.w3.org/2000/svg"
   xmlns="http://www.w3.org/2000/svg"
   version="1.1"
   width="1052.3622"
   height="744.09448"
   id="svg2">
  <defs
     id="defs4" />
  <metadata
     id="metadata7">
    <rdf:RDF>
      <cc:Work
         rdf:about="">
        <dc:format>image/svg+xml</dc:format>
        <dc:type
           rdf:resource="http://purl.org/dc/dcmitype/StillImage" />
        <dc:title></dc:title>
      </cc:Work>
    </rdf:RDF>
  </metadata>
  <g
     transform="translate(0,-308.2677)"
     id="layer1">
    <g
       id="g3045">
      <path
         d="m 367.04803,633.72916 c -24.97619,-29.90557 -50.14878,-41.53507 -85.53675,-57.80452 -36.18905,-14.00043 -76.60215,-12.74178 -114.21141,-6.04214 -10.2276,1.93797 -28.90591,11.62276 -32.45993,13.31131 18.7096,-11.07362 -14.98805,9.12227 -16.79365,19.31446 -22.353458,33.00281 -16.02872,82.09071 16.23854,106.37214 29.01668,23.86172 64.50868,43.95199 103.38118,40.78481 28.9369,-0.0584 56.32124,-10.77025 81.20216,-24.77068 -15.98112,9.11943 21.84289,-15.41514 27.60252,-21.90931 40.03097,-32.18287 64.72533,-81.12531 111.31754,-105.52436 42.43823,-24.28533 94.09026,-38.82005 142.65998,-27.32983 33.53259,10.08558 61.92348,34.47358 80.29565,63.86576 14.88778,28.55949 17.50942,69.80442 -10.07825,91.83927 -22.01149,23.6272 -53.38281,40.75982 -86.53688,37.35772 -28.12091,-1.91923 -56.7072,-7.35305 -80.638,-23.11311 -22.099,-8.59017 -41.49418,-21.78142 -59.99679,-36.36088 -28.00113,-20.9069 -49.1797,-47.48507 -76.09088,-69.66194 11.60358,-13.58623 19.74429,-2.00049 29.51551,7.91096 24.18277,23.38594 47.80454,47.57547 75.92257,66.31758 19.72439,15.4365 43.94286,23.6303 65.76355,35.64515 32.99062,10.06009 71.30859,17.66674 103.79376,1.99849 -22.51982,13.86116 12.25606,-8.0867 16.99543,-16.71833 27.80937,-23.70699 22.71608,-67.92279 4.1482,-95.74476 -25.69295,-35.77079 -67.88634,-63.2448 -113.44635,-58.86026 -33.27468,1.3862 -65.86526,11.49813 -95.15085,27.1186 19.54033,-12.2467 -21.44139,15.1378 -27.43724,23.87826 -28.8385,31.13328 -54.51633,65.9823 -90.48471,89.61901 -35.67741,25.74415 -78.329,46.10466 -123.40623,42.76281 -38.97716,-1.51532 -73.46184,-24.72519 -100.93244,-50.67323 -36.644888,-36.9601 -22.632028,-107.20472 24.76155,-128.25477 25.83172,-16.75657 56.55511,-22.82875 86.98181,-22.15035 39.90429,-2.33361 79.59513,10.68331 111.01486,35.27857 18.88903,13.17921 32.0258,24.0486 51.2608,40.28842 -4.21842,2.58505 -15.43683,-1.3299 -19.65525,1.25515 z"
         id="path2995"
         style="fill:#0000ff" />
      <path
         d="m 113.69257,597.77543 c 9.08114,-9.63935 17.26644,-20.53727 29.14765,-26.92614 14.64953,-10.61343 28.88305,-21.8349 43.82739,-32.0144 4.47189,-2.73892 23.98939,-13.76655 9.85808,-5.72107 14.95282,-10.90296 30.82976,-20.52341 47.89365,-27.78612 15.48783,-8.461 32.1179,-14.78969 49.67842,-17.15453 27.03683,-4.03102 54.61723,-3.85981 81.82687,-1.89297 9.7467,1.2654 19.41621,3.27927 28.87826,5.92164 -3.98863,1.79492 -7.35812,7.51881 -12.03191,4.86679 -27.05435,-7.40783 -55.37532,-6.40142 -83.12647,-5.37193 -24.07978,1.36076 -48.42736,6.12994 -69.56937,18.22872 -5.18122,2.49699 -17.58213,8.46761 -18.73069,8.78701 12.86412,-7.98295 -6.03695,3.9459 -9.64768,6.86069 -4.00832,3.21655 -17.24322,10.59495 -17.57305,10.76418 11.21525,-6.60686 -7.57516,4.37171 -10.16809,7.23493 -14.05744,10.62791 -28.10084,21.32977 -42.79637,31.05099 -7.56874,6.49036 -12.68149,16.54247 -21.84185,20.7125 -1.87487,0.81328 -3.75033,1.62619 -5.62484,2.43971 z"
         id="path3004"
         style="fill:#0000ff" />
      <path
         d="m 630.60545,597.01105 c 9.08114,-9.63935 17.26644,-20.53727 29.14765,-26.92614 14.64953,-10.61343 28.88305,-21.8349 43.82739,-32.0144 4.47189,-2.73892 23.98939,-13.76655 9.85808,-5.72107 14.95282,-10.90296 30.82976,-20.52341 47.89365,-27.78612 15.48783,-8.461 32.1179,-14.78969 49.67842,-17.15453 27.03683,-4.03102 54.61724,-3.85981 81.82684,-1.89297 9.7467,1.2654 19.4162,3.27927 28.8783,5.92164 -3.9886,1.79492 -7.3581,7.51881 -12.0319,4.86679 -27.0544,-7.40783 -55.3753,-6.40142 -83.12649,-5.37193 -24.07978,1.36076 -48.42736,6.12994 -69.56937,18.22872 -5.18122,2.49699 -17.58213,8.46761 -18.73069,8.78701 12.86412,-7.98295 -6.03695,3.9459 -9.64768,6.86069 -4.00832,3.21655 -17.24322,10.59495 -17.57305,10.76418 11.21525,-6.60686 -7.57516,4.37171 -10.16809,7.23493 -14.05744,10.62791 -28.10084,21.32977 -42.79637,31.05099 -7.56874,6.49036 -12.68149,16.54247 -21.84185,20.7125 -1.87487,0.81328 -3.75033,1.62619 -5.62484,2.43971 z"
         id="path3004-0"
         style="fill:#0000ff" />
    </g>
  </g>
</svg>
